<mxGraphModel dx="1358" dy="850" grid="1" gridSize="10" guides="1" tooltips="1" connect="1" arrows="1" fold="1" page="1" pageScale="1" pageWidth="827" pageHeight="1169" math="0" shadow="0">
    <root>
      <mxCell id="0" />
      <mxCell id="1" parent="0" />
      
      <mxCell id="b2f48072-0d34-11eb-a445-79dba1f6157b" value="" style="group" vertex="1" connectable="0" parent="1">
        <mxGeometry x="20" y="12.5" width="300" height="215" as="geometry" />
      </mxCell>
      <mxCell id="b2f48073-0d34-11eb-a445-79dba1f6157b" value="" style="rounded=1;whiteSpace=wrap;html=1;fillColor=#D5DDE5;strokeColor=#EBEBEB;fontColor=#D5DDE5;" parent="b2f48072-0d34-11eb-a445-79dba1f6157b" vertex="1">
        <mxGeometry width="300" height="215" as="geometry" />
      </mxCell>
      <object label="" id="b2f48074-0d34-11eb-a445-79dba1f6157b" Type="label">
        <mxCell style="group;fontFamily=Comic Sans MS;fontColor=#FFF11F;" parent="b2f48072-0d34-11eb-a445-79dba1f6157b" vertex="1" connectable="0">
          <mxGeometry width="300" height="60" as="geometry" />
        </mxCell>
      </object>
      <object label="Thing"   Type="Tier" id="b2f48075-0d34-11eb-a445-79dba1f6157b">
        <mxCell style="rounded=1;whiteSpace=wrap;html=1;arcSize=0;fillColor=#195190FF;strokeColor=#6c8ebf;fontFamily=Comic Sans MS;fontSize=22;fontColor=#FFFFFF;" parent="b2f48074-0d34-11eb-a445-79dba1f6157b" vertex="1">
          <mxGeometry width="300" height="60" as="geometry" />
        </mxCell>
      </object>
      
      <object label="Termostat" Type="ThingNode" id="b2f48076-0d34-11eb-a445-79dba1f6157b" Tier="b2f48075-0d34-11eb-a445-79dba1f6157b">
        <mxCell style="shape=image;verticalLabelPosition=bottom;labelBackgroundColor=none;verticalAlign=top;aspect=fixed;image=data:image/png,iVBORw0KGgoAAAANSUhEUgAAArwAAAPUCAYAAABPaurAAAAgAElEQVR4nOy9TZIkuZZm9wFq7hGZ773urmoKpxThhLvghCJcAskx98D1cMoBV8ARF8FtcNDV9TIzwk0VHOBe4BocUFXPLpFuSp0jEuFmaqr4V+DDxZ8EAAAAAAAAAAAAAAAAAAAAAAAAAAAAAAAAAAAAAAAAAAAAAAAAAAAAAAAAAAAAAAAAAAAAAAAAAAAAAAAAAAAAAAAAAAAAAAAAAAAAAAAAAAAAAAAAAAAAAAAAAAAAAAAAAAAAAAAAAAAAAAAAAAAAAAAAAAAAAAAAAAAAAAAAAAAAAAAAAAAAAAAAAAAAAAAAAAAAAAAAAAAAAAAAAAAAAAAAAAAAAAAAAAAAAAAAAAAAAAAAAAAAAAAAAAAAAAAAAAAAAAAAAAAAAAAAAAAAAAAAAAAAAAAAAAAAAAAAAAAAAAAAAAAAAAAAAAAAAAAAAAAAAAAAAAAAAAAAAAAAAAAAAAAAAAAAAAAAAAAAAAAAAAAAAAAAAAAAAAAAAAAAAAAAAAAAAAAAAAAAAAAAAAAAAAAAAAAAAAAAAAAAAAAAAAAAAAAAAAAAAAAAAAAAAAAAAAAAAAAAAAAAAAAAAAAAAAAAAAAAAAAAAAAAAAAAAAAAAAAAAAAAAAAAAAAAAAAAAAAAAAAAAAAAAAAAAAAAAAAAAAAAAAAAAAAAAAAAAAAAAAAAAAAAAAAAAAAAAAAAAAAAAAAAAAAAAAAAAAAAAAAAAAAAAAAAAAAAAAAAAAAAAAAAAAAAAAAAAAAAAAAAAAAAAAAAAAAAAAAAAAAAAAAAAAAAAAAAAAAAAAAAAAAAAAAAAAAAAAAAAAAAAAAAAAAAAAAAAAAAAAAAAAAAAAAAAAAAAAAAAAAAAAAAAAAAAAAAAAAAAAAAAAAAAAAAAAAAAAAAAAAAAAAAAAAAAAAAAAAAAAAAAAAAAAAAAAAAAAAAAAAAAAAAAAAAAAAAAAAAAAAAAAAAAAAAAAAAAAAAAAAAAAAAAAAAAAAAAAAAAAAAAAAAAAAAAAAAAAAAAAAAAAAAAAAAAAAAAAAAAAAAAAAAAAAAAAAAAAAAAAAAAAAAAAAAAAAAAAAAAAAAAAAAAAAAAAAAAAAAAAAAAAAAAAAAAAAAAAAAAAAAAAAAAAAAAAAAAAAAAAAAAAAAAAAAAAAAAAAAAAAAAAAAAAAAAAAAAAAAAAAAAAAAAAAAAAAAAAAAAAAAAAAAAAAAAAAAAAAAAAAAAAAAAAAAAAAAAAAAAAAAAAAAAAAAAAAAAAAAAAAAAAAAAAAAAAAAAAAAAAAAAAAAAAAAAAAAAAAAAAAAAAAAAAAAAAAAAAAAAAAAAAAAAAAAAAAAAAAAAAAAAAAAAAAAAAAAAAAAAAAAAAAAAAAAAAAAAAAAAAAAAAAAAAAAAAAAAAAAAAAAAAAAAAAAAAAAAAAAAAAAAAAAAAAAAAAAAAAAAAAAAAAAAAAAAAAAAAAAAAAAAAAAAAAAAAAAAAAAAAAAAAAAAAAAAAAAAAAAAAAAAAAAAAAAAAAAAAAAAAAAAAAAAAAAAAAAAAAAAAAAAAAAAAAAAAAAAAAAAAAAAAAAAAAAAAAAAAAAAAAAAAAAAAAAAAAAAAAAAAAAAAAAAAAAAAAAAAAAAAAAAAAAAAAAAAAAAAAAAAAAAAAAAAAAAAAAAAAAAAAAAAAAAAAAAAAAAAAAAAAAAAAAAAAAAAAAAAAAAAAAAAAAAAAAAAAAAAAAAAAAAAAAAAAAAAAAAAAAAAAAAAAAAAAAAAAAAAAAAAAAAAAAAAAAAAAAAAAAAAAAAAAAAAAAAAAAAAAAAAAAAAAAAAAAAAAAAAAAAAAAAAAAAAAAAAAAAAAAAAAAAAAAAAAAAAAAAAAAAAAAAAAAAAAAAAAAAAAAAAAAAAAAAAAAAAAAAAAAAAAAAAAAAAAAAAAAAAAAAAAAAAAAAAAAAAAAAAAAAAAAAAAAAAAAAAAAAAAAAAAAAAAAAAAAAAAAAAAAAAAAAAAAAAAAAAAAAAAAAAAAAAAAAAAAAAAAAAAAAAAAAAAAAAAAAAAAAAAAAAAAAAAAAAAAAAAAAAAAAAAAAAAAAAAAAAAAAAAAAAAAAAAAAAAAAAAAAAAAAAAAAAAAAAAAAAAAAAAAAAAAAAAAAAAAAAAAAAAAAAAAAAAAAAAAAAAAAAAAAAAAAAAAAAAAAAAAAAAAAAAAAAAAAAAAAAAAAAAAAADw/z/Sf+4AwH/5/Pi//k+965/+W+2//1X/8N9ISlLZpeOQ9h/S80Paf0ofv0vPH9L+u/T8Xfr5W/1cirR/1GtHqY7mh7S9h79v0vaobitJylLOkjZpy/V72uxZ++04unuqt9Tvx0lsLOzlkJIV/2JuHId07JLczWJh2aU99csK95Rizxe73d0v1Q9/xQ7zU5LKs34uya4d0r53v54/7Xd3R/X74d+fFk4P/17d0ofFb6txKbukZ03D8qzP5kf1r7ife/1dlnYp1fuSpc9h8UvJ4mzhUerpd3xYPHKPT7I887gnTydPQkubtJn7nq7m527uyP1+r9dzqXm/P2uZU65x8vB5/pe9+3WU6k+2eO7P6lf26i9J+b3+ff5Rw76ZHy0fLZ1TltKjhzltlh4fFt/D4nnUMn0cPf08TNubpbmVieNpaZGlkqUt9fKS33o+K7+Wr2x5dew9LB6f7dHjun2zvPzoYSj23/ZW/SxF0s96X7IyJFl8/ZqX92fNg8c3vbJX/1K2cihp2ywtNnvnQpnIqf5LycqvxTPbs2mvf/PWip62N0vz8A6m1P1LCu4dNa9k+ZEszSUrM7m67e9VtvQvFu+cqnvlsDBZWD3dFfI/W3kvRw23cg1jfqv12/609LZ0LVYmY/n3MHkexTJ72PvVkimknSz/Uqi3/Hq7/9GvRdp7beVPx2uZTan752WmHPXaUaRiZcaf8bKXLY56s/Tau//HR09vWdrlt/oO5rca5/fv0uMv0uNX6fFe8/3bLzUt02blO0s//kn68R+lb//1/5P+h//prOIH0OM/dwDgv3zS88dD79v/rvL473UcvXLPkg5rNIpVznmTyqNWXI+HVN6rMEkmbrLVSV6ZSiaerZHcNrUG6sj1/t39C431kWuFe5goyiaUjlDpS0OD4S2iC+UU7t2rADxM7NVABjEcxFqx+4M3tSEI9xwf6kLSBa612i7Mj72GpQmJEoRa+fyvNU5bFUXNT29ETQwcxRqE6Ic34LnGs1g4mmhwIWJxz9ZS7j/tdxMuHod2f5H0LaTt3gWcJ0e2MB0fPf3egihqItUEQSk9HB62lGq4vczkTXr/xQSIue/ptJsYylvP95Kr2y5gokhM9nvO0m7COkl6PC2Olt7J0tM7AZL09l6FkHce8maipfTymD1ssnyxzo7UOxj7bnlncdxyj+vzafF8WJw+6rUc0iKFsioXRy4o3izeTzVR5p2xvNW/xy6Vb5Ymubvl6etiTyFv2m+W1t6Rip2/nHvZdreTp+VQF+Q3C2Mo697BCEVVOUvpvb9T2cuSCavtTU1wVg+CSC39Wjrs3oflaQrhs/gkK9M189qjve7w8FtaFw9vkZJ1bFKqnYPk8fL82V6Fc6sTQ+fAxf8Wf28ed7/bexl/9/C7ODb/ivr77R2REt6HctQ4p63ngQvdcgQhvte63uv1wzvVoax42W91X6odsOOw+sCFuXVctzfp7U16fK9C9/FWrz/MIJI3ew9yj2/enkrl30r6TQAnIHjhkuf+obf8Viu3YuLJG3+ZZcEbgaG+bRay41CtyIv/YFYPs4hkq2B3b5xl/4WG3y09XnG6IE3qFephv9ujzcQRG/BmxU09PEXq1ja7169Fq1SzhOy9wS4eb/9epONnaKitwdzdYuWNsQVyf74KsSOkURMxFqfjo4sJ/72JBG+sXHxGAVS6uyVYwzwNjiNYtPZXI7lbDj2ebj1OjxBOVQFRguXZhaY3hJ4dyt2tsvcOVLQmN6Hk1vhHCJ8s/0Nj7BbDlGt58rxu4Y/W4lBmyrM2oMXyxi1l+dE7Oa1zEdJ9s/AcwYqfTTw/j562OalZ11OSnvtrp67kYB3bzQJvna9tC4LPy8WzxueReseiZ5SlWxA5Lc/9nwtPz0+3DrpoMmHt5aV1So9QZtTzyHGrswsw/8nTzC2FsVOYXm6q6eTlw/O5WS4HN9zK2KzJsczYqEaKfvg7Gsqmvy8e7xTDagK4lZ8S7jOR1uISxa+q31kh3c1qXzxu+TX8XoZSdMPLVQh3zOpW9q0ceIdh/7D6OIf0swcPr3+C+A/FtxoCpN6Z99En7wD4vS5+XeAGC7xMyCYTpUeqdWHxDp2Vv+zCP9TP5aN2LvVmVt/U9HArV/4+eMdkMwu6Nqy7cAmCFy557k8pvVtF4w1QxK01R9dYsu8uYpoVYasNgDfALkq94fEGOg5LeuvZLBxR7AyiN04v8LC1xjJ1sSaZ+9YIpE3SR298XtzxhtYbR4XfgjiWhcHjXn7Yfd6Alm71OzyOsoY+NErH0cWgxz1aq6LAdwuvCxgPn4vqZNMdyrM3GJ5+JTQ4TeCo++lp70KniYAgIlrehTRwa1XLT0//GBcPtz9kVqJm6Q7u5YfatIwmsn0ah6VFs/ioCsUmnj2Ylkatk5V645+TVDaz0qoLUp82oz2ks4nzWA5VzCKrnuY+5Bqt0vGvC/UP+/3xVvN+S9UfD2fJ1W2Paxs2t2Hgw0TKpl4e8lt1c3cL2qbX90Fmec7dMu7TNlyMeRlyXHQVs3pvVh8ch+r0Fy8vwZu01d+yC8Sji/CUughs5eLo+VQGt1pnJUxL8HJV/Pmi/r6U8H65NdtF6mGdE+tIeJq4NbUJ+9TTWtbJbfVS6XnYVFl4b9u78OjutDCqi1FP2+SZ6O+hWd5bHRjLm8fb08jd9LorXPO8bdOhQhqpWP5YGI+jd75bhzoI7VY3F71Mt9p/qE2ryqET7HVtG4Vyce4d2LfXMHrevEwri/msAbuet9NJbAAOghcueR7laPNpm2XDK+PUhZZX4nHIV7LvwcoUhasL5TYU/AyNoFmG29xEu94sOW51Co1BnDrQhnW9YUmvz0lqDanPQ21x8wZWr59dAFUH1UVn6WEZ3WnDvKU9UuPpjUl5FR6tQVHwS5/D7Q1ctFq+3Lt3f3PqVstoBY5WOR/+9+97Mcvp1uMqs+z6/N6Ytt42l6dU3NpsQ7f7U9Kzp4EH1i3AcmGUbP6u41YsaziPZx9+bs6Exvnp85J70FpHq+Wh6lCrC5m9dOts2et3n2JxqE8vaIJhr1N2fZh1/6hhzrKyap2EfTdBYWnr8zdbWdmkRw5TMNQFVn50cbhb/m025P/xs78HbgWL5X//MKt1uOdwsWhxbJ1I9ffXf2udpkcXeMlGdVyL7HtNw5afQUQd3nGwS7u9M7HT08phUrOop1yfbe+sXW9i3wWojzh45yXWFQ+bFhMEVJvjewR3TOz5HFwv3l6WW8cyit6XF0zdSpteLndL7faaN7EuypuCh+FZS2eFNHc3o1vN4hvL5q6XutDd/jTS4XlvQrRZ8j1/Qjq1cEhtjn2b3qRuqW0jeKmHx9MmWtkVRnPccus9Np8S5x1cv7eFIb0Eq6XD9jj2UE0CrEDwwiV/fPyQ9De1hqJV4C6cFIRkELxHuFbM4ujzCPXeK+my29qp997A7h+qAknWiJk1YP9dKmY9i8JSCsJSasOSTQSrWwFf5piG+Bwf4bvUF4q4GJRe5st5vJV6WpStW0nyo4sHF8qt8pdZlIKVxue4tkpe/fnq+Wv4XixYCg2Bh9GHq6U+dK7Xxsj99nmjTSTb3F9fSNhEf5KKWQ5TsvbTG0Cf4iL1qQ3DnNfYoDdrYQhbtu8vc5pNtL00phaW/HhdEPRhZeLxFsqkavjSo84r//jo8Zb9FofRfe5vKvV+t0KX1MXcm1WdPue2BT51offwsrzbtWQCwaeM5K4B9qP61YSM/ZCOavlOIb3e3s1SFoW6CVofOXAh4kPrLrhKCK8L+aeL0ShsbYFbfldd+Ji7Rc7ne26q/vk80COI2ia0TRS2OfZH77C2EZdQvBXC67S89ws+KhMF2mbvd7D8+xQXJTULZMsrqXVeWufP0y0Iq9ipfRGd6SWITSR6x887PaWY1d7S1euSpFCvWNg9TiXkl6Q2Rzni0yq8Y+YL8g6fe6vuRt76vW45Vgkd2SOkYekd3/Zbek1vny6hD7V5yjnUGV5nJp8qZOXH56Gnh3T8rGW4LVSz37fNylnuZTKHzy9zlEsrR8dLXgDMQfDCJftzl6SjD725wLT/XLQeRxeqzw9b5e6LprwCNStAeXZh2KwvP9WH590inKQUdwHYw5CfW6MeavNY5e5ltV0L2pDd3i25bcjdh1GDEG5ulC6adxMY8qFzF5vqbjUBbmIvzl19md/rnQDvFJiz6VHD54vm2sp1/x4sM0U9LD6k7+K3WUK8IS/9X9uBwHYVeFnUl/Qq7u17a+zN4hLnpLb5rUGgRetT25nA89WSI+e+E4MvxioWx6yQn7k+uweRnU0oNqtU6mn4vlV3231BBLrYe/dFbpYWh+WLD79vWdL33gGJ+ey7hjze++I/qV7Lj5522cqbi6j06EO1b+/V4vq08vb4LmWbm5uy7dJw1HA93tWt/WZpfLxXK2959s5GtjL7eHShtB89Px6W5s+4GMuEzcOtjWGO/Lb1Dujh6RzKWbT+6agdjDakb2nvHZWknk7eofHytnn++e9u1cz9WrIwuVBu80B9B4vSw/LSP7R0KHso5/ZuuoW1vReWZ8kFm9VJKasm3mj1DF67mB13QCgW1/gOxtGCZn2NAju8v95593RpnWNPmyDWWyeiRb6GyeNT9j5a43E7rMy23VR+9vc6durbnJnSRXyrk6yOltTmOsdpWHE3GV/3sHl8Yocl1zzf9/ouFJvH7tOcpJ5mzfBindK96NifPwVwAYIXLtmrpfN4WTwi1brtULDguZXTKjpfrLbvYTGFLVxrUwj23nD5ohxXGEWqVqsPqfysDb3PMXTx4FMAakj1qTFoItTmgJbQSLRhXLeSKIhha9SaCHahaiLIrbdNCFn8WydA/V6v1KPV1YWvN967ieu2IEa1sYpWTZ9OEFfDu6D3xjJo/uq+p7EPT/vvj1c3JLXFPtvWLZnjPN82NG3zH6OIdSHR5h26YPA0CeHVXoVWcaFbgsVJVWTF+ahZtUFU6SLbw+M7O7TpGWZx9FXduzfknnYyoWWNf9siy9zxObyHxenxpmZCenvvHZa39yAiQqfExdzjzcqbCdmnid/tXXWRZqr5/tjUVvNHofVwy7YP7Vr+Pw9brPOtvwc5hTnIXq3v/X3xcvTwzqHCe2D+bdY5ONyqbvdsj16eWocm6WXOtS8gOj7MuuthsA6Sx8fTaXsE67j0Ml+4LTjzguxF0D5v3glw63Lu5d/j1UZXQgfdO6ptiy63Ntt74gsCffeLJrito9PKsJdr63T770XV0ukBzlKf72sROkI82gjMIelNnyy7cVpUs7q6IA3iNyfrELrbIQyHlwO75GneOvOW3pL69oZtLkr/vdV1R3O6TZE6flj+PF7djaNvbWTN6rbs28vZ1C6lKnSPrb9f7kb75+k5kLfjl//xfz6k/+XzbwABBC9c8sfPDze3vjYCrXIzceP1p88ZdRHYhvtLb2y9YTmkvjPCo1fmzZJrja/P7/NG/Dh6Q91EbBTKobJ9fkjJrXVHbxTcwtgsl+6meuXaLNrRsqnasMe9J5tV00hSmxvnc1SjH8Vv8oo8NHbNQmcC1BvbbGGIljUXsc3qZdsE7X/UZ7bNLHTR+uVDkM+eFlup9yVVf9o8TBP/bRqBDx0H8eoWVafYKm1PGnerpY13StxibeXpMAFbklnCbMuvpNBAmuXHrVrJLK6tMTWLvTfseVMVEy4e3D2bL+hzb9veobvaLiTffg3awcrv21sVnGW3KQje2ShdwKaP0MGwtEybddhUy43vP+1bablobe+EpenmQtBFiaVv3oLlWyak/X2wcvn43i1/z48ahrdNOh5h9MELu+Vl+ejTh6LgzCZW3cKq0FH1spuzlKyD4mIpPdS2EPN3xC3AcU5mMT/a6MzerYCS2kInf1+LWwZlItOf9Xx/dDEV1wwkS8sXMZ3VdonxRE7fqgCT13EuBO0+72i3PaD9nbBrPjIThWlSL/NuDY+jNPL6JuRLG0nae73qVZ1Pn2hzy2NippB29v6+zPn39+3oZbuFzed4e1nyOtjipEcPU/IpCEe/t00Nsbh5uZHt3NDmaluc2qhOSKs2rcXDZvXbS/r4x8GyDrAAwQuX/Hf/6/8m/d//x9EErGxRkhRErvoHPzjgUK9I24p36aXX70OmqdTGti2AK70BSrmLHZ8/KKk3ciZcWzii+HSR7Y2ZR+Po/kthOM/nnXnDauKpBMtzc9uH81IQRhaXI1phPCgu/Fy8evpYmKP4aW6HjkRb7e4Nn/ndW0Bz3oSz75G5lS5K4x6r+d3uf9ZG5+GWHLOOtiFSF2PvIUxuuUyvAliyBi9YjaJIbgum3qroyiEffRFN6zB5+qQuAH3/zzZX1DpOLph9iDbtodHN/f62fZlNP8hPE7u+EC9sqdS2PFO3pKYsfQt569bgvVRxuhVJ39VGFKIJ3Bd+egegDS+H+aVlr6K0iTcr9245Pw7p7VsXtr5dm1tIvcO42+b+m1nhXJRsD5sy8WHXvRMRrMrNqq9eBvJmRmYTKklV3Epqc4ljeWlzbpP6ULf9aSLeysboj8/3b+XKieI1dAx9oavMbR8p8PBFt9vIjvTSOfBpNbuvG1AX2G1eqpWbJrjdDRPFHt+2WFNBRFs597RwZ31Up3ji5Nf7w2vV6pk2pakMyRPEs78/bq33jnTspLeDV+yd9yk1L3HOn9PD4+xTEjbrXBwfvTPgI1ItXp5vofPQdupx4S51gR2JYt7zz4R62x4T4BoEL9wjLkaJVp1mpfEKNlgRfHi5DfN5j15hyNx+KuauD30lSb7IwoVOSSaivaEMjVecWxtbCZ8j+2LNCt+LW25dMPtwr9+6d7Hjzx72Ywr+xLDE7bJag+TDytZw7s2hIUzWULR5gV65+1QQF61HiLN3KNya4tYqHz7cqvXPhbDPL21596a2pVB5dmuxZA2SW6fsHu/weAPbwhk6KXFv4rjPaBuaPPr8Tak3+m3I0q3XJvyyutDZPO28ITXraTtMZDexY423C/uU6kKyJn497J6FWTq+q4n4JuBMFKYQhsOEkU8fePdnUnjOBGqO14K4b1ZzLy9Sm8PqowNentuCULvmCx7jsLE/l1MVsD6V5fBh472Xpf1b/X5YXvo72kZY7LO719Lo0e9rf71zlnu42lZenu8+vcKC23Y9aEonWP+8LLlb7r9bU73Ta1u5NQtyHK1Rr3/iNCZP+9Zh8HBaBmxv4T7L+3Zam5d39WfcytpGvBRwgRu++3sdF8d5WFv9FURvrLdaWg/lJoW8a2XLA5JDHZR6fF9EtKWHGxbaXOgoUtV/d8GZ37o126/5LhvNTYtgK6api1x/d32HjrgTxmHvTksbT6hDraMtqW19B3ADBC/cI+WjDeO7ZaVNZwhiVbLKzCpOn9flQ9BHUV3dK9UGzBr+UrpQ822FmkVSr6KzNZxesdtCnBfrTQ9OWyQXh/v83rYNU3n97cVy4MJ1iK9vWZRDg+lbakWrjYfVK/uSVIfzvEEI1tw2dCi97Esah189XVpjVdSG4ePOENKr0PKGuZ0udnQx0+bRPaqV8qURDg2XsrrlbEib1ggHceBhOEI6tT2bQ0OV1C39rYG1odN2IEPp0wNiHru/vrirbWEU42EPxI6YLO39/rYllvrf2HlqoiAUriasQlp5XvqBFk3AhLLVFgIFWnkfOpOtrFq6lqI2vza+Oy08eSjX5l3rzCW1Y4bL4EYMQ1uAFyyHioLs+Gw1fUnTWC+M6Zh6Grd3fbTA+rNHj1fMw6JevuNc4hcLsydBKItK6sPsMY89b73za+9JS8Ctd16igGvXvGOXe5haeTL3m1dBGcepB1HceRziGoCXNPK6Rj1PyqE2raTNDw7vSwuL1UU+qpJU3zevG+IivBSekUJ8Q576KE7aezooqU5v8vnNsc5NNjoSRHh+2FSmOLVkjHNRO3Ja2S3YwUoBsAbBC/co6Xjd2Nwq4N0tbap/fc9P31e3NVIKVqs39W3KQiPY2kUfSivB6aNXpK2Bk5roHRdXtQMvolCIAjZMFXgxy3gDGwWPxdevl+GRl5OSvOELYqbFPQg8H/L34b0kfZrbWLb+vXhaqvsVhXFrEIJobA1b/O5p7QItxH+01jcLT7AIxTBI3e0S3G8iOIi7lg+eeCFvPeO9XL2UBReJXoZCh6JZ2P2fiwKfRxqGlmOYo5vRetV2VPAHPM1t6oCnVZyvHN0pJXR+hnB7XF8sgUNavliyooAcOg+t/MVr4V3yeeg+z11S28dY1vl4OSnQf/P77d0bLeCtI+OfrbzG+atxuDxaIpPULXNB8Hv6tDwc/IrCMaZjSzOFMhjcfhHDR/jNiYLX09i9Pnr+xC3pYgc85lErF+p1XCSK+xcVHu77FL/S729xDL+9jFgFP49wT5b6lJFwb5sKFa3sMWxu6Y1xjJZfc7Z1Moravttx+sqx93fRF336XOy09fIat49r26ilMGLi5bS8/u0nxv2zAG6A4IWbHL/1IWy9Nii+2KY18m59tEfbkbdS26rJFyu0Ie/Sn/HhySaa1Bv66kgPlleI7XdvyAYx4J+jOPkkHMLn1si4cEpqC5RctEhqw51NVG7qe10G99peknEoNIopb9Tj7y423QIThvyi6I3xcJHY9uaNArr056KlrLlnlr0cxbo/H4VLvL+EtOiPvYjvtj9yeU1j/xiFiQuNItUpMIPVLVoXYxijFTCm04v1NalPK4kBLjXOOasPmys8n8O8UxcKkaS2LVizPnq+m2Y/HjYAACAASURBVABo70J8h7YhPRWmk0RhGNLjZerH0f3yDmFLFvuw27z3I7wDhxnEfK56yx+fNrH3MLc8mYi4KJqacFW9lhXesSHNi/QyHSh2tKKoCknT/GjRC1MdXqy8Lo6k1w6u1y9eN4Ry6/enKKw8zKEei53IKEg97F62k9Sts/7Znmlz9/2ZYZTDT2Vsieli3YNQhs8hzj6lRep5Ob6TbRpHKPstj7zu8niGusOn+cT0ydFNu6cdv+5epFD2cvOyTqHxsp3VRnMOe+bh/qp3Qtt7VXrd86lzCLAGwQv3SNuh8rNWXj5vy/cA/fDtfHzj/BSErX3erdHdrbFte9HavMIivUyN8Dq/zelT/03qf9tXfy40eE28xgbDRWYUG+68W3RixW5kF+iD6HuxWPpCrtlwuLrg8gbFG1TfwikO9TahaUIsh8a3ibjgf7SkvVh/BlHbpjZYPKOgfbHGWXiixfJl6yjpRQy8WHdDwyupqzDv9IQOgosQF0FxqDQmb/d0fu0lrz0OQWS1oAerVjza1vPHG/0Xy3LqHr5Y67ogKCnZYEO9v/j1kqrhWKVGLWUlv8eSa9RULw37S3nzYl1qTpbSd4cth1Icoi+HcjlUjl1ptLAfexe7vjWedzxL+KekfkiCh0k9TYp6+EaB5B0AD3xbQKg+L9jFv4I7PjVH0sshCTGvvRPVpgEpvKv22yH7zeOs/rkcoXxOBGTzysLfLIvqcW3pMbwzHu1YTl+E+VCoS3C4naqWan3jWxVG/2M4W0c/jLLFkxSTujGhWfA9Turp3OIQ8u9F8A/5NcY1jh54/XPYtAOvC9r2Y8aR1HfesFGC7a0+sz+l8k2tzvEO+Ja6YcXj4wefANwAwQv3SPn5Mk3AK7rZmY7NUnTUzfWfH3b86ofaFmTtkAp9Fikvlp/QqDTREgWa6j1tQ/wo9sprW/nSbvqzh14atk/D3UHguPUl3vOywKuEOHg0BgHZBIBZNeJCwGZlzHo5jCEH0dsjYPe5UIiN7mAVbeHewu9jXCcCr1lLy2vjZ7+/nO7bGvAjaJSQBy+Ns/3WREoK30vwYySUhXG+c0uDmG+pp4vnYTjRqpjQLaoCNaWsYmK3NNGabbe2OsRb0mb3VoG756Rk+X1YGtUQlOqeBasaw5IOt+p9sjLHz+Wl6KaUVEqxqFlHxQRPUbH1ZsX0RhUYSV24prIr2eK/bKvgs4nbbPOpUxMpw9zfaL1vx+yGdyKGPR5K0cq+509uOdjKk7KSXwmjDaXtFGB5UmqMd5XubDjWOrnDbV5rCSI+lKsmEkMZbAkdK4fw86esKeEd8R9CfePv5Cf30vA35OPnHlwPu0Kcmli1bQ59Wlbco9fr1jZd5dnr7GblPkKcUw9+mxsf6wNLn5a3MWG8PNiiX5/a5fuPN7FbusGjzWm3lyI9+5qBthWaxdnnOXsGx+0IW70ySzuAOQheuMfhRz+5JWG3rY9GK8NhlVuRnn9IP3+rG/8/f3bB64chtMZj63N+VYJ1yHr3fk8TYRoaHYVKWnqZn1qGytk/vywsUb/eBO4R/FUQT9YItIYuWqliWMLnFytq7iLX45RzPaTA4+p76b7c61MbupgowbqUxjBa43eYHDuauHJhpyq+lMx4nSRt9aksFROTVfgVpfToSWlWluICxChSE18ehGIPVWukfa7lyZ6pB/j570Vp0ny5AMqvaSt14ZVSlUgmMlO7r+Zzi3/KOlJSKsninGzjg1zjGixbJXl6pZZWTbi1NH4d9j0sXWRh6CWjdxBq0UrVmHmUGh6LdVG1BOfio7s9RVKy35R0qCiZhTcdRTkVS38XD0cVySoq5VA2MZzMuplt2lA+diUV5VJ/KyaMkotlJZVyNNFdc8Lj7ZLJ4mnxKJY+TfiXYPFuGiaWU+mlw2Z7ERd7z6rYT0EWFtv5r/TqwsKdi1SKWbV1KB1JuRQV2yGmzlrYLS3qv9LqgNTclppnpg272G/vmgvCrhjb/d2YmbwU9tkm5lfvwPTnklTD5VeiWG8O7MP87GiVD3Wr39esvG6IUHczRtTTPuaNd2CiUG/Wc9V2wA8Z2m37xqdUt600Y8hu/j4/9HJ6YUp26uMuPY5q2X37RXp8s+O4bWqNH3jiR9C3zqwHqe13CXAKghfucvQWYO+V6/G0Ss9OMTsO6eOH9OOfpR+/ST//Lu0/rLLze8LpOilJj6K2KCs/6n6wySyc/i8l9VXEfq+6FTTF1sk/lNCKuOXA+CSWpc8b0qf+L25D9NJAxOE0u95WYKfBDdXwRyuux8VOBSt5U8kPlZR1uBU4m0hzi6FZhItbfVJSCnvhHi0sVQAcLhYsHVzIKVeBlmyxlls0S/b76327qiD0+KdorSslNPBJuTX+et3xK6lZ6upIdGyjSnMnhXxpI7merC1uZhu0e9smFUo2bSAp5yoKXSB6nGup6M/2fDYLrRvBggUzm5VXSkq28f+rqKlhOAbhUjVc6BiYnybdVaxjli1/SinNGL/Hflqp91S3XQQeoWtgHcfjqGmUPF9KE1CemFuToT4Foiiri0V5WIsJZXWdlUp5SXOfbtkM/z3n23tUiqd4MtHahbNS0q6i/BqTFoY66t1irCOl193TTKxuLgyLl7ujuVGOw+Ln1mw14ZeKdU8O9cJaSkvDGKak1DsYsY4Id/R+tofYi5Z3fI6a2u1dsTCn1JY12FhBfSct5bN1HOuoQmlTCHKzaFunxw/mKfFfCdPHouU3CGB/F3wLvdCxa4K77ebido/S63vf8WPf6+fHuxk4ntJuHQXfd3d/qm99mKQ9S+mjGkW29+rXZns+P+z0ucN39bGeYElq2yLWsP+TAG6A4IW7/HMVtocd7Wpi92lW3v1D+vhNOn6a4P279PF36eOPauk9bGNyt+62eapv9d/2XivK7d02xzeLpx8KkDfVfR9t2zI/KODTVkWuWHxofWi54qKnONw6DuvXH7o4DY34yzD6y9DuIHRdArS5uakNiVfB/qZj2+q1vKnk3ATvYRZvv/ewOZB9qN2ER+phjiK1y8nSwlgtlX0o3QWIggA8mrCqIrcaUuxaa+hTsIq5L0kubNr1sGL9RR5Yw12aBctcKKm3vVIXRu052f7+yYRgyCoTHFWUhN+jn0GSKcnEvv2WXMC/5qkLrxgDt2C6pVUyURkKWutkhGeqyLHf1cN/mPU0mUIq4YlqsC09f+23NvvDLf5mrXymkDcWps0FsMfVQuAy89kst1Us1ikYKeSNxz90IKsEbW54XHrf00VcdaO6n9rn6ObhIr2lYxV3TYe2HkSpna+hY7HLhXsXwWqWWhOGNhe2uneYWCxN2LeSYdZstbJR+tzo4jlTmojt3ZDa4WxFJXRYuhL2Dmkt/6ntMFOaBd3j7n6WFMuX/S0yC32Na27hO16mrNR53YeyT3Fp1l4XwP3da39b76XXMb0uLV1E78WO7HbRa2L3sJG8j7cqbj9sP/DjkPZ36fmjPudzw3cbuTo+qpXXR6i2N+ntKeXfXgX5Q2pGg1Jqu5I3LLxwCwQv3KOUow+bPWxKw9GnNuw/aq/+979LP/6pTmX48bv08XutBF3weiWbk5S+WcX2i/T+F+ntvQ5n5bfau3+8Selhn9+l/F6F7mYW4CYc4zCzzDoSWxypVeYvSqgLxT5EmWyIuf7ui4za8LdMVBaz+jUBkfRpSNcssi7uS0pmtfXvQeRudbHUodQ+7+6XP1tkllz1uGVvnEsQPx43a5xTNvFQVHzIX3qx1LrIOVzUeKolBQtVT9dPbXoT9y6AgiMv1vfS0uzwRr2UZgmrd3SXP30u3UochU/zqpRujbUfmyU2hs2CezSRngaH4tSKKACqUMitrEku9Pvj9VsU+V7uYv+raqGk5nIZnwnXvZy1tApxNJr1uxQTah76KLu9c1N6nvmzLa2qCI152DsLr3nUBV4XgN4JiKMontdd0He/3bqpfsXeMSubpZcZLwOuFXvnp/SR+piR5p9PAXFL7UfrqLwKfJ++8Vq4Y8F4LduvoxjeqfBpFt2NwyRxklTivH+7z8V6CmU0qeZ1vD+ZhdYt3CqHNvkoQlE6fOpGtV4n+1wt16VPZznq95Sk3cV0qnXnbhHrIyFHm/KSy6HtOFSnLvysazSi2D2e0sdPabM1G9tbNVok2W9/rxEuP9UOikl2OMpRw1fXK5hxI/9VbW/x/FbrTj9evh2g85o/ACsQvHCP/DhqLRtOSytW8e2/1577zz+kP/4u/fxdev5Wxe7u1l2b3yWZwdSsud//Jv36D9L7r/XI1O2b9GYC9/GQ0vd63YVwepe2TUfOKlvWnjYVJe2pLyRyUdrWZSmIntjSpBqY3nhXS6xPCUipC9du5esLnZrgbtbVPl2gpCS1qQepTlcwN3xxUwm/F1sFXYeJcwtgSmYZC5a1URW1BtoVXhSCbj2SN6hdMLvxrAuh6LTJWG+TQtrZ0pSXYAxev+6sNOBSJ5t4G/REF4T2YwnPxOHzlFy1dqFQhVF5EaKydJCVkTb0ndOLyBiD23aIat+rWHLjklp4uiD9HIvOEcMZ7uqL0lIQPM3X1/vDPSNbv+mTBd59SzZPvqTcd9QNgsfTOD78IvCiIEspPJva36Lyct3DEsPtUz26u5MCk+Ifm54S/M8v7uml/EW1WVp56GXerbSHWVXdIi8rk3p550pzR6V3M14t6XpJD5/LXadyFBPkqZXZNOTv0b2RK/2aH7WDVTdVSW3OcS13Vcjusrnzti1ZmyrhXRrbwSPZfckPxzFB/LJFb/GoW+5ki8ex17JvIwn52PU4dm37U2n/aes0fq8i983E7sdP6e279GGGjXLUUcDn79VAEvd/1qN//pnMsOHGjSq6a2W4SXmvfy2/2KUB7oLghXuUcvRjUp9ddXhNeTxt+sIP6ePDpjp8qM8p+1CttGwIa3uT3t+lX/+d9Nd/lL79xUTttypw375V0fv2TXr8orK9qzze9NSmY8vat7qdjQvEknITtW1YPYpE9bYwirz2hAsBtxYXW6wUphJIqvNp1UVBUQ4iJIXFUd7cuPtJPrOwi5vch8RT6opDvUEuZnV5tceZq67dzOTXRyPtTm8EQ5q8CL7uQP/+gvk7XB+bF2/oX+4Nj7gIcEtatFbGHBnpaTIKyiiUstrETnumWrz6fckTy8jD9mpRcL7GXi9xcnda+o5hHdzzuLcFX+O2bpPnuzv+fBe5o7icCVG/nnP+LDotGWKn51MYBj9ef1crVjnX+dIxTk3YLstTj0srM03A5U958NIZSYM/s3R4EdXRnZev63iWUudoe2f3pVOjVueV7tBL2jYrtInLVs5lb1IJzxxHe6PjfR7ynrMmiF96hTUTfAFh7RTX69shfZiQDeM3knVCmuU51TB5flb3+jZ3MV3b/zYVJCcpP5/aj6KtHMp6avv4qe3jjz7St39IP3/U9uBhRgsV6ed/lD7+Q50n1IYV9t5x2FMfMfz4Q3q+S7tZiY+nWXt98Z1Nj3vZAhFgDYIX7lH0tL/2zyqcI/wtXgF99PldxVbYJqmtaM+pLkz79lfp138v/eW/sikNbuH9Jr1/M6vvu57bu4780P5WBe8zZ2XVHQ4OW3VfBaHNo0upC8FmZXFR5laoLlrrIqLU5n763NYktakMcouHmUG7FdgbZPWFPJ+ssKOQ8iYkiptkjaFfKvGBHgfJ5v91f+VxKkU5p/b4a6P9KshmAmpkFGGjkItuxd9Xbm8Lwbfyf3bPKBxfRVGMYxT/r+GdituTNFgJt7P0m7k/83fFnfDl1jmbi+8xz/1vFMN3/HwVdXq1rk+enaXZmfjtonce3vi3zQkOZWAmkledgbNro3+1DMWOwuey5H9H/17SoJT2PrZnch664a+1xHi1d2KtHmp10OuDe3Jx63Oy61zhXNTkbK1tunXbO+t7qSL8Zf6/etzaDh1Fej52pXLoUQ5tZdf+9l1vx3c9nmbZ/flD2n7U9RtvP6Sfb3WU74//IP3x/9rUBoUKypZyFpsi9/wpvfuBKfbXd6M4dtXtzJp84aQ1uAWCF26SfquVklfizy5wVVT3ognzuUqooJoThw1T5Spqf/0H6W//Vf33/mu18D5M9L6/S9+/6+Ptm3Zt2vOmj/xQsYMdnim17aUOt8i8mHHUw1qXhMsXBlVrazD7pPR6toV9eDX+uIL0R0abTLLtu3oj95p8QWS6W1ITsP22c0GUVRvLmdiKAuhMcKw+z55bicuR2XOrcMwsj6M7K8EyE9fj95UFcBamMf6zuKz4ilD/yjNXcY/fzzoY8Z6ZwI33r9Ksd6TyMlx/5vtZWOP3M6F8xlW5HhmnlIz+nJXTu3FbhWuWRzM3S6nv/qe6pT9l1UqRj74V86dkSSWb1SLMWZZtOWcW9lKaPbp280OdV/dBLlZX1nGUZzl0lEOPbVcqbzreDr1vP+p6i8c36fheBfDDLLx//Afp779KP/+pCmIl9UMqnqpblGxm5f0pFRstfHyzRdI/6zO+WLmeCvgUwA0QvHCPuqXNoby5qgo9btuxYf9Z5/PuP+p3+SlqRx12zrladt9+rdbdv5jg/YsJ3s3mbT3epfd37W/veuaHju2hj/SmUlS36/LDAFIOQjUuGlKrsGXWC0mvJ+F6w+CW3OQa1OfcqT3XFs2k9GqG+WSHsfm9UdBOGtKopF3Axns/LV65KZris2dCZyaU/PqqkY9uxjDMLJeze8b4rCyuV/GfWXTvWqpn379iCZyl2SpcK4E5+jv6Obu+6iBcWZhnv8c8juXjSliPn8eyepVPZ1bRnHPd5nsRl3j/XaEb4zcrf6v4n7l/N43GvP807ePEjVX5PvO7u+n1jv9uk0vaCW4y1ey7X1fh2KtQm9b14oJsGpt31GXiuT51lLqY7ZkeUnnqcex6bpse26Pu1PC0+vzxVsP3xz9K3/8q/fxuC91+eCTUbNbHT+n4oz77/C4dv1Sh+/C92B9StjZFZvEFuAGCF25RlPc22FVNDbVyLUXS3jcd14eqtdfuNRGprLoA4fFeF6V9+4v0l39frby//pu6uCGlujDt2zcdbw8900NHMstuydpzCvujphehqDDzzRcX1eG6ceizdFEapjr0RtHd+dwwzQRiSx/3b5y+cMMaNfPH3Txr6CLj/NAzsbMSKWeN9hiuVXhHf/z7mQA88/cszjPxNwvrXaEyxmF2fZb/q2kVq7Cu7juzwn7F+rwSnqM/Z/k5hiXGP5bpVfm+U27dnyh2x87O7P74PV67I17H98Qt16v4jX6vytOVZXrVyTvL15VfKaWWZmdh6O64jPXOdRum6uFx91LqhoL4fqVqEUhWt7p7R/LFcEVPPWzXmEP5Ww6LCh990dqv/yh9/zfSb74F5UcNTtsfWKpGkp/13/7DDCjffAuyelPcZ3ixBgBgBMELtygpHa0KzY+6x+LL/KoPtWkO2lWnL8i0o83h3XIVvZsJ3m//Rvr2typ2H9+qiH5k6e2h5/bQrjc9bRcGn6ub4vGtwRQRt0lqFXaw0F5Zwfy7zN0r68tL2twQDHcbtCuL4+ewzkXBquEew3kVl/H6GO6VdXYmYq9E0Eogr9LoLE/OhNDM36+I8tmz0Z/Z/WdlIlo6Z0JzFJhfsfKu7rkSW6uOwZkFeubuWccp3jMK6CtRPorU0b9V52vlZ2RWpmdi9yq9YrlavT9X7/hVPfSV9y+48vmzp1Gy6V4phUVvMuNx6ldSap37unC4KJekp5KSnnpm6f3trVambgx5+0X6/hfpm01f2/65tgmHTLyaGPfDiQ4XvT/rtAj5gUNPKX2zcIVpdgAXIHjhFqUcz7o34iPUL8kWrT3rvxKum0WgnmGr2vPPyYTvo05h+P4X6f2XuorX92rcsp0stumZskrxPWtzXyxj1oe2K4NbI242RvHarJGM178yjDpemzXOs3vOrcbXjeKVqFiFaebOmSjy71cLhsbnz4TcLCxfifOZoBk/z34f/ToTyjNxMTKmwVes3jOr30rgjuFeMSu/d55bhfWO4Jul153rq3y5isP4+Ur8X+VB9POO1Xh8diao77zL0udOz+jmWbhWcTnzt19OrV7PbUFbvf4p/VsaF9t+MJuRth5hvaeHNu3a86HNT8JUqiL3/S/S+9/qSF89RaZOdYvTEto0uXigxQ/peEgKB2eoyE7a/O00UQGM9T45AIGi9LNZayWrKUv/V4qk3URtPTihHRLhlt28WSVXpPfvdR7v45udppbbvz1tOtJDUt27th0oYb7tpe+20CrikwYppdRE2uz3mYC720C9pNFJAzOKmK8yc28lyK++X1mfZ0L0SoD636v4zcT/SrzcxdMg53wp9M+4EjVnnZEz6/D4+0os33Hnirt5e8eNmG7j36uyvrJCjn6cid+r/JiFYdZBuJs3Xym/Z26ufrsjzGcW2jGMZ5x1BM7uzfnVzzzcN4appoGFyywPJflON5uOtOmQn5S51fm3j4f07Zc6qvfYpHTYVLdsh0y4USSpbmEZrb22408pw85ARSrHz9NEATCw8MItStFRrbgmO9vuDOHfoVpxvb2ZtcA3C1etyLat/33/m1l330wQ25G3eVPR1nZc8G1ySgtHt+SeWWTPBMldQbeyXp41aLNwzBqvq8ZoZik8E82r31bWwfHZq/hdiYY7cTxrtL8qdP+MMI5hm7m3stCNfp7l/9WowJnYXbkTwzMr47Mwnvn5Z0X1mQA9s35fhenqHVmV57Pt1caydhzHp/K4iuMq/2bv48zNq3y503lcuXc1WjEj7k6yegdHEb/y2zYPe/0ttYdUctZeirLqCZLVGptru5Ef1cDx/a/S41cTueEAiSP3EcFkz/oWZZsJ3qME8XtU6y/ATbDwwi1KscPPU+rDSfWXfhzk9lA76vdhRwJH622yCu79b/WEte1bOxa4uZ02HYonkOU+hGaV8Fhov2pRPLPQrIRfFBsrP2NjOWuIVkJhFr67lsoxjGOjdtbIfcUaNGNMp/Hv7J4zVvkyS8erPL9jCTsTcHdFyR2uwnvHn6sOw8rPWRzvPH9HlN/ptK2eHT/Pyo7/PhPGKxF/Z9RjfJdHN85GfOL1M9E8+zzWLat3d5UWM1Ydg/j8zJ246G3l7tgBnNH9DLt/qG4Zued6Imbb5SEnM4j8Rfrl39lx8cnaB7Pu+k49OXfjinK19jbjip3w6Wc+/qcNisC/IhC8cIsjpUMpHSpF7bS0sGOCsg9f2b+U6tYxqfTKrJ2R/pC2X/pCteQVW5KUVXKui9SUqrbWdWP9lWHMlRtxSHzWoM1ERPx+ZfGZCZaVuL7LKAhW6XDVOJ+Jv9X10a9R8I/3xPCurGBXHYWz52cCaCVMRmFxZUU7Y1YmZu6srs38mQmjmaXzLH7j87PvYxzOOlTx3qt3bAzv6ObKqju77ywcK3/uWGn/bFj/TOdlfO4szCtR/5U8mt0/E8dnHf8xXNLnqQ4TT1Vy0qGsesjx1uv4ZPX/2y9V7G5v9V9yY4esCbDPxS5kE7W+IFrFLMB27c9lB/wrhCkNcIuScp0n5YsLkvXKlfu83fxWRez+o14vbg0+JG1m5U22SO3dhLE/X906ctKeUpjCIEmvDU6b03ti3bgSXGciaNZAnDW4VyJmtJSMwm5lybvr1yzuo9sry/OZMFilxciZWF9Z4q78PLPSzSzv4z1fzZvV9TFMZ265f6s4+m+rE9LGZ1ZpcGXBjG7fyb/ZM/FdmKX33XIz8+OqjF+F+04a3LGOrsrbGMY/I3BnwnQV7rPOw9U7Ed2YdbbOxO5Z3FbhH/18+X5YOCUVFe2S9rTVExZzqscJ563W/4/vtb1I1nYkqe0XnE0cb9am9OP9PCQ2BaKY4E3M4YVbIHjhFof0rBVT6I3LrLd6qArfRxWyj2+Sfkp7q5BqBaZdSt+kxy+2gM166e5mziop2ek+9VrbHKcU+y7bB1Lt+koIxb8K94/csTbNGtO7DeIdQbv67arhn4X3Soys3Lh69s+E80yk3m34r0TgLPyjwJ8J17MOzZkfs2fORPhdd78Sn9GfOwJ/DN9ZPt9J45lbo1A+E1RjePxznG87e/5MBPvnK1F3R/x9NX2vOpMra/WViF1duyqjMS+u0nHVqYn+vISnlLDzuV7m9tZbku2nYHV/zjbil+zzt9pW6LBDJDbVkzoP9QXPJojb1mgmcnNMvyxJfywTAiCA4IV71CkNqpWPLzaw4x0fm3TYnovbUYerdqsYXRCnTUpWiWUbympjWN7Lr3O/ilLbciwEwISwVXY5983KJcWJXGcWNr++apTvWnbuWFziveOzfs+V4FpZR2ODFBfvjEJkdG/WAJ+l01XcVr+vLE1jeFbXPlmPJt+vGvWZ1c79mVnxrkTqmRAY/ZyJ9DNxsfL3SnCd5edMcM0E6lg2zsplDNeq83AmyFbvzej3WRlcidSz8rPKu5n/0nx7sFW6+rVZWTrrXK3euzHMqzjMOKt3Zn6s4jMjef2b+gich6me3p7av6Kichy26DjXUY3sdX22Qye+1bagFGkz624yY0oO0+aSnbDmYT9S8EtiZibcBcELtyglq9Zguy0oCJVRfpPe6kBWXVn71vdZfNp1F7w+7eHx/UXvNn+UlIud1eaVsFW0KTQUOfxeK+sqxmeCYyVwZn/vNGxXonL8vHJrdv9VozbzOy5AmQkRv38mru5Yi87isIrHipXInInR8Z6VqPozYbqTP359Ff471tSzuM3cnD13RyCO1+L30Y9VPK+E6ioOK0vmrMzd6fjMwj66e9VJOHP3qtNy5r5z1mFadYDi57OOyvjsV8J39r6c1WdXHapPcU1JOo553pp2VbJDKXKuU2/bRr92vPz2vYreIklb3Ykh2+dsRpLsn00oZ5saJz+kItqWAc5B8MItinRUgSsTrnsXu1Kd25tTtfY+U62kdNiBFHudj5VssVp+ez1sQpJ163UM25BVz+dWiRmzRvvKPHjV9QAAIABJREFU6jFzb9Zo3AnDVQMSw3CncVm5P2sAz0TQSuzetRqdpcFVB2Hm53htFq/Z81dcWTnPwnVlAT0LT7N0Ddb2s3yMz67CeOX/WXqP4RjjtOpYXKXdLO6jf6sw3MmPUSiP7+JdC+fs+h2BHf0664xcCes7fvxZPvnvaaTP7+Tq2Rimqw5PeLj+KWbpHcV9u8cssCXZdAebspBSF7qbGUbKrrrmQ2bNzaoC2Nd9FFsUvfUdf3yLyzoyeL7lBIBB1whucaT0R5tze3zU4yJTsrm4qkJ3+6baO3+T8nvfkaF93upWZfKjhm3RmhdDr2dTbnN3o/X3RaCFa9L1EHh8/oo71p0ry+6ZZfAOZxbKmd+rBvbKGnnHWnnWuEf/x7j/S8X36vqfyY+ZG7O0jFtUnT27su6d/R3vO/s88/MrnOXdaJGdPeNxvOvvzJ07HY+r6zN37oTpKg9Wz4xW2bPOwCyed8P6lfyZ5kNKn+rEs3jN/L3qUJy9S+1aSlJbZOzzeG3qW0p1v/XHo4rcvHXhu/kWlpstaPa2w3dyMOuu7wxUzIyckpTS8zTCAAaCF+5yKJWjbyOmWukk74W/9SGox7c+JOUVlbzCevRNx33RW0ombJOyHzgRLL9H+rxYJ/IVq84d4ePPrCxVM5E3/o2N0nj/V4SDMza6YwM8+unfzyyHo/uz++Lv/xICbBW+M+vfFTFdz54/E2130umsM7Ny/0q4jWViFEtRcF9Z4f5sHpw9e2UZPeNuJ+xUQE3cu1PG74Rl5f9Zx/iqfM3cW917N01X4bkK479Ep+grzzZ/FUYN7F+t430er8JODd5G2JZlyU9me6/C10cRt7fXdSPuXspS0T//6YDDvyoQvHCLUva6aM0rIK+oNpumsP1ie+0q7KNop+GUXW1rssd36Zd/NGuwVVr2t5hVINhvJdlsrZsi5er3mUiNn2dWmzsN9B3rx0woz+6bhXXFKMhmz6xE+B3xdCb4Vn7dEcfR/a9YvcbwrTo/X23sz8IwxmmVvmdhXlnVrhgPCJil25kovQrPV8JyVR5nQjqK+ZUlfPRjFIOzzuNZB+mqPM2smqPbs/hedcpWndCzMPwZcToLU7REz+5bhXX8PD73ImQnfkzdrjfX+bs+RJeStRm1jte3v0nf/6GO/vmCtLLX231LMj+F82F792azBrfFzy6AAe7BHF64Rfrxoy4qeNhcqsM2Dj9yF635XcpPST/UjhYuT7VeeX7YYrXcT9Oprksp2Qk9UvJTe+zX1VDdSnjGRnUUX3c+/xmL0czqtBJJf0aMRSEwNtKzRnVlPb0Kz9iojc+Ov83COrq/+m0lZMb7Z/ecWVu/aumcCZ1VGRrDMIvDKBjOyumZ2DoLq18765iMz98VWWcdmjFdxutj/GZhuBLNZx2KO3k2KydjGGfvyJ18O+PKajvrPK86iF+xAH8lXF95d1bhmj3zElZ3X6VurZuS2hxd2ZSG/OjC9eXwIfX2wa28b7/aVpa+w48JXz95bWdGA9yD7hHcIj3/sIVpvno224k538L8K5t3VZ+oc31LUevBJ5vusL13C3FKqsdG1meOlFWKXqwD5aSRPLMQ/tl7x/uuxOrK6nQmCGecCZXRIuN/Z2H1a9E6OBM7szjOxMZXxPpozTtLy9H9O26PcRjd+pcQCmeifXbf6reZGI6/3Q3DlcXy7NqsTN55B846RKvfv/LMGL7VM18J58pSuUqTWVji71fideb/rEyeidqzvF11+Mbw3g1DvPerYn4M7ypt+vVih6WlemJmUrfuKtmCte91AZvPy01J0tPWrJkYdrHrO/u8/WpHEtv835SlnXMn4B4IXrhF2ctvtkO4iVffJ9EquHjEo8/LdZHrFV161GGp9+/2jInhNifLK0TVLW9UqmF4DEspUhCCfiTwHYEya6hWlqeviGl3c+bO6vt4/1VjeafBi8/Nvo8Wy1U8RyFyJppGQbtqYFci6awxvuognAn3K6vnqiyMVsyrtJqJrDGOs/is/I15fmZhW4XjTGiPzMrV2TOrdJyl0+y+WVxmz87SdOxErDqYo1vjtJAZq/pjdHsVh5UbMcyxrhrdOqs37nRsol9juMbfVnXOKs9m9dV+VsZKUd+aLLlDr5bcNk3hvbYLw/S2KnhtWsPDdnNo/77VZ3zBc2GXBrgHUxrgFqXYf8dHv5CkNqzkItg3X0x28tpx1IpLSXUzRttyJtnQVrJ7i8zSW93Jbhko7ofCljcehHnlfiYgx2f9+pVF7czSFk+Gim5fWbxWYZ418KPonTX2YzzO0mBlFbpjCZqJgNXnkZXwXQm7qzidXbsKS7xn1umZpd1KZM3CPbt+de1K3FyJ8TGss8+zON3Jt1m4zsKxyreZyJ7d54zv11m8Z2J5zLOrOJ4d/Xwm0mcdltGvKzdXaXUWh/GeVfyuOnYxXmf1XSnhoIlJWvQ6uugoRbK6fEuyLcVM4G4Pv822rSz1JLXNpjvkd1vY9t53+mkHF9lOD9VfFq3BLbDwwj3KcSilo24Vk/pq27FezanvxuBblhXfWbfYjg6+Ktd7/fKKyz0LbodKVX9uKK65OrHGrITJlXAcr62sTqtnV26thNlMGK4aQr9v1cDNuGOli2E4wqbzY9xn4YhhXYXjzMI1a+jP4j+mwTFskj+7byVwx/jPRMksLcbnruK9SpuzfFjduxJjq3KxKkMevpmVbxRKqzScsRKp/tnza1Zmzsrx7N6VRXN0b5afqw7iKi7jtVX8r56PYT8L76y+Oitns3yMz6z8vBP+1zQKv9u/tpjZ99JNvpduUZvf69uSbb4tmbUjeevTHNziu73bIUiFSbxwCyy8cIs95TAh1M89t7PPix8wcdR5vrK/R6lCtliVVydyvVp1/RT2zXdpkOSHT3jFfcPqcGbpm32/I7pmFp+x4Tuz5sRn7oT/rpgfG+S7Ynz1+x1mltArcXMWhpmVeBbGUVidCdBVGEYL2Fm5WIX9Kx2YOwL6rqg4K89fZUyH0d2reF1ZdEchfJbeZ2V4zPcx7cfw+vt5tqPFGM+Vn+P9dwTlWUdx9HNkVV/M0mwmTGdl86o8zxg7pStL8uy5z34WlZJs8bF1YNqxa6pqONtooOyI+GOXVK3BzUCS3b9U25Bkp6tJVezqZ73f94cHuADBC7coSnWS7nFIPu+2HLXC2T+k42cXvseHquj9sM9myS2HnbL2i/qCtb6vb0qyyrFVay9id8asAbrTIF1ZnuLvPqR61iCept2iAbwrZq7E4CpMK6F7JZzO0vNM1K5E7Or5MQ1m4TuLyywcK+velaCZxWcVrjPBNubv+NvoxlV47oRtFsa7HZo7ZXiVn6v0iPecdfTOyuFVvqziugrjSgyv4ji7Z4zHKMrPys4snKs0W/k9C8dXO/Hx3qs6tf6+fnfH63M3TazGvXOlvmOPbD92374y5fpXxdqaYFDxObs52Q5Be70tZYaq4RaUE7hFKfqplA7lrVZIxYTsYaLXjxiW1MTwYXOsiotj2aEUfq9VhEq1zlPqV5Jdb/6/VrBXDfvde9bxnQ+F3hUSq3uvLHxn1se74iw+92esPTO37gr7VZzHf3GKQUzn8aCFlT8rf8/Ezyp8o7tnIiT+W6Xt2e+juyuLdCSKo1lczuJ1X5i83jNzJ4rGmId3hdpZHFfPr+6ddZzO/Lrq5N1Jm6/UAXfvvZsPs3jM0j0uipvdN3N/7JyM12v5s6p8CMcqni/u9Iv9ih9QtG2S9n5T2U38Sq1tSFlKD70sjD5MHOesUk3CAJcgeOEWxefsFhtaSm9WgSXbisw/2/BSsf9KsTlbfmDFo8/HihXzYE2QV6Avl84tlzPOhhFXDfVV43jnnrtWs9n3K0vZyroVRYlfP5u7ehbWMa3vNKJX7t4RHWf5cCaoZ1b82f13LWozf8c0mQmEKwE43jfOhV4JkbNnVvGT1hb/u+kTy9toZZwJ8dGds3LzZ/Jixhi2lXtfyZf4fbznqv7wMM3cv7pn5e9ZuN2t1WjClTvnnWqP82t1PYv7p3dheKaJ2Lypncq5mQEk+44L1mb4dAeXKNvWD67wEzxTc/T3ZUQBAkxpgFuUpHrSmg9FffxQrbyS9LReuXe/28K2Ry1h2cTt9q625cy4HVkqvZOv0MG3CzbT9xNXFg+/524jOgqEmcX1rtVoxZVoWzXes4Y753wat6+I9zMBsrKAXaXDlTUoxvmsQzNzd/w8E76rMI/+j59Xgv8qPmdhnN23GoU4u3+VjqO/Zx2ZOx22WbpcDd3POh7xuZVbX3mXVuVxVo5W6bvqCJ91GKKo/EqdMoZlde2O22fTGWZxvQrn2JkZOzln4Rzd6b9LRfXgoEO+vrnYSGCW9lRPUGvGj+/q60CCsM1hzu4R2phS+rMpq5TERrxwCyy8cItyHLJaSW2OlayS2p+9161UF6sdtnDWh6O8R5+yrcD1Obxm2bUFbd7Br9+61Xe6F+/k78qycV1J3x/SXH0fwzFeW+0HeibI4velJaV8tiqOguWKlRiJ/2bhH6dOjH6PbsQGdhQnK5E3C+sszvG31TOz6zH8s99W6Svp07D+zJ+z72dhmnE3fVbh+k8pw+O/q/DN7h/djmVrde9ZPKMbkj5Zv+O7tRJ/szSZlfmZu2M8xnRzVoJxjO9ZPTDev2JVvmb13SqcKaWX6UXx+fEdHp9LXnMfpdblRZJyW7NcDSXhaGBvH3w/3hLbGPtdkp52kJHH43iqL3wGuAYLL9zlqXLUU22eP63ikSSz3O4ffYrDYXOw4q4M2iQ9wpSHom7CdVLVwJKUktzme2aFG62iowX2q1ak1f1X1pOZ8Jvdt/LTORNDV6Ldv88sSaOgvROWmbsz4bIKw8rPWcN7JqCurIrRrZWwWj13ZgEcBdMsXuPvK39mYuZKZP+Z52ZxuLr3qmzeEVDx/llY74q5+HmWR7N0H5+9yvPx3rEOuYrLmN/RjTvl7ywNz+IxvnOzem/s8K/i5vgI0ej2Wb7Pvr+kiYthqc1SOKQ2qNdF79aPGFaWr4uugveo7YhvXZkfNg1O1cH9o7ZFx4eKvk3jBjCC4IVbHEd51hop9x62pGp7LbYbg/XIfcsZn6uVNinZyTrvv9qBE7YtmT0iJR3JzQHhNDdj1sjM+IoF5CuC+KxBOGtUZqL8tLEY4nElElbhGz/P3J91EuJvq+e/KqJW6XQ3jmcN/VkYxmejn7N0iLhlb9bpiazKz900mpWnleiZicCr+89+v8NVR2Mlyq46MOP3Vccl3rPya8VVZ2r8bdbJWJW9WcfbiQdlrMr3Ko6z8N3tZI3v8yqeV2lyFs7oz5k7NYzdpJGSpGI79Xgb8fgmvf3VDCZvdWQwv9Xf/WCikmyB2l7v92XNh/nLlmTwBRC8cItSiq+Gsm3IPnpPXJK02zQG++7ztrw+TKVuGL69W52V+kIExYrfBfX5bJs7Auvsvq8KpvGZMyF41pidNVgjK3GSUvrUqI5+rYTHqjE8swKN9541eLP4nIVndU2qwmG2a8OZFXH098z9mbszETN2CPz3Ufzc6TjNwh3dG3/3v1GA343PSkSuOmhj2ZnddxXnM3F99l6u3Ljz7KpzNgrFO0JtFYarvP1KvFd5eFV+V2lwVv7O4nm3U3Y3nOPnWTjboUWl1Dbg8c2MHyZkvW2oD6vu2vCU9Fa/H4e02ZaXtlNQKYU5vHAL5vDCLY6c1OdZqVY+ebNKyI4M9mEoSa1vfzyl/XdVIezi9jArsFGSVJKJ3f6sV51nFb5X9FciYMVVIzzeGxuVlcVv5f7MAnPX4jYKjTOL9yq9ZsI2xml2/yoss2t30u+uYJvl72x+5lnYZu6s/DoT/XfF0SzMV0J4dt/qb/w8m6O7euYsDjO/x87Zlfi7k86z51fxvhPus/vO0uROfoyfz96tVT1wFsazeF6VtZl/q7UBXwnTzK/xvrt5kSSVZDN52yNZxer5Jjv8gImUq4DdfyqcTmFNxWHCt9haET+Z86htUV038scXogz/ikHwwi1qvZXr5Fyfg9UqoE127m+bntBOXPM5V/lRLbxKr8NQSdX6m6Xih++063NLntQrZd93MloCrxqhswZs1XDPBNfo1ur5WWN2R1SshN8sbHca0zOBNt47Y1zAcxbGs7BdCQ3Pv9jIS68n3p3FcRaG1edZ/s3Cf+XenbS8EsazZ8apFXfKxJmwW/m1un5m8ZyVq5hvZ2VpvHdMo1X8Vnn2Z1jlTwxfvL56t6/ev3j9rLydpf/ZgtdZ2MewzcJ+R6yv7p3lfQtDSsq+/iInq8cPm7JmDvjRwsm2JktFfS8eF8L2NZW+tWUpfQ9eu//4tBYEYA5TGuAW5ShPZeuJH89+lLBK33FBpS5o23+oDkUVu+ewbWS+12kMXnFmH8KqlZtXYeZjfT6G4aSxWzVeV8PvV/PiZkLMr48ia7TcjtMOSiltkchq+Hz0b9ZYfdUCt4rLLP1WUx5WjeMsvLN7VsPns3ieTSUYw7qaLnGVJmciw5mJzejeTAyMeXoWptmCofGZUUzO4nMn3rM8OLs/uj2GYSU8Y3hn4TwLx1fDFH+7CtMqjFfidJaud6Zd3BH64z2r9250b1UmV+Um+rkK73h//D67PisTn+IomYiti4+LG0ly9n3KajuQ36S3b/W3UlQPoUhm8f2QtqeUv1VhnG0UcZe07fV0Tx19ITTABVh44R5//PbUvh91D13VyirFaQyp/ku5W319VVop0uMv0vvf+u/NncMqON9k3N1N8cyJW43kVUMzu/dM3F65dWUBmrkx234psrLkreKyEr+jCDibSrASyP7b3SHdmd+ztJoJ/jFes/h72s3SfQzn1PK0cHeWFqM7s/uiO2PYZvEZP8/SfXR3Ft6z8ntXiHmYo/+ztFrFe5bHd+Kwiuvs2pifZ52m8f7xmVXcVmJ6Fb876X3m/1UejW5flaHx3T7rhJzl7Vm8xvyMIzCr9K+fTTQrScVtvqVbd6W6puPbv61bVRZrL1JWnf5m7UFR/W230z2znc6WtzqYeDzZlwxugYUXblEOn3eb2hnm/bCJUv9sb9LzUXvtcV/enPoWNPndTmazZ0zc+o4MrVJMzeWpNfSsITgbVl2JzJkVa5oOJyJtxsrdmXj5CrNwnlmJYlhm16/iP0vju+G+Y706a5Rn+R1FsOMW9ZUbY9hXHZb4OYrCs/uvfh/TI4ZlHK5eCbuVEIyMJ+2dWfaurJVn71D8Pfox27d21iFaWfVX4Tora2M5WQnfVb7N4jW6MxPXV2GapeHKujs+OxPf4/1X11burfy+I/5Hv2IZiHVvrbfVtphMpdjuvOZfznWK2+NhW5O91QVs5Vnv8d0aZNuRlUOS7+TgLUMVx4WNeOEmCF64RSm7taQmfI+9HynsW5KlHDYTTyZ6Ve/xM9If363CSmoTd0ux4S+ppKSjSEXzinj2fSYGVg32qoKfuTV75iwcV/ecicbRInvHv5WoWTWEq2HIlaAZv49CZdbgzfwfG8uzDktklX9nnYRVPMe0WgnIWbiuwnf3/pUYiW7FcjGGf/xtDMuq3I7XZztfjGE6E2pXYnAWnjNROitfI6vrq/w6E6RnYbsSl2edt1l5iPGabXU3xuHKzRi/s/isOiSreMXrM/fGcrgKd7snSVvJfX2a/WuWDJVq3d0e9UCJlGp7ckh1MVqyXXzc2is7lc2nxKXabhSpHMc/TwMCMMCUBrhHqTWLdjvtpi1WC4dMNOtOMcHrJ6w96j3H0yqsWGkdUjpaJemk5u21FWXVAMXGZiUizwRUSn0x3GjBu7KWrPxyZqcYrYTAGKcrgXrWYI1cid/x2kzszu4fwz2L11fEvnNnRfqZIPbfz9yZCfTxt9mOEWfPje7Hv87M8hnvG8vM6NYo9FbpMIb/Kg3Owjz+7vGIf2eifkynu1bd1bXZe7L6e1Y2V/7N8vMsXrPrMwF6Vd6vwjUyS8tVuGbPXb3Tqzp3Fq6i13teDp+QXg0m2U9b87m6Rf1xs/qWw4SxvQf7Uzp2lYKBF+6B4IVbHEo/ewXlC9Js8dqxh0Vs9e5eWaXak882RyvZ9IVU6qYPWVJOOrJtWyOZGFa9310ZGo+ZWIj471dHv64a9vH3UST92YZqZNY4jeG4Iyz9+0y8zqxxZ+mwSo9RqJyFZfb82NCvrFer8H9FqKziNJtru7p39nllNZuVm9VvZ+JiJrBX8b/DGNevWLOvLIOr8Nx160w0rdxcdTxXluOz8M3idcVZnPz7WWfqzOp6x8/Zb6v67U7nefz9qiN0J9ylFGUl5ZR6O5Cs3mmDez7lzf7ld/W5u2a9PWxR9HFYW+PtjNT2gN8eKhw+ATdhSgPc4ihF6mc/9n++6ta3lfFKyQ+hKF6hbTYXS7Zl2Vv9bCt2i0xDl2IuJynZmeyThu1T+Ia5i/HzmUC6Ervx8+ier7KfuT2Kytggn4mF8dqV+Dl7dnxm5U4M1x1WYRrjON67CmO8dmad/monYyb0VkPSs3jM3DmLi7szbp92lbZ38nX121k5mA1Px8M8VukTwzwrP2M+f+W9moVp9tyZ/6N7Z52tOwL/bITj6pm77+Esfiv3Vx2NVZrO5q6vwjDWQTMr/CrdV2Gb/l5K22SsKOlINjHBg1QOqdj2Yn4ip5LqAUaH6qEStsOPn67ma0LKrrborSSVY8fEC7fAwgu3OLa3Q3mrlVGyObpFeilCpahuK6NaKR0f9t22jnn7Xhe2td69iWa3UtggWFI38nan10P5q8rZmVmHZ1aYKyG6GqqNz98J7xkzq8yZKI/XzhrZmeXmjrt3xN4snF/xR7onKr/iz9X1q90yru6dpbmn12y/YmkuJuP3cTRiFeez92Dm1yycM+4K7xjmWThWYRzvWfm/Cvvq2VXZuduJO0vjMzE8Xl+l/Z1n/lPvmz03Kw8zd2f3XI0KnIUnpW6s8Do+t9G7YhZe363nXXq8y9uB2m7sXRjHejqZedjbk1LdOtiWDG6C4IVbPN/epcf7USslG3LyqQlxp4awPKEtNvDvvn1ZknyRmldadrFVlmo/rxvO2fXx2pnAGhvYmR9njeHYwF8J5rPr0Y2vNjAxTmes4jP+/lXOLFJnAmUlFMZwztIlhnnGyu9x4VAM56xj8JU0GYfbV2Edhe5dIRX9ueuH/53N/53tDnEl6ld+nZX92TSEVRlYCfPV56uO3Or7mYj+ykjCqszetbhe3XcW9rMwXIX1iqswzKaVvNxfrF2IdZms7WhtgJ2adsQ2xE9S2+16fVJtXYjdU4otcNt05DcWrcEtELxwi+PQ0SyzbQ6WTJiWrnNLsekMQfgWm+qwbXUrmpTUtyLznr/aoWyt/izr4eyZUHVWjersnrNGaCZ0r4TiV6YG3BXFq+8zS9hVY/eVMH7FQjb7O17zz2cLvsbrV0PSo0XwSqCupnf8f+y9Xa81S5Ie9ERWrb3Pez76u01LbhtPNwwDlqExHiNhYCzkXwKX/Agu+UHceG6QQBisYWTJGrCNbGzGHuye6TnT3e85fc6796rK4CIisqJiRWbVHubKrni137VWVVZ+VVbGE09FRmYG0AiIZ/kdvXp/633y+RyByiM5AnajZ+HozUZM37u3/r5nuxZmYyXeg9737Nhb+tgkG3d2PEa3GN3H3n3qjfHRM94rK8vraPyPJJvvsuPZXLw7bmmJ9W0dyy5rAb9imuSNHwFgvwaEIWhW9YjpGED1hrk/AKAJTBeMueScXCPlklOyMhaAlB6zVbQ6czHLqymiDRATua0g7wJ0b59uK2wtnzZ3EphJ50re8cS91/x/FpO8z9PLCFCPrh8B397r5VFbjkBKL/8jgHPk+5gp/iP/S1+nkctIDwRFw+HodfJI2feu922IADcDpG8BNLHPeoDyqB/jdbZ9dpYmtnP0Oj1zpYh949PFdp7tl14/+u+Zz30Ed6Oy4r3zwPHM+PRtzMBtBvLi79Ebh17b7Zq3RhsZ3besXlma7Hm2c71npde2oRBtazIAgEm2kCBlfEnf4DGLO8PTJ3rhotfbm0GCrP+YAZp1S2EIOLbdPUk2XrvkkjNyAd5LzkmtQOUKXjVszAqsr8DKAIps88j6HRNaSDLbWW1+JzF4mbG5NDRIqx92Ln/dbMdMjti9qFRGANCfH4GWI8mYkB4gG9Wtp5hHAPWoPmeUZ1b3s0BwpIiz8jxoycqPx4/antW1B7z99yNmdtTeEQMX65jd+wxsxLQRrGS/Y716v0cMds+HOAOnWTnxeK+crA9Gz9ZoHPSep149s3nizH072pXO5xPzztL6NmWbhWRGR9bmbKxm7R3V8WheGRlRsY0PfYsN9DavN8nMzgC3j/WNoQLbolF9LHVdrCAJRbbeG9hFrcB6wnq45BJcgPeSk1JXDQNj20KuK7C8KEglgG6a8C5EcLHIDE/A9CznKGxB7IIyVpD+Ad5/N2MmTDIGZAQ+jibseCx+jpRXT8nbsaikjoLQ9xRzj5nq1W/EKkc5w/L0ZAQiYpusv4y57AGSVIEm9/yM9IC2HTsCb/F3bEsvvR0bMbEjMO0lq3cvfeynmHevzN49zJhJG8fZ/YrjJ+uDmPcI4PUAWfx+hl0elTG6l3+aZ8JLD6DG3xnQjPd91L7R71iX7HzvrctbxlRrmU/n3ua1zYdse/pyA8qzI0kILWIDTaITyiT6ZX1Fi/wDAFcc3ktOygV4Lzklaym1BQRHBW5PYomvd2F3J7XIidB8rMok1vvtY7R4iwaQAcDcIdRaJ5tMccxAjhRsTzn0AFQvX19+/N5L1wNgb3092AMz/rosLvAI+Njx+Io8q8sIVJ4Fy6O+PmLkjpTr6Losbc8QGLFhwPGrZw9CPQj29c7uXQRXGajvjemYZ2zLmR29Rv2SATFfl6P7aHXqga4e8I19FOsQj4+AcbwPvfvfKz+K79szm3Zk11v4sFjXngHi84r3+8w80zMSeiDYj8tokGUoqz8QAAAgAElEQVTXxXvhy66MAHYbi2EHHN9BAnhv77Y1HkSQRc+sLg0ELB8AFNmCuEzq4sCoNH2VdsYllwS5AO8lp2RlrihFojQsL9sitKLW93qHTGKzvo4CtoVpwI7ZJf3OBJQCFg8vtyF6n/mw373XbBEUvIXVzQBCBk78ebsuA8gjsJjVe6SsRgr2LHsWFVUElr6sXntHivls3/s6jPI8w4j12pDllY2Zo3qcAWfx2Nl7F9s2AoTZuOqNmd71GWDOxk5vLGfX+WNZmgjIe32WSQZaszRnwGLPcI0S2xTbOXpGe/fsqP0+TQ+Yj8Cllx6Yzer71vHeq3OeX8ybUBiO7IADtrxFZCBSUKy6xdznfMxeKPitd4AKGLgo3ktOyQV4LzkldV3q5mwGcWmouqMaFd1Mwq+yhUxc9Y7mCtHi7wLYQjyAIYzJRGU3IHuM1mjy703qR4Aopj1ij6xOUYmNyuuxeJmCG4FX/3ukQI1VeguAzVi5s4xWZhz06piBpR6TeFYBn7nHPm1kRLO8emBndKz3OwNeGZsWr83GyFkA59tzZCAc5ZOBbDsev/syfJln6urLGBk8vswR89irV8zX13GUZjQmYj3PGsC9NsV0IwP2bF5Z3bJrsnLjvcme0XZ+V1/s3NU2UqPIhkSFdNMi26XTMcG2sycsHJlG/bHf17K1S07KtdPaJaeEmevOkKbdye1gXQQMA2Kt11VYX3NxKLbhBND24WECWHYt2xD18aR+li06q2hb004wV71ye0DtLBjrgb4sj54SOwIbR6yoL3ekKCOIyoDQWxhSX+bR/XpLP4+AQLzet+UMcM+uOxqjI8B4xBIeje8jwyQbA70x1wPfvXuTPS9mMMW2HoGtM2Ay1ifW9+z4OgKXWf1ieVm5bxkTvetj+qN5ptc/RwbHW+ZSn++obQRTDQz0brcxtraDGrP69yqwRVXWd5VjjUxp/2HQnZdcspOL4b3klCzMaNb2/WXbRMK2fqyrCxuzCuhdF7XYdeGBuTOUgs1/C+1LJfke58YjsNtjY3rXZsC1N7kfgcye0jti/o7qm9V9BFIjy+WP9wBWT+n78yNm+AzT16tb/N0DdjH2aZSMJY1pR8xpdmzEysYyszyyMGL+fK8PsjKy63z5PbY3Gj0xXRxTR2OsV84oTa9/j8ZCrz+8jEDhEIQl9/MMCO/VKeu7ODZi/meMufg7M1JHRlj2PPfkaC49Y3g/tNGu1w0jyCLw2FlSAoRIdAMYbZe1ddFdOqu4OtRFrmHJS/TNHVhetYS33bdL/s2VC/BeckoE35YKKrJFMBXx210XmXhs73ObrHgB+FUWtK2v2+RmsRUZMoExsJJNrDIcbT6Nk+wIqPjvkcnyMgKXPQWRKfKRkhwB5R44fwvwGbFcMa+zyjVrU09Re9ByBI7OKN0RyM/SxHIygBojQERmM2sX8AiwR0C5B2Azg+GswePrOGrzURk9IyDm6dsb+zMC9wi8bNyN7nFMk90zX7cemOoZUL6NR+CsB9hHz/DR+M3uRy+9T/tWcG3Xl1KG42xkwBwZcr28Rum97OYF/W1g1+gR2EJlAC1ST5kF2C6vQH0RnVEX+Q51X1hNl9xFGd0+kghAAng/vLkzL/k3Ui6XhktOSWVUscrdpFdf9VUTILF4F+D1CzneJraqr6nUraFCXK7Ms2GSdOLHKwHLZbv0bcI+AhomR0zFCEAfKcB4LircWEYszyu6TOGdUYAj0NwrK7s+ltcDy/5YxiZlgGfEOsXrRmDpCHT36hv7OAMiZ+97puQjIOjdN1+2gZQsTa8eGbCMbczqPgJfo7r22pPdo3gvfPuy+zkywM4YQkdGWVavDBDHvHv3L47PUTrL++gZiumP+id7js4aRqNxbecsYkR8HkYGXnZsWDYBXKuuTWYNvc4Su73qJ7MA30KQ8GJCgqBW4P4BKF8BHz1b5gKKJyNOpBAGL7jkkhNyMbyXnJKVawWoYq1iZbMuMABvTO5iQFfdGAD5TVA3BrXoqQD3qtcD4r/rJvigL6KiOMO8HDFGPbDQy8sHh88AW6xLVm6UTElmnz2FMwK1I0A9UmQ9kJe1PdbzLUo/5t/769XpCEDGNEcgvJdX/N5LE9sR6z0CqKWUbkziI9Adxd+fXhtG1/u0R0A5KzNrX++a7Pyonj1jLNbZ6uPZ6yyPHmAclRfrGuekUX6xfb0yj+oUDZSjcR7HYUx7NFfF+tj37mJW5v0czgxUQmEWwuNesdtavsy6tmPjgZsrHOyN4X07xouuFXkFiLE+RIS45JJcLob3klOyrmvdrPEJWD/ohOR8eFEBTDKZ1XUPegGghSazyY7195aEXeojhePjWh7JSHnHyTwDhEdM1IhJtOMjoB4VUlbPkdLKyjw67pWlsXS+jBjndwSEY1kj0JRdF+s7Ohb7uNfnWfuPgFgs40w9e+3pGRZZn4xAx1H7srrH63v3LrJ88XxWh6N6xDyt/Cxu9Kjs7FnM0vaMwqOyzgL6eG12D88aVEfpPIgdAVsvR+eOjveIAUuXpY1G1a6+9j+LKigSZB2VgIl42xbY+Dbz721EiZImGq5SwO4MFIvMoOOozAAXcaO75JITcjG8l5ySuiwAc23gti4y8VT14y0KVW3hAesk1qz2InF7bWKbCJhttzURZvvTL07OKpiMheylOZtnj2nL0vk8PbgdhQfr1fHsuaiIj8B0lne2g1a83l/bKyNKr05HLFKsr/9+ZpvXUd0ygNBjQ4/EpzWWNrJ9Z/ovy3cEQjOA51nNM8C+B3Z7xpofw74do3EV+6HXFz3w2QNe/rqMwYzG5dH467Xd90FMMxp32XGrZ69usU/PGMgj6c1zvfr5Oh6145SwgN7aojSQgN0ngx22mHnaM8LiC4H2FpEA2EI1O77eNf9a+Wh3mEsuUbkA7yWnZFkWgFFl7/JXtap19WwLIQOdiNS1oTJkI4pn2CYTuE3APAnYLYERIIBs5gvKIQIJSTJmKaK8FWyOQNARqOwdO8r7jBLNwEjvfI/9isePGKII3o76JlPU8f7FcrJ2RTB1Bjj32pGVET/PGDXZ91j2mfEYwVy8T6P6jIBjrOPIEBqB/xHYGjGrWTt6dT0Cf712Z4bE6N5lfeT/opEXr30LuD07huJ4yRjT0TjI0vbKz+5Xz0AZHev1RTaOPJnRFikb+J2VALnpS2bSbehh6eq2RoShbxCBbRGbujUAuADvJWflAryXnJLF4vCSGzJMukMOqTWu0Rkqy2dLv24Tl02K5g5BpogAW7FWDti2EUCQvPrgqMdo9RiznhIZgZFMkY+uOSp7lD7KCFyPFHNMkynfnkQjpAekRhL7oHcPs8gBZ8G7l6O+7Sn+0SYcmTGWgYPRuMwAxdH33njr1Sk7nj07WXp/byLwPWN8vGVM+Dpbv8e2jEBePN8bmxEwZm32eVh9etf2gH/vOfnTSgTvsY5e/Lj1dcjGRpQjIy83HNHwLjGDK23EBhTQEqO5J6zrdgErqLWQZOui15AoCiJsZAtQUa8oDZecksuH95JTwnUVBytm3WWNxSrHffPX9YsKWF5noegit2kGphsaI2wzIrMAZykFjuN9mJjPgpoe2IoKO16TlemvjaCkly7L76yMwI2VdRZMjoBjbNOoHiY+JJLl78vJgHv8PkqXKd8zdbM2eJ/uzO3B59kDjllZ8b5ngLt3v/sGlj4CiURQ1gN5Ix/2I0YQwMOirgy0xutjP/baP+qPo7pm96O3AK1XbpZX717EtozqdlTn+D3WNevjOLZ6bYpGVA98ju5jb07oPQ9Z2QDtxu5DXZjBoOa7a8B0asHXjQRhIUTmZ0hIS3VTgK4H4Vf5XRXw1kV1CLbd1krFUvlieC85JRfgveSctI0mgAZYbZJkjcVb75KmTAKKFdvCFqoB8ln8ZEyopKDX0nDOUo3ARU/RZkDFK/ye8hnJKE0Egf5Ydn12zuro23sE/HrgyOebgcCR4s5YP+BxgVsGwr3S9UC5BzZ79YnprC/2UTMAgMFqj0m6x/tUq7FLOSCLaQlQm4wfwOVWH/cYaPm+jr6crB/299jnZW2wQuzpI1B5rPsIzGYA3epSigG9cf9HBjEbG0eArCe9tBnYimym9fGR4Tl6fuJzFsfXmfpmhnBWRlbfkUGV1Td79qy+2Tjt9U+WzrenZ7TYs2XnMqPBnp2iSoAIqMSY5Co9SZtKgW5GBAJqASZdHM1VgO7yCjw9obEhbdFzaSEsL7nkSC7Ae8kpWZkBpgpTwGVSy7sI01vKpq2BDSCTLkwoTw7Qkpu4SBleZQ7aBCmfG4DJfHixSwPkTOgZUJv9Hil2z7JZnll+EWD0FE1PYWb1O1Jc/vqzwHtURiynB2x7EpW8V9BZveLxrLxaa3tN6193L8tdyxOFuK6rAl0ZYdwWXqEdB4D7/Q7milImEBGW5Q5js2qtu/tX6wpmYJomMG9Ao9aqPmKElau6XxSs64Jaublj1LpimiasugU3lYJ5mgEYYJc0pdgiz41VI5YdCQnbGCylYF0lz2nyxog8Q9M0gaiArB9L0Wdny2OeJU0BwESgUpprkd07C58m5Uwp65rds7cYcV4yA2n07B6d69UvA57+dy+veDyrY3wOMyDs84mGygjEZ89dKeVhgewoj6z9vb7I6pUB6u59ZXLj2dWdSFheO84LwDcAE2TRc9WwZUX0yjRpXPdXwccXwXvJSbkA7yWnRLFBFd8qtb6nG7C+oIWQaUpWQ8coaEV5AspNozT4ydCArtBZlSOAogYoHoEuwEyNBeuxJGfYo0yxehmB55jG52nHgUfmJVOAWTlZ/bM6HAGJCDay/DwQzbb07Sk9f12vjDN1iexdLMMDXQGyFff7HV999RVeX19wvy9YlgX3RV6NWrr7/RVzmbHyimVZtjKZcLvdwKj48stf4d27Z9SqIHmpmG7CR9UqCpeYAFS8LncUFAXHDBTCuq6gKi9yK7QP50nu5cqyUr1yy5NXU/rCUqEQUIVxLaVgZZagTNrudbU8C9ZlBU0FRdnkaZqwLIsA0nnWvHVjAWXZmBnT7SaAlgm1LpjKLP1LjHm+aVkAg3G7zZjKjFKAdWU8Pz/j448/xscff4zb7YZ5nnG73dId7bLxEO99HHcjQGXH4hjMnvVRfvEZGRmOZ8bv6HxWj5hvVn6s31sAeiwj5tEDytkclJV/9r60OQyMHRQ1Bpd4w7tlFne3+VmIEX4F7CqL04tJFVDVmL26idH6Aswfg6+lSJeclAvwXnJKKk2L+OyK0hcfqruyvDat0WalExQIk6y+tdiLRV9dGebQy/ZvpTagm4GebVLWPLLJtgP+jpTcEUvh84zl9kDx0fGszrH+scyeMuyB3ex8Dzhnx0bMUNYnPcMgkwz8ZnU2wHu/C4v7+vqKX/ziF/j888/x1Vdf4uuvPwCYwLyowlWwyhVUCgjbK/DbNGFlluNEWJYFr68vYEZjXud5BhVCXe1thdWFQVTAfMc0yTbZK1dwY7KBQhPWWlFXZ+gQoawrUIFlx8KpUQegEKFMci1B6sersdlAWYXBw0KNsS2lgKGgmEhfwtiziNa+UgrKJK+A/U5bDEYpkxxnMRKoCCNMRHh9vePp6YZ37z7G97//fXz3u9/Fu3fvAABPT08PAMvaFRfPj0Bij02M1/UA2Sht7zMba9mY7qWL474HhHsGePZc9Z4b689svsp2uuv1R9bOTLK0Z8SeUWor1nR0kx8LJG5t1RQBQaL53AD+lb2K0cXPEJ1RgBa5oRSAV9EnAoq/Ol3BS/6NlgvwXnJKFDhUUNl2WLO4iouLvQv1uSLdOYcXsdyLW2zQRPPA7gVX2KQnW31Oqssf2YbRRH4GGPaU3BkF0GOVvPRYl3guq8eIgYqgOmN+jup85toeqzQyHrI0b2HUgM1lYFkWrKswte/f/xI//elP8Sc//xzrumKtFYXkdf2EglVjQDMzCqqwr8yYmHEHQKqcDSSua5XX9fMEQN1nqrLdCWu2vZ0Vn0WaCgpNrs7rvl3MqFWvL+o+YPdMmVhxxODmr1sA1KkIsFZACjAmKiBl4a0+3i+3WZSQ+s/zrEFStrTWnrXq9t8EELZzjSFfFnz11a/w05/+FH/4h3+IH/3oR/jhD3/YXBzmeU4XwGVAOLv3b2FM/e9eupg2gumMAR0B1rNy5trRc2vP/Zn6nDVce3lk88XonhzNJdm8ZcahPEuEWtSH11gO765QZj1e5e0hWLeof6fkStV9jUjA8PIqOoaoXlHJLjkrF+C95Jy0AOBkE41MUutdAC0A2A45Bn4VDODpGXjWiYuogQcA8l1JYQOxMlE+MrvbJX2246wy7TEtds7nG8vI8s1+H4HvHjt0Fnj7tNnxWP5IkWbl99rq8+oxc1l9Yt28ci8OvGVtsuN2bF1XvH//Hr/4xc+bm8I0TShUAGK1yVwoquIW9hCJ7abtIGaUaRI2FYB42AjTqj9RCGCEhX9EmKeibOy2WKdWFja3bOB3KiR7ElYDnIRVX2uQAVRm8KRAtBRwre3dCVeWTQ6rvCGZphkMacOysrhLzBPqsoJc6EDfj8U/VzYmAMzKKNtvIgkNWAwYk9Ttviz44z/5HCDgk08+wfPzs7iEJPf9DIg9YibjOOnJyEA7C/x8vY6AdWzH6Nxb5yWfZ6zHWQB6tk4mGfud9YGdy3zyH/qZxHBzJT9WxoAtFeD5U1iISrUi4ZQC1CKUtGXG9rbx8uG95LxcgPeSU1LN/BaNiLbLWtWdb5av5Y/vkBAzL8rqkrK66r+7m+NtQvPs0Fix+e/bxH3MFMaJPlMeb1GqI+YlYxwyxZvld4bpOlOHEaiNoCSCz0wxR0bIn4/5xX7OAJFXkhmY7oF4QBjL+/2Ol5dXrOsqIFeu1IQW8cCVu+qre5owlYJa1w30KVNpANcWqdmirapjbJoEbG6gtWCeJ/CyNlZWgKkAbFtAVKTSuE1F3A6cnzSD5RoQMMmizaILzxjbeWldwTQTat1AMSrj6TZjsTznaXuaytYeqg5+MO9iXTP2u8RBGV/rv2mawLcbnmvFhw8f8Ec/+xn+8I/+EN//7ve68V3jfT3LnPau6RmU2Vjr5XEGGPt2RMnGd3yGj+qTAcje+V77R9+zdkXjftT+oznFt9Onz+ZQGc3uLR5zZ3q3LYShny+Qhc3PQH0B7l8JC1zf6dvDSca2PZ9pjS+55FEuwHvJKVnrCpltWH2rdOebAjTW1yxzAkA2tBhYPwgAtsmQ0b7rCy/Nww6c84PdA8ucEY3sRY9ZySbzHtuY1WukgHqs7Kh9vfP+XE/BZfJWcG3imdeja47YNJ8u3ot4v3r9bSDyfr/j65evNzbJ3g6UAgtrJ367AHNVllZcA6Zp0jCgblW8spgMY3eV7a2MMhWJkz8RCsSfcJ5lwdfKwqyaobNi3aIxaKSGFuFBWgoGYSoTmFj8cOfHCB5F/RaZGVwUYANgIpQiz2AFQJMwsBOpr7EufgOAyeVVsS2cm+cJrP0IbSMAafNaQVNBXVkwRq2SzzwLkw7gi/fv8f79e/FbDsZO9t3LWxnU3nix4zFd9unLjr/PGLHZ+TNl9MBuBphHBnUGpHvp/jQG/bk+eDSSe/XckpsuAEDqpuNvgb6FAQDcv950CjTqj8XqBcsxAG1BdL1rLHgG1gvyXnJOLsB7ySn5r/+7/77if/kfFNjqto66+ZospL3Jq6ZFw5RNvPnrTk/6GkpDy5DNgtBPXchmSiCUnSnGx2MWzH+s5I4YjnjdkRLsgdqjMo+U4dnyj/IdAeWo6KKyjszQGYCS9WNmNGTA9qxCtsVXUCa2NqW4fQgOVsA3zc6Qqvjw4Y5lXUAgvHv3TkGvvFq11/hUCCCShePMClMFCE9FwnLxurb6MDMWANMsbhVrXVG4NPC7alqaCFwYE0mEh1oBJsY8z62t6v0OZkZlAcXMLOHCSAL610kggIGMZV0xzZOA00nCCJapgLhgXe+giTATtUgTcH66RV05uFZMU8FaASoriK1vpUMNvN/mCUXb1Hu+MqOnZwwOWcI/xbh7K8CLTOtRedl4jpuyjOp01M5opPsye89RVlZmxGfl+br4crdrhJAg2oeAzPql5Q0br62EZvBpj8n3QurDe0OLrUuT/qnOKHMbr5JF1d3XAFABA9dOa5eckgvwXvIGIY2szwJwl68BMHC/yyICAOLOsIgfL6qGJFOfq+KHG8t5KDPM+sE2qRrdqyV3JugInHpKw/v8HrEpRwxlr07Z+ShHii9jobI8srBhvi96eWeKNZaThRjLGLajfvBKOrp5jBjBIzabiJobQykF1ZSfe3VK+tNAmtXj9fUVv/d7v4c/+Bd/gG984xv4a3/tr+G73/tui8xgYDqChKqrzDf3CZZQZXIRoHFwt/KFefZ9KHF7xRBkAkAFRAqkARBNYKwACgqvWAFMDkh5pvimDDM0YoSVW0gARFGQImcEoBJbv0q5ZZqwuP5lFFl4BxY8UhmzAlswY5oK3j1/hE8//UwAvsYq7o2LaEDFY73xkF3fG4NHYzmKH0/ZBiojGRl/o/Ef+yFry9k5JwLS7Fm3z7ixzsi4HD2Dkh4A9pFxjgwTm8u5ECpYd1oDZLJX0qMouC0TMD2rYbrqeg8z/QDcX4DpIyFa5ifRP3fBuUx0UbyXnJIL8F5yXrhWgHVLRwWk9VU+y4S2JSRYX08xwMrqOlbJveeCvI72yxs2/8veZJ0pufg7m5DjZw8kj6THRo2YrkwyhdXLP7Y9Y5Oyckbt6fWTr0NM2wOfvbQ9QJv97uWfgQUAWFcJPWYsI7OCUTWaylR0AZssvjKGcl1X/Mv/91/i93//9/Gd734Hf/nDX8bt6YaylOZ3a+IBg20yQVzaIrNiO54BulmDAHEzsGxcCyvr2lKKXMvidsAkLglynmAh+W7TBB6AK2b1FybCXArYgznn4jO1EGwErixuGQAq1nafvGFYJhJ2FxVFI1tI3wmY3oA9UsmBT98Ai8d7+WTPiz8ej8VzceyNtmbu1TdL9xamNl7be/6OjmXfe/kdGQU9YB7LOeqHh/rqrL4y41YJmFjdeOBUAKkugQDfpjt0lzXJXdLxHcDNpRF1RL2BeMklQS7Ae8l52YLjymSkAfkxz8DL18DyovuhQyavqt/nT+SVVa3bdpLMjcRV1eRdeHdyxDBamqPfPcW7b2Lfv9bO++sz4JgpwKhUsjaN2ubr3gO3vh49YJEptRG748FQr+xePln5sa7x3Kg/PFBZFglDZgvKDHxKJhopoTBmtxhrKrKMZqKCjz/+GFPZdjszVjeCXAuHJv0wtXoUDSvWGGwL82XMbikgjbLAzMq6bvfSgLVxWOZvDC0PAEgXna1V4uJWdYuYrY5FN7/QjBrNRbT53uoOVbTexY1C/ZCJGHWpu/Bk9md9YvF65VndXEnWdW0bf2T3Jxsb2bkICM8Ye1kesby3gtSY7oyxOsrzHPOZM73x2cvKPepLnzYzrHv93qtvVsb+E/BvGVp6JUWKERsA3MrJTQ8wA/NHwHzTN4OAXFBFp5RX4PYZZF1IcSEwWd6WXID3kpNyAd5L3iAkfgvsYyVWYLnLxFTVlcH2P2dIuvkZbQJrWflsDQTLCe8rZhMqYJ+7+gj2dkrjLJA8qwjj8R7wy5RsD+xm10dlNlLIPRkp8tg/Gbjw1/jXvW9h2rK6jACEjw7QMzYiEye/Aa4VhRns/fsUmDVQOgkgrCxeuMxidMkuYXvgbQvRjKktAGjaQov5uhKRxtxVcKwRF8QLkUB1VZcH2oVNMnbUdlWr0iBR3LquXRaZoYV1ErZMrpXITJOA4FXeokg83gmkyn+iAp6oRYdgt61xQdH4w9hcLFy/QsstKOAivsuoEtKMC7VFf7b5x1mwcQRC38r8xtf1rZ+SsRbH8JGBefR8xHYcGdG963r166XLjvfAatbfsd+O8smNYO+X68u0xRx9EWPQkC/QvjCLu9v8vB3mRfKrizC769cCiLEC9IS2Aq6Uul5495KTcu3Jd8l5IfqwzWkKaqv7tHi8vGzgtq66Ow5t86FNtETK6LKjdXsLP+wdmD+mVj7GzATQVx6+nCOGdV/2Pt8ec5pd7xXuWYAblfmRMhy198gAGIGTqBj9X++ao/r0wK4/59lEAcGqvMXiQa3i2kDAtvCMBIRWzaNMsoXvsixY78u2jfI0NaZzIomgYMxwA87ht0kpExgaxaQqIICAXrZFc7Rdy1XDjBUCzA8ZxsSibS1MFtTJxo2Of4b5Q1MD1OZXTA5wGHBmF7GhnaXyOPMTtY0spkmY4Pk2t00lpP7SpyAxHBoTzL1n9pHNj/d2dP9jnv6vl773HPbG10hG6bO6ZfXoGXFHjG7vGY/Pd2xj1oYzz2Zv3nhMb2ljvbN5QOsgl6H9sjTtBAFY1SfXmA/ZIbFtL2zrQuq6gWHNoxoRc8klB3IxvJe8QQzFsrgrFOdnVTQQeJvwNPYuL5K+3NBCy5DPrgBsypgaq9VKTECj/JYJtdbHV2z+2kz5+nxPtVrTRtAV88yuO8Mue/Y1lpcpS0vTyz9jud7CxFneo/pH9icrv5d/7z5YxIBee/w1rCG/iCRCgaRTs6gB1NK2+51nBW8kr+WXumJdZWe2yfm/mo+qRUYoVIQlxRYYyVhT+zfpeWF9ScC38rW6FEy3MC5grhqbd3NpgPoE1wKwgmNUCQE20RYfeF3XBgeEnZ4fOLVJjUjzMzY/ylJmqZOBfJLIKDWEFjM3DnaG5zRPoFWAdqGCp6cnlLK5e/j7EoFcfH7jeOkZhf55zsZXj8E9AqJ2fD+W8ggIUextQ8wj5h/7I2NY/fcjYzfWwX9m/Zf1Y6zzGeN+9JzL1/69bm2B/27w1rePgEkXNZv7jKUkIzmKGoS8vVlcl6ZH/rP/5r9dcMklJ+QCvJecF+bakKbJukJW3OoEZdsOm2Y2Kols0tIJrFn2aExWDWA3TmD3orYAACAASURBVL7bpLu5PIwUWlRmPl0GjqNEJRiVTE959/Ia/TaJ0SR6kinnTAn2rrWyvIyUb1SWI7ZulEfPgMnKiOcimNEllA/lF+jr/1LAIEzTDCLgaZ4xzxPA2/lpmvA0z5trgcXNrRKVwPpogmdFN5/hUiTKSDPzam3ss5lxDMgWEsyNed3aKIxpY5sNpOgCM3K+ybZRhaj8zedd8ipAEea3KNA1NnpLAzxNE1a2uNqbn3K8Tw/uCiTGLIOxJEA3ygi0ZWD1aMxm1555znp16wHw0XPaA8wRFMZjvToeGaGj5+MsSI91tN89IOzLGt+XPcvr07T5BRKdkunhMvmPPZilxzS8bABYSV95RgHwGjK+5JJjuQDvJedlvdc2MZlFPhVgIQ0ErrvgCDcFAb6sbg+re63lJkkAtqVk25eHcvCaKamM0e2BsR6zOFJAPWWSXT9K7+UISMdyImvm8+nV40h6fRTLzQBGBioyZqh3fa+Pjtjy/RgAqq3SduWUacKyrvjjz/8E67pgnmcFZ4yPnp/xy1/8El9++QVWdYH42c9+htvTDTQVUGVlYqXu3/v+9/DpJ58+sHotAoK1Uc+xllOmadeWta4CUNVY9At8pmlqsW7nSdwHZIMH2rkdtHHADuRja7sAV00H3ZSCNUwZK1pgYFX4XUpRNwx57gwAk4L36kA4V0bV0GSlFNRlwf1+dxEycqMo3rvsnsZrRmP6CBiPxqfPLzOCvYzmkCjeJ/bIUD1j8PWOWX0zhrlX3gigj+bRLF0sS96s9YEwsO1JxESoBBRwSGdgltGi+kBVDGk8d4IshJ54H4u3TEK21OP59pJLTC7Ae8l54furIA2W17C8qKUtsUO3UGR2rmrUBl3IZhMn2+sqXUik7DCxgd1O8QMQDPR3BTticaIS6jE2R4yqP5aVl4FzfzxjR4+YzkyY+4tTgL3rwBGzlrFDUXp17rlknGXA4m9/zbIu4p+qNOc0TZhvNzw93fD5zz7H//p3/g7ev3+Pjz/+GB+++hpMMj5eXl6wriueP/oIRIS/9/f+Hn7nd/93PD89Kasrm0q83l/xN//m38RPfvKT5mZT1IhjEtDLzC1kFxHJJhFlasAWumCtOewoS+qBBFd5rzEpSK7r2trdIjAQWgiGGH/Z94mFXwNR2/SljQH1CZZNwl2fq5+kMOMFoIq7Almpz/4tgIyripfX151LwxHbGJ+j3jO1RcT4s2HveszmyHD06Uf59ZjemMcZcOrLi/WJoLpnQNj53nwzquvouYx5jn5rCQBIdgVsZW7E7pax/jGrfjAfXY3+Q4RdaLK6bmkqC8GC8JrqkksGcgHeS84LTa8gAtZXADcBtXWViWe9A8si5/i+uTYwtsmMbBLdGDIx8PdeXSbbpHuOHfLX9M4dKdKRQovHzuThr+3VNabtKaMRI+Tr5/0Es/pGpqmn5EYAPCt7dF3si8xI8EA9K9eXva4r1uXeflv0g7pWfHj5gF/+8pf44osvhIm8L6Cp4H6/436/49NPP8VtEub3w4cPslXx1y+oYDw9PWGaJnz55Zd4/8UXrU5TmZqbQa2MquzWprO5LfrKgJ3fzczSEtAAs4mwYhK9oZD4BDMATGhuBtZe+z2565trhG4dzJqfxT5lbu9RpNxaZVMAzY9IYL3tDLdCwo9RIVAVhnGeZ9zmuW1dHO9TNlaz+z5K0wNgZ56/HnDLIjtYn/We9TPPnB0fAeejOShjiTOD2KeJ18b8/fU5MN1Llu/I4O73mUztbosW4GF1BikxArSNJqql1pCXIGAtQLmLfkEV/TI9KdhdgXItWLvkvFyA95I3Con1baDWAC9WALpAjXQvdNaFBeUmu+MU3UK4RR73uVJj66Iw5woz+w3kADdjUTP2MgK6jFnpKY2o8EYMcVSQWb5nmNwMGMR6RiU1Uso9IBr74EhxZ/n1AMxIYWd9VAq1hWI2ZhjCEjEEuM1lau4M89MN8zy3/IgI97vsErauK56entpr/WmS2LyFSmN72UgkBsQdYW2RG6rGAjZQW1lf0aoY+2tVhX5vQDb0nR0rCqahn7G/V8cEs7u+QqJAzObD7GIVm/sHLOYDA9U9dNY38zS3Mm5Pt/adSBfhlQlrrbKZhevT0b3MxsgZyQzbbIz67/G5PWJFe/XrtWl03cjgjvXvGcJnJXsufei8mGZU/6Pn0s695T4DUAcaQK0tTcdoo5aK7Jo2P+mzQZB4u1BCxN4OLhL+8mlSfcMAZoCvbYUvOS8X4L3kvKxVthYGQwAuBPCuH3SbYXVbqFV8esG6McWzxFlkNFZ307Mki9Q7L6Z6yi2bmDPFNGJoeoAzU1C9yT87lpXZA94REJ9hf45At2esegbCCBwcbSiQMUU95T2q84g98i4XEWB7xW4gjGsVdwIA3/jGN/Dv/+X/oLG3tkDtdnvGh5ev8C/++b/Al19+iWma8Bf+wl/AD37wgxaV4KPnj/Dy8oKJCD/8839eyjVmkDc22cCub4cxppy0LWtXA4qa3nx5DeRqQvlt92ZdG2j2fdby0sAnDSyXsjctlX2rLL664kOskSNowlQK7ut9d4/LVJrPM2Fb0LbabnK8hY7LxnrPyBqB1wxQZQZcJj6fXrzekWHXy3ME8s6A6dEzG8sYtXEEWo/mtl66IyA/akuvXToUJU2ReZ4hvr9NF1iC+XkDvcurjvEZmEjDXr6qTnkWAFxXOb9eHg2XnJcL8F7yFqkoutON7uCE9XVTwFUt8bpo2BjewpWBYHFHESbISmQEwCG4zCbyHljMQF3MN0t7JBmL2QO6b2VxYp08AD1iVSKYHSm9rP4xj5Ei7Cn8eMzXJQPTUTIG6XGDA8KyyCLIWtcN2JH4nH766af4yX/8k92WwlQIz7po7fM//hyff/45vvGNb+A3//pv4jf+vd/Afb0DBHFdECddTFR2IK7oYjDvgtDrA2Nwqzvm+3RnNCioLUTNp9dArzHGjRH2oJ9CpAYAmIouqtMzBrClI3Vhu4J3PW6h2oQhFgNhWZbdPSRddGe+xlOZAH705eyNBfsdjZcRCOyN9xHjGsdPD1CPJI79s2Cwy3J2DNQ4dnptzMqKdfX5xfpnfRLnrCMjuncv4v03YxSAbPmr8zqYwKQgWImOtmjDELBuDQ5+BTCLny4RUCzurro6zDe0dSNl2xjmkkuO5AK8l5wXrl/BXBqwyl+5ATxtWtdcHJpp/wSQxutlF0fKkoNP7YXuJ9SMpYxpMnAXgUoPpGVpoowY1J6iH5WTHe+xsb2yI7uWgedeHmeUu29flldsfw/g9AyW3v3zaTaGtKJME/gOCcElB8HEmMqEaZbNI6BAeJomPD094Xa7odbatse93W54fveMcreNJ9TXlrc4uwb2mDbm1epi9fT+taWUFsHA159IfI+th4WVVp9l5vait/VVKbKTHHPbx6qQMMGF9oynftnCmgnFu4FpyMYRC0tOZGybLWZTzLHUZWeUtLoX7YNa1WeYwLx2x431RWbgZCCp99zGPOMY6qXrgd7RdRl479Uhfj/zbNu5kUGQtSE+O735IJY/IgBGi1ozP/rHPmcAj3PI432UgSVvUBTk+nBiDGyx3G/QgSnp6l3eDDZR8oRfAfrI8r4o3ktOywV4L3mLLECVV05tYQELq0vK/FYFtuuyTVa24pZIwa9a7i1mKGCT50Z6PQLP7RhtCh2PitZ/NnbuYEODTJk+MHF4VHhHrNFZ1uTomlE+vl6jOvvy/Ov4DDhHwBzz7rFKsZzsfvhyYl6jdvq2TpOELDLGsdCmpC12rb1SJSLVq7wDuoAscrNIBNs2DRsYLKUIUxzq2xs7SEBIBBqyta+uRGd1mZAEjZVmtv6WmmkGALad5KSe23FLYySu+kq0siu49QWYYeHRAF24BWphyjxwt3O1VmGeSXerW+/pGMme3SMAORonvd/Z89O7N56p74230bMzMjKjjIzht4Bd386RwXgWoB/NIfGazGD2IFeG++M8kBSAxugCCnrh9EBB21GNWXQH61vEumgaXfgMPb++GLt7Ad5LTssFeC85LzY5gdvuUKJs1XeX9bhNQWaAM9DcGRwzAHdEQOy2ocRWZG9C5+3KAXg8UlCZ8hhd74+PlE1PscW6RCWYKQ6fxrMzmWLtKeAsTQ/UjtrZA8dnJBoVR4AlAhB/vFZRmgUby2oLybgypnlqYJhI/WSLAGPx573hdrtteWNfzqzGmoFYuH71ERAao7p1iLCwrk0xrFRl91aDhDW16wzIqhOLtJMkvBM3o3Fzd/D52sKyqbHg3NI221B/s4/koc8xQ/11ddEe034MW94tCght7Ha8x156AHCUvgea47kRy5o9o/G59EC4B359Xr0yYj2Pns+YNgPq3k88lnPUj1m+0cc6gv84F/qytnT2KBT93Obz1MgjIye0ns3dplVcv9hmREBb1EyzfK4rMFfA3nOYOx0qQOXLh8645JKOPNJel1zSF5l9bREaqnyWmwDbTeuL9U20sbysx2k/MXNjDGqb+3qsgZ90gW2xTCu1owhGinZU1gjIvZUtib97TFOmzDNFEo9F5RzbkLFWvXr3FHSWvqfY/blen8TrrL7Zee/Hy8ygQnh6fgKDUXkLxWULymKcYQBt57Ln52cJRXa/gwphmqd9aDAfWYE2/2BfDw9OAbSQZMbQElFzjXhg01lCiflIDCaVuS3s8WCd/T1g3ha4uT718YCtbAOym3koj2nR9K0NRLKRB8QwYGzuGXMpmArJFsdkvryzQJTkGYzPULyvZ6QHPmObe+l7dfJpz4Do7PqjeSGC1/h8+jxiufF3NjeM5p4IWs+A4+zYvn6PddyyfewXX4/S2mS/7Rraxr19liL6wjYvqixEiQJslNsWdnd6AugGXC4Nl7xBLob3kjeIMbq0TTz1VTeXqO51lG5tzi6ETCmyK5vPC7zDyM3A7wCovWLaMweZ0upN+DGNv/5M4Puo/CwSQAYC4zWjNL22H4H6mN8RsMhYpiw/n8Zfm/X1EQOVld+ry6hf7FPi8K4N5BnYneYJ6+JCdvEWQWCeZzAYa13x+vra8ipUwGVrT2NZe5sqsLKbCiatfGbekVfmb5v2MWk0DdemFkN3mlCKN4iKvN2t3ECsAXG7ToyALSIDGRWXgTk7B/GKXPWtTCELIGX/WHZcI2o+xFK/AtQC8cnM3YVaWYN76BlOOx7H2pEBmEm8bpTO5xvBYqxfz7c11m1U/llD2dfDxOaZnsT0PWM3PmtHfWVDpgduR+1hQP3TM1YXAmiNHFltEyNSfXIHqu7oyav69D67vSbIY/FLLjmUi+G95LzU+xcAVdlg4q7bOrpXURY6hiu2hQms1vgIePaZ2chY9vPImVqTDAx65iWm612f1e2IuRnVecQsZUxVlvYsIO2Vc1TH+D1jZCNwHbFk8Z5mzF2PEWz9rf64sfx1WWHRbIWJnFzZBbf5huenZ8zzjI+ennGbb1jW5YGFfQQ2BdM8Y54nYTqx3Y99rF33yhgCes3FwIDxDji5frHzRBT0uLg2MBjTtD9fitRrmqYNkJZtE9d4jyZ3vK4rFmOsW7nad4Way4LlWaai0RmA5eUF9/XeNtKI9y7KETsbja8snzjuejIa6z2QeyTZM+7vm883unhk9T56Hnv1i7vb9eraOx6Nk1H79+3Kr+nVfXeclNGFqgX3u3k4GCHC4t4DZiFO+FV3WGO0UGZg4P6C5gd8ySUn5WJ4LzkvtVZQVfcpBbrM8mqJiu6AY7vikExk0w2YnqHLhx6zbN9yVi9jfEagqsd09oDbiFnJlFwsywd6j2X0QHbv/IjlzNJngKDHtvXa3gPRvj69OmUMcTQAopxl32L5MW8q+34z8DtPBbf5CRW6C9mOEat499E7/Ke/+Zv49V//dczzjO/9ue9hXXRXsbriNt+2Nu3uZ0XBpGzrVqdSZNllNH5298vyANoCuKJs7FrlzUiLKwzT44+vsycLwUTc6mbpyiSbQcBFi7BFcV5YwbLfNGO/IxaEXa7cFv1pAKjmC8wMiTARDJMjcJndX38+Gk1HYyVed/Q8x+t66WP9sjbEOSIafZnRedQfo7IAWaB5tu4+Te8ZtbrGfszS+XpkBsqhkALhBnZtq3l7EzGpq5w9ASQuDOUmOoTU1aHqqGzpLo+GS87LBXgvOS/U1PHmb7XetwkLBLBf1FYB6Osqi+rApOdEbDU85OodszUChXuRCXKkcGNeZ4Bevxv6k31Psbw1XaZEx30gkoWBMiDcU6SWZ6akY12z64/606d5a7/2FHZdVwGPUwF48zlFKaio7bpaK27K8q5Vwkj/xb/0F/EX7fW9G4sWiaABzwhgatVX+zn4j1s623cGJEQac1tYBtpYWisPmhbBuCA91sAl2SI8Ac3WTgIAq4Pla3lq/pgmTHDGEZvRquVVbDuzaR4TBPRanrfbDZ99+hmY84VO9tv3jb+XXrJxnuWRjZszBlgvz15dopHRkx5Y98d8XSIr2zNes7GftXEko+c2PocjY3VfFusw6RsXD3MY0eanDoAgYfZa/F0jTFZ1Y6Ab2loPcRAXfUL6x0BzgTDQDL4WrV1yWi6XhkvOC1GV8GPY/KioAOvXEN8rXcgGyGdd0TaiWGzbYcts+85QcCHau1N0TwltytnSvZVBNCUXlV2mtPM65HkfAUX7HpkinyYey34flUtED69ZY5ti+lG9s3J9Gg9iMgU/Ai8Z8IkioNSYdYh+nEoDr75sXcvd2l9hLKe7t9j8fA3wNjXPvIHKBmC3BV3k8jJ3BduSuLUF2Ba+AS0smDGt7XgAGg0Iu3YzCyNrYLVnFFq5Bp5l8439dG991PyMsTHW/n4SiXuDsLxStw+vr7sy43dfRk9GzGJvnJx5Bnzbsnr5OSLLL17fq/uZukRAH8vPJKYd1SGr69Hz7c/1QP/jOWFmxT4611dkxhRsLDLqLhnJ+brKBkZ8V52hoS1RN0Ns/SC6ZCrqSmdMb7ko3ktOywV4LzktXPEKImCeheG1xWp00xTu5ScrA8ws4FhZrcbhNqVsMyDv6d1YdleZbvxBZJKOlFk8npXVS9M7Zsej8usp8ViXtktRYBfPAOgsMkGWrseMZe3q9aG/NuY9Are+LVk5qeJMGMJpmhpIZGbVkRW1hte49uo+tHUH6lzc2RZyzLXHAGGLgqDAOLJ23p/Vyjfgu67rbutghgACA5NKn8kfB9cU136rYzTW/FbLRHu/4R2AsnwS0FVoA7tsUVBoC7HG6qbEXHG/v+pubP3nY2TE9e5zz8gcHbM8szEcweNZEOg3EonjOdaxZ6Qdld0D4iMw3JMR0M4A7BGQjvOO/NkQPY5a4Y21ZuQBhpu3M2JlSca6a6KEsJwgYcn06jIBNGkMeN3waJq6BMkll2RyAd5LzgvRK8CbH9X0pK+b1LeQVzTL28DocgfAMjk1MVaWmhcWc5gYfeoB6NzniYd0cdK3Y/HVf6aMM6DZq0O8xpeTKfiR4ox59iSW2VssM6pf9jkqLyr3I5A6Yv2yNL2+ite+vr7CFKYAWN6xtnJNSYELIIDOR2N4CDMWlP00be4D/rzP2zOlDVjaIjXfNmW+Wp3YuSBQXLCG5u6w1V3E/IBjNAmT4lhmYGOZWxkKSlqdyIP3zXCwqKfWrwzgvq5Yqmz5mg0bD95Gz8/ImMrue5+B3NL1zkfAmhmTPfAa0/ckGnNngG5kiON47eWRGfK+HpnRb5JtV96ro3znBnhjnWN92m80c2hLuytuIysEzN5Fh9De7170yqTgWH160XbuvBjeS07LBXgvOS2yYs1YWhJfXGagvuiOONhCj7HuJGXhnsrc2Cuwfu4ig26SKaQoe2XQr3NP8Vo58fgRWzPKI2OozgDZeJ3P158/YrcsvWf7Yl6Z8uv1Tw/g+s+o3EeSAZvIJmWSAwZZWCUJ0NwDLJyXbIXrgcPWR9siLa13UbAaGFpffq0si8I0vezAti008/3VlL0ZVsxtsdpDexT8tp8PmwOUBk59hIdWXpENAOy6lr9rT2uLfu6MPc23gehpi2Xc8rItmotjkxng1fp0vxWx77/R+M8Y2R7g643Ph/5MJHu+fFmxLn489kDjyDg8AvmjemWAPdYle16y7z56yKguR23b8tjRs7u+y4yHh3LsWWlTv+qSadLNJLC9FQTbNomiS9ZXJVoIQNH1IAzQBWEuOS/XaLnktGzT4KS/Zplwyk3Bb1VfXZ2YaBIW2Jv1LZD4lmcBsM2EnbKHSmSsnKLESTkDg0cKK2OcemliujMMT7weyBekxfwz5ZUxRdn3EcM2Kjdrx9nrIijP+rIH0KdZ1tyafyq56SxbWAaibYczAKjKXtK2TW8aton3G1/YNsaNJVaA+cAWYs/Ger/eYi4ZWq9pnuUckboVaD5kVd/y3IEi9WdGuPfmr2t96t0grH/EhUFk1ggA4npRrQZbnGNgl8/9/or7/d59U+LrnBlvPZA0AsP+9wj8PTCNYaydGfdZ+dmzk9Uvq+NRXbJ+610TDYKsztm1EaD6tkTDNZtLHx+nPpvuj9kpYnOP8RkVJUAgOqTcpCAi3UJ4kTRl0k2O9Hkrth1x/eqh4Esu6cgFeC85L1RkJUHVxQWyWkhfQc2QiekJLTKDvZq6/0rClZG9HNVJUrOtDRk8KpQeC+Olp5D876jwY7rIkPTAZsa2xLplyi6WFdvXZ1VyZZa1waePx6N/b1SGGXvWAwg9pu1IemwTMx++Ys2EURtwm+ZJFlTp5gzruoLXVQAuCVNKEJaJFVQWVZrMslubrweRbgEMiVpgYyhjzfQC4Z6INocdBYroGBq7+8rctj0GtgVkD23WOjU2mhw4dmki0H3sO/uHtqjOX68mAwBsYFfPT9OEzz77Bub56cHfOavH6J5mz80RmPRlRaAWz/n0cR5pBkzYWS/zhR8B6lFa366exHmhB3KP8rNr430/+/xmY1S+y5ydNWFkXLS3GvrBxJt7TiON9cv9K2B5EZ1hURhaSDLbgU31DViIFV4BlNdux15ySZAL8F5yXphf5fWTMbyLrrC963lNR9i2iDSWt11Tt4S24QS7S3UCjABzxOT0AFdPKcRzPbbx6DqvVKJyP7uALOYfv2cANWvTGWAxUsr+2Ii16TFivTQxz6N0vb7f9wlQ69o2Fa21ouqGE2Xa3DnEN1zYo8puFz2DclY3oEUf2PWRSxMNr8zwsYV0ROJqYIC0AVcFq/a9kHMRIGFzDWxu3x2QAR4iLWhmWzo94sdf9a4Nvg6tKuL+YABF8qjSn9iMBJNpmnC7zQDWIUA9AoY8MDRH4ybWfXQuy9N/P2NQH8nouRylycBnj5EdXZcB+TNz43kCof/8PoJjN3dEYG3zPbX/Npk15i5oY3gBqG8QwLrZEdxubNP0UMYll4zkAryXnBZGfQWzgleI3269b5NOuUHQq05IIAHE00cA3TScjJM2pykIdnPXGfB5hlnsKZXseEzTy++oftn1R4C0l9azNr28s8VqUZGfASY9BTsyDnqSKUH/OwLnt7HEvG16gA3Uta15S8FsERdQwUzifa6glArtYkHHehHRxlw6A6b5tfrrLO5trfsY0pZnaJsxX80NI+kfBjemui3KUxDArOHRsB+DJuKisbXB6k7QsGYA4iiUlysuGgURoGxzKfP2dsTK075Z1/owzh7v1Z413Z1n3oHekaHlj4+M1vic9b5bPjEvz1ifKXvEvGbjewS0j57JnhGZgXp7JrJr43W9c34eGblTNWzq2+SMScDKMB9cG+/b84X5482PlzT6AusW4WVCezN4f4WsD5ExCr7WrF1yXq6NJy55gyiAvX8FsK2S140m6l2scF5aUonB+7oHwC0s2fYV9kqWsVtp/xaJgA44VqC96zMWM7J5keXrKeG3gPNM8fiyY/0yJdcr56xxcAb0ZnllQHjXFxYtwS268iwkc3+XuAgOiAhk/rDKJNnoqmuVfEpBMdBHrPudbFEZCAQu+/4m0nBeDqAZK7xrk5bHtYJcKLNlWVoftri3vj+J2rF1t8gMqvsTY4Ifx3EE5ru+cv3d7pcejxtjWCl+bJuPA2nci4raQmtbW0GEZVnw8vLh8NnKDJsIoFZm8Wk+MB4zhvaovHh9HN9HeY7mley3fyb92OmB1Sy/zCAfPV8j43FkrMZnKis368/Yjux82RJCpnZ1iWAGyNKTqgV9jtdX0RdQQLtqLF5W94WirHFdJC7v/R0wXYj3kvNyAd5LTssKqje/6w2ggFeDN9RFFWbRqA1mhSsYJqBpVD9B45Hxi5OxHm1xVv25s0zhGZbGg4gRq9o7FhmTeDwCZS8ekMS8ouLttXMEejPgEc+NjvfafKZs2xXM8mqbKJzYCjnLc10XUN12VBOQqq/0a8VqdSZZqGauAOu6bu3EFo+3MXzMjZWNhgzz5g7gd2QDNlC5qy+7OhhI9qDV6tjGf93nRuE5IWFhzfWg7doWymVmrLz5cta6bnamv7+kbHNlrFrliirRLwgoyswtugFAIZJIDVq2ZwCP7pd/Vmut+/ueGJf+ukyyZz4CttGY3YH8Tt3PPPNnn8Pefcokgs6sfH++jUXXpmyeOTLKs3r0y5V5PILl7L4Ypm3e7foB82Vjlvi6rAbiughzS5O8FbRwl5Z1ZWDS56PQ5cN7yWm5AO8lp4W8Qq42CbnXUjQrw8toW0JO74DyLN8psLzuF/Oe282AFzu26wzLeAYIZ+zKW9KflbOg4LHNvGNCe2B5JCOlNwLn/vsZJq9Xbqb4J2X0zuQT61RrxVorqgORa62gWlDmImCvVgmvRWFTBohbg+WZgaXJxYy283HRoxknBnlpmnYRIFq/Ae14A8TQOCe0bUeMWlu4s3XV5yy7/8xtEZ1/FiI4ISJltFn6ukpdIiMs7hHqT6ztZjLQJMzcXAoWMyJAbcOM+Xbb+Qf7unbBT+hf6xerd3bfR9IzMH1fZN+zkcKCxgAAIABJREFU63vHrF09ABzBpi+rBzqP5C3pH4yyDqA+W48RqM/mo2w+210DURGVCrYAeLR9FBJ/3PlZ1nssX+lFC2QB9ISdcmiLPghg/tBtyCWXBLkA7yXnhfkDvIVfGSD1y2KGML2zWufqczU/A7d32LaLhBwnllie2MAsOspn+27V6DMjUenEyT+b9DMmIwNqvbxjmgxUjlivXnsf25+Dyti+Uduz6yOY7MmozdmxTPlHIJClH/W71e/p9gQCsKxrI4xqrcCdMd0kxJdvi4EsBmPlFQXloX/MraAHHPwmFuLnur22bmxxwnTtDDlbkKbHjVHGZOxW3V3R2GZA3BRIoiU0MO0MCKsjCZ2mJLFtXVx3wFJNBS2fFNzW1kYxKtbWrnYvIX63ta74+quvG2Me7xtcWfH86Pk8I9l4ysoaAb7RWG73OIDc7NkatTM71wPC/vyI4T1qa+8Zy9rZK79X1lvmk106GD51INd7k9cqi5yfPhH9YbF1i25qVHWMseW0WmFQBXTJJafkAryXnJZKpW1v0xauMbvXU6vG4zUGRyM12II0AjZwjHa9HO5Pwl5GLNAZpTkCvqO8eqA1grZ4bbxupBh7xzLldrbNGXg7w8wc5XsEvnuK9Kh9R+nt97ou+rpza4+97p9LwcvrHf/wH/0jfPH+vSjhQihlauBvwsYyyuI2RgEBRUCsvc6fpkn8f0ESt0DrNTeWawOxtvPYbZpRa8Vnn32G/+gnP8HHH7/b+nzzLdjaqhkREVZ2oNb+EgONa21g+H6/4x/8g3+An3/+JyizY84ZDbBWrljXFZ988gl+4zd+A9/85jex3BeUUvDVr77C3//7fx8//5M/xvT0BIDaAlMmxrIs+MG/9QP8+N/5sTC8RcNUIY9GcsQQeskMrDPGaTbGYh5HoDHzsc3qEZ+/HsDs1TOrV/QNj/lnx7O2jZ7nXvu9AXeWQY6GZzw/umfMG4atAKaHHACY2apjC0QA3VRX8JaGGdtOnoz9rmyXXDKWC/BecloYEC1bbvraSUEus8TfNWvc2N1q4cqS11gEMNvEBoB1mUxg+oxtyidm3vJM5Mxk3nIKrEiP/cgAbAZ2e8B9xOrE67P8MiWctbcH6P25DDxkefTAcRSfpqegszJ8ulHb9ucJPsrRFtpLwpG9vLzg//y9/wP/6qf/qi1WA8lOYm0z0iq8522ehSlmVpcCDXHGhNvTk/i0ahbLsi3KtA0oAGCeZ9zvdzAzbrcblnXBd7/3Pfz43/0xPvvsU6zqR1sUmEPBuQFa6wdjFS0NNE3sL8/svv/yPf7u//Z38Y//8T/G8/Nza4ctpLP6rsuKb3/72/jWt76Fb33rW6iomMuMn//y5/id3/kdvP/le3zzW98UQLZWYCLMZcKXX36JX/78PX70az/CVLZyn27z7v6+5XnrSW+snr02MzazZzTWNxquvTJ7b0AiO2zl9MZ+9kxlz34PTB4xs2cM514bfNm9uh3lsz+A5voTgzSAeNu0yACt7dK5rqIfLAYvbOt6RdBlxvYwX3LJsVyA95LzQuRiL6nbgsXXtdW1FlLGFrOxAmDys5xmUkjXu4m17m35fbGZAuiDokzJjCb7EZjzCqq9vk4m/56iGIGAM0qlB5DPtCVjmbK8RwDzrYxyVsejdBkIGLNfGlvWjQFmxkTUwnnVVRhNMDDfZkzThPv9jgIJVTZNE7jINXHx1+12AwCs9wX35S7lVvE9nXV3t/W+gMueXfP+qwTC8nrHchfA6Xdzk/OtUS3EGoDNNcO1164BP/rKArKA7MOHD1jXFff7vbXFL9AjInBhvLy84OXlRfKpDEzA8rpgXVf8lf/wr2B+mvHP/59/jtl2fgNwu92wrgtWXttzPFHB6+uyi0wR65U9EyN21F9j5/1nHAs9Y3AE9vzY8uMtM6rPPrtHc4JPH9OODNMsj1F7MoN4BEhHxvcImPvjo3K2TCHvA9o2wKxvEBjNTcHOWZQf2GLoIovYZgsVMltF7dWIXXDJJYdyxeG95LQwe/Mc2F5DacBwY6WAjfldXrCFJcN2nmjDrISmSM8wRXJ+zOyOlNcRYI0gcMT4+Gt9nhlj7NOcAbux3B4A6AHaXr3tWIw5mtU19suobkebbfTkbN9uQijycl3qoeNHQLBGDCnbArTb7bYDgX4RG/MWw9cvZpumCTSVdp8edq4qtGvzsgj4s3i92Za7zNzeSTQgqyyujWjbgtjyYXum3Lgkl4fVy4Nx28LYjs3z3I7t7rFijsrS/h/+8IeY5xt+8ctfCCtXxBiY5xnf+OY3doB+5Yr7/QUWWcL3ZTY2/HMVQdnReBmN99H12fPSA5Bn5gvflhEYj3kczS3xuTuKBdyr4xFAj997c0vMt5S8/8/0AeDGqv2wcGTyemMjQ+qLhCZjVp2hbC8IbQc2NrKjKY8vh4VfcomTi+G95LQwygexuF9loQFDdr9pO61VdWnQCQosBrifpAysurlbJlBqc+D++Ej6irD3vZfe/84YzcgE/WmZzsj0RJbnKP0o7xFjE8+/HWQep42M21mFnAGInsJvYKA8bhfNxvqwjowioM9CaAEbGLQyl2VRBnNteSzL0sCiRZOIG1s8Pcm2uvf7vTHCr6+vDThnTCeAhzG+6g5nzVhw53ah2wwokWN9tS4zzY3ttrqWUrAsSwPBEegSiV8zCJjKhKenJ6x1xRfv3+O73/kufuu3fgvzbcay3MEMfPLJJ60vDWiv65oC3Oy+eemBS3/vR2Mly9Pn1RvzMY+MyewxvZZnBHv++fTM/BFIjnNJNIhjPbP6Z3X0aUbzVFa/PJ3jMJK5q5f3DjgbF1JcaDFduAxgY3ur7qJGcOHIjCipErqsPAHT8waMcUvrcMklmVwM7yWnhZkrmCtoFh8rvutMphtMEKkVvqpl7sBvY4c3dlamuQ2kaCEAHpXRiPn1CrenTEfgNkpWjs/f72B0dF2swyhNVnd/ba+8HnMU69Rjc/1fxvpkjE6moGOaWE5WD0tzBJiisq113R+HDrECZUwlnYHQBhxDvlYvz16aNP9XYAdifdxT/5eFM8s2UmHm3cYQ7PqkVgn1t29rlWgKnQViFbWBTxufxjZHgOKPedZ6miZZ3KYbd9yebnh6esLT0zOenp5wm4UlN5eRZVl31z+0u/M8xrRxfMTv/j4dPV8+bevnMJ/0xqOli0aUlxjvNl4f2549SzF99iz0np0RqH3rPBb7qpeGDKwmc4vvW/9stTyZNWygnqjqj05mrpHueEiQEJYa372uQqgA6qe7CsDdXknomhHg8uG95C1yMbyXnJcWWkyRRVW3BZogvlWEtvjAOCiagHnGPhRNQ7fYWFr3aqsD3tIqhcnXK674OwNOmRyxJVF59YCUV0aZcol1jIrN1yEyTz22adQW/5kBk0xxZ8p2ZDycqVOsxxnQFPuRtU9szKysUQtgxpV6ASr4u91uKKXgfr/vNj7w4bysTA96zEd1nmfcNO7suq54fX0VdlUZVB+yzBavEVHbWS7eOyGxNvbW2mGbSti5XZ9bXxrAsP5gYW17AMsD99bfxoRrO+/3O8pU8Nlnn+Gf/JN/gt/+27+N223WHdVe8Ws/+jX8F7/1X4KKbRpi7GR+b0dA6gw7mBlxo2timtE4HBlfozzj8Qy0ZgZfVh9vhMT8jr77skZz2KiNvu7RKLLzch3BQOWobd1+hO3irXnFZAzJnwigJ2x+vqZrKgBdoEZAc3UoRYCvC4t3ySVHcgHeS04LV67y+mnVndRs9bsq7eVFIjMQ6d9NAK+9yBXzvuWnR4WR40cubASWWh7JxJ4poUy5nJXs+qzsCGqycz3QaumO6tUDq6N6H7XD53sEEEb16rUpq9coj0x2/bnWFsqOiESPMgvQJYCxgrmilKkB2jUoxtjXzNzcF6I7wjzPu62DTcy/1YCp+QrXWvH6KhtA2eiHfjJvTG077iIzxPExzZMwbOvaWF7BD57Z5lYPq8s0TQ2EW7vMtaMBSvfE3e93/NEf/hFKKfj2t78NAFiWFZ9+45t4ev2A9198gVWBMwO4PT1hmmdU3m88MTLarD9HoDQaXiMG0x+LxsFoXojX+TQZAIzXR4N5NL9kz2hxRlDPGI3PiB2PuzF66T172fN2ZHBk7crqlOXnjVI/9uXPEx7tAv1SZD1ImXSretUp9IzGAjPJ33IHbs4IvOSSE3IB3ktOS7WwZHXZJiQAbfFBs8jD4oIaIjroRawLj+QXgWttr3ePmEGTHvMarzsDQGN+vqwzoLIH+mwRU1Ts2bGeou4d9/WIfRPr6eUME5fl16tTTOtf//byMgWevSqO7dn1TyGUMm8MJ6i9kicqKFQkbq7mu1sABuzYXV+mpTc/1Xmed/UxFtj8dL3fr2/ntuisNbRtVIFkLEax8xbKzAxIsnPOOBQGrbTFbrfbbff8xMV4DMai9bbFavNtBk2E3/3d38Vnn33W+vnl5QX/9q/9JXz3O9/BP/un/0zydPdsXRZ1HakP49eD1jhmekApG8NxPGSgNQOnPQN0ZPRl9yFrz6juvuzetbHu2dbAsZ0jo9u3OQOssV6Z9J75LK8eKPfnWlmsmwoVAizIj0fCgLotFNEf5Ee2frQFbHqAV40KBKCU92mDLrkkkQvwXnJaGPwBQG2hx6puI1zvaNFhbIIyBQ8A5gLRvsuMR2qts06AVMrOtxHIwW0GMg/rPgDQMd8MEGcK6Kh8n2fGJI2uP1LY8dpeW3rtj+d76WJdjvId9U9PWffq0msvq9vMNE1YvS8ss2zOROT2FdvEXBC8+0F2331EA99+D5ot/Ne6rljXdQeAGyBca/MwZKBtyWt5Zhsf+HKJBZRCgSYA2YJYv5trBmMbl1YHA+d+QR0RORMTIEj9P/n0E/zVv/qf4Bd/8nOUQijThGme8X/9w3+EL99/gT/3ve/LAjdsTJ25dbABGlf3HrjL7q2/d1Eyo+ysoZb1aQZaj56B0fj1x3pGeK8Mn64HdrMyR3Ub9Xv2nI3uUfZMxjIykB/zNkPNcrI3M5tzL7k/PYeqPrzqzgDVNRb5p74AeAfYarhLLjkpF+C95A3ign7bH+u2kDQp86txd6ta5HXRBQeAbdJmExXbSl0iRHySgawMpBwpL7s+nj/L1gB7/99e2bGcEUiMdT4D+kaSg8JjAGnpeizbEagYKcrefYoKPjMsjpijZV1Rqy6agvi78lpRvD+u5lO5ijsg8y5sGAC83l9hfqwAdgu9vG+vv0fe3cEzwAaSvdsDs8S6tTZ5xf/Q79i/Xt/1i32HRFawYz6d+RabK4OJAXKfxvrAgPm7j97hP/8bf0PSrBLfmIjw5fsvwBbz2HZe07pOpeC+LLtYv70xEe9jdl97AOsor9Ez2Cs3MpSZsXimLUfPjR83vbRvff6yZ30ExGNevXkmttl/joCuvz7WTdJxA72A0h7NgCPVCcrarh9ExVQ7XgF+BeZ3GwvcQpQZaL4WrV1yXi7Ae8lpWVXpySpaF4rMojQwsAsuzroRxU7UaicSrOsYJ2+tZxN0jyH050YK5Egy5evBdqxDBuxiuZZupJxi/TJWJ7pFxHRnlbWvi89jlN7S1cCmHgHiETuVnT8q32Rd1xb3tilYO6nDb5oKvvWdb+PrD19jnubd/TFm1D4tbwOMrHZYKUUWw7GE7mJI1Ievv/669YUxu3athesCIFsZl238FJDk/QCAsEVg0Fe37Pq4PSEkzwtXFnvT9wtt98gW0hnIt/Gz3Xtu5VjeX3/1NZa67O6R+Sgz83bvVzEA5nnGx09PYOaua8fZe3vEombXnQWG8VnOAGOvPkdlxLSPYO+xzhm4H4HxrLzRXOS/x2c99k1Wv56MDPLxeT1OpO63ZQOzWxJ5CIoO6rqgRfWhovrljm03tgosi21/fSHeS07LBXgvOS91qeBS21aPRlmt+rqJPFNLcqxMwPyMLYC4XWTLF+S7Z7+AHGhmE3gGNDOFFWXEikRFmV1vICKTTPn1lIln6EbpfBQBy9szgr683kKckYxAfpbHUZ9mffinV5rbuVorpjI1cCftnVAmBa6VsWLF7faEv/6bv6msrShPX79CBVT2Ybo2f3LXvwQAstHFNE34o5/9EX77b/823r9/31hgv42vxb4VgLtf/LYSiw0YmDJmRuNw9bl6YNYM7Abw1vLS+lkfGfAmoocFbLVuO9WVqeDLX3yJ//l//J/w/ssv8PT0JO4LDPzBH/wBfvzjH+833Zh0a2Rs7hIjcNYzBHvj4cgw9GOhZ1CdMZZ9HbLfZw3B+DsD2T1wG9vTq3tPMoM7IwV67R21KQL0Xn6+rr10JoW3Z6vtsCaUrxyb322g1nQJ8V7H2DsG00F8RWm45LxcgPeS08LMywZLZ6B+kFdOBnbLpIsJ1DoHxBer+F1y9HiYyxnAA+rF4+u/M2Kv0kbgyfLMjo0YEKtHL49Yzx5LZIDNjsXV1yPGONYrph/VIUsblWwPrMYys7rEdL0ys77pKeT9dbQxr4VQWH1YawWmCbMysdNtwve/913QNGGaCmwxGyBsrYQAlbBhmWL3ockYANeKjz76CE8f3TDdtmgOr6+vO/cHos3toaKiYAPEzCzPQAIMjK1ld1yYMfv92CfiuoFW9rqubRONjMVelgVLXeVRVUAxTQW/+vJX+L//2T8FAHz22WfixrBWPD8/49NPP8WHDx+kHyq3HeZqrXh5ee2Oiew5OjOOjsb8GeNtlHYEsI/A79l69EBtNhf0QHnPiPe/Lc84Jx21f2RYa6qH8fb/Ryyr7V2MhiFj91dmdYPTBc5SWQCTujOwsLx1ld+FFAzXL/7sanrJv+5yAd5LTksFLbC4jOtLOypik5ShVtbd2NRCpwlbLF6brAA/HY7w7BEzmBwFUQ5uj/IagTP/3UBPTOvLiYrNK6geuB3VMWNhewosa0cv71H5USkfKdGRsh7JEbsnYNL1o7KUtTIqgFspqJVBs0RpWJlBzb0AshBcy5gKYVkZpNENMmOk6CJKIgmbV9cV61JRsIFkY08N6Bq4NABaAReGzN5wCICmUjbXhVL0UQn3k/29flzkJiSZ+MybW4XVyYNe6QNJJ2VubSVC25mNWdwgLLrD7//+7+Pl5QXf+s6328I12xmOyDbi2Fi2twDS3j0+86z3ntP4vVevDJD32MuYj6/nGUMwO98zJo+uy377dngjumdsxzbHtsRmHIHkN99zrwegRp2P4GN+vcB2niy+u+7mWRcABAbVP0Nsfsm/5nIB3ktOC9daFTWIlc1Vd7wxmmnZWNpaJQjpNG8hzEgXHQDtrRX511y9cncz8CMwPgJ7MZ8jBnYENjN2clzfR0UXlUcvLNeISR6106fJzvfqnjFyozJHinAEkLO+eAtIJiKgStza9vaT7f5UUAXqJAYWETXXhWKOrwBWoB23uvj6GKC277ZmPI5Vc1+I0RHadsZVWF3pAs0XDCZqKr8tIFsVOJPz59VP1rYyuJ1vfQUGTdtiPAPivp9tMV0LWwYGFcKyVHz6yWf40Y9+hF/84heY5xnrogvRFODebjf84Ac/EGa9scoEZlk82BtPI0Z/xPz6++8NSp9XZmgeAbwIckfP18jo8vlmwDm2IeYf3+b05qOsTJ/f6Nn2dThjUPeIgZ5xmz3fI+C7PTfuDR8bmC3isgBGW/wsmctn1S2GaQamJ7TY7swgvlatXXJeLsB7yWlhQ7KsqroumyVeF52IbLJiXYRw0wnLdmjbZQhme2cr9nrGLuwuUObWzsWJ2oMxn8dZBqI3yZucYTd77E9UpD1QF5XySPHEvLLA9BlblfXPkdIeXTtqT8zvCEyM7h0zY62rsLdUAGIQCLW6KBoomBSkkqFhX07R8FzhfvgIDlohlHlubyoIAGq+Cn8LRbaxnbKIzfpQgam6+3hG2F9HIFRU8GoULFqEBP/4GIDwho0tVjM/Yt9/T09P22YYZdsmeVnu+PTTT/G3/tZ/hRfdha6u4i4i0aEqKkus3mmaBDhrRT58eBFGncpwLHuJz2mWxh/z7HQEmD2DyxtRPQP1CERm/vExnwzUZnWJ53rPbvY7GoQj48D/PvMs9urXK7vXzswIafnvymP5a28BgbY4zUCtRfyBsrxmuLFatnUBJlMAFStXxGXRl1zSkwvwXnJaKhWJwVuKRmlggP3OarQxvACaP1Yp20E/WevCtQq0uXAsjwByd/YkqLW0I+V7RhlnDM0RQ5oxJFl6f6wHGo7AuT+f9VWvrllbibYoDUfg+0x5sR1xd7NRvVcNh0UErCu3UF0tf3NdoG1RGjODFRxzlcVaVtZkbHBY2EakiynJxa7V/Ky+tjDMYvx6oCQs6+aPaIvOSBfRMfND2DNJu7Gr2Ri1unox0Pz8/NzyNLcEv4DN8qm8MbUgwruPP8HHeo8rSxgyZmGVK2qLjFGkMkDz86wbm41tIaVfZOk//f2NBtAIpGWMos8r+55d35PR89A7Fz+PDF3/DPXqNfo9ArY9gO/r0Csjphv11chY7c5HXicQth9Euu+wpikKXeurHrNzZQO79S5Mb5VwmCy+DpdcckryZeaXXJII1/auSSxuhljjrDtCMQGYZHJi1h3WoIsOCDEcjQtypYzVMQDrMZ4bg5CDyExZZEo3pj1SDr5OsWyv6FLgMpAI+Hxevbq+BfAf1aGneDNAMQK7PdDfq28P9PvjG4ir4k9KbqteEkBbAUwZMC/J9qwMEIfXtHpN247XFreVkI42JtL+7Pd9uYN15yjWCkaQK6BS2OPduMO+DCm7PPSZRVugImDqfr+348Ya26e5OTDLAjSJEWwL2CzeroDdtUqotaUuO0C7KsO91or762tbIJfd33jfeuAsfvdyNKbj83Ymj+yaKL155mjcZ4zzW5+B+MzH9Nn3bA6LbTjTt9lzvu+vljLNM2TW0j7O8JaHi+2OCbsoDRZ3d+fTKzssyqI1AgOvuOSSk3IB3kvOS62CWKstIFDQy8ZiKYQtMzDdhNndTYjk3nHpT3IK0accMAm5QtncIbJJuwekemV55VUC0IhKJp4/U2df7khBjvKMv6Ni9T6d8Zqesu6dj2Vk/RHBfWzTiH3qMXgxD/lUVUj6hsAAV9GFitDzLkxXK6e6OmgxVbfGtTIaC8doaYjUL7ZKdD5jTC00F7P4yQLbq11yLK5V3BalRfcJjn3BWkfeV2XXP0ZolwLS6BV+44mPPvoIRNQWoVm8YFIjgevmy0u6PXF19TXf4ex+zPOMMs/qWpIbfiNjb3Sfo/TGZW+sjZ41q+eZ9L3x7n9n7eyVfebZOZpHTPyYBraoIjGfUd9F6bVVbLLt2dMcOmldH2zD111hX1R/VFUEoA2NlGd1bYjwxJwXdCe2uoKBDw8NueSSjlyA95LzwgygAPNNXz/ZRHWTv3neQsgAMmGxWesUPi1P0u3THbrAI0gdKQNRNmNGKSrlHuth6bNjUWGcZZ+OGOOeAu4BYrtmpLRiXr2ye/JWFraXxwgMZQxfBjIewQZwvy9twRfsUwEwir49cNETiNRvt9AGOslvZb0HvKsBCjwCTJo2VpeZW5SHjFVD1fBnWvFdm6ydwU2iuUXUDSA3O9H3T9mAK4DGtpprhdVlnue2QUZVrq1qxIe52KYcdcfUUudZ9JEaLB5y7znNnjufrid94MW7v+gekF2Tgbz4TPRAeMbyngHp2TzUY7PPPq+juac3lx3NG73n+JFxN/eVx3RH18frGuBougBorjXmq17Kpg6KLVS7oW1iREVDk82ocV3IJZcM5AK8l5wWthWxxvDqpIO6AuuK9gqqgVq38YSsUFMk0ma5JpQOxfFK5k4d22eckDNF+v+x93Y9tyzHedhTPbPevQ/PORTJQ8qOyHwpSBhJBiwrgSUDTowgiK9s3yX5FbnIVW7yv2IbdqALR7IFWHKiGJANCYhlObApkoc8JM/Z+13TXbmoqu6aXtU9s46dK01tvHutNdPf0x9PP1NddQa4+kV2dr/PY8RqRulGrLRPJ6pHLz24mJW7b88jVvYofp9vVLaRowxfhtnmoOUDFDCyUyFIibCsckgM6tyBluWB5U4AFmrmw8h9Mov92ZovdaANjOIYWqCxy7fbbQcyq+5w9yp3p07hgKXXNa7t0anomMqE3zDIQTiu1711hvv9XsOaWkJyoM+rOID2qj2RvrbfAIg5twTiPRiKnuGs788kGhu+r0Vj96gPja7110cbZ/sc5TMDx2fmn1mb+LYcgfZZvUbtFZX3EbDv0xyxyI+ZY7d5evjGCnSXtF8njN2lVNlcAI35LVknggvwXnJerkNrl5wW1TQsoj+VAJjLxzuADNG10omICQIvWK4TdCJznwBAOol3E6pMuASiOeiKGEF/PVpwIwDZg74ZIOxBWs9Y9td9HsAeTJxhZ0aAdNQePr0jcHxU1yMZlT8qy4iZOsNo+2tVN1V1xNdFdcSLel1bBegSK2S0vkCMAsJCVFUIvGpBSqnq3FbgSHu1FgJw3+47G7f3+x3ruopJL2VZvW7r0aaD/Ltf34+UAWOthz0bb2tV7rUyAgJ0mYXZ9fZ4b7eb6O0WsdSw8VbVObiU/XNKpGDCjVWI/eJEYgEjLYuaZdv36X7TOQNa/Tg9w6BaPEvnAZQP2M8IXPZ9tLdj288hZwB0NIb6OaIv3yi9HuT6ckbxR5vNWTln9dunXztpOOc+xjHiQ62TEKOQKiY8eN60a6YeZ+tIlrWGs7qvfwtxRiFvGAsus2SXnJeL4b3ktHDhrb4vLm3yA9S+qR0u4AwgA8sbmaxsTiNbPHXSBsHMkhnnawtDWyDsWj+pztnPGWjzAOaRyXhkYc4A7ggQR2XrAXIp5TD8jHk6AgkRyPRpjhauM8BjBqaPFvJZer7eUf1TEgcU1pXaYTFCWpfK2rKVIWhfVhAIoLrKtf4nOrE1QxR93a9KEXIozulQeuZ1WZaq12tpajEBB1xNHpgptG+oAAAgAElEQVTdUXvKFySiajHBDpjt9JKBnSMNK5MHxEgO6MCxzJTad/22JKouksnajwg3TfOec2Wio37VP9ddnYLN6khGYyTqtyPQ1/elUZ8/M4f05fK/e5AahY/yGm2M/P0ojagsEQN8diO720w9zI+jMBMdZH+NgWqKDIR2dFnDLLfG6jLrukF6SE2/M0tCRJeVhkuekovhveS0lJQKyCYY1aNa3+4nNABiuUFZq2QTG9wEhvrJxIKTdQL0uoRdogB6G7fHE/gRYxkxFOfYizgPz+L2bNe+7LFEi2Wf/4itGtVjlFZfn6N7EWMdMXV9/FF9jxZwn66FE8ArHsPIXWOwbt8ZpeRqa9aAXiL9vixY1RuZgVUieT2fKFXd1loWAzAp4e3bN7i9eYNU9V65sqdmo3ZxaSfoQg1dqwMnF0DTBQZjpw9sg4Rl1yeAk1T9opQKnsUiRWOqq01ft3HMOeN+v3e2UoUll4Nr6iEui8UVyZ2RC5oes+XLwgjnbUPZtmYnOJCdW+XgWZ8BmSNmNmJy+++z8XSGHY3KAsQM66wu/Tg5s6Hsw0R5jcbdbCyPytRffyzvY7v6vtTnVeOxvIVojluM0QV2NnnrmIOsIaRhGWqG7I0AYlc1Bn3+ULFLLhnIBXgvOS0MbgbCl1Utyqh3NVoBygCp5TIu6jFHbZESo5261cmaIeagqIEWP5FGi2QPfmrZTi4iJv7Vpc/joc4BgxOF6cs8WqxGC+SIqYrY2Rl4HQGHfuHvX4vPmKjoXgWeeHwWRwB3tCCP4u3bTl6Dmp2QRE4XNTN4YSwkdmd/+OmP8Pr+VYFuwrIuFbzV7/q7sDDHRGrJgaC2eoXfzDljfVnxvX/9PQCNHbZ6mVteD2Zvb15a2btn4t9m+P7jwapsEGXcMLfjOUtKAiBUVSgl0S32bex1eS1NU2sgMv3gPWgqXLna/XND0KeJkEsO+9no+fn7PWAasaKzMT4aH6NwszlidC8ClL6MUR368dl7i5uNtSPgGeUZyWxs9/H69hltSqLwch9ofabLS+f1optRqmwHGqCF9nVSk2PlFTXhRKK+YGsHk54dUVfEvF0M7yWn5QK8l5yWrVBBolInICIBvJXhca+nLEzJwPYeVZ+3qjXotKdrusWTdb6fgIFYl7dNnkesxlkw6BfM2ULkF7bRotenM5K+nGfYqxnY7eNEC9pscR2VuwclUfscbTp6sHwke+CtXa4U3NT8lpjSKkiURLc0M17e3PDF+y/wj/7hP8Kf/MmfgHPB+nLD7XZrDhScGScDrKTg2b6nJE5TEgj3+2sN++6Ld1hf1soam6kvi2uHxZZlQYKarHN5AXu2d1HzaZaWOYyobQ5hoQGn707CvJoqB7PoDZuFBnM24U2lAdi9PTELEDu7wJDX1oxm27fXRSYiOTSYM5rFteO3Cf4+897Kwghc9WkdAcdok9yHGQHbPr+jsduP09H8c3YzPhqXR6B+tvnsy3amHEdx+iR8dnav3xwlJTcedXbYBjWQ38n35aYqDQW7Q23F3A8nAAp6OfcJXnLJUC7Ae8mTQgVgdSvs2N56Ww8YmL/z7YvmG71OjLJiM1DdvxIDjP1mXSbNpiNmCex/k0uzj/u4UEbsT/89AnOjeD0AHAHhqGxReexaxEodLcLRAmXXvIrFGRDu04kW0RHbdGZBHbFIM2bJnrmUxYCisT7A+rJW9oipYHvd8IMf/ACffvopmBlrWrC+3LBtWwW8lXkj1NfyBsTEzBkqqDXguCwLXm4vWNO6A+8GWoH2Gv9+v6OYi9RBm3odXrOlKwwsqkWFWklLw5xfcHPCwcw7sGxg14C7dx5hahsAdmAXUD47ASXvHWlAy1TLwEBKy45JjsbIrE+O+mGUzhlWtN9oRmmOwGQELL304XYbh8mccnasHZXzKK0jIB9djzYRo3z24fegNwpfj59RDWQl1d+MqstrUbf3QFZParhbRFSQW01ebnVN4UH9LrkkkgvwXnJaCsrr/lBsclv6RewlgsVEmbmJfPkIePtzMksmY4XdjEkF1XEFHsFV+7oHVS3M4+LSPh/ZzSNGZrRI+zgjNqoPc8QyjRYcH+aZBfMM23SGLZ6V4yxT1Ifv07QwI2AxAzw5b7irao3dy1tWNQVlMZ1Dk3Vda172Z6/3Ddxa+t66gunTGltrYLJwATLq73Vdd/W53W643+8COJlqX482UbnkCnQBx4L1myzrK5KAvCjReqAAy7LitqwVbJsaA9DY3ZyzAmQSQJtLM5O2MQoKilpNWZcVG7b9ZqZ7Lvf7Hfd8D5/nbGM12jz1fcD/Hm2s+u++faO4/VwwCxeVbwaofRjrV0eA3sLOgOmoXaJ0++/9hjJ6Lr5OfjzMQe98c2v65j0noaWRH2A9jMayXnzwiYBde3uIpA6Mbs09vc+T2Q/zSy45lMtKwyWnRUzokigOUpIrlNTpxBv5BMmkVfEo6469LfygtqiDk9MbjF4r2kTrFnjs5z2L87gwin1Wf7/3SGQSLUw9SPJl82H6+D3Ys+/RguTD93mO8ukXwRGzM6pntFjNFvDZtZGMwG5frr6NLEwfv7W/HNC6pSQHrKxcDFWtIRClujYa+2pMpDG7dm1ZFmFinScyE2NFjek0FtfCWxhf551tWwBZ7YeKk0KAVAXD2N01rVhSY0lRh0iDBmQVh39+aQeoEhKYgG3b8Pr6CubmcMLqXYGNmjvbAX1ktenb1B4SJazLuntOJonEUka+bw/9Ourr/fMd9c9eRv0jCtPLbMz010fA8mieGI0T/2z6ucDnPQLPUZvEh3njTWJfzxnI99+9akQfZvQM99cAT0LYN1k7VNe8olRqn2Qu6TPaWqB23Zc3QqZUZ0dQlTlCAf00bJRLLgnkAryXnBY20JrgXjElAbTJ9K484F3a7pyAnY6vM00jRMAjKKthD65HDE+T/WQdLb59HD+RzxhNA0OzBaRP00sEpHsWpl8o7XtUxj5c1G6jcvT5RMyQB0gjMBulcwRsRnX26fhNTAFjWRprK84iih66anrflozXXy2l4OXl5cF6QF9+A7imHmDlKqXgdrtV8OvZYIu3ez7+ICbEukE9pK7lLVyq9QPPota2rmHrD/TWTO75XsG3sc4evBhIl/qpeTVo/y0tX1PhqM/cO+lw5UrLgvXlzVQXe9YvI/awB1BR+P55zcZ+BLr7PEf9/sv045HM+v3sfhT+aO7q8/R98UzaUZxZmz8+V/vTMur1VH+Rx8NtkFIS0JvMCoOuK8Xs9a4AOUJFCnPCTs8llzS5AO8lp4XF1FhBAbAuMkHVU7ZAs8JQZAe+rML8kh4uMCbOhKAWGtxev1tUSonZon25Hifd/t5oAehZmGiSHzFIR3IWiI7qNFp0vMxYHZ9HlO8ovR50RKAiWvxnQKWvV1+OHmDvy7T/TkTYSlbsZweqag7g3IAoEVX21hgsD163batMaFRnb2M357wDkeu64s2bN1Kebdsd7qoe0YKNWZR+bY96kh0NkFrfhFibICJrCI1TxNOcgm5T4bjf7zU/a/dFLT4AqqPLBUzisIOIHsyyMbMA4sHGcFlSrUPUl4/Yx/77aMz0/W22eRyBVw/kj0B1n/7ZekVp+fijjXUkUZ19+fvNdgTofRnOtk0kvc7yvq77z92z2MXxE7NrNzt4trwR02O0qApDbmpw5IDyslYVh8KXHd5LzssFeC85LVyyvuu0V7Aku24zHaOn2gXgsgDgvAHvf9pQi5989X+u/zdpk30L3SbnoGy7SZjrHHkECEegrV9AzgDO0YJj92agOlo4ozL2YHGW3lnWK6pbn08PKPrFd7SoRiBjVu8Y7O4Z+1IY9/d3JFLWVP/JXQJTqb3KM6/+0w5ymYqDXRfPYa0M3s6ugQwTuz7aQKEUAaide2NrEwGMqm5R2wkV9JK+USEi8Xzm+/OunZqqjgf0BnzNegMRKc6wtyutHimlCiisPokIpeRq8qw+y1JQcgZvG7YtPzzbM8DLP+++L/v2idKMxnS/eer7apR/1G8jsNvX4WhcRfGi8eTjjfLtx84I+B9tNkdjtC9rNGajcbt/ZgZmxxuCgvZ+r2FdpYNBQH7VdSI14oRI1hJaAajVn3TTk85mquw5tv2SP9tyAd5Lzsv7zzcwSp2AAN15O5fCtDTwC8i1fG87dL+xV7WG9rrL3+sXlh48jjf25BZ1v4iOWJtoAbPfM2bK0hiVexRvtDjOAEEfZlS2M/mPyjTK62jx8+U5ap/+2ii9dj/OK62qppCdUwN1xpBgizaqpQJz+8u8t2bQHyxKKVXG1+qSOsDqD4Hd7/fKHluYqg6x3gSk4rEdI4Z3VxbCjvl9eHer48nSybkdVPMWGYzltUN3zFyto0g2kk6z6UsCaA3YJwKsvPZs9XtRneeIqez7zAg0zaQfu1GaI9Dq48/yGTG0Z8rnw4Qbnkn4CMT7tKJ69OJVjL5s+eesudv8pLEqg3yN77MCWiIyw5SdFHXOUsRNPekiQYuozBEDvMmfnNRs90Hi/fqSS07KBXgveUIYgKKKOn1tQHpBVW8wXSxADhERKfYkPZFrr7qEbWJuLFaYIwtzsAdUewBsYhM0zDxVsFCMwK3diwDs7Hd/3dIYHTDZl3dfhpGObAT4jsBnlP4ZMDoC/SNgP2PERm13phyRWLiUSNQWtlxX0ArkckG2dqG9Tq2B2UitIQIX1TzZLu9me3fbtgr4mLkC6GbKC6BOJYes/gNWsrpFDoBRxGRy4aonHAGoHWiGguFSqptg70bZxg6RgNzCXI2ymHJGcs9vU6sPUTmjzU8vZ8ZgBGr9vWfTfyZ8tCH016MNYR+/b4fody9nNwd9vqP6zsbnKK6RBn6fM6rXUZ2IZBMKU9apVSF9I6hMLSXooqDryK3RwctNC7I11FIYzLg8rV1yWi7Ae8lpKSyep+pfVWFQKwy2dLL5Qd90+7+0+928TVQRyw7CPi4u5YHte1wEPMias40jAPfsohFdmy1wI5ktthF7FpUdeGR9fP5fBiD4dH1eM8b86Hq0oM9Aen+PdBPF1OzQSr2TGv9QoFf2B+2IqHMp3E6m9+XzKhAW3v/58J5RNVBNRNjyhlwtR9hGDwok3UE1Ax9l3y6+fA/PxpUxuZHT63Va+5gdYdewkkzheijOxzfrJoAcXJN8ACYFvlrm7HScz/T9I/A6BmD7PjDa7I02caN8o7LOAKRP62jMnpF+DPgynJ1HRpvks+M+vk/uk+D3749tb20b91+wHDRl4mpWryZffD5qwx26kWXWa3qP9JC0WW8AXTq8lzwlF+C95LRkJCAtBYmAxVwGv5GbnHUiU3Z3SRLGduiCVlG3+Dt0i04DLJYj51yzRW3GiAIxG3PEsIzi2fWInevvn1lozyzqfT1HbNNIjkD1KJ8+bLTI9iyxBy++vCMAsY9HWJw3MS0BCMCSxHqAAWJLv2dw7bvpzxqYN/UEz/4aGDa7vQAeXuPnnAXc5ox834CiqhSJqreyXbsZKNU0DGQWLtXUWu0fTj/X9xcBwqrbm1o7mYUGaztTZdg9k4RmzcKNupyzqjbQ3mqKWpKoOpj6l9LeMkXfP/yzt2tHoG0EGkds6mj8+fg9+IvGRhQnApBHG89eZhtEH2c2B3zZDfQs3Jmxvm/r/cHF/fPyoPUhEVUzAmyGb47BNd86PIrSwasmZd9ZSBS6QTyspepeuPTeii65ZCKX44lLTgvLjKTgFqKrW7guuBLI3oHaQQMSG4plNDGqybLO41NbXLiGm03MFsd+RwCzlz6MT2u2OEfi0/IL3GjB82WM4vqy9OUfLZwzsDCqy1EbRWnMwP+zEoH7/jnu6wXkTe3lki3K+vqe2TTLAW46scZAGvirANMxrN/97nfxySffREFBwt5dcPFbMe3vRARiIKNUUJogKgaFRN3iqx9/FV/96ONdGYhEbQFduxd2ENOBYTZTZmTMdnstzLZTLBBPcroRuN/FGYQdwPPjo7jdJaEB8tru9hZFi0eJFIcQNvNupaA9LQlLWsLnHo2tEUvbi133Js9mIHUENEdyBDyPxspoczuaf/r7s3ochZvdP7thHc2No/r15YvTBNAd0rBNnV0PXQsn9yW9caSJuhY2PEsEkDqigN4nBpfLtfAl5+UCvJecFgY2mYVsz24rpx5UowUg3b0ziw1FQtuhm7hJr0BOpsvhnpENTsndbkUT+xkQNlto/UIyWlzOguCIzTwqW1+W6H5f/iMWdpRmD67PpnMEeqM2jOrTA9ke/EfiNw+lFKyLmcSrASpwu63LLr3b7VZ1bv0rfjvQ9cEHH+DXfu0v4Zd+6Zdx3+67sj4Cblm0E9kGTPVcFZCKZQV95a914649CAB1ahRkbdK3LQuFtZB6eFNgzGqybIOYQ8u8Z3F7b2tmT3ihVF0WC7ucH2wHl6zmyoCqI9w/85QSlpRkPxtYqjgCUSNw16fTbx59XzgCkP7aDISeSbcvu+8fZ8ZFX5Ze/IYoKkOfR1T2KOxIzm5OK2ZF/CwjoP+Ql6Yjmzid7HVOr6oLzEp8MFCygNuk6gt2LoQAMVX2opk/vlm45JKZXID3ktOyySG0AkoCZgsEyBbzuLaqj3NlfUmZrCxuYPfbex66hdwzCbq8PwFso2szRsOufRmG8giceqA2K1OU7oiJigDjqDxHi98RazW6NmKzok1Cf/2oPKO2BJrlgmVZFEg2pxJ2gCo7YExED3q89mdMaK6v8Zut2/rdHXBLKYGSHhSrAJXARiszNzu6DSUISNXf3j5w2PZWTkuSGtMrDKy+Znb1IPeGxXR1m14z7Q7Wse4uKREKCnaPmFv/MpjLeOy7vuw5ywY36uOzftHXO9r09P36mc1ZL7PN7AisRnNGL1F5ngkbXY9cEh+B8Sj86N5sQ/LYFo1o8H3o8VkB1mujfl3fkuymdWrMLRvQhXrs1HMgaWkePK0gJdc1J/P2LmyQSy4J5NLhveS0kJG7gExU6SZGwKuuFSmTq7YT0wKUVwm/3NpOPpr3OV4QjEWLAMs+zHih3QPoKH2EYc+wVP33/lqk39jn18cb5d3Xw7dFBAaOFsE+fhRndC0CM0dgpK/rWQDQ55uggA5p/LzcIg1g52a3B8IJez1asWQg6ZpDifoszeoCczuA5oGkFKBaQ/BtZaAZgKgEuIOAVFkv7EG2PVuvB6x51HZ0DKypNRDRzpmG74vMRSw87QCK6elyVVEid4guenayYSjYtuzSfhxP/XP1oKnWP9gMjTZV1kZeojF+NO6P+l8/z4zGSrRZPrOx7dPu559Z29n3nvUdpTXK96gtPLs7Asd9WX17yHiQ/5hMbUf6m4BczWS5iVkyQM5+ELVwtrZQ0901cF2A7jTmJZeM5WJ4LzktmyyABUgCdDnLhLUswKa7dDdPAUA1Il5VGiwAVQs0DFXxdXNuYxAA09F8vDcGoD34HQG6s6/not99/FFYX46IHfHpzK736fQyWoBGIKS/frRIj9L0+ffl9cA6ktnzGOWzlVwPWOVSqh5pzbNIPzQTYd5bmpdlWXbeyCz/Hsh4oGrpMFBNexkApmUxfrdaMfCys3QhX/b5OhZMCDOq4YzJNhDMWhYQVVa671depcF/h6tX5XIZFVgTxMVwSWLpgoh2KhLMDBDhzZs3YAX3vr1Gz7LG7b5HY3PUX/pwfXjf3/p+Ho27s5u1Pv/Rps3SjvrbbB6a5dX3ydmYms1LfZi+zNG1M2FHdVFNHwDAArGLvXM6YZ+8WzB240KsNrCQK0RAScC6qlv7L8/4X/JnUy6G95LzQrRVnapSgO0VslKqmZh0U11efVW1fCAHEcAycRHDzr0Bbp5jAcCRRPOZZy/OsiGtCuMF+SzzMVpUesA3YoPsM2KkjmTGsjwTdwbUR8BjBnhnbX6mTP73LH5K4kQirQsIhCWZ84jmLIHMSD61upZS8Pr6ugdtULNmDix6Rt6zlr0qggG9UvTVq7F/rqwVnEB0fk1HnYCdrq4BTwufS651q+2vdTHLFKwg2PKjglomA+hWdw+0U0rVzBgAYZpJ3LcKi8w7NQZfl940XbNhXB42Yv1z/LcBlf55ReH8Z283OQpr5TlK+0zYUb2OQORo3PYb4/4vkmdB3xEY7tu030Scra/rZfq7A7aN/kW1wrB+oGAWsq4sb1DNWhIB2ADVswclMC6zZJeclwvwXnJamBkor6W+bqoGwDeZrMw9qQHg5Qbc3jYQbBMl29lbMWwONLZskDMMEMvE+7jQzBYELz1QjBbBMxP6GabjaHHoX8v26YxA5Yy9mi1+PdjfvXo8YIz6a2fa++zCOsonSoOViSzq/6Qxalz7hYBCsR/r26q60HV5ruv6cDDL6rYsCzyEZd7buE0GcB0Y7Ntlz+qyVepBLcFbjwAEdhYu+/S6faEMQwZB9JBHGzHT4TWrDRWoQ0yL6VE7OYqqh/F8e/S2fa28zbavxPbPdLZROnrWM7Bo38+AvGhzG7HQo3F/BNj7a6PxH216+2s9uOzT8L9nm9K+LLMxeHazPJpbHueA+SajeBfE7KPoGZBlBdY3AK0wT2ryQlEBcLGzIFnWmpJRevvSl1wykQvwXnJaSt70sJqtvIHDCUBQCbMeYLOduZvo3Gst1t97bsyS8cCKFRzbwhozssD5V3TR4nJGjljPGXvjw51llmZA4ojJGuV3tGD6ezPzUFF5/fcjcBKBnBmjJYCtIAFYVqfDSwBRwqIWGsCowM5Y3dvtVm3UPgDNImbNAF1mDawkqt7ITH+3/gEgtVawY4FdHQBd0ylgwYkeDihFbVjv2zDy7UpiM9f6spkly+r21xhf7xHN1IXbd7dp8s8G++fg3SATUXU6AbBuOGInGb69nwFZUR+Kxt5oAxYBtP762THkw57ZJB+N7Vl7+HnpDIM82yjM6nY0B0R59OnM0tjdAwOs9p0rs9v92eG16rAIbS0RnRvRL19W+c0FyPlCvJeclgvwXnJaSslAIjPPIAfSytYmqbKhecXRTxRUPSxgz1C5b4x4gTBw22KQ/j4+kHLEvkTXIxktlM9ID177v6gOPu6MfY6uzxaraGGatccZVi6K2y/qIzAXpd0f9rM2SCSezJASCM0Sgb2mN29lPk87sObZSu9JrajeKqExmmAGlyJ9HnrKXNfq3gX0zv4vUPVrd4xtXbi1Lq6NRM2AdpYVIkazt5e7Y7PdpuR2uz041TDwL+XYt6n3VmciVoVpd515XybvZW0EIqM+cQZIRZ9RuDObxll/78MelaUP24PTM9KnOXreffqj8kesb1TmM2Xy6c/qHM8Tk2cFNKs8rDs3VrKEIeC1nvNw6wdD1g+7X151rQEURr+eruQlf+blAryXnJZcKjWE5muS5PUTN11G8YRDMlEtK7C+RT2hpiwvMykThvbZrRfRIjBaYI4Yilm6Jn36XkYL9Zk8+jR69qpPy64dMaMjVvSobGcXex/2iAXuvx+xyn2Ze3A4TdOsdpBYXzBAW10Eu/g9cI7qnlKC6chaJyQIe2ssp/WNrGxwBZvqIrhM+lE91JWczm1nKg16wG7X3tzMmFmZoKoOVee3MIgJaU21Ha1O1iZEe0calIxlk7b07pOtXgBQkOXQmrZpc4m1B2oPzHX3bH179H1zBox9uChOPwYiIBZtLCMQ7GU0rvp7o/7a1zVKN0qjjx9JtCGK6nW0QZ61wajcX2YuIMW0j/EU9HrzY+sLqpl31SsHkQBcU5MD6RvGDKDUDe4ll5yRC/Beclr+2//5f91AqYhObmr2EVNqvyuTZSsqNx0spkoOq8ajXK76go95jibuCOD1cUaMxBEI69P316P0+rijcvRlmqUZgYg+7GyRPGJ3zqQZ1a9v0zPx+vujBdt/Hz4viKmwbcsAizvgajqsqFMGIgGFXJoLYubdK37m5nJ4Z6cXDYwyc/2+LiuIUtWtzSW3+53+roDVdoBsl3a/UTGGyzGldmiM1eZDA/oQ9YXirCsQUFBQtvJg19qzzC8vL7jdbq58ej83hxXWVkttDwMlaH69ixyWY1UV8W6WR8/9LNM46wdRWkcbuz7N0bUZm9nfHwF0H/bMRjzaAPSbBH99VocIkD47/vv40Vx2tKnu46iWvfZLarZ4Sf/j+kOArTmTMbvSrDq7y4uC3wTA7PKKMwp2jokvueRILsB7yXPCNo+pd7XqJlUnqbTqRLbI9+1V/oigxj9rUADibtJPfJZNt7DMJtb+9wxgzV7TjfLzYWdAN1oY+zh9mKg8fRmidH297FpvC3UEHv2i3Oc1Aw99vqM2iPKZMU+jtvbSwlMFgaUUBz7N+of3yMY7k2TGBhsLuq6rvLg3awdcqmqCYFCnlqB1NssJppRg5Sw909RtbIhIjeU3wCDmxWxMtPraYTspB1cdYgCgnAFrVwaKB/AKwk19Ydu2yi6bp7laXhaVDd+H7HPLuYFtkOxR7b6mBRK2GEFfODt2I8C3f9ZxfxgBLvs9Yjz9PQ+gR4CyH7uzTXY0rnqQfvQ7KkO0sY3q6T9HYLhPx789GIV9bGfftgjrXNNz1SIw0m6O59bntS/j9YtGkBR2tt1rtvr2cAF0pPKJ+eqSS0wuO7yXPCeEUiedksTNI38B5Lucok3uVRQg4Sqgddd3adLDq6l+Ee4n637x8nHs+2M2j2oRPdMSgWV/zTsF6MsxAou+LrNwvi59fBN/yGkGXEfX/L0RyOjbJmqPUbij8h8B3b58j2lBzIiZc4QKPPXgGIq8ggcBS3ud750w+INrOREWIvFctqx1kWYFp65ADx7b2MoJMZfGLOxvVDcGUEicZlje5eA51nCB6bOEVD2lEVMFxrfbDff7feeRztJ5fX3VQ3yqC5ziTQqYK+D3uvUeJMlmASj37RHsB88y+pzJaMxEfbGfC3pwO7o+AuJ935v1/74u0djs04jGcB8+qm9fDkvHq7FEYfv0ZnUdxXFXw3IN5zaWDZ0EF4siDTPD0+8AACAASURBVMFS+5MB0gDuchOGlwHk90D5CqrjCVC1/HPcky65pMnF8F7ynFQbnqV91IkIwuaysFDiF71ATCV2bIKbqgj7nbqsuTH70YPNaLEDxotRD2yfYTbPSs8AjRbF0e+jNI/SPpOeT3cElo/Yp+izL+ss39lnlNcuv8K7A2ocHHJLmtayLBUUeMsNzGK9wM5iCUGsoNL0d9FUFB7LVep1MhNoWq4dcJXAtfzemkPULiGzhzZOKhhVMEFEWGmpoN4sMvQWE9rhs6KkslfFSE2X3lQ00v6Z1Dql1FjfJan6SOxspaU/HxOja75NZveiPx+mL4vlN+vfozKO0ovqHl0bjZ2jzeLRBnWU18Pmq9tUPSMt3fj+Q/v7cc0KOCoBoj9k19bALljWkLwpibKgmikrnmlOYNDnT1Xgkj/TcgHeS54T5q2ZJiuQwwM6QdnkmTe9J34qxPlEwu5gm6AAMD1O3JbMmYVkxL7MJvUojcjWqJ+47Zo/KX9mAe/B2gyER2U8Yl+elWjBjxbi0SI8Y7d8mDNAud+4nKkrM+uhMcAWSyJhhnaboCKvUL2bXTvI5e3Q1ufuXAYDQFKHFIULiuqpRu1SXf/yo2vdmr7VwcAvUHWF+3r6fuavEam3M73umVck0ZckboDe6m1qDZ5VXNT27n6MACBCYdQDcdZ+0LL6fpLzhmURFRGyEg0A22icRKxm1O9mfXEG/PyGuO93R33uWek3jkdzQ1/mmE1tEgH4vo+Mxp1XdZqx0lGeLU4jIvTu4dxl4eLrZJlIGFqAdYGYJCtq/lLfsrCtNZae3uMiZs4uueSkXID3kmflc4dIVYe3yE68OPelpSjwpXYYgQhgUXEwzpeqqaNjZjJauKQY49fs9t3f84vdWWA8yqNfSKJFZ7aojhicvs5R3c+A+15mYaNyj0DITM6AiRHL1rfHoBYA0CwzqK5thunsCjtZQakexjKdXGNAt22T63rAraWMBqSh+q56bd8O1EByD9C6vmFpspaHsWcLo35Q7d6y6SuPn0/OGVvJtW6ewV7XdW92jFC90XmwLubZWIYqDKDrc9rpe7KWL+O+3VEK1/gjUBWNvdmm6WgsROF3G55u3ET9apa3//R599/971mfnm1gR6A3yqeXUbl8W/Rpe0sPZ8YpKyiNgkVz0K6e0p12QLmeXJaQLrNV15G7rCnEurZsAoSB5twIAIi7fnnJJXO5dHgveVJMt7EAWScjIjE/9qozUaK2S9/uwP1VJzCNx6RWPrnu24k9FyASLZ79IjRaSKJF7Qxwm7FRfb5+ke3B9zPA08fz9yNA1Mez70fgtV+QZ+11Jj07CNbL7Hn1cqRz2JfTA9jbInq4IKqmwVazOVtyA6uO3Uop1UNcKaV2qIuBtDqzZlIAEFEFiz5vD4QBVNu8kp+CA6CqHkRtOe2v1hYOIHu1DN/nDBT7tvQe1Vq5SjNJxoZC9vkvaVHvbs3kIHMDFH3/fH9/Rd7UEgWf30SN7vXtELXRCPRFv6OxMos7A6azjdgMuPf5RON8VsZoHETzzahOs7QtbDRmo/aPNsvRfFHT0o1d1VZgFlO7RNr/ZPyCCMhZdHXZESe0SF9Ni4Bhu5cWILG+kbgA7yXn5WJ4L3lWdIZxXYcacySrPCsKsF1+kZt+kVUWqel0NRlN5p65sd99eB/2jBwtwGfjj1ijESPVy4yt7Re4Ps/Z4jwq76iMs4X3qH1H5ejZvZ59e4Y5hh5yMY6o5Ny6D0kYUUXgatceaFYKvDMGK0tKSQ5+OQBZnMmtVkZ2DhxQgfa2bbhvdzVzpmypb08HjKlr76gvb2aJwUyqYQ9MekbP7nk3xkRULTVYvXLOql+MqrYgDipk87DubLw29oxYbfRafoWxpgVvby+43V6wrivyic1kX+ZR2DOANdpURZvA2bjs487AaB/uzJgbsayjOkfzXtQGIyZ3tuEYpXMGrEd1mD27Gjba0JhTCQKqDV7Y92IZQqhhtb/LEhOUFPASREWOcFD0Sy7ZycXwXvKsyGpfzZC9AHiViYhNUcG9rko3W+U1PHRCc3Md8YDhtc9HxmI/UT8C39GE7EFDtBDN2MkzLG60EPrwfd6j+COAMwozW4iO4o8kSnfEbkWbE3/f0ugBRcRcRe2+T58BZy6s6tEWVidNAjKTbrIM1FYVhlJwv9+Rknht27YNv/M7v4N//of/HPfXu2zEFDyu64qCgoUWbNsdrd8DCUtlrgCAcwYtCwoKsDG+/sk38Jd//S/jww8/bGG6Z6I/Qn1MO3RXLUYooPfukpdlEYsN2h5mesxbE7nf77jdbjX9ZVmwpIS8mLMK0cPPUGsTBXqevoCzsuNIyNRY80SED77yFXzwwdtdG/TPue/zz2xuIlA8GpNRmL7v9mM+2jyM+vEovVnZo/rO4szKMUujB9Z9On09+nIepd+XEZB+It3ycS7RYelTRB035FiPRHIIrVr5SNi5q2egeWBjWWuqGUxJtwDvwsJeckkgF+C95DlhvMoktMnkY/pVaRUD4fneTMcQQQ4YeFpX/xgAJ6jPKDCM9eknYrP3KPH3C0NxEz3XeTCa/O16v5hFv2eL6gwcj1ifo4VnJLMFeLTo+vAGjqK69Qu9f20fgdQZUzZa2KPrEYCIytnfdykraPNOThqQLFyq1YD+Vb/X5fXXSyn4gz/4AwCi1wsGbuuKXArSkmrc19fXqlqQueC2rDtg6dPNOePnf/7n8ct/4Zfx8ccfC7sKt/Szqit0fcTAaq2TogdrI0qExC1PAGqejKv5NTO7drvd6rXKAKb9Myls48bpDLvnzGo7O3EClfY8tm3D6+trdQLiWfO+H/i6jfrybBPXywgMz9Luw8/GYZT/DDT310dpHuUXfbe0R+D/CHxHbTsL35dVwlEFsI/zcqwfXQGujUzDsM5edpuwNWhh1LeFiQAW02NCqkB0e9NbiVBknGbGpdNwyWm5AO8lT8ryDlAzMXxX3+aQiYoSRNfKXk3pYTWoThaT/kEZK4a5HDYvPOTmwT3na1DBT/BU2YQ9YTZnRo4W1TPM5yjOiOWcpXXE9o7S78vS3+8X+xHL08ePFtZn2aCoDDPmdsTGPYJfQBZbffAVCLZDWSutSJS0azWPauvaprtlWXYWDEy/18AiLYS0YacmcLvdqn7stm01LICajoFLY1qzqifUtrS6qapC8e3iNmwRyCGSQ2QGuiOQ7Mvr9Y23TQ79sOkY2z1mEO1Ni9V0mVTTfl8OY9S/+OIL/PjHP1Lmey9RX5oxl7M+0Ifr8+i/j8L6zxGgjfIfgcoRCD4rMVDcpz0beyPpn6PvJ1G4KP4o3VEdPOkgeVWMa5HhgfM+Yb3PuYFhU4uj1FQYSgawQZxOyFg+sgF9ySVeLh3eS54TYnE8YW4f01vIVvu1na4tLMCXbOKy11kGWBsbK9fRDP4HgEuiNrDbfh8vMCNG0cQvWp5l7O9Hv88uxrMy+WvRotzfm6X1DJDo44yAbh+uL0sfZsbOzhbtPu6obSWcgDMDl/t+xcjISGvCQumRsexAoqk0+MNlzPIK/3a71XIZc2rx13WtrnUB1LQ8m2qAk337+fbt2pr1H+jxeZAiCG9DGCyH4xZakJYFb25vsKTl4RlU18vmRnj4FPZsor17SRCmt11vaXsLDb2cffazeP21/t6ZseLbcjYmR+Cvb8+jso0A8GzuiMoWzSG+nKO56Whj26cziuNSBpyVhse06rdaDusn7FLwmg3VRGWfCEOcTiDJ2sG6tnCWN4fpxa09S8neMtAllxzIBXgveVKWNuEUiKMJQH7D3A0vjXblosfcOoQLp+3LbQKOgF8vbVEeA+RRPB+/v+7lCPSGgGSS1wxYRnF8miMmxt/rw8zYqxkgiMpzdM3LDKyOZLRQxwu6MJykThZa2Y3t11fzuXkaW5YFLy8vNQ0z3WVt0TtqMMsMpg7g7xnYtHBm19fE9IO9rV9f/r4l+vZi5upQw+pmTBlhD3YK885SROYMAwAVbLM70JYo7Ie9d7joeSWY+r2GAcQ7HUm7R0xbzyyeGad+7B9tGqN+ezQf1DalDpxNAPFZ9tj34zNzSvQsRpvRUXlnZerZ6dmcdzR/6P5qkJal9ziOdyOaipvw9SZrqDpWtnaNFrSeB1l3ijG88ubkUmm45Bm5AO8lzwnbEXVWdQYzFfMCgMS8TFVj0EnR9CVN1YHVBi/EuswI2LgrgwXkkcE9B5rixeeIjekX41GezzBUIxmBhCgvD3qPwh6xVP2CGtVztJj3ZsYsnL/eyxF7FtWlMKvu6NbYTitjMrKoMaUW1yw1mO6pT9fUGrwZMiu3eTAz1QjLswcpFsa+F8wPKNYyB/1u13ZEOzfEPq4A2WZ393a7VT3lnoGu+fA+H7bxzPu2JpCallILFi3j2i63221n+aKvR/89CjMLO3o7EYG7PnzU9rOx6QH6KN4RczsDxjNQGcls/I7u9SD5mfyisu7zPA8XWl6V0gUzoRA17oMU8Vq+BP2u3jlZD0KTMb5ZzFyWu7K/BTmX7XShLvkzLxfgveRJKa9YFt2R6+nxRU6AgxhYEmAHEoRyw85sGRFMf0FYIuj9flE8w9oeg8cZcPP3a4oTcDtbuHsW5stItNhGaR4t4h60ju71eZxlWUfCvPdW1+c3K+9R2N3zMhu3CtBWD7YISGmRhdm9fvU6vAYSjaHtNwpRGUxNoT/Yl3PG/S76q3bgq2/HBiYrmpS0yHku6+J6t8E1DZcH8Mic9kDQymb186oQzXapsHLk03DYg0xfHozsnm/SNJeU8PbtB0hphR+v/ViYbSSPxs2ZTVyfXhR/1C+jvjhiUHs5AsaPgPHL6eKeKVMEcKMwo3F+lI8xuGc37C2Nim5lD2r9uo4JRjXUSyuqZQZAdHcToa4zdibETJNRwn/9P/0vF+C95LRcgPeSJyW9AgQsBLGFCJmgymvddddJzjywMVAVGPR1lZ9SZQ71oGufYz//tondJmELNzZ7Fd3r0/RxjhamI3D7LHDsGbeIaT1TrjPMWpTPEZB4VmZxImBscQ4BiLKTCxGWdQG7Zw9AVBkYSLSAi4A0Y22B5p3N9HFfX19rPh4MWzkMKFo4f89UJSye92bGzOBsesEEkD+I5p6NbgJrvcnloXjAs7PSB+KNmNndrcDUHaLr+xcR1PyatAepUwquINeg8P55LetSD9qty4pcMpjz43PCvk8Pn2cgz26SZuLHzzNjOtpEjML2gD4avzOw2efRP9fZBn1Wl6M2jj79PBOVuQfW+8+gXlYeeK5DAS7IsbqkjK57M2h6vuw8rVVdiPoq55JLTstlpeGS56UUILO8XmJ99UQJgLqFpKrxJ2bK7H4xm4qqQ2mnGHRhB2zibSZvjgGlpgFvkUAn1wDEHQHCEUPUxx/FHS1qIyDuf/+7As8+TJ/2aKH2i1yUR7Qwjsrp0+4/Z+WNFlUPyO1+SgnrywuYFdympX5n5upEwsCtMbP3+70CQQBVPzcqgzmpMGsOdt3Asz/g6PV8AewOyjE3ENnMjYm6gzl0SPoGJBHZ0bsGvtVKgv3uD+FZu6RFQPy6rpV1NjHrFNu2VWcwpaj+L+8PnO36ONq9asliy2IXWIF4qmP90XOeN9nW9y+f36g/+Puj8TZ7O/FlNnFRWj1DewSAz8poDEblmYWZlf1MvmfjWZjRPNiPeyKq1AYxdFJGYzDYESSU5HCaLQSlqHqcOaowE5g635eCByX5Sy45kIvhveQ5KVsBkejlUpLXTKTAgZPq8i7AboLbIO+bl7pB12nRyC+AGlML2EQ61qlrjB8BzJVbkLB4CHtmUu/zGS0MR/EjkBe94ozqM3st+Qy726c1A6iztL8McI0+/XfPnkZx+zbof+dckBXUUTKmX/4vpSCXLPZ4HTg00Orz8HZzPTA2sGzhDUiazrCxvaYj24MdH5fIHRrTfJOyt6U0kK4394BBwSkHqhKWX2VfK05otqmZ9/rG3pSZDZhSzCDgI8PZmz6ze0njb9umh+T25fOM9FmWMWIVfVkiOdpUzuLN+mdftjMb4+jaqA1moPpIojaa5dnPAaONZJ9mCxuXoc+zpRWVkcWLsHxFZWhZN0ukVn/Ms5rlud7U1rv2bzN9mXT9uc6rXfKkXAzvJc+KAl41O2aHDuy0EDPETaRNZAxkO3lrh9dsfdYT3mzfPVsLMDcw00/kfkJv86pdayRCCxPFe7SzecTe9IvCkRyxwr3MFtLRwjQq71HaR7/99bML8lFZzrbfbINy3+742RefywLLYmWA7KETyVrKjK1kbPd7PUjmgagBQ/+9f87+udnBNQmXqhUGs78LtINjZid3WB8ikAefAHIpWBwoJgCcFYx2oCTqTzlnvHv3DrfbDbfbrdbZ7pm6wwf0AW7rDUtacIduGrAHz4W5uhV+AKDCrAHMeHm54UVNt1nYnoHswRXQQLmvQxR31gd8+GfGQJ+nT+tIRnPD0bgZ5RO10zMgOCp3lOYobF+PfkMY9bM+zGNZ1QYvUTO5rjxvRhHAYSwvAZXB5aIWGCwAnIt6t7Ys6o1tWQGg6SNdcskJuQDvJc8J0efNjTDkk8xUGRRpMrAsDQQb8HXqDDU5EIwhksm0tGTQJtgeQETgb5cqWXH2k7OfpI3Rm7FR/n60uEQL2NFCFS0so4UzAhCzvEfxZvWaxRmB9X8bEOzzGy2gUXktXEoJS1rwWmS9M5WCUtSLUwFutxf8+T/358C5NKBLwKIMEutiujP1BRaHFQNAREQ1LWN2mVms5zqzXGbS7Fvf/BY+ePOmAuGkdoEtv6oCwLJp5MKgJMwugVBybjq1Zf+WoqbDwMv6gm9/+9vVhXDfRyzsPW/42te+hg8/+rDq+vZtqwVCU8TY92uxCmFsOPD6+urGLIdg1j9DS2N0b9TffTgvRyBuJLP+27ffbBMcXZ8zoOccuMzS6fOP2nvUjkd19nNilNfo2v63Tvv6KRcBKgRK+34GNsbDWFt1XmTu6pe1brBApAfWoGwwPg8rc8klA7kA7yXPCS0bmFXfykkxG4mEBmoZWN7oDl2B8MPBBoKxuiYzVmIE4p5hUnsQOwOaZ0GsT3cEokcMSh+3TzOSEfA9s1hH9TlakGflPNOeszSfZdcSJbx5ecHPfvYzwHRcDbiyAN83b17wV/7KXxF9Vmr6ppSoHuYydYKUUgWZgG7CzPCDa8+UEta0ohQDi6YRVlAKI62LXEkEFMJyW/DRRx83NtmZ12NJVDyeoalU1A0eO71ap8frvwNAKRlv3rzgr/03fw2/8f431IyZxvHjiAkFosLx8UcfVz3f4XNJCVQcQFWWmF2bfPH+Hd68fQNSKyueJe+f79HzjzavUR+fsbozOdrYRmWJQN1R3mf7/mheG815Z4H3aCN7VJ64HI/EQxT2sV3sHEWleNFU13YFQ/U4RCROjJJ56iRRgUPP/BKATd0MXxqZlzwnF+C95ElZiujski7sAPgOLC9Atb8LYGMxV8YszilsrqxvvmQyZIyAlgBkP+GOzyicYypnYLSP5yfzEVCNFpaIWZn9PgLnfR1GZejrdARAexkt4lF6RwtqVJ5RWSLAfgQqiIDMupKSbpZIX6UqQ7qmFT/3tZ+TdAhY0ypgl8QyQbWGoHrky7JUkLikperPegCU0oIlJTAXbNksIeg7CtUHJiLkjuU82lRJORzYKFzVNMhZeBDw0AEjAmhJ+PrXvi5pJqoste/L9Q9AMfDqyuQP4Rmszu459v6sGMCyrnj79q3VZlcf/2mbhTNAc9Rv+rBHfWk0DkagfAZUow3l2XHVxzvalM/GUp9O/4YqaqczG+jZpj5K/2hzEkz28o0crUEOCScIqC162PL+XgiVtAJQlpdIWN1FPXuCAN6/LbzkkiO5AO8lz4m9XloWYNt0zlqVCmDUmc0OtAEQt5AGTiDgpM6JbHRXBwQ1nfp7DBzYGIFAosWgn+CPGMojtrQP26d5RmasaX9/lEdUr+jeGYbH53sUJroe5XfUfp5Zi56JLaakIHdJSTdM4hyBCNXiAVNTg1mWRdhNJHl7mktba0mY1bIVFG6H2Lylhwr6SsZ9u1c7tFIucYTBLHqvKaXKMkddstapVbo6lZAxQKInq3mYZQauesZJ8T3t0qptW4Cs8DR0q2xlIAI7pxQeFGsyO0bawDVreakwFvfMeoDtn+fomn/u/jn31/u2i+7190djeyY9KD7LhM4kmjvObIZGc8FsHI/G3yidfhP7uFlRnHkCnO/zc+1MQIO5eriYNQwDzQWRmrAkUuZ22cUDIIxv2fRg9CrhL7nkCbneCVzynBDE01o2fVzS+equgJbklZRXY7DXVDZx7ohcteULeliwekZhBCLPXDtaaPtro7SeAYtH4ftwOxBzsPifBd9Rux2xub6tjsBCxCRG5RvF34PZuN77tEjUB0BqDzZhWdZ64AsQhrTqzQJISCAkAYM5IyPv1SAk2ZDBYjg7tK4dq1WH7vAZs+jh2pr/AEyC9iIyKw4a1tJCGwde5cGXNWr35qCiY26pAY1EzXKEBzoPuvLuWlKdfJKdRbVaQQqYfV6zZxzJmX5/dnydBaNRGaMynckzyvdozJxhYEfz0dk5yYeJ5sTZfZuoz8wdffnQqalJcgpyPQnMLCQKJQG0ZqkBUAC8yKFni2D5lwyALqcTlzwlF+C95Fn5CdSdKVJqXtYWNU/WaAGxo8hZVRuM4SVd9FuC7PQNI3ZSJH4l+MAo4BEk9SxUtFgcLci7kgQLen/97OvEKO3RYjZa3I8W2Gdl1D6jfO13xB759M6wxX39o7wAIHN7Jc/6ZoEogbRvVnaTCKwbL4Z6ONN/3m5sClg9ImFbS87VasHSOZcgonrNA7tqQ7drv7bOx8/VwC0R1V4tOsfr7prlE6n5jNrQ2qqozeJax25cMNhMp+zTgBtpJAf4uOwtOkRlOQt2LY2zm6OjDfB4LmnhRmzubKyN2vbsPDDLI6rDDKj2+Y3KHNUhas9+wxSk+DCfjoUa5H3oT9zWCjBAq6rIbagHoK23rTf9vrT1Riw3/HSS+SWXPMgFeC95Uu6lWmhAUVWFRSYsU2lgAP3uHlCGV8Kk3WuuR4DUFgo5PNHP6REbN/r9WIwO1ASL3cgbWBT/TJhogTlKI1rsLO3Rvagd+9eVo7RnILUHtLMyHrHCvh7uV33GfZp7QGTxmsMHsLC6BIgHwJREt5ZI2F1VT0gw8qgxsEDzZFb/lPktpYijhbowa968B36uYI0BpsbG1rJrn/L9y9QjrE5QfUdjdBtrKmlsyly3sjyy4/VZT55PcWWpcSAQRTYDWl9qbeF1f5lZD77t+2K/ATvqo9G9EVCdMZLRmJ+BRl/Ws2NiVJZRHaOxGJXxDED3/TOqr+8T/dx1FKe/7x2otDgWJmqNR6l1YnVBRI71JbaujmaXl3djpf3WcZFWd0hNC8H5MsR7yVNy6fBe8px4MFtU72r3jkoAh7C/K/DBzwHrmz0wAFB0jrOYfrHeT8zHRTpDbEagT9J/nPRnzEUUP2KJRvn4vKJ7R86Dorx7wNOH6+MeMUszps6+nwHvUXtHAFrCAAiY/sf4gAdZFawlMX1HWTdQS9qVJVECqkkkMQG2EXBLMgWWUsAkHsuqtQYiIAn4o+RexybUMMz8aHuEm63ZhZY9qOzaqzC7raE9n2bL1MrmDyhFbdg/JwOw8H0C+/5tYRIRMkzvmHRcqmk09s4qWnkAVJu/po7ZP7MIVPlxCFee+FnPwWffh2ZxfF+M2s3C2Kd3FOLvRWNs9Dx6JyCjckX1mYWdjam+Lkebzigf/71dm5METfYHjQEGU6M3dgOFjQBR9Hv7GFg/BNKPADY1OA1HDPAGFFV96Mp0ySVn5GJ4L3lOaCnVEDgggLd6Urs1hxRMAJK4H97eQ5xRQF9tsQPObfEYAa0zEi2cM3A4ij9jlaIyjYDfCOyelRGbGpV7lM8MjI7iRmmMmLSz5T9qwyjPUT4GIrw3L/ttB8Y8BC1UUCAH0uTFBJnTayTuwZEStWhqCWlJ1TMa0O750olZs1TBJStYpRQw7LCur31VobMBxqTp2Gtli9+/Zm7gt7HT/p5n56jd2H1aeUopSqaxMMbQ+B0Uf9iYab1KLh2OObe56+/PmFa7/+x48P36aIM2KtOsP87yPxoDUb7xpv9xbhu1UVSOZza447xnm4+O8Ojv1I1e23BKX9MBhwLwHci6ToAAKuJkYl31DAhDvLFlVHqYLvhyyXNy9ZhLnpSyNRePEJRgjiiMBSJz+8gAsgDevOm15HbsyiZ1C9NexgAV2DMRR68E+7ij9HbMYEoPaZ9ZNCM5Wvx9uGhxn9Wx/7075HRQnhGzFKXd66rO0uyvHYU9w0oZyHtZX9qzl9jNnm4hsTvLRUx8lQKx5MFuwtvXfVlXZfW41lNs96pqhAOwzE1v1ViserBL7epWYKx/ydKwuvUgdecEouxAawTA6m8PSkcsotxsQLfr01sRF8kgQi4MlCLal+5lAwFAceyoKydzrEfcl2m0sTmz4RkB4zPi2zACiv0G1ut2R2n1cXs2tAfZM3B6ZjPpx/4zQLbPNyrn0dhv4cfsMpvVhU7qc2Igk2ykyNwEFwW6gKwfeZN1gqBriboYtjWlbLpueNfCl2/hS56TC/Be8qx8LqoMrK4f7VWn7dRtYdVJKTmPa3WeJCwgNGcUIvuFwntc+3LMbzTZA48gNgK5Z8Hi6NqM9X18XXj0mnAcf1TGCCxH90ZxzshZAO/vRZubqD1GoIdIzGm9v7/XcOKWlwuLqkEiIIlprlK85QCZ6u4lI5cGE3dsKDcvbl1NAT3wtizLzkWxxPcH1YL+5EDUQx0NSFhl9NPSyDlXixPhZsd/ZVeOjv2q7emAd2OAXT9MhAJDEmX3HCi1OKZisW2bsszxs+2ZeF8e/1zHG95HhvOZTdVMonRnjG4PIs+Ov1k5o3qPWOKj2rP6QQAAIABJREFUPH35/MHKWdjR9dkcEcVlZXD3nyKlmp4UjqOuDRV+EOo5kPqGUNcYY3ar6oOuGbL+fBYW8pJLBnIB3kueE30tXFlcLnJy1nbh2ADe5Do7O4ncJyMML6n9VKAHPv1kzA8LDoDdIZpeoldz0aIbfUYgcbZwR6zRGTY2WvA8s9ezsCOwHIHFHmTOytq3TVR3DwhmC/2ofWaLb/99xBAyM5AECG55k7Pbi+rJZjtwJXq4jVGVaW5JSQ6xpcf22rYNhctOFaBaesC+/Qz4hvXv2ot0Q1i69t+1Hjv9UggDa+FKKdi2rT1LPD7H+Nk+9jEisTqRu0NNBkoLixpDAkDMyEG/MVAPALkw1nXFmlbYeO3HaM9yHvWBWV/wdenjjvr3aAyO2m8kR+Pbj6EzQDLazM3K1dfjKK9IRhvIPswIoI/byA6cDspjfxadFMgag6tpyHqibwu5AFAVBs4KhNGAsHgUvBjeS56S69DaJc9JYjlxRtQOD2xqJ9EmKiaZnHIWrznMbmIDbDHWZV027KbXhcYWNJkDR5tsR0AgAnQ+jWhhHeU3AmLRojsL66/PwGaUfw8covgzxmxWx+j6jg0MGKcjMB1979th1tb+moHCahILjMTSk9Ji2rniMGJdxXKIgFhZHRenf17bUnXKmbmaEtuBAeZqazYCcPJd4pdSqsoAs/Tpon9iIILksKevJ4SlBoDELKbUDFynvde0hFRZYVamegaKrAys9QDaVpIVeO/av54TClQpoLDEngGRMsL7DVoEbM+A3pGMgOzRuBptnqLro/F8tsyzTaDP+yi+peE3XqNN5FG6ozEEPLbfaNxGefv2i+8DUD16ZtmkJRLYS1VvXggP6ZO6XpQNuL/Ta/pn7C5IDkEDyg5HpMgll8zlAryXPCVcSiFR3kvi+aao04kk7oXzewAbAH01ld8ByO11FKseLwAmARhwr7w8eD1aF8nS7A9KBADAT85HE/1oUYgYkjPXfBlG+Y4AY5ROLzOgPluII9D6LCAZgS2fbl+OIwYpYp52AKQ0JtYcThAIXFi8kZqBLQ2/qMWGUsQhillF8nVOKcnhK823qiBAelhScFiKIkLaW1IQwoqb3i/alm0xrV5moJR2xMeArwPWrPdJEld1g6bfS8nS5gfwnHNudWG3gRQ0LlYoHKAyixFkzBxDVOyLauA7gG/A2dpN1D+WulEw6R1dlJ1u8thWcwSkonEYjekzYHO02TUZjaFZ+s9uJkeAPWqT0Sa8B+lHefQyav/oWpx2vJFudQHEykhLp75GbjutxtayI0O2V3U2kVTHN4tXtfQG7W2hOjtCvhjeS56WS6Xhkufk/v5V8ESSyamU5kmtbFBFSgBZfaOzHjhwntYgGJeYKltlthqZjSlrdllnLORooZuxqDMAOAOwRwzwLL0HtmxSp6PrR6yOL/sMCEQAtC/rLG4Ub7Rg9iDGhxkxb1F5mIECwmLXLE/rK8Wec6qWDSz9wuqBzZjR0ukaBioN5vaXS0HOWdlNrmH7ehskKKUt5oVQnUx5FRwDp7X+dlDOgW2iNmwMQJqpMEufnJ6s9wpXLTtUYNvGwbosUjYPOLRNCueg31obCuBnfY09f1aPgHLU9/vNUR8v6qtfZmP2jMzmi2fzHm32IhA8mx+ivEfj/GjszzbG4/zH7L3dl2vW/4WQeECmDMisryRIzgCKkh/qtZMWuVZeZU3JZgZT712uhS95Ui7Ae8mz8tq0DZI7d7AAWHSFNjZ3A2iVyYohn91BNX8YfA9OWxADwtGrSQPI9rtfWO3aiBnxi1q0uI4WWJ/ujDU+YjVbfc+zMUfgOSqTL8NoMYs2CWfu9elH+fXPImKyjsot4USdQezjJuS84b7dkUveAVzm9tvAqZkhY2d2a8dEaf6rHkpLDoBaCcjKqr+LAmHrh1ktQrDVWz1MkfVfD4xdu9R+6epc602Pr7h9v7ewy7LsAbTcrA1n+RiQr6AZZjLNDtFFup26mdDXz9VCA5qpuPaMHkFw/8wjcDfaFJ3dLI7ifNlNa9TXZ/1+tHE72mCPAH5fhyi9qD6+T83CeXlmoyKbsDE7Lb9tlicU61nMIHL52ppgi8i6opkey7A3KSBS9TkWCw2m/sa4Dq1d8pRcgPeS5yStneFvhrxeWlXHqqAywDZRLS+6wufQkEyqa7JMmM30VQsTTbLt3nyBBc6xsfY5YnkjVsQvMFH8iEWZpR+VOYoTlX8GRp9ZMKN7UVmOmK+ovfoy+bKNwMS+TZv1gnUxaxtyp7Dag3Ue0jw45cQgWnYsKhdGUUsI9nq+dCC0ljE1z24mlUU1OlbThKoceGAopd8/i+LrrIDZDpUZo0yAHtIz5lXUOgxUPwwUvU4pIZlVCeChjwnIbWx0vxj4w3oGlFsfA3IuSNwODfpnevTbP/dZmAgQzvrvLF4ko/7vx6S/HsWLNspRuH7893Xxcft+H20OojLbp7fZfAT4R208Atx+Q+RBcAvuLJYwI4GQmGSe5xZG2A5ldlMS9QWCHkhTdhcLsLx1ERmolrSXS6XhkqfkAryXPCWFbgVp0YMDrLpWSV5D1YlLJ6y0AMsiq6PpZtlEKchEEg0mfgz0cu374wL0fF2iBWS0IPVmyvrFMHq9fZT3vvzzOCNwOVqUzrBgfbwIrPbpPFvuKNyonNFiHG0CEqB6qhqHgZJLU1VAe2bebrAAtizMrur8FjkuqayllMVMgRkLXL+rqbyir2v9ZmcHZIkAblYX+rr5/pUUdAIQgErtIJl351vt+2rcIgk9tB3ZM3N9w4Bq/7krL9EDi5w4eN4+PwLuqje8f05zndoIUJ2VZxhau+/renZs9mPLrp/ZfI7KPNo4R/n3Y2Q2/3m7wVE/m206Z2VoaT7ee0ynERS2CbV43Le9T49SWx9AQpyYWlxalCi5NxOYBuTTigvwXvKsXIfWLnlKGKWBXCiDK6STygLwK8Q8mepZlTuazlaTglSjlodJWdQazq4te6IsPrE9A2vRQmBAow8zWrT6fI+Yn2hR7eOO6xszzv33iNmNFvRZXfoy9+Gisn0ZiQD8aGPzst40DpASKZDV1/lJDoqZFYElLXIwK0lk+80Qyw7LkkSnlQUwwjynMZDWVE3nMbsy6YHLUuQg2bqs0q7u9T4zO1ZW24WA23pToM47NGHMXClFDpcty85EWQw0WtxEVNlhz7r2LG0puapaAECCgt3dUTtg6xxfUCJlrRugTilV/XvYwTxnatCDtxGQjPqB1Sm6d3ZszNJmbu6DZ3NEf68fY7NNcFSGEYj298+004yx7dM6asdortyHfSQCRm0mUbWdqLG8INukAdUsGdRZEew8yCuqLffqcY3keyIBuSU3tQZcOryXPCcX4L3kWXknuDULk1vUBWT1rgZlclV3d3snE1lyHtZAMIc7RPtFyHBAm0QfFyFvqunMomJpj8KMFp0+zGhBGDE2RwB4lM7RItqD3X7BGl2fyRHAfZZZmy2K/aIcfe/T8e1/zxn3LJ6XhFlXPUBNlgtjA+Nf/6v/Fz/9/Ge4pbWlvVDVpy1gEAlgS85FrzC5VD23JUp6UEzAtYXRfZm+uEjqLY2QkgDIDz/4Cn7hO9/G7XZTAED4/ve+jz/9/p/WdkiUKhAmIj1IJzq2iaHg24Et5gpADCAb20rSYDXteoCPGsu7LAt+4du/gI8/+hg5i0vwz3/2M/zf//Sf4sc//QluaaltlVX3OecN3/rmt/CL//F/1Kw8eHBfN4VUgeSsD34ZxnHUR6J+6fP314/68NF8crTJ9WOzvxbNMaPyj4DuaDxGIHdWvz4Pr4MdzT0GYgXI7jfRcV56jwipsrxQesNZZmCSA82kUbZ3ELvuybJDff2SlvZJAALvfpdcciQX4L3kKWGkDbwVFE51piq2G7fJSL8vb2UxzEXCEB7fjwG7177FDvnQ3v7oLry7PgJP/ppfcEYLwgzcWdgZ4/LIdMwZpjMAsge7o7RnDNUIbPYL3xkgMZJR2x6leZReL3atlIz7fdvrv1pX5II1rXh994p/8nv/BH/8x3+MZVmqmsK6rlVFAdi/Ds5ccEsrsp7+No9qBu7sdUQFy2xgoRXCDo7d73f8e3/uz+O//x//B3zyzU9g7Orv//7v47d+67cAiEvfNUnZ0iJMsgG2wkXNpCVhsKVhRNdYy70sC7Ztk7KmBbnk6hAjO1WI27KK+2AueHN7wd/4m38Dv/IXfgXbJsPx0x//CL/7u7+Lbdvw0Ucf1bZmlsNGX3z+BX7y45/gO9/5jniaU0BpYOjomY/GmX+m0UYv6hc+zijcLJ8jiQDqKN/ZfDOK2zPF0UY7SnNW11F4X86juCNALvf2b4WO6y4bSYXIotLAQCFlbKvjCRK2llkt/DCwvBFdXmN7iWRHyer/z2zwMgNIr6ca5JJLVC7Ae8lzwiyTT9LJCiSAVuwiKt1VgGqlwSa43OLDvzgVIaq3/n+R0aIxA3Z+UZqxPFG8ZxedEcPcg8kj4D2rq0/7TJlG944Y5v7ajLGK0h1d6/PzNl4JAOeCQmJt4L7d8dlnnyHnjK9//Wt10V4oKXPJYJIDNQYSSylIi9jjBZwLata3EmqOTNQhRKXB274losoI/+AHP8CnP/6sukA2+eyzz3B/veOb3/qm5Euif5zUPrDZ5Ze6sqobMNIq4Pt+v4NZPJwREXJRHVpXFlNnuN/vWFYBqAslfPrjH+NHP/oRvvjiCxmeXJDSivu24d27d/juf/5dvLx5gz/543+JtCbke8YvfPsXQET44fd/iFKKlln0jBORliMeV6MNay9nw4wA52hTN8pjNn5GG9IZcI82jyM2eJZfNIccbcSPwPAZoD/a9PpyxNcBY3P3ZXBzmby8QEm7yxoBCnxZVRUU2LJ5PzFAbJ7XANHv1YR5e3dYuUsucXIB3kueErbZyGwgFnMqgWZvF/rHzmYiZ6MKOrBLVYe3vukSOisEwdG9GRiM2F3/W1jlx9djR0ypDzdjSaNF8oi1nQHHswzQrPyjxTVKd7TIj1iwWf6zvPpnMFrwSUHWy7oqMGVQWuqbTzH7LAfMXl9f8c1vfhP/3V//6/jKVz5oeqsGKsFY0yogddmzloDottbDYkjqAS1bhbCgxUkJu8M5f+/v/j38s3/2z2p+ckhO3AR/9ed+Dn/rb/1NfOOTT1DytjNckpCQvUvuom2xqM3ezMisIFvDWp45ZySk+kq/oEAUNgSo/uN//Lv4+3//f9dn10g2KID+1je/he9/73v40z/9Pr71rZ/Hj370I3zjG1/Ht7/9Hfz40x+3Zw+IbjGRuGTuXBVHz3bGZI76/hFwHV07w2g+K8+m19fZp+P79RGInwFWv/Gbbeh7RnnUhsxNHSTasPSqIrX/RGWCuIiwwSZcCCvTYWmwnAcpWQBsWiBnP5RUkd0gsLAQKabjwJbDpddwyXNyAd5LnhIBFmoyZnunE5btyP3ufBOVBlpgervC9gJ2Lp31Wz1bTwzx0iOfrMyaZ5CMVegXxv0CGrPFEVMyAqwjpjFaUEZMTLTI9HnNGBQfN1oIZwB7Vpfo/gwkjBbA0cI9qlfUPmfK0V8rhdUOL4GzAm9Az0Qy0pqQ0gIm4M2bN/j6176GDz/8ELlktanLus1iLMtaD7YZe3u7rQKOSQ6/MTPgbNxWKwcJSLRU3VnfFz766CMJXwqq6VGSvNd1xSeffAOffPJJVVGo8dGsJRQuYVv1m4No42Zvilk3mCklfPCVr0h9SXcG+j9RQlpXFC744v17fPLJN/Drv/GX8Xu/+7t4fX1VO8PORJlTBzF23B5jvyma9e1RH5jJ0cZwFD8aK1GYUdn7fGd9/hlwPGOe+7EebSr7MRjNbaO5ZFT32fc+zkhMUYi93d1C4ARULyxEYpOSlnpfIEmWdYQWVXWAHmrLztlEavEuueSkXID3kqeEQe9AZmw3yYSV1SWkWWwwD2u8NW9sAACCzHhUUwM3DqAtqpoTaRgLUefXGBTVMnbrTcQStrCPjNJZ1jJsn4D1jMDqiMmascD+9wi8R/WelXvEvEWLerSAjtogCt/n0Zf5zOJvD7eU5jwikUBYFBYjY0oOpZSw5Q2v9/dYtxXMwKq8E6u6AJBBhVBI9AX7Gm3MYi4MzktaKXKQrBAK3115pW+lqn8uptIopWrWzID267bhvm2ihgDr5VTLZkDYq1tYG/jvwi6nXZhEhDvv7eYuy6L39bCdjQPnbY407w8//gj//n/wHfzRH/0hvvjiC9g7GWaxWcylYLvf8e7dO9zvdxDt31ePNpQR2OrHxIz99b9H4HIGpo8Y01m+s/AedEZ59uUfAcqojDPQHaXf53W0AR6NzeiZPW52LQ2frmwm2YgNVhxL5Cz8ALW/sEukbLJmsOrupkVsuzOjqsSZzr2mecklz8hlh/eSp4ShK6Ydvy16kGB5gXQn3ZGT7qWKniuwgwdc05HL8FzTWIgs9DkGJVoo+4UpCgc8MsZHUp0PDNLz10cL+AyIj+pyJDPGNro2Cj8Dtv5vFM+3/Sh9f39aN723bXdXDrleWA6tMcRCATIDTNW+LQws6j/rd7X8lSXTMjBLuuaZzIqQkt+GQQ6WLa1NYCbA9g4bPHCw+FbT6hEOrR9V28/M6gXOXQeqzd6+3RoD/WifNWcdeeqko9bT4gBA4crqEkh0ntEAkQHrZVkcY/z43KPnHAG1M33ZpO9rR3HPAMNZvNG1vs0joBuxrj6d0dgflefLjNFRuKM5zvfbxzT25EMrv2sfbmEBgJzHwfY20D5Z1RnuAnhJ2Vs21/ULsNzab5CyxLydqvQll6hcgPeSp0QAL3TbrkLq9pEzkDegvJeJC6riYMbETf0XjtUNJ+q5dQZbmEcLiX0fgdkovREDPItfq39y0Y3i94yqXySPGOaIeTkCnn15I1bKx5u1x6i8EXg/2giM0h4tuqZyQAoKFyIsKSFRQoK8aqdkjFPCQutuoTbQWEoDqLWcFdm69mJ7lU+qTiiAltBYWF+fyrwutGNIXQV3+fp6NffI3unFXvediJD0ANlDP7H7XVsmSj4EGq/bGGrxhtXKm7lgUUsR9hqanEOPZdk/a2mq5zek0b0z47cP32+cImAapRWV4UzYEavr847SeQaIRyxslHZf/hEj/Eyej5sZwEgH2SP69HQL1/WB5PuYB8bW15h1DSFhgJmFKMnvlfVlRdlOhYEBcPr8sCKXXOLkUmm45Clp05geSGOW73ZgzQ6qcRHwa7q7gHxP+gnHLjlpE2q9EgK9HvT6Cb2/FoHHKD0f50j6NEeA0Uu0MPZpHS1kfdwzcgT+o7bry9JfPwP8R4DB0uvbL0o3bleAwWo1QKYwcQcsN3PJVf+ViLDeFqQlYcUNlMTJBCurRKSAlIF15+hBDnutN50itVgC9IANYuaMrW7U2iUtqbkvVoMlRKS2fLk6a7CqWvykqg+WTz1AZPVWZtns33qwTSSufnPOAk6x95yWEomDjXVV/EBq33evJ1wI6J/sAyhncYEsbZFq/lJ/11hBOv75++t9X/NANeonvly+75zZBEd59GFnG7EoLR9vBspnG8zZxjPKfxb3mfkhKns/J+7bGGjvJvb5tTb1YSwdBcT+zzaYJYljCd5EJY6UGWHWteQOpLcuWwZCR/WXXDKWC/Be8pRkmC9WqK4uZDIynV3Tv6rKuTphsdpZtMu7CdMmQNPftYnTJtEHXByylI+iTNbJyX+2YB6B5r5s0UI7W1gtzgzwnVlYZ3UblfMsWPCfR6z2qA5Hv2fsni9L1aPVNjMTX8bAliJOg3PO+PSHn+L9u/chOKLkFRyovoggdTCx0AImCWs2d1NK+ODtV/Dm7RswUB041HKzUyuAY9pc3+bW0eVWKWpxISHnDZ9/8bOWhgFmQFwHO5bNyrUsCW9uL3j79gMhyDg3xxOQ8dNAKtWyCVJtz7WYHrQOP2lrBooBneYVMeeM+/1ebQFXJtl5MOuB7GyjFN2fMas+7ggIRpvJKK1oHM7iRX34bNlH6ZxJ8yi/I1Z8Jm0D5jgKX65nNtkktncZsokqO51dqv2ryeas/FghCsB3vbbJdyTsyZZLLjkvF+C95Fl5J5MNUPWvYK+hvFtIAHgRxjffXVgRx/m273WxARorEIG6yHKDTdQeCO8n7kiOAO1oQeoX8H6hnC1kUX5nAOuZdM4C0TNMaiQjYD5Kf8ZYG/icsWKjOjeXv+3wDEFYzKQOIxZK+N73voe//b/9bay3VR05SF455+pYorGgS7OM4IBbs6QgTi/evLzBr//Gr+Mv/uqvgvUwGvTIGXECL81LmTHAZtlA6lcEEECZabsO4OW24rOf/Bh/9+/8Hfzpn35fwCwI63pDURUI4Z4ZOXsGN+GXf/mX8Ff/q78qdnhzx4aqXnOtS/A8k6qErGkR98tJ1ESYBKcUZrFJrOELmTnBtlE96gszYBqFH6X3b7PhitLpN37P5tGbIZuNjzPpR+x1f79P86gex3Xaz6c2Mx+xx4/37Ggm29FmeK13CehmfmYFu97Epdp2R1KyRMMRu0PQl1zynFyA95KnhEsBFrVDtpA6nQCqzm65Q9+1ym/ktjNX1pbUDBm6//tpzABrKS0MABD14Egmz34ut1fEEVBtaT1+PwKD/au+SEaA2H9/dmGNgG20sP67XMiPFswzwLaXHjT36c/uy+8EFD3QRdDFkwFquqW324qPvvoxPv3hp/jhD38IKBts3tFyFkcpa1oBElB7u93kurrMNnWB11c5eLnQgnu+o+SCX/zF/wTEBFASd8Diew1pEbDcylzc78aiimaPhlXzXqbO8LPPf4Y//MM/wqc//BS32w1EhDdvXsAMbKUgaZtsWwGrHd77/Y6PP/4Y9/tW1TzQ9W1K6pyi9oVSgap3nPH+8/f4N//63+CLz78Q0EviuMIk6fO5v75HSlTVPnpwZuyz7ytHQK0HxaOx68N4RtmnOep3Z9KM7vcyGnujsGeA56x8fR6zNEZja5ZXE52nbSNZN03d7669+g2q34zW14LEAKtzItZ1gCDf871hYs7NGUV1R2xlI+jaciHfS56SC/Be8qToOycGsCnAzaa/q5NSzjKhLauAEVYrZqrS0Ga1UslhsL6uhQeHNpE2dqDYKV3sJ95qmgm804+MJvwIOM4Y2l5GjEsPcqM8/Gf/PUrfA4Ez5Rkt2j5sX+coXFS+qG6j6315R3Et3zOAOaWk1gMKSN2OMsur+bSs1eXttm1Y1xv+y1/7L/Dd//Q/q+oJ3nxXIqqv5lNadC/GKK4vJY1jZVpvN/zwBz/AP/gH/0e1zMEQe7kAYNa5uDDWtODt2zcAWN1l7w/5VEN9Wu9qXYIZZStIlPBLv/LL+Et/8VdRuGBJypNxEZZV7QknSvj888/xW//wt9X4rrWnwgJVY0gkjHhKqVpcKIVBqq6xLivWdcUHH3yAP/qjP8Jv/uZv4rMff4Zf/MVfxLIu1XqUPjEsIOS81ba0Z2djcQa6IkDZj40RmDqzYY3Epx8xn324Eaic3Y82l1H+RzLbRM7GUHRt1K6zOUX3YfId+0OXo01z3c/ZPL8rCAlRW2GvM1MJZW2ls6JCkpIbo2tnQ/KrWGvAi23mPgsrcMklA7kA7yVPSTWjWw98q34u2cUVzSYN2s7dALH9+bdbNaz+5v3rL5uAI7bWJl+7Z6/SPODtF54ZMzNa0EasaR//iMECWj2OmMxZ2fr4EUPm69u3W/85yrv3rtSn6z0z9elHZe+vHQH+Pj0JL25+WVUGjEmS50/gIs4nvvMffkeAnuYjbOVS6yXpoaYhmbVy1bqTvNp/+/Yt/sX/8y/wW7/929hKVk4X1ZmFqKszkICtZGzFNnSsusIO8DrmszAr0dXaYiHCd77zHfz6b/y66Agz5NAaF7XzCzAXrOuKH/zgh/i93/s9cG4mzUgaRMeWmhPjglyE2W5m9KTsuWR89tOf4IMPPsCHH3+EnDM+/PBDvP3KW/z0Zz/bpc1ECl32wDZ6hiPgF4HeaLPZb85GALTvNxE4m43baNM4ijMDrdGY6n/bfBWl5TcL0djp6xTVcbZhj+ac2XizTRiwm7KDZ04ugIxRrvyGfUG1DaIeKNAsNWQhT9R5DOQUJ8QyQ5JLpYjdd83CyI1LLjkrF+C95CkpoK0hDQDpJhMVM9qR9NRQKpFSX4CnierEp99LnYTdosPCLdhhndEk7sMCDQDVezheGH1aESAbLbhRmj7uCMzOQPdMfPxR+BH47H/3dRuBBB+3XzCP8u/bIGKdZoAkSiOlhNtyc2CXwKWgEGElsUIg+qobsh5JW5YFVIStSmtCyeIUYlmWxtC6A2aUEpKyuLlkLPrK/36/AyymloiospuiG6ve0Yqo0pRNrDhQIh0HWs+GrVt7kKobKGjPuSDfN9zvd2lvAIkZzAUZjaFmdV5RnM4w7KAmCyDnnCuntiQ1/+SeaaKE9+/f4/f/z/8LH3/8Md6uL6BVgNe/+pf/Cu++eIevf+PrbWOp8de0IFFCNocXD6oFeMjrqF/0/XAEOGf9erZhjPr2rF/288GZMToqh0lvl3lW1tH85SX6fQag95vmFu9x/gQcgbsvMay/SXzpH4VkjNj8vdQ+b8C4uAR1rUiLI0QMEGfU8yJpUXu9BpQvZd5LnpML8F7ylDBoq3Z3i3pSwyI7cdKduM1kysbJquv1sBSc6nRVSHhZw8iNDtDT8/XnfBGwqXnEiEaLWpTejJnpwd4MBIftFzBO/f0Rq9qD9DMLcL+gjZjW6LMv42yBjp5JX4YZsO3rE5UX0Ff0MLNdeo9YHDiVAiyM9bagqCoBkfUNBlGqK7Z7F7BL26w2sOryEonbYQLEy5ilo2DS1CiYCFmvJdV5Xcwdsa7Llv6aFtH/VfBY264CxoJND8PVZwfsN4WWb30QVq/2o+/j1reoRhGm+asffxXf/e538dOf/gTregOzbAQY/x9779I8k/zgAAAgAElEQVR0y45ch60Ean/nNm930y2S7XBIVoRMP8Piw5xaCv0djzzw0H/Mdkiaa2BPRY1IUVIwJEpqSWSLfc+3C5keZCaQhQ2gah8OWdl97rd3bRQeVXisXEhkCj6/fuK7X/sR/qu/+TexbVs99EZEIHeJhnGfEbOtXvXlM7AW0/a/r8ZRTN+nrfVfKHWrco9tPLfHnSlxV/I5q4vn3+9+jeaV/v5+rI2U/5hXLKMB435u0HmfnOvo2sMQZDFixJnb+p2U+a1g10wcKAEwMFw+NciRADW40S23XJS7x9zylkg9fMbNzsoDTFRAC/tukXOQVDOPcyJEt6dYnd0zAPZobA26BgA8XwjrZNuBr2H9L7KII3YpTu49ODsDxrGcvv79b/1CNMtjtjiP5Crr05d5BczPwMus/f11tzPty33Nz/4SYdu2YF+oNqgpJ1A2+9uUldWNDCMzJCUL90sG6lodKGlYYBZAuDRbXjd/cJdezuQC2Pdd20NawZQyUlIXYhUcBtCr/YIBmFlLIkiR6kfY2d5k9aNEzeTRHkCKzBxrdLbGsB77cI0sd+izcqjPj3/6Y/z9f/D3UUpB2RnMpd7rbKS/n8hOJrvfD/e99oNXtnY0TkZgNP7t8+ivXxkjPUCcjZdVXqtxNxs3sawYEtr7VJRR+2fzSLxnNZe9e22mnIwUhHi2wlLad1UABbpUJDRLhBD7r5IfNbIaRANOSLF1wPNmKII29tcOtxWicps03PKO3ID3lrdE3CeMwByFFz28JuZWBtBoORk2Obl9r06EB2AsbYIEoQLfOmk6a2V0cD8Xx8VrBObOFpAZCJwxOSu5AgxH9/SLyQhgR5kxritm1e+bsaz9b6M8ehYo5jsq7+za6nufb0vX/u67bvWTsa/KqhrA5RZ17SVvBjipOQPlrXryqF4KYGe/qo3vgGGz/xrXqgfdKJm5gAFd320VzcMdjXDhg/2uVsnC/PrWrqgnB2WMqQXRsPLgz5QGkfCouew7jAuxOouCa8cSzhF/PD6AB6ppBJGaWHiI4VIK9ufewG5WBvvxeByeD9XyX17f4d2uxssIPK7G8qw/nZUzklEfn9VxVOZZ3n0ZfV4jAHoG6EdjslesR4r2KO8zpaOrxcv49yRtH8GUPxFkIbN61+tNgxUlRNg9+nTPnQ0AC9uhtaxLCeGOtHbLW3IrSLe8J2xbUQDU5dinLZ4JoEezsQLQjq0bNBDUz8lmLE3ngDhOtDj8RbAr6yf7mmLAEK4Y0H6hGeXn90dGZrQYzPKNEu/rP8/K7fO8Ar5H96x+H4Hovl4pAMAZ2I359nnP6j1b7GfPwK/VKGJidt6+/W/s7UzpKVLqQZwatjcssJWVCm64nOnsvTK4yUROtuvhwJYIlB1sR3MSVDOMYsCzFLUyzuEZMReABMH7XgWhKZt5BXONuNY/c5jdsgMKgYYIFmsD5AhIRSltbZc91xLCG7u9cxxTIoJt27A9Hod6RkV19F79XfRgtWf4Z3181uf6/Ff3XgGyqzT9+J2V3yu0ZwpqvGeUbjae+z7Qj793WOLV3DMq81jn1v9gJmoE98Nr6dpU39aF2iEFypSkRoqkDS2ksJgJXS15nzbqllsGcgPeW94SFvMCTrmxtY4S6iQYgK48bR50Uwiq8+JZ50tJT/oeQe8RgM4A04yBubLoXMmvz/sKwzPKbwSCZ2WMPs/yP8vjnbpe/X4GsL8lraeJQIvZTAeqrZ8f/DqCYgW0CmrV7RfbeUoDCNDrXJpLsNoushTS2Fixvp6qv19zrU9mXCECEkFKAeATAKJ2T0pq+0rmKcHZufh+zS8v5VRNMrQNUlneHsikcHAIRNU6uQIuACJcGWJtYgCbOddAHGR2vrR654ZRUkqHurckc5D17jgdAcAz8DeSd9neUf1m+YyU51F9+3uu5t8r76t7z57RqD6req7q532ruabz7hWRLaqJQ+vAqGNMz36QkilsGNbJEuCQj+4iMkCp54FvueVUbsB7y1tCbBEmhAHagPQFQDLmFwAIeHyn3hvSQ3/T1fbwT3GAb3DZJG1avs+nPnmKUF1I22/zrbf++2zx/KsAxH5RO2Mv372+2m7s63cG+kfPZAQirjA7Ma9qBjAA61fYurNyONiZ9r8VYYuolmrf8WfmW/G6HY/GUgpAlKqHBQCNEYba06acKrlE1KK5KYhtIFEIIGOiKvtaQbmCS7fBVY8RVj50YU/ulsnqXgzQpnoQrAFd8ucpcjiYXuGAUI2GptelMrmpjiv9w+HQmTPbClqsPEvoIFzkeLCv9ikIfvj8iq9fv8I12Nf+eXxnK6ZxxdzGPtYrP6P8z8biO7sk8d7ReHoHeMcxPRrLV8b7aly9A/77PK7OLcNnayZpel9/T+uXemwjMBgC75QB/D6A9AFs36n5ggeVEfst23ojAn4JVXTLLWu5Ae8tb0mpy6xtVIktqCkrAKYcZjgzc4hStf+D3m6/NWCr0k6ltwk4Jh+fnI6/x+3T1eQ9YkYONQnpX2wwfXs9pPU8499RXrOF98qivAIPo/zPwEb823+ObZo9pyts3aie8R3Fe+MziGmV3afA3Da3djWP4CpLe5BUZkkABaLSbFYdIDJ7HlQDTxDcK0SqCzpx33Z4KQD54bUEKVpoyrpjUcuC2Q1zsOmVzmSjKMPswTDI2FQH17DP9dAaFFyriYLWh5xZszb7wTZXKIRFvU9wUc8UeAVyqgwASmY311XeHpFmqhHeflU2Rn1n1G+ujIsr+dUadHNBzHs2Jmeg+QwYxrqsGNrY30dti597cNs/nzMF1tOM2jp7biNlom9fX1dyNlfidRtsZpqjkQWhuwF+AC3s9sH6lK4f4XtKGrWTCHqQzdadhJcxeMstZ3ID3lveElvQGW63yM/wi2nixfzyeoQ11+Ir6KB6atfvPU7mceKkQ5rDXWHy79nAFVgcsZIcgMdqMRj93ufVA8JRXb5le/Vsa7Jv12jBnNV/BCRWwGBUp5lyMarv6B2cgXxPmxKZTSCUoa0Yt/nTNQdhFfSm1BhpCV4K6rOCgMWiuBFBhA8mB/qv2TGzCARc+14pBcUWYEICCfDcnwoGSQGBN03rYey0uS6LzzzXqIHqb/cAIbyvm1syBcYF+75bGjuUltQ0AdTa7QfoorAwdi4oItU0ofbbw6YxNSBShyZV12sKgI8H/frPh+d9kX08Uz6vMLV9vx8pv30d3x2fIyWxz3s2bkZ5XRnrs7zOlNzZfDWrS+1nM4XBx71+qZfrQU1P5jhXUmNundnlAtWqzEuPB6KArSOg5gYzqy9pgfwwrfgttwzkBry3vCfk85dvlQafiWwhICtGNRCM3t43THSH5Txee52Qe0AV5/J+u1OLP184+vtnaa+C2isLSb/oX2GUzoDkqIwRGD6rWy99u85Y8NFf/zwD4Gf1ea17wvbxqABUAeduTGU7hCaiZg0QaYfQ6gKrYFKhqP83eHaQBmYFMOZUu35yG1s7i56N/dUyuQJgCX6AD+7R5LgdWwFvsq1aY3VJoPa8KelWMOsY41JQ3B1azdOeKUsdPSLNVKK1HVUJyG4HTaRhve0dZSJs5uVCRE0+4nsg0qe1pYyUk4Gh5k6wf9ezcbUCtKvvs+tXFabRWLja/2as64r59bRXxk7fjtFznDHIo7yuPOM+TVT84z+p8/kY1L/WK+xYwMAuG9CtWfk60u5pf0I68V7tnThBQJ8vDbvlloXcbslueUtEaEeY+JBIJzEPMcx2qEB2gJOyvSiN4a1bUzqBtRPeOhHWtXkA2FYAKl7vP48m5NGi3C9KZ8zH6POZxLqMPseyz1is0SI6eyavUbDG943avfo+q+OobrOyR8xy/D5Kw/uO5/MTZIdXuDBoM/D13LE9NmTzxesLb0otrLAk88Qg6vorpRaUIlFSt2Si/VVBa6qMad1NIDmyvtxAnzNiApiPXYKdbwNRPdZ5eKakHyDSDgFp/aBbuwFkKMtsJh0HwKaKZWTkKjNuwTAqSwwgJ4IwoRibrTegenRQAC31uXkDiIDn5yf2z08d0pN3O+sTK1ayT9t/j4FZZgpZvGfUhxyw9X2ulxH4nOXb5/8OS3x1HI/GYs+8zsD8aI5ZtX0G4ld11EsKTM145mD3XgdBKkb9+tphPt33r+aLd7eh9Kn2vFKgJnO29jB33kFuueVcbsB7y1tSBFw1czdhgG052aKuTFQB8NTIOLx3rC/QVHeq2BkwPFxtgK2MiWgsdXpZSFfAdcYqzljJKD0Q7cu7Anxn6c4AQF/OGSu1AhAzsH228K1Aet+OfhFeLbCjtqwYK0B91Ir1PWcdk+dtQO2Xf/FLMDO2nHWL335PtrGVP5SlBbPZo6qHBY+wRiL1GgN4PB7487/488Z6mR2xQLBZWFQRAWWqHg+0zmxuRLlu/7vXEvH2WxvdbjgF1vjwDgCFEEQarc0JMXGA20wdCK/u9A6sJLR9QAOR0Za5t1U/9DsiHX8pmyLRbHZ78BkZw75f+O8z1nKmrK7SrcZ///uVuWFWr6tjfgRU+3FxNvZmIPNKnWfEwejeFVCfPbfjM3TQW3/V6+GfdpRwg6fgr4B8qikDswHjGL3TTRuAxbJwyy1TuQHvLW+JEJmvXVtIRVRD52fzkVgnPDHNvdSvrzMVqdbeXR4BNiAyCDCQMGckZ4ton+/q2miBuAL2Iri7Aipn+fj31eIff5+xQCt2bFX2TM5A+4qhmikNo7T9NZHmP9dBlqcrpSBvG3Ii7M8n/r//9//Dn/7pn+Lx8QBBvTdohDRNr0ETSP3esnsm6N+/s6lmq7sX/PKXv3x5TpXRlc6TApntLwnA0dsIVfZWRCzoir2/+Eylre/V7lgYwlS9N5C4J4nkDk8PjL63t9hBuRrBDcrAiaOUQf+hWvbLAMWXjy9Ixhj3TGL/+Ywt7GU0/mbpRkrqrNwZQLwCJEeAL/7tgfsKPPbAe1TWKH0/B8T2xnc+mitW8+JMXuad0D/dvnw1h8alAGZdr5kBB4pWRImRNkAsAszeALAU3TVMCUgbmG+LzFvekxvw3vKWiIZ9YveFeNDdEwGlAPsT2Dz+uYcgRl1UHd0SBBJX9NfS9L+HBa1djyFbXa6CpxUIXbE+PYh9Z9EasVDvAMyrC9VZe+KCOALVfb16NmpURgTSo7JH940YvjNlwpnT/XNXoAqy/ysLm0RAKaPsn/jX//pf40//9E/xox/9CADwfD5reQDw5cuX+r2UUkPksm2XcjWF0IXVD4ZtacPHx0cLFYu67QGQmgdw7bvh+ddnCe33ob3Rl62DaxHRkNulVBDroYwr2AXMtKLdn4hQvHCggluwqLvT7gCo1+Fw8NOBPhTsOpBnY94KBDuXesBu1TdHrO5VNnX2ew8AR8rUCuxGgPiO9ED6TIEe9eW+Hr3COpN+7rkytkblrtjcVZ72w7GuRkAc8/Y6qkKl7UPTnqpXh7YW1HXCITI/dV34+L4m1wLcXYjcNry3vC034L3lLaknt5ODXQOcHhEnPYCN9DMIoE3TBfs/zUhA5q2hADYZ+szmC+9xgbGpuO5q6Vw7Ppw1uqZ5Xj/4Fe/v750tePU5DViu+NuojFm6GYMyKmvU9lH6lZwtpqN0/bXR376tozzOFnyNbpbw8fEAxNY//TFWorLAv/Vbv4Xf/4P/BY9tUzvfpGxtAh2YTs+/BrMAmesygZoLoJ53o5Twt/7rv3UAiA6MvS0pJWzbFtoqoGqmQOamybw9MCNv6s6vsNqxOxhjLu0ZhX7s5QpaJCtmVlDrz7ZLR0Qozx3luR8YW4HvlLQx58+DEiFBgXZxxUQEj5zxZdtaDpP3G7/3CtWK3Y1jbbUrMWMyV9dnyurovqv93hWUK+Omb+ss3Yg1Xs0P74zR1XsYPYNeEZ4pIediqFdC2rQZ+LX1QQDkD9R1w/25R4BMgBr73nLLdbkB7y1viTB/Ks612ObVH68fSksKcgn22X4vFg8dBHVLAxiHVudAIjksuEA3wfuhN2iaAhyiQa0Ym6sgd8TgjD7HPK9M/qNF5gw0j/I8A+wzoNCD71HZMxB9lm52bZW+/3xl4bWrej0RKNsi2LqFugfLuQKFn/zkJ/gf//v/Ad99/1311EBE2NIGIalb+lvWQ25eBqVkNsGAiHtnyJU1lUFb2Gx0t22r38U8GLifBuaCPZg/AFCzADYmllCZYM/XlT01yZCDq7KapoKR8G5tB6Qqi5WEVmAvLHqwSFSBdB/EztKx+fTtQzWLCPa94PPzac/5eCBy9B5XzGuUkeLGnYnIDOiNFMx+zPWK5QgQruq4GrsREI6kz3MGtmP6s/qO5oTZfX2Zo/r1bVgp2t5PYjpx4Aofk5WadT3SfmjpdAdQAkliadNm96nfar1un8GAlDvyxC1vyQ14b3lL2F3FqEMmBbTpQz+7As5Pm6w8HVBP4YrfLyD4QtwmTsAncU0Did5A26Lg0LZf+HuZTfQrQBe/z5jhqwB6JjPwPGN6Vvn4fbNF7up9/fUrYGElV9pyxnCN8iIiPPKGnJJFMDO7WWMfK0AiY8lEXXkhqRLADDzl6ZkpmIS6NCNnafcCtrYzQW1sLQSxB33wZ9Gbc/izq4ExrC9XzwikpgJEDoLt4J3i+Mpap5SQq2/S8fOD/bqzukHj4BvYD765yYaXn9ymGG2nxKvfA20Ar/a7AIQZ3333HXLOFtFu7p7riqIWn91sZ6CXyKbH+/vPfdkrELeq06jvzpTdldI3YlZnc9cIgPbjcvTbqn6rMs9+f83Pxy9wnI0N19Z/6q+BwcgsqH1agOqlwfOmpGtI3fEDNALbw74qYfJXm4Fv+esot9X3LW+Jmh+QrswAIDuAJ5A3BbmJwsTlk6NPTTaBiYTJzFgtHP3qwrZYDxJA2WhrbbXgjiQu0rMFebVQx7xHi9cZ+/MOMO3zHeU3Y6v6+2fpZ2zRDIzPFIZ3GOuVDMGXCHLOyNvWGFEAxZjMvG1IWae1Z7B3zZRqkAaRYna62n41BQBgh2qcOKrlmu1qqUxUUBCACvjieyEibJsGvFCii2o0uNb2lofbJhMlpC0bCSagrMEpHFjX/LtnlSmpd8BwzYEuANsd8QffAC4QAgPEPlWxB1Uzpr6/ppSs7fzSH0dAd9Zve7kK2vr+MVPG+nKvKqsrhatXDGdjZnTPqg6z+WQEbK8qELO8ztjflaIwe5baTqD2RCdBbIcjxSicEljemkH47NpfNqDrrsps3P8VOYdb/hrKDXhveUuEBSg7qwNxv2jMrXenvKEeaKsLe/HEaLNanQ0B+ETZSVwkanFHP6N+bQYCZzICzSNGd7RYjpjQVXkrUD1L339eAfIz8LlinHqAMbp3tfCdPfO+/u+yfr2CkykpYwtbB9G1xdx2gTXwAhJBDNhWd2as/mthfUmPmZmbLmOCk/ddQQWcIDoAXAA1gIVYUAjvm6UYDRWfD6k7LykFpYToftHLw66sMBu4rveLWGANqE9ga38mj9bmbG17zmJjs/pC7ext605J3z89CR/7u39mEez7rspHzkjpuouuPr9ZutkYjPXo04/yXrG7vcwY2zO2uS9n9NsIeK7GZf99Blb7MX72jFdK+gjYH+oU6v0Cdl8aHa9J+K9/IFS/uuj6XX4AErxVy456upkTUBgot0nDLe/JDXhveUu4FHUqWrcRE5C+6JaTbzeBADJzB4I5Evc9KJvcyBbzuiADBwoq/PUT7MMFzyfdzn73CpjyxeIs7ez3CLJHC1XvxzT+FtszYlGvAGhPF8ufLfwjJqa/Prv3jJ06e349mL4KelZgndDMGThsubvrMRHRQ2NAc+dlpgdEOHhFeDwe2PKGBA1OsaUNRBrCmMiApAFeD6Xr0dX8uoNhsfLI3v9uADgeatpSfgEWRaR6Z/B+w5AKrj3im5fhbLFHUXPPEtpO6xMRZLhSKoQiylYL1J9xUx4nfY1f+2cOHiPQuYeL7+nqO13JaHyM8j0DpVfnBM9vNKbeqXsEhiMg+U5+M6a7r+eoLavPnsfsvpffJ2P4uOfQfDVXk1wxZYukzdXe50Q0QJGbwiU7+0EEpXIzkL/TNUZgbjEBkfLL1yd1yy1zuW14b3lLBGn3WOaKCrKyQOI+FC1iEwGgTX/bP4ESJjdhQNJhiuym6sNfP1gjowXZ2LXKGcvrtn4PTPuFcQW8Zuxpf/8ZC7pajOL9sY5ndRvlddamEUg/q98sj3cWfi9n9KyuAmAXtp0DImVuUzKmVhT0SVHb2Za/7zLA/to9WqjmKUWDTEiCIFcmQBlfQiaglL16EhWi6hnBo6IVLkgpw4++pZQ6IAAbArro55TA1BDBcd9D1OMCgn2yPSsxm9/myWG3Ap3Rtaa5yzYDyZSS6qFyBCjtnaB6rUiSICTV3KG9M/3rUetoAHRH7/EM/I7G7SyP2fheldWPLaLmAWE0Jmb1nY2T2ZwyUz6/VRnox21fj9lzvHJt1raDT+fZs6fW3+BKGAmSUDvyAWPYqnLF7TPvGqSIEtQZdvTprn6ysVnnBQP5gUIZt9zyjtyA95a3hAXK3iYDEZQB7ApuiVBNGQQGiAE8vwLyrIt2VfnJgHH7U/97lEOC4y8DQHrGoPZg8mwxGi1q/nnkNqhfwM++93nPyo5pZ/Ua3du3tQfVI1kB2qvAdFWfelDr4uJ8/N0WYVH2MaVk/j4I27Yh5QwCYeeCD7hHPEIiIG+P6mFhyxt+8e9/gT/8p3+IX/3wKwCkYNVsgN1rAzNXzwv7vlew6QfDcspKRAlr5LEt44/+6I9rW8wyOLyvAELtdz3E3kAvgSqAJSJQSpXVVcDZDsr5Abj6fPRhH561P69sICHWK7an3kP8Mt60TyiL/tyfeHx8YPt4vOxknClDs8hqqz75Tn8cjcFRPrM8VzsLs3qdAc6zfOL1HpyPlOleQZ4p8isg/sLSThSXXjmdKjQEQNznrh7CFNvkI5DuehCQPT8yqoII2H9Q0oQcNKNFWaN8TAtVGK+p27fc0uQGvLe8Jbp7LKyhH2GTFAz4WrCJ5IslGRB2TZxRTRl6CczAQUQqMNCvaz+eV7b1zpjJqwwVgAoUvE6jBWV236jcHhjH8s8YoBVDdQZC+t9XLFl/3yp9TONSvQUkXcRmC/38HQPNV7MyRMkWQweSIgISoNi+QFjyq50rEeHf/tt/i3/yT/4J/vzP/xzZ3Jm5eCAKtVXdkHPC5w9fUYQP793TbVsGUaqHuX7jN37D2uChdYGqDFodWt+x5xSBqzGxLHrYjtCBGJF6oM0Z4fBiahoAyMAB3DrAnimCLOZhIhxYS8GMA1CFgLkxv/r7WPnrhZnrczu+2/G7n4G7vr/MZKQwzhjOK+NrdX2kzM5+68te1W9W5qys/toM6I/G3+iZruYnIgs1XfN0XkPqITM12W0qndkbtYqmL1BvPzYOKNv6YSYOUlBdmDCDJd82vLe8JTfgveUtqVuwALT7/KCzW3XzhKaVu2yPxuqy6CTnv4uDHnffpBkQqV2jE8nmsXcJhFyWW28ms0Vnde8IRPZ5XV0sI0t3BciO8l+1sW/HDHzO2rZqQ9/u2UI6Y6dCji9lXKlPSgllVx+3yVyTKWNpdZGWjgh2KA0A1OwhGUgl6AG0bdvw27/92/jZ3/gZuLAdwHrta0ThwFpOymDZgq72vwlkOxyFC37jb/wGvv/J93awnMwMwCKxcdF/ECRpYZKP7KebXpg3BChITaT9pj4h1q1hf9aqk1pf9udKyujWEMgsFXwULvWgXwy9rPcTkAC2g3QO6FNK+Px8QkSQczrUeaXsxWd6te/Nxu2sH476+op5nQHfVX1m7Ohojrgy5s5A85V6XJn3RnWcjd9eYr2jmYN9sGAqXrdWx6rjBawLeAROM2tIW3Nl6f6uRVpamJ93ULUBZqzf0y239HID3lveEnl+ZdCHfWOoL14xbRxQ6shQamWYCIf4wcbymicoS9czlGa763aIYTGbgTnguMDM2Bj/WwHChUUh3tunW7Eqo7xmC/SojNH3EUgeAfpZuTF9zwqfgYQzkN3nO3oXL4vlQEaLuX8mIjw+HpoHcwW61VOBn95KhI3sgBgzmAXZWOVYj5QSfu/3fw+/83u/g7KXyjwnJAV7wYVZzg8N5VuPWZr3B7AeZEOyhViQkLA9Ng0WkYzptedhT0CHhOt+FqTCOWmxQCyxTxMiWDQ9klqb/LmyiFobU3P/1PdSVwNq/gL15St8YLorGDaQruUzPp+foEQWUa6901F/Pr5/AgWFeMQmrkDZFVml65W2GUiNbbk6H1wZ96Myz+aIFbsc040A8OidjPKf1dH7Wvs8eDYv789MiYRQ7W6JIO75mQIKruPCwK/7bD/sgmXUwBSsQJhZ/vLlgdxyy0JuwHvLW8Lq3JTbAmt7V/kDeJKxTQU6wRmz65p5neB0gWazIYS0bWjUI2jNhtC3yngw4QPXF5AV4zliV0ZgcMYe9dcUIMx33GYL2Az89uWvFukzULAC6TOGeNWOWRtWIGUFyFcgv92j/U7XxVZvttC8IgLeC+TD6sLKdrKwAtmuvtu24buP71C2Up9DPYRjxQHNX27fVreTJa8vHMCq0sfMVamjClANZBYByJQvi24W7XX7sLXO4vpxTe9rjBb6V6BWRzkZewzRXRKKh9049BttpJopNCDsgB9o9XHfvj/68kUP3nUuAuM7G/fx4+8zJWvGAK/GYvw+Y037QCGje1fM6UhBXCnho2tn7ZqNhavPoW93377Z91HZbV5G7d+jNlSThgpy/S9MmbJ7yQPD+Bhoaep6YQeb1SPQAzVEfY3WKeB4MvWWWy7IDXhveVMIEDDSo26l1oNqgE5Y6dHSurBp9CI1KYjAoiftxdguNW1okbLAap/Ze2hYsS8rtmS0mM5+XzGQMU0PpmO5o0VuBghXIHwGkN/Jt69z/1tMs2rzigWegdVR+hkL1T/TcX3dZhqVXXIgo6EMPV0AACAASURBVC68xDzravpqc4uQL1631es10fC73ieJktrAltZ9HcxaY3S9Fl303et0IlL/vEg11DDgFshafzcjUDDgz4/qHwXfWoabVIQHquVkN6eAHd9LQGp+hR3E+vMBgC0l7GbiIQAKSxyxBwAugspAk5l87GUHRbzSgcS+H8Q0s34X+0Tfr1Yg9KrM+mKs46x+o/E8y7ufR2bAcvTbO0rkqD2j8bICtqP6xmtRmVa9aEwOmCZTMWxNX4shVBPe9sESx/qRuR4L7ssIaCHs1bZX+PnynG65ZSW3H95b3pKiYNRPHelFEvWhSIRmu2sTGH/aP24TYiKUSvhSzUInWmUGIpYQyGGSdYmL9wx0eroe2DjL1U/qq89RDizYSZlRZvmNQGlMP1pM14AQB+bN8xwBjspoTkB1X+fIOvb1XdWzb98M4PZljz57++B1FmePInOpgDWF7XY/sFWfT/QxC6nXyPlTUuCrEdOO7SEDimy2wbA27b7QhwNzRGrny1GhC6xpfR6ioDMR9CBeIL8EqF4hvGyXRAmbuwojYMsbcsrGNI8VGA28UWuiATTie+amMABQt2ZJQXopBV8/nwAaY+zP+IqMFMpRf+n71UqxG907G8d+b9yF8bwP5hyTPtkraXEMjdrX9/kVWJ6Nwfj3rO299PUZKRNXFPwRmw+gmhah5tN2DfS/pHEkgAaAPRtmdUlWfgUNMOFuL5PZ9Zq9L/k167erLbRbbhnIDXhveUuqlwb3wKArvn22mUxY/8EOJfAORSSA/idBkCASu58vTn5i3S5XNu6VQepB2hl7uVpUViyolzn620tc2M7SnjG777BPM9A4YoDic1sxvaM2xXxW6ft2rhSSWRtGoAGg9hcBdFew6hHL9KoHoWCzE9wtrDBgh9qSHWCzg2DaO6nZ04oo0AOpv93+nZJHWvPv5JdRmVmtvNr2CsB+NSh5ta2J7JC6KoZefwDV/25lff0d+vsJj9eBak4ZOeXqlkzNEbQd1Q9tOTLA/mxSTs1m2LGFGBB2kFReXYzN+seZstWnPeuTMd1ZPx7NHSNl8EqZ78hsDM+U61jWWXmreWUE3K8849H3EVEwLb8OA7f79QvWzyFtty/+Hn3y+rpREXE2f+87WmCj99/FLbfcgPeWt4RFGGwbtsnjnHtI4azXkvlNFFbtPR44sH9MCWyTV5wYdXLV7A6bXB0QusLGzrbsZizFLL3/nbFS/X1XQGRfzhWmZgVm/fuoLitAvVpYR6BitECv3sGoDbPnfAaINb3+VfME9cXJZtdHB9ZeTWEykm3LE7gwynNvrKYtvA46Hbgmcw3iLreYGSwaplhEKmNLnp6CXW+9DjiwVD/BgNginsk9OpClb+6+PE+PHncwdZDjO68sJRQrSGGQHJUZB8gi6jmilNLCMludGcpqlxAWOebvaYuFQwaRHiL1sM2h+8yYzCsgdzaO+u+je2f1no3zGTPb5z9TLmdMbX9tpHD2ecyU49F4nSn4o3yvKqVnCsprvY73ef8MqcPf1q4EINn5DRu4gJ8BSdlZW72Wku0g+o4MqamcX2eBSPmcNvCWWwZyA95b3pL/9X/7PxiUWGc9W4htMa7aN9C2n8QOsRF8nxacFOw2My6pi3ZDI85SHV0r+Y8rkNZvU/pfCkCjX5T6BWe0aPTg8OrCNrq3v6f/foUh6xe3CGBXC98M6M7a0Ofd59mHzu3znAGoeG31LPt8Ukp4PB74+PjQa2JgktXWlnzLMxGQybqkLqRE1NhgNJdaDix1zTX6KVFjjC20r3+O7aXAuFZm18MNh+fHLMhuXtGBThDVemu+yYA2V+Y6Hs6r79HqlLIywwyuwJWZUaQYiDeWGqG+QmZznDSccqIaltifs0de4/CeVFEQfPnyxd5/OOjXAdMzpazvHyOFcqakxn45AoO9zMZvBI7+/cxkaZbnKO/RPX3eccyOwGuU3oSkfzazuWOlgF+ZK8aKADWXkYBN3/4OfA73S6yhhSvv4X0/hcPOaASKwBKqF2n15+vrTgIY+7RBt9wykPvQ2i3fIs2Gly06Tt6A3X0rAoBdyx+GZEvdstJF2rd2VcNP0C1ZkYCf25wK1AM1vhc2Z3FGi+BsYYzpR7ICuD07uQJqswVwdO+o/DNGbNSeFXs6Wshmi+LZ8121d9Xuvm4xz1EZLimRAVWAHMQKsBduZuVEKM8d+7bb+qi2uEQtpHVKpECOrQ4CM03wPkZqMlijkIn1zyNDyOG5CYA8cLuWTNmS7p0xcwWZFdDbIVCR5v5M0J7FHgCOtknZ6/osCTVfv1eg9suPLx/YHptGvfIRSKEsxfnY3cSB2/txAFxEkPP2EnRl1Zdnv6/63ajf9GB61L9GdZgBt5jnTGEb1WnEyMY+0QPI0TiZyepZjJ7f2X2j8q+Kph/Nt418IEFz1RceH1X3fQQBgZHtPAbwYpIgouvF40cait5dk4HNv1kCSjGbXiVOxAHyLbdclJvhveV9cUDrQST8IqXgQsZiorsHh/Ksmj2TqDlDmBDbInTcIm2nfvzC60IzW+D875VFrF+YZvfExf+sLKKwdd2VNSpnxMzMFvRe+t9Pbe0Gv41Yuj7fnkXrn8uIwevbPCs/yuxQXPx9f2qYXwWD6uuWKoNvZFDyQAlkz8V+IDSTBbi9Ya0VkJpZggPGQ5vcNtiZXgA7F5R9PzDezKwmBAYSvB0cdimUeXXSS+vuHpeIlHVVsJlQ+nM6BuY1U80zUWNmW6XD8xaz5Q3PmA4gPQXXXXJkfSlhS81+2t20rcbZGbs46xt9mpjXCJyO0sfPPi6ugL5+DKzmDE/Tl3VWr7Ny+++zeaav34xBvioz5bR9HikMvtvw0iCACEIJIoRdEp5i6wMBDUwzkL+YOZz9yx9Hjz9OnLTa3IfWbnlLbob3lvcluUnD7qgCwGZA9+tBy1fatqgXhzo/2eIp5q0h+E7VhSxMnPbZv1+ZuK+wJyMGuE83Y3L6vPo8ztiU2fahyxkr+s49fZpjJK92fbRg9r+vmKUzULNinEfvoG/PkTVLyNvWrpkilcKWPCV1d+eOukrRMAvJQKeDYPfg4Ha6GoktHbtw8HKgDsaSnjqHVIYV0P4s6bVvCfxQmB+oYzMtaIfaqo9pSx9dMPiz7Q+W1eclwJbyIVRvThpwox56c6BtAThABATw54fSCKQ2vX4dAi692YEC5rKXl3e+Ynd7GfWJaEpwltdM2RpdH+U563N9O0bjZdbWWd+etaG/NmKg+7bNWN4zJWB07yjNa15+CHT+TF1ZOzC8eqvO4aqWonZsISMzfFew2DVX1P1wmpMm9tfGESgFY7dbbrkmN8N7y/tC6ZfqEHyz7Saf6Ha4tYMuqJv9fSD67SWh2vGcRfKJMM7X1emDLdgr0DSs5mIx8+811Opgor/KxPYLyQwczpisfgEfgcczpnRWt1H+V9LGNP0ivGJwZ2zfSlYKRyyv/QWen58o3Ez42II1OFrU0Lmel9XP+lE2e1Znb5mLRiYjOrCjNSKc/a+6McPru5F4f99HB+2LzG0DARZwgpU59VpCggcKPkZB87w17ITXS+qhN7dV1qQa0ljQXJBFYA4okN3L3hhmmP9hAy2FCyS4YNu2x8v7qu0bAMOzPrcaZ6O8Z+BzBeze6ZsjmYHS+PtszMVrIza3TzNSRGfj8ezZ9fWaKRSje1fluVJn2Dbe1OzeATBFPS4MTgiQvlQ2WBleYzrYPP74b/kB13CZ6LbhveUtuQHvLd8ibaIRMmbXPvuUJ6JaO0QnMNfMD+LbXZOFzeZCUvpgOKGPmMbR9xlAXrGdI1ZtWM8J4xLrMSpzxfSesbAjWYHkUdoVW9QvcDOWbMZ+jfKLdTpry4xt0+8KRrftYV2IkFKubK33wW3TaxUgQE0FahQzs0/NeTuwU+rVoYFDz1EXbjmA3vocQ70PylSwcQWo1rW2BQ5MFXQ7YKbu3WQzaXAmOJpN6NiiyhpbbS3vplzC2go0Rtnrn/OjAnAPuOFSQXyNr6g5f3w8wHy0o5yB3NmYeGEK31CWZuNoBUTPrs2AYF/uCIiu5AyQz0ByP/aulOF5nSm4s/fS/1ulr9f1bsQiRRoAJgick6X6H71Hvf7EdUOON+v2DQ4BjgRgpNtLwy1vyQ14b/kG4Rb3N2VDIKaVw/zvurPw6rVBGoINTBRE/YgOpV5uk+FokVixvQcWYrBw9IzkjJ3tP6/KWf3ey2wxGy2oo3qflXW2yF9ZrGPaGSs0SnsFpH9bvTQUcCLfBkY9vKaKkd9PjlQBSPWckGZKkiAc9IKdPnfwKpZdeAfGEFPgfDn4D/WDZq09ra+6VxLzD2EgU80dAECsHXUHAke7ZoRaMBsADrbGYmWlRFbD43OOLHVhBvNuCkB7JizcDhlVW2YCU3tG25arp4vZO7zCLALrnYNZnrM+088J8beZW8KZXFVYvwX4xvtX6c/GWD/eriqUZ2N6RCiMyuCqaCH8jXWn+l07s/crv6ZmCmra8IQeci66ZuStAWAPbETCwjfBe8t7cgPeW75BLPAEHs03IgLoFQAwf4kE9eTgrp5MItcbp/I491Jy1s0YtAlQWTE7q0XpjM1ZMTln+Y7qMVuM3mE7Y/rZfTMgsAIBV8ob/T5TOmYL5qwdo8+9MuKSUtYDZyF/ZkEpO0QYxQFiMb+zwrpeWjbMbB58tRwP1xsPeh0OqVnktZSywlNjQgVu4tDYW6IGLmOEt95VHknr07r+awXV3295eYfc+88VY6GFq81t8zEs1sb2uT7fUhD4OFUQEJ+NKQeRqTbXaG5+wUXBNUNQzP6+VxpH7/xKv7/KZl75/QoAnYHp+NtoPFzZlblSn5XCfgaOIyveH1K9kt+Zsv0OU06m0LnZLdB2A9qNTRVs5IeTGRZsIhF0x9Cuu39eSkD6sINt5sWE70Nrt7wnN+C95RuEUMM++mQEGA4OTK8ikvabzX0k2vHcSjAePnhdgCZbaBPmJ/42YzFGAOsqMzIDkzPWp/9txlyN2jj6/A4z1de7X8BnzNQ7LNQMlPb5jZ7vlXv78v1+P3CWDYTq6XsAooEdtpwNzBGoHkyTFo6Y3LsDqo/aUljBpjG7hHaICqnC2nYYB+7ftl5Q/W4Q8VSBsOa37x4xyvU5MXa3PSdmxu7mAuQAXAFFfYYd0PHZXMRdqYmFfNV7U0qgnMOGiXK/j5wP/qmrVwu89hNnqnfzRuHwvn8/V/rQbPzO7pv1lyvK1cg0YJb+bFxc6a+9+PirStEg776do7qvlMRRG0b16Ns2Avqrna3R98biBtLCuA+x/g0QkkgdO43AEPhBNEhuGaTN1hZuawwA9curNsG33PKO3ID3lvdF8Ocgn7BsMqOMastLGTC3YygeZhh2GpdBJGFWbExb+x4uVdBL4Z5rbG78vGKBz+4/A7kx7ejf6PeYD/AKkvryZgB/xdLGe2I7ZoztCpjO0vWyWoRjHn3bRm0ZLeKedtseIFL2Ua8DKafqHzaWkzy0Lpr6JHB3WxrEQj/jAPaczfUDbkSw75pXdntb28kgc3lWD8QZs+tpxEEnmUlDfBR0ZFOJyLxB2HOA27q3MMnK9AKZMpgZmXJldQmkgTPCNvMBUDkaYQn+r8mqYb6FMegLIPW7yhqwIufHSxov492di4Nd8qQP9NfOxvUKBM768aqfvwMu+zzivSPgvhqXM5De12c2lkblzJ7dilCIaWp46Zqf/XZIZ9epXY9scPW3y2hR1giopgt+RoQQ1oIEgJhHmuUttyzkBry3fIMQ19XaXSE5G+XuZjQd4IcSgobuE171PTqcmwURB8uESTrUqgN4V8HujFnp850tKg5sRuBttOCt6j2TuFD6PVfY6HfSnj2HWf4r8H1l4T1jzvpFvYLGsG56eN5k4UgFzbygldOipmkAimR2uLWk5hbLoqypbWwBCqt7roOdbHj3zHiW5qaLedfPWjnNnkPdecdurtAOSpGxwCJcbyuVqTUf1fbPI6kxuAJ6NvN6gvvMDc8iBpEQqBszOwjnz9d9EwsHIIPWp8mCd6SUDgporf+Ffjz6HO/v3/fo+yr/MzA6U7rO0s6U1yvA/kypm80tPfi+CrTP6rOq5wHoTuYEkWCWoxdq3xS7LvUQc7uP2/aCESGi4yMBkODlp3+mpbS1RisGZvzwXstv+esutx/eW94Xcldk5kA8J2C3iS3n5n8mLvj7V1SzBpEjyjVcfPhCzh5bepEKHI6ME15Ag0sP+CJoPFts/fOIZRk+ktGCMPjeA9fRbzHPWVmz+sQ2zxik2cI+AxSrdo/8+vZtGD3PPv3Zs+3TewABB7Vk10th5C286wrW1L9uyuqvtuZI6uLsD//pH+IX//4XYFZzA42KZm3hglLteJPaGZokUHNOIqHNZcev/fgn+P3f/z18/2vfa9pECrrNZRiZP9z+vSt4JfzRH/8x/tE//scWUELtG6Voupwzimg0tecPn/iLv/gL/PSnP9V3Et4jAdUWnoWx7wb6SaonCAJVf70KxhkkhI027NgP9sxwMxBK+Pj4GCqTM6VsNfZW73vFNM76ztlYHNWpHzO9kjsqa6bkje71zyPl+a8qV/Lp57JR2+P8xMDBW0gFsjE/m5uFdCxUPAtCH/tEw1jr8pC1IgASUD5bxM461wvarqGoLS+S/rXxUW6+7pY35Qa8t3yDZD0FJJ8ARM0WKOuhgvID6pQYtXgPA2m41U+pr6Segq/7Yu0mv1WwXhBH195dNCMQXLE6K+A2WjDPQOaVBfYMRFxlhPoFcFaPETBfPb8eyPVMrae7AoRiG9QkQUGcu9qCoAE3GOgFq1cGO2TWyvH26H3//I/+Of7kT/4EgB5iyxbIwU0MSmnutzzAw77vdnhNsCXddhVR12JfP7/iZz/7Gf67//a38ZMf/wSl6DlPSgkpJzUHSEltYbtnmRJh2zL+1b/4l/h3f/bvINCDbJQI5VlARHg8HrWelAjP5xMfXz6QLCCHn+eRymN7Xy6H9uu1phTAwHiBBcfIBNldcVWPDsVAyb7vQ1YwtmX07vy3GbCdAeXZfX0evVJ5VZk6Y1lXY2SUftSWmG4kZ+0b1X+kRI9+X9Wpr9dIkQXQlMuWWcsTrVdpmW4iU0cb4EY27T86p/deGxzMpgzQh353rz/8tB2O8/nillui3ID3lveFaAeRbjMVhhn1GbgNYSMr4LXPbnIlGpWKO1ZMkx23xuqUFj/b5JrQbF97hqLP8yqgHTd3zPauyroK4GZ1Gn2esdLx78ys7aw+M4DQg/1ZnqtnNyvn6uLe143MTywXXSR17dTfc1bfuw4iybbzs2/rCyDMSJmw70/89Nd/Hb/7+7+L5/NZ06Iu0uaKK77nwPJyKa1exm4JC7aU8Uf//I/xww8/oBR3K6Y6Yq6slJsQcAUL6iOY8dNf/3X8wR/8Af7Df/gPeDw+IGjp2Ewbcla7XbIQyIUZf/tv/21kcxPoz4DQosPV586hTUQQKXrGVGC2u/oIinl0SA7MmZUZPvRvPrSjH1OxD8wUqRnjOepfMa94YO8KoHtHZoDvCrBfpe3rt2J+Z2PranjkPv+ZcnzGOL/Oc0dDIE+jjK/lGchXCuC25i4AxJiPYv7aHfhWY7dsfzmsJaZ4pszlxru3vCk34L3lW+QvdQ+rZ14ZIIvAxkXnq/TQ73D3Mq7lH7fHXOpc7D+KvKQBzOTrInMyAqp9+n57b5RHvDcu8P2CsGJyr9S3r9M7coVpnd23ep5n7bnCcp0B7tn1V2ZQt0+5KAgrewE93DbWXGiZnamWzeahQZCSBmkQIRQu+K2f/yZ+/l/+A9tGBbakB9ievCOBNEQvC9hsCzMyUk6q71VlS337ep/IKeMf/sN/iH/2z/5Zbf+WN3yWT3zuT1NKSF17sSBlbZ/74v3J9z/G3/v7f8/q6881KB+2XUw2SARyCFohxsBWDwrQZ4BE2LatmjgUYaCIHj4iB8JaNyI9NFe41HGYiEBCkMLIOeO77747vKP4jvtrV/rlSDmK10fK10zBXClnM3lXEZvlv7p/VM+zeWykcMfvMwA8mtNmdVy19/guAbdceGmnSPUfHS4NnoH9QK6twkwVstnpEpQ0IQW5bGuLHZAEVOEtMtHub7llIjfgveUbpLAD16p9m+avK3NRmywkIDFQ3EF48NhgbvL9RDvqJO4TMsL+WCu5MW0qI/aolx7YupwxG6t8RovFrJxVGauFeMS0ntVt1KYZszO6P36/wmbNntvo/tW1GVCetYNyQt424OvXanKQcz4qJXAApouwmkFsCiIFAKgBYyg7TCmhlIItZeQaWpiQKUMgyNXjgx7gcnE3acl89D4ejwYS4EqS+fu12lUvEBWwsZFcbAfwUMdIMk8MLA0E+zNJRPDjPNX0gkj9ETMraI/vThQgkzG6sANo5M8q6XjkWm8PsWYA2/LZ9+e0D/T9bdXHV2xtn3YmZyD1CiO66vOvStd5374qs/ljBUivzg2jsT+7dzXej/VpuwMMUTt2+x4NGzS5mja8nkz2Meh9i9HM3nY0hhdGrNhaU9lfQKTch9ZueUtuwHvL++JR02gzcGugF7btJMXWRtbfyq8AtiiQuqLHacvybB+dzVLbwsFBrjq5evo5aPLvM6C2YlhW27Oj9GfXZyB5xQ7HvFaL7gr4j8DHLH3/XGYL5gqkrsD+6FmeAfK+vsrcAq3vdHsFXd2Jwk6EAci6kUAK8JgZKGyBGaDAtxJIZCfSqQWpqAAQZnKgKVnE2SfsZT+8X4G6SMvbprawpbz48RVhA5vKuIJafSUyYnBvDgqg3ZZYhJulJIt6m4C6EFM9VU1CxHwSM4AkAi7FNmCyAm+2KGsJkF1sKJv9bgJ++OEHfHz5MGD/yuT1/aNnf1dpV/21z69nVv33vv/05Y1kNCfMwHwvM4Z1Vs6ofWegdNWuq8r72bzXK5n9b36diWwON/MYQgO7nq2gBnOphztFzBev/4OuE5+2RtQxJ2qrix+hui4ruwaeAAHEzJPne8stM7kB7y3vC4Ortk2bKuLO3BJ0a6r6jBJle59/acCYLYNusqqLll8wEFNBcFj0BotBnbwXi1m0y+sX2P5af+9I4iKwWsxH983qPwK1IxB8tqjPrq3as2rnSq6wwbP2AXhh90YAaFg/aTa3IgKWAmFBZlW4SNq7IWNzuegWPREhGSPsZhCcgE1aXwFg9rIJLHpgJpkZj2hlQaRBLqrrMDIY4Iu5ruhmnqBO9H0ntgfybKF9Kxvt4FQszC+p71+RyBbH9ivgYCuzhkl24OuKZPxNoi9XAsiitukJwGOUNqiiWoqgGAvtdVyxvDMlrO8j/TMZpZ31+9EYHo3PlVzp57Gsvo6jvjtT8Ebtm80jZ0B39HmmVLwzJ6zqUC3RrZuTaks6ZVtSg78AdLdlk6iYBoKk7MAeDjvDBgFlGGq2fx9m+gBAD5PeJg23vCW3X49bvkHkB0WmYi6aUmPZdDVWkOsTptkFtpMMAuWjQrhV+xvnVSfRJBJ0lfGVcFeYkAcLqP+L0aT8njP2dtj6wC7599n9o4VntPjEeo3qc2Ux5gCkRvmP8l4xOn3dRsC0v2fW3lEbRkxxrM+sTod3CVIvDDUf9WGroXAJIKmHvspe4AYGWlcGcwEXtfndJB06YA2lKwXV96zWQO9zTwgGdtWW1sL9ioY1dn+/dioNzIzP57OeMGdmY3vd/695smAdSw44EyXkYEKRKzOs5Zbw7D1ohloQiaYlAAQ8n58NzG8bNnuObkKRLAoFMRo7nFINzKH5Mh55w2N7BFv2135zheG8Mgb7PPuDqmd9e5Q2Bifp8+jZ6L68kYzGS8+KviMzpTh+7vNelTNTOkbz0WwcH/Ixhtb0zWOer6WHHb16yf/TQtOLoO4M1n8Om7fgDlA9/9wE7y3vys3w3vIt8gkQkDegPBTc2kEcpA+APgHabfIyLT5q9MuZqm04i+7K1rDrcpjk2gQcfbL6tdXWXX99tJU3Ymvivf19fb4xTb+4zxjRUT5nQHfEAI9Y4l56JSDWa8Us9896Vs+Yx9nCP3tvszZ4cAmQut8ibqGF3bG9lHZqXA9zZWwPjcaWUjazBbcgT23rNWUQAY+k6T73JxIcELbDQQ5+/aBYjaRGCVvOyGhO8pX5BWCR3bZtw/axYds29fTgQRxMZ0zbo3t2Fsnt0OcJKScdH2hAhI1lFlHvKZTUo0NKWQ+sSUubiFBID6exeVvQBDBfwcogMxjFvDSwmUwQET4+PvB4bAp6BuNn9J57YDhSHGf3+z19X58B5hkI9ecUZTQX9L+/M7/0dVkpfv09szmt/73Pa/ZsZ+9iVYdRPSX00ahciQFfCFAIyBX02i6gdKjYd/6qX3agefMBKorOmzK6FRwnIH0B8Oj5jltuuSQ34L3lfaGkK3iy7pOgWnp6qBNxygDMrCFnIH8AIPOjWFdoGB6plzzik15ScEs2J2riI/jsGYmzRagHX326GWjrr9XHsABwMxZrtbDOWK8VQI5gs2dgz8qYgfW+faNnNGrfDDCfgfszUD+uj/qmLcKAEDYoO+oEEZJyn7/61a/wL/7kT/Dx8R0AMcBrIJ9aeGD4sxr0DXJTBq0EiNTDQ+WynISyOuaU8J/+03/Etm3KEBpQUDdiCcyMf/Uv/iX+0y/+I/a9tINrIDuwlg9jRK0LzF2YCPwimWERhUNsZS+V3VbTBfX5m3LGn/2bP8P2eCAnteGVou+smKundojU2G9p4FdENNKcga1n2cHuFxVt3F19xzNl6AwMxnv7/EcgsK/X7N7R9Vl5M1Ddj4fZ2BsB01m5o/b0ZY2uj34bldnXczQ/HPI8HEjrFAG4vuRzvCqhOrzoGEq7jpliHn0eBm6N6XXf2pR0naE2/mrgo7TtuOWWN+QGvLe8L7TBvP4biDVQW57Qk7YcNHUHxlSd2oNFWVyBgVifZA2oHQ4g4cgoENBvZw2ZfaYrJwAAIABJREFUCL/94sLaLyCzBWHE3MbrMb/RArdKf8aA9hLbNKr/iC2dpbkiZwzcFWZslq6vU8w/AhlPl3PGY9vsdwVdzY+ub+kL/s2/+TP8o3/0j2uwCF+BPZ8YDCPnfOgrChyNaRM1wHGwXFiDPoAleINo9f3P//k/46c//WkL+VvU1CIlwi9+8Qv83//X/6PXg3u7lJTJzSkbE8saMKN77vEZMbMyt+H7zlxt1bzdIoK//Mu/xJa3yowXD0JBrmCarTAL8iMDux6sq8qngXkF73IA2mdK0ZnMAHHsw7P+5b/3954prP31eN/Ma8SovFkdrtR1VZc+rzinXB23K7Dc5x3nkh749nNZK1/qX03rIzH+pj7X2xFQQV0jHOBis3WFAutra0T+aC7JxHYOKeHv/e//5w14b3lLbsB7y/tCBNQDCBZqlY2BTR8KgpNp+cae6UlbrnNgklS3Rm11PxRh3lLr7UC/oFxbQHr2cwZsR5N6n8+7gLTPd5XnGRtzBfReqXvPvJ4xb/09MzAzYqVHbenrM6rTqP4veSWNNrYZoNN+pLatiZSR/fnPf47nswCJsSUHheaZwA53uV2sgxz3Q5tzMucjupnhNrbblkGkgRgoW6Q4cTCiADWlhC9fvuDnP/8t/NqPvtR25bzhN37zN/Gbv/mbtUyvg7ebzWZ2S7kLfqCH2vywZ4LW1eudUlK2mw2swzdekvr73Qu+PL7g+598j+9/+uNqf+zPrTK+xgoDnR24KZpab332QkdvF/17Hr2/Hryd9euza6NyYj+asbExv1Gfn43N1ZgZtX1Uzqo93zKXjJTEMxmN31Ues/ml1bd7V3A22J4h1H1Z/VFCQjvIDOFGkKRsrG9CCzbhlsDFPt9yy3tyA95bvkV+qe7IJExCqJo37OS4uiR7ov4ovo+ln2kyZ4nAfIICECeKqR700TmWXhanswVktdicgd3Zbys5W5xnwODqIngVEIwWshFwneV3xhL13/t3Mfscy3xXmciB+WQIMrQvsh1E27YNv/t7v4v/6e/+z3iY3S4IynB25Sprm6riRb5OiwK6nFI1t6n3hW38tpnh3JZu/398eeD7H//EPCroPb/zO38X/83f+TsTgFj3eeszTOqMV1lWd0NGpM5P6hE8HU9CAhKzZ/YxRr6xImALb/yTn/5EbXSZIc6oQZUIP4AHiH22dtu43fcCZo0wt6UNOW2NPZ/0jRUAXrGZo/tnitRIkV0pgWd5vitXgfsKMF/Jo2dgY5rZnDbL81vqr/PuMY+mYCgj6/0wYmCBX/cLRppURcrWB/bInYR4yLn537WdRZGjEfYtt1yQG/De8r4Q7Tr3PPQf7/b5A+BfooJhNk28zq12TRSg0EHVp/rZAS2guj0dmCZ1r9RPurWEBZsaP19ZZPttzhWYPFu0ZnU9Y1xXMmvHt6S/Una/0M4A8llbejb3CuvX5w1mbHlTIGa/bQ4ORbA9HvjZz/4LpJyNAVUgmLcHUveuavAJO8TGBhTJwGCipLa3ov21KlwgA5zODmtdnX1lZuzF7VwVnP74xz/Gr//0160dahrQA4dEVE0M9FCQ3q1KHzccQbruJwuKwcyBWQvv2xA5c6kHz0rZjRWWFk2N1DykMLdDf45jxHdhBDsXPJ8t6ET0YjCTHoiNlKwZqzpiYmO+I7A7KvsKCH7n+hUZMalR+rbNFNBZm/s8rspqPuvLe1V8Z0pyfHdd3uJXJHyxPlVBsKB6Z6CsZEn+EUBfGrGSvuB2LnXLt8oNeG95X8g07ZSCFu4R15LORyy6LUWEGkHH3MlA2r/DtDhYU2zTuLJo9jVUZb7NDqzZnbPtu5hmxYD031csTkzTfx6Vc6WOs/Q9QDjLe8UOrYDo6FoPekeL/hkAmZUrova0Hw+LmsbNH2zKCcIFCQTKanqQU4Js2Vx8AXnL5oXAt/wZKMr+ChRE9nXUaGXNN6/UdgSQLs5+KeQs7rZMpPrCdXDpz6ZGRtOcNErb9mjg1Hc1kvvk5Vp3gEBJzMcCIPDfCAJGEgKReqTYg71uNRWihEyA7OZ6y+qp5pUNcO8luBiEAvuUEj4ejxCIgzoTjHE/78HxqG/OxvFKMbzCms7G3AhoxvJmfXwmV4Dk2XgaPZ8zkNpfWykCI8Z4Nm+N2nC4Xn/Xnp8EkA6T2nFSDTrRrQGN5S3mwx3K8lKCOXnXf8nWFmV7P18afcstJ3ID3lveFwGDsk5I5QnoKRaNjOPaPVEDxhBg/2qLZu+RsZuEg3NynRvbEbbIBevvc5bjbIE8NOcCuJuxKCNAd7ZAXgWOnnYFKleAfPR8VnnO7hvl4c+3ZydHLFzfnr6sEQDp0x4Xbe1jambg/cKYXggoZw2MsOvWuwAAC8TMILjw8V1al6t+dcVce9lvlNQ1l4LWSEg5AE4Q0QNdKWm9HMhWoOLmAhAgN0DpEdIAgNg8NTCru7GU1OzAwhCrCzPnyVijVzGBkz8Be7+JwOzvWGxXRA/eeZuUrVZALc4aUwK7xwZqW9c5Zw3YYWZEZO9r2zbknIbj4vWdvf6dKVjvsJkrZe5MGZ6lXymks7xGDO1KRm1fKYAzINqPtdF8d2Wsj57nmQIM2FxsduJZdGeCScdi6kAxoc3ltSMCwL4D+yeq94XqyoygXhw+AXxnu4YMPDYAuMMK3/K23HsDt7wvYqfPhKwHsR5cc3dKDmr9EAJtAIwlorpHCsBsA6liDvstlNV+MEAzFjKWYMYkzptyjVmMgO7s3rPtxW9hcWeA9upW5pUFfwZUZ8zSqG7vLPqrctYMtnpU2Hdzc6fLrIJZ1j6VOg8C1fQgk2FjNwFwsKG2vwIHmtoPc8oVhAKonkbU7IDq0XPxaG12n5sgaNpoMkEoUhrTmVp7Kbs9sb1TAQDBljToBFn57jVBDEIwm38yt4+3OgoBRXYUKSBym1+gMJspCHRMUbKAiFzrld2tmdeFWgS3LWeAWQ/uUQtI0r+7+Lf/vOpPV0GqS69kjcb9WT6jus7qNVOIY14zxa4v71vrMHqeV+aC1Xw3UorP6i12b7JdD+9WNT18CldFlfofkCxIEQB6NMaXgs1uejQXDykuCLfc8p7cgPeWbxD5C/1rtla+8Kfc/rnrMkoKfHcLTlG3tCynY77238AeCNBOOqwWHZ1BieZsyEhmi3Is61DDi3m/C7JHLFL8fLZQnZW5qmv8bbUQj/ycvsNWj36/0s5xfoIvXz7sUFdzqVXYmVUFmYnM4wIsIjZgdrrG8qLpVL7WQsQIJqoHt3JK6okP+p1N+aJwWrxwA7KZcmWNixQU3tVcIAHCygDvvFt9zWYYaKF87V8Oz1x96zbXaBWsW/mJSAG0M9k1LLCBDTIW2syQEgCSpMyv3ZvrtnETz4cAFFMqYuCGOOZWCuGMrZ2969XuhUsPtkflnuXxjlwda2dlvzNGRr+9A1zP6tL/1jPjZ7sv9oPn0i7F3bt2sQ02U+jUg495GHMzubTpv+w+eMXAblXU7kNrt7wtN+C95X3xrSey09l1kaRqpqvpMloXC6EiRQASZGLnBfzMjN7mk2llAagCEf0zZhF1sn+t7oqtnbFBs0Vqtj378ojeYF1G98Qy/beVvLOArkDlGZs7qm//OeY5img1YoRjHWbf+/y/fPmC7fEwMNaoJa6KVa2puutiamCV1EVZKVxtT6NPXu+Nig3Ftv4FhGR2w+65wMpL0O39pGuxuvcy38Bw7w1qOuBR0mpwYNZ+yyIVNIuBbu//Ag9cYc+6mkJ4PXRcKdPczCkULLR+5XbMCWYqSerqjFkjvm2PB5JG7Thoo63PqPu1bduCr9qxG7D+vfdj5kyR6/MbjddeeZqNlzMTgW/ZBYrleN1WTO8VhfQKyzvLc3TvSOkYzTOz57UC10DoIgZKyT9anhXfQpCEQU5eOIiFmC93lwxYeGvfZQEQvAFROxtyyy1vym3De8u3iDnUZWVywQC2sB1l/0oxhrfYtlU4tAZUn6KzqastXrasT3zp+rV3mNlRHjEIQL8on+XvcjVN/3s88DNb1N9ZPKOsQPkIMFzZuh0ttCslYLUAzwDQjG1WtjPjWXY8Pz/NfCE8I7tNCSQDhYksVoq7RhKNzOZpre+6RxAmtgNwhAIFkm6jC7gKpgfkJDVmGG5bDAYJRcyoy7vZy0owcaAUnkEKJ/bdLMjuqzDc6x/ekTKvxUB0Aojr5kjNW4C9tENjRLBIbADIvE50796Db+z7rtesQTlnbI/taIKBYz+u7V6A2r5PzxSiM8V0pajN+vns+6yufZ6z30dzxUjpPqvDrD2jZxzLuDI3jJ7zqOzaFyd1cTtd/6/Y7h0drutfIbKpP+70cVsf+Kn//AYf14K2a+gmEKA76MQtb8vN8N7yvlSyx9yOubYu5t7Iu5UDXy5qzlAnOBi4oGOmo3laPKMmZyzSFTZ0xsj8VWTFmKzSXi37lG2ZsFsrEL5i5lZ1OvvtjPldfT7brvV8NWCD+Zw1oCu2kBYu2J/PajmY7NAYc9HwvXbYSqx/5aS7Fcp6eoHGTFUGk6oNrIDB/ISAkQNTy84OM6kFj/uyZQ3VywINTmG7Ic3jgj07HN8He51SNoXP3YuVA3um4wkAUrXxpcC86iE6QbbQyvVZMSq7HZ99BCw5Z2PrlA0uzCiitrwxOt3o/a363Oj6DMidyUhZnLGfV+UKyL2q3F2Zk66UOauHXz8rs0979i76ep0+05f52j0zRDbY/sNSFToFsYAehoYNQlP4RDSwEZnHBh3jvxxW/JZbFnID3lveF5Hd4jiZXa4dWssPCyMMY3vdvvcTKHubDA0fp3rspls0wtdVB50tOCu2YrYgxvtGC/Y7C89qITzbsoygfbT9OFrU+t+ulN2X1bd71Ma+XmdpR21byez+UXuJCOnQO5ShTKQnvDWUr17f9wLedRv+sX0gp4yccghkYs/NyyNnfptrLmc/xaKvtd0JOrgJY1PsKBFSAraUDiA2Z/+u9xwZY/fh22ySW8vCs8Gxj7ltshCqmQPQ3iu3/RjNjagybGyH/cTscrmwseHGYefczFIENZTy/vmJ8ixHBvmvACZnMutrAIJJRUs7+t73pats7mh894zyqn5ngHh0/2xcXVE++3qv5scz4Norl8t3+1JGHUkQkJ2nVKCaXCFUGhhm1K5rhEhwZSkAJV1T8qaRO/3kWsq45ZZvkRvw3vK+CP+gHhgA229CM2lwWjdo5wAgu9lq2YLMgiTqn5EiEPaPZCfagZrHDIjOmIrRtuKIsZgtAH05h0cwuG8lV8HAu2xsrMcZ4B7luypvxdrNmNnV81ixSbO6Lt9tCp8DYAUUSBKheihIW9ZoaybMUj0niGgwBieeIphRIir6jpXqdSElDavtB9kEmg/vDN53BZBwENpAq7g7MGNLHWyKA1C3a+cGaAtK2z5Ooc3C1cyARbDzbsMwhXfhwSqoenRIaMyuP95kB/O0Le1ZcNFx3BQNwpcvX4CsgSuiR4wzGY2zkeI5Ut5mCqp/Xu0QjMZxD+pGn2fs9RXGdgQUr8wDs/E9a9uqXX0eK8Z2Bphj2jbf+k11Rvevtd3sV0h7YPIxwEAzbzN3lv6dGerE19cR2LryaKWI4OVwwC23XJDbhveWbxDiGhEHUO09wbajwoECsQktf+h1fto1nQTjRhdBcNjdlf7j0SVZK2I8ga/YmdHvMwY13n8ms3v7+1fpRtuIVyQC/xlY9jWiX+SuANEZ6LwCBI4L5Ssb1S+oozr2+aWU1PWzKKhM4qyoNFtbIuTA/BYuFXSWUvDx8aFgVtRnqIfMTTkbo8vwRdcVMADVFperzasBU3GACjuk0xhfB70KYvXwm97D1WsCMcxu0Z6vmWFU37uiY4DNBZnWSWu0czEFEtU2uHqiiOCRgUK71Vnb6IwxoMPVn1P1xlC3mHWcah1KG/8Y95NZPxy95xXjeHXs1We06M+rOvUyU4LPxu+oTv19V+aK0XgeKfjx/Z6N2RXwvzrG9bP9Reuy9VfR/xBS7Tfe37QvSWNxuVhETlNGeUd1a0mpW1M684dbbnlTbob3lvclZa4ux1JuM10yFzLuxUHYmF3bsnr+YIukLWi60jYMHECs/++AnV8qsl5c+4XiynbhiAEdMav9tdUCFvMesS0ruQI6r1w7Y8euypUFe1SHqyC+fy6r9qlLMgKZlwOI2ZiWUr97X3o+d/BeKmspUNAr7MEfauYA2vtxjwksjVASiAW9cHZWlTWvl4JYY465YHe7dfF6orK4yUCrByyMAFkPtFmJrOYUzgxrXf2ZQQ/ICVDEWFmwKZUGsElNQCgTqNo+2++eHREoJ6uPmYfATB1sd4btvT/LbrbD64hhZ+/6W2S1Zb9iUK8oo/H7bNxfYan7+vX3zeaA2biZ1Xk1P8zA/ej7maISAfGxTNSxBsCMFbTXMbVryUDwwf0HEVA+gf0HCzlvB5vJ/LfDAG+qPkXszEhuA+aWW96Qu9fc8r4QdNKB2ej6YYK6v2WmDMkmJt71H8VtKoDqpG2XHflGMVar8kt1ofCfXxen2QJ8xkLOQOiKOY1p+nJGebyTT/zrslrUZizXisG5mvcKMK/qM1pgr7Bjo996tjJnwsfHBjc1UOCHEJKXKsBEZDKV/K3uydiBLQB3VaZmDkHxgh/a0t8qGA4bunrNYaSBZLJYg9ZnE1nhomXBUjMzigHkUpqZg4JyAGaOoKGJDQyz+e+t/+Lzc9++AaR4PBgIRFKoc2tPHWd8BM0VHEMZ4EwJ3335ERLlYd9fsbSRpRz1jyvb/jO5qkjO7unH6Qioxrr2n2dM62j8xLaOnuGVtszG9kixXtV3JPEd9vbSL/MlRfpBpYFcSxC/+lxvYxfWr+shaLHjmuQgGagb0gp4/+Pqudxyy0huwHvL+yLY7URL2IoSM1kwn4pus8s2cRkAiQZfdf4lny2poV9PY54cJPxXbxkvmqvJuweR/b39AjRiZGbfYx6z8v2+szJWYHIGpmMZowV2tjU6yr9npWbszqh9q63qPu8VY37WfjVBYDyfu26rpmwHxZKZO3BNq6xpM0nIFpCCqLG4lZ3lABTstJczvKUU7M+99bsKJlugBwfbpViZFdwKEtR7hLD322armFM+tF0DVujBO4ebDNawvmLstETbX6lt17olwxR+eC8pC8wKNEp5wswrDeSXGg5Z/REDecvIeYsGC+p/mAiPjwdSHi8f7yihV66tpB/7IxA5KmOm/F7pk6PxuxpLI+B8Vu5KOZ9J3+6VQnFFYV19fsk7ZBcPWB7c7h4+aMoKQcQAL7O6s/QdlWI7hJ5neqgNxZv95JZbgBvw3vJt8kM9ZOAsb9pwcCnjE5tvdyWybSjT2IUhVFdcNIpADkQw21/NtgNJ9ne26PTXri4eK2Yzyll+o7JHAHsFPvvPq3rN0pyB1FX9Z2lW9Znd9y3Pa3RfBIvs5gJQ4OZb7wKz7xWph7+cSa3Mrbkpc+AI2MEtb4PoobZsngoEGprYwbDgeGArUapuv/z6vu+WLmk0MziwLlYXxu6hhn0chHaKqIlG4R01PpqYWQEz9qKMcKrPwEC1MERKY7N5twNtOuZSVpvm56deSynp86h+ejXUsHBjxBuAA577jlJKPfwWx+ZM4Vr1g3eA7ozVfEeuKlujueBM8Zwpsmc7GH0+V9Ov6jRLe1bnUVpXznpAftxXaDsBFP5zyNnXhGpO0x0lIhjTa19SCHAEhMPPt9zyntyH1m55XyqLW8xROAPYUVlfAO78Xp2FA3j8RA+vsWvs0jnm18Xet479EuEIAqZVelPjny3IIzYmMhr9VucK2M1+WzE+V4DtKO++LqtFblTmFcYnfr+6GPeL49X31CsxL4wSAR/bA1vO+Lpr8Ak/aEVgpIeFHGauChhZhDTxoAzue5YbyFOSyQ6SEUBsh8sgyID2SWsHs9h5mgTy6GhihyvNtZniSwO59R01MwIRIKeMQqxBKRJBhBxa1GeQiSw/bQ9RQnIWTNQsA1zsLwALQyxK8yKBsHuIYPNgQfB0YmVn5YpZDgyyH/pLxEhVl1UW2UM4933+jKk/YzzP7l2Nvz79ql6j/j0bi2eg/crux2wsfMuz6Ovdl9k/nzOWVpWhMej3fjti1K3AsAt3YCn6zPQHgQHXAnz5MZC/AOUJJLPjFbs3O0kimpZ3XUduhveWb5Cb4b3lfRHYXqtNQmInbYO17UGc8S1PP2Kucx6pH1635RWfLJ1JAg7/gDmbO1okouea2YIwAlarLcFvWZhGi85qYY33+b/ehm6Udla3qyBztvXsecQ6r7ZkY5n9wroC9meA2J9Dy0/7i7Ogbj+7l4L984m97AoQIdj3J8pewICGExYBF2dWDb6RLsTa99yuVYM8kLhNLR/MJRII2QJCiNnekuUDaL4+VPQ+rsEoMkj3R8SfTVvH/WAcWchiIcIuXH3uthHh3hqa8kgO8O03ZsFeQT1VJlecZXN/xJZDBLAVm1goZRHg6+cnAAulnF99yfasYfzXv8/4edX/+nti2tE4no3hEcicAdlZGaN6xPE5y28GcPt0Z3JlbM+UgZWibx8qZG1tnM+7gPVECT52u0lbKM7gACgkcC8NSA0MI4X7bZzzMzC7387s3/LXW27Ae8vbUo+REbWDaWkz2yrXzlNjdwGg/KCncZvhoOVEkMPEfFyoKNjzRqmL+mSBit/Ptsoj2JotSmdA910gOCr3rJ69rNirWX49OOjzmN3njF8PTEfPuK/TCvT0isZqkY55EFEFnwxgZ1afu1DTgmRA2F1zOZgFUH3RKsnUDqE991LTezVTSkiUGqEUSWbS5/K5P8FS1MbWfpcKTD2ohXlKUAQLSgliXk6KmTQIlHllWDvNALKaYIiYr10/uBaeCeqQ8oem16pPXarMrr5Profj/K/vrNS6etAMUwJY9Lfn8yuIgG3L1ea5f1exb5yB4fj9qsT73XZ6pEytAOE70o+PFQCclTUC2DHNai6bpV3NN6txN6pfzVO/hGtjc5VD2URgchYYdZyIqM25/6tzv+ur+w48fwWgtLFF1Ox0RQDY+gLzDKRp7khrt7wtt0nDLW+LCH8SRA8Q8FfoRLS1uKzVE/5T7a6SbUHtn82HopAyW26qFeZAPRtjC3ozcLBdruPCMwNcwBFErVhUz28ETmfXX5/JK8PUL8AzsBvrGusU77my+I3KeLfNfVn7vr8AlxHwnZU5AjxXgEn/XEblPb582LWClDfd9GTGljWAAouCucdGFfxR9ZLLECYIswakIJgf3mThchWwus1v9YIkbprQvoMaqBR437W6Eiowre1Xuwhdz515tfoJed5k5hfO+no/1/xTzZMqQA1PE6UE4AkE0w4dUWwsWw1uwQwSQsqpsr9sigC5qZGon+IvX36ELW9esaGs+vqsT/cKzazf9JJSOhy683DHq3qdsZ8jBWw2n8wUvlm/HT2beH0278T2zsobtW2kwPrf0S6YK1AI+c3mXVc0/F4PjgIRs1m3OiMEGarVYaB8NbM4S8mlOfZVmtk+PPRafjjlfAeeuOVtuQHvLW+LiGicYHIvDb8CpDQtXAA1dWDATqujfDb2V8zdjE2suqXbgC1EJ0cWObK7EsDvZEGYgcYRgxvTjUDgDEiuth9XADAuVP0iFxmqs3yvsEpX6j56RjMQm3N+eYZXWTIZLJyrtGeAwvNIKePj8cDXHxSNZiKIKUtl15U1J+D5fCJvCUwJmTZsWzYTCLVJLaxhIIQFSIxSYIu5+vMlArKxvOobl+y67zI04CCKYgHz3ECkJg/FGVqgMqYKIgkgNvMDoG4JmxYoQrXfFLHAGpbE+VgubIfk3D1gYOOKQN07RQAn5r7tFbM6412DTsCVTu+ngi8fX/B4bNov6Gi/ewY0ezA7Aoazvtt/j/m4Z44e7I6A4BUFtpcRYB9dHylzPfscx9lM4YzjbFbfK+06A/aj+2o6vM5TMT0PnptAA64gNbBrPVCVLL+njhNS0qR8qsmbFLR+jLBz+FRShR7Q/n3j3Vvelxvw3vK+UFIHnbxDJ6dsWvnTtPIEiPtThAHfr4AMIuR4IAoHtzrLVrtCX777yTcuGqsF6wxgjdJeWQBnwHVV7mhh7FmjfiGcsb395xGAiHUZLY4rEO+/bds2XDhn7HQvKyA/y2PErI0+VxZWWIEdETZK5qnBgKiwejiQrYYTLkXLSLZtKh4CmNmCM3ivcxCqh8scCCbxyE8CIIU+4CAstbRJw+96F9e6eTvE6V8UMUMhY7cUAKfqj9eoZRCzmkRAgTCLgl0dH8rAWpbaD5LUKOAi0vz+uyl9bq7KRNyP8LFfR5tlYUF5PhsznV/NiM7GY9+nVwrUij2NEm27Z/16NU5WwG7WnhWr2gP5WZ5noHcko3tmiiIwZoT7cvq5daV4xOvJywz9jslHD4L+5aSGhK82BnhXlpeg60YtyIIaRbM59/G+3daYt7wvN+C95W0RBDAL6ETETyh1FUKRevhh2VSD9zSUjNUSP4duE6bUOdBLctjr7FrggZes52gSjzJjMke/vcPoruowy2/F9qyYzlH5q2cyY4LitX7hXIGQ0aJ+tnjOnvHV51jrYLYCO+8VLDIXPA1gbx4emAXILX92P7ghHqpZqrbQ1naIzINEaFAIUddf3h4AbucgrqzV5wOorU6xMrkC0WgDXAKQzFkZShQ/bKbXAEHZPeSxHl6DqOsx1Gfi78rbSYaP1duE6pxqsiApKEMewEpQD/x5Bf29crDdFlHAspcCYkbeNsxAUX9tBMjOAN2o758pgP21d8b+SjHr6/uusrYau1fLXo3LM8V+Vd9Yn7P3eShHzE7c524nKzzt4U415UkMAGw2DqQmDPunbTewMryyGWnCUM8MALZNzeNEFBRLvineW96WG/De8rZIXLmFdSJiWCQnN2sw5pbMTZnSW+Ef6VkEAH7iJoJdqSDXFmFag1pgDKJW7MqwbYuXHNkQAAAgAElEQVRFeCZngLgHmj1gfEfO2rNif0d1itfib6O8R+XEa35S/Z1n+O5C3X4AtryBQMiklrlJ2oGvQgk5eT/SPuShiNU7CMBFge9eCra0qTcEjzAGtQV1popscU8pG/ADIGpvW5slLcqbhgx2P8EJKXFQErU/K56majpA0IM/2U0Y7HCaMmgNOEdoqn5yxcagQIThHhuY2WyC7V1xO4xWSgEHhdNtdz2temXwoRkVFk3z/fffg0gPrXl/eQeQzcBxzwDPGNEzgHilnLPrK+VtBVJH5Z7VewbMZ7/NlOlRmrO6zpTS2W+HdK7IaWK9DjPXoeD+zq7XTlVENUwHuZqBAV3/utl6Yr2dBai7L/hh2qBbbpnIDXhveVsE+AGEBnTdTreeQPP9Up/qDACXrxZCsgSUcMy4STtR3kDwGED2cmUhOgNaq3xnC8IMwJ6xslfLPavL1ft6oNrX6wozO3qO8QDMrD79szuTuVKjtrSPjw+klLDvO3YHhERIiUHYQIlqiF5lbBlF0KxrrDoEIFmAiQQgJQWrCQR3Uaa7qWrPrO0tEPHIZqhmNwJlb927Q7I27MW8KxDZsTnYvWTtATaoRwkWgO2QmGfezCH6MK9qewsD2jCgkVNSLwrForTBbXqB/5+9t9m1ZUfSw75grrXPOVV1q6QuSy2gIalbgGWPPPCjeOKBH8VjP5cmntgwYECQIRstS7ba3V1WV9fPrXvP2XuvTIYHEUEGmUFmrt2edQaw91orkz9BJpP8+DEYTEjVWwVDPThYXa0A2udsdZjhlsi5bYcjRvXo2Z4BZT583/aiSe7ROzabfPVlit7tETg9k2fECEfvWZ/u0bszSiMq71Gd9+/5bDJSf0PaRCFDbI5XEGwFvGpGI7a77+6+C8MMIAGLwZSsqyoEEFukSy45LRfgveQDktaCRmkBsKEcH5w3HfnVYTjbrD7rpgSz2ZXoTMKASVpA3Y1j7FNrxjDrqGdLhKPlujPgczaIjhjQs+kehX1mEJuxyT7MWdAfDfIRWB7VTQSaj8B0JH39y6cCT2Y8Ho9i7pJBuGk6f/XXv8LvfvtbLAuV/ZJJT07IWy7A1dLcNvVC8PlFlvgJ+Of/9J/hH//xP67KZICTr8+MnCXdpP547dhjXfDVzTpCBRcjHX0t7DAMA7Ng0mOJATOKlNdCl4whLK55ZgDLdQO6UlcCis2d2ZY3UElF01LbYDa3YnaSqx5eQfZ9y+6ZE8h8+hIVkOyfbf88zwCmvk36eN4GvAe7Z/uBZya5M3bZp38WMEbSA+kojyivI51n5X5monkWzJfyy0yvfgL6nXVCaBytmxCXMWGrJIiNF+WUtVXJkazeG8w1mcvnkkuekAvwXvK05EQygNsgjYQCeil1nZGetmbT/7zqaC9DLzHpxJ8AHcjtd12OrlgY5ZdIxAD212eDopfZ4DNa1huFMbZslvcIlB6B2kj6vKOBclauM/lELF40OI6A/GygjSYoozi2QckYVMlTmiTpgLnlDf/uz/8cf/1Xf40vX77g/f0d7+8P3G6ywZK3jPv9DgJhyxmPxzve39+xLAs+ffqEVY/Offuv3/DLX/4RlrQgA1huqTxbQHDikhIyWNlhBZbMSGkpZg15M9MEwsbiUQKQ14BJ/OKSvSNszC+wZUZCAlJb51uuJgq+ihgZOcu7tHEG5VTslcUrQwZlcie9SRriEUWfW2ZsWVje5pANNRF5f3/D+vIComoi0b8bM9A0AmJHz/7MuzQLP3vnfZhZm+7TOgPAR9eiyWQkxeQl6J98vv33XtfRhDXS3/cLozLWPFgmWGAk/V66aDUf0lQBM2sAUPZ4AEKclGUXI1NuUNsj4GaRbEnigi6XPC9Xq7nkaRE3Yrasmlv/RjYjJ2N2E6ozUdt0AP3LIGwgVldCLIcGbN7FoiXbDTAGdPy1/nsvRwPeESs7Yo77tEaD8IwpOtLzaGA9AvXPgohocOvB7lHaR/dnwH8GRIzhTWnBy8sdTDY5EqaTWOxzH49He0SuJrlQQr75netcfLiaeURKcmTutq5Ytw3plmAnl8mSfsbjfUVKC9KLsLRiUpHALF4ijLU1oMsQ8wJyx/7aKkZ9Hgp+AdzMdAIbElKdAOq7Un5nYWNFf00rAbzqBJJlAxvBJglc6qT4IWZu/BADwlyb7XxWpnjjDN4yHo8HUrqBqHpH6N+l6Ln2bTJq/6O2tm8Dx+0+mgxHeY8mif0ENkonSm+W1uz97n/PgOvZifEMXM/e51majS7QiSYBRk3Yu1KBrsLeXNsv9D2uq3oJIOfJh5XhFXse4LYoQL4Duv3tkkuekQvwXvK0sKypyjY1BqS3UofhlFCP1AGanbbYUDchSH+VWrcMZdFVhHRZDAUgtB30mO00iQbPEZPhw/fpjVjkUb69fCROH38E7I+Aog8zYqEiXS3+KP0zzPkIzMx0nelY7xFYmVPkyiIlM6UB42fffYff/ea3hbm93W6FjTTzBWMw7/cX3O/aLrOA3ZeXF3z+8qWYKgBA3lY8OKszEgLnjHVdiwsy1nsAgFQPdjANGRu2DCzqGyIXQ4xqumOf7yweJZK+B+UZqpcJ80JBcBvMMuvuPWG90yJsMDJkM56RyGqTK6vIW2HJweo6ihYQSd1sBrIhk4llWfD58xfcbjcQHbfhHijO2MzZu3fUbr3M8pjpMgOS0XtxNAE9yzLP2N3jyV+se5/nGSA7Ssvn16dDROWwFVLQa3iW9BAioUfMJ571/0qc8Aqw+eCVyaEmLMxv0nc6M7AYcD7YMHDJJYFcgPeSpyWDvkpnJEej4sEAFvW8cJNOqnRqOvMnkqWp/IZ6AIXdznWjA+AGf95hWj/IMDtgjTFLY/dG4sMWF1IngFmf70xmjMtZORr4j8p4BqD2aZ29/0wdjAbsEZvVl0E+5dqyLFiWRRlauZiSMKP/4s/+FH/8x39c4hVTCLWb5e4ZLwqEmQj3lzuWZcHPf/5zMBG21Q6hIBDpZG2RI4y3hxyLmrWxkrKx4udM2nISn2bIq15JXGxpzeTAfJTaNjYD8gD0cIm6WY31KOK0kFoWtW8QQ9pxXnMBsZz1qGW1YyYSIJ2zsr9J427VBRmR+jZWv8L2Pr683LtnqbbFXJ/lEUN4FsCO2sgoHf+eROzyjCHt37Gj9j9K76gcZ65H+Vj4Wbnt+9FhNl53r8sRK+3B/q4sqKsW5VPbkky2qLK7vKmrSufBhFlJEtZDJ5Y2g3RXruQ6WviS5+UCvJc8LbS+i00V2RKV2u8mAlZG2UkLY9sUHG8PYH2rHRqEAWCqGFiOHI6BrkntfKv9opBQ847afo8GqBGD2sfrZQSAex1m7M5R2hHwm5V1ttw5kojFGaU7XN6csMizgXIko4GdKCEtC2ip+izJ7FUlzi9+8Qv84h/+QzFP0I2S6ZZ0gxdg3g4SVXvx2+2GJd1kLpcWvK8reN2QSU6WSikhUao2sOaLNyXwuoEhp7vlnJWVlfuPvJYTt4kgpg2kHg8gHhiymkQANkeUjWFZjn4rHid44wIsWLmzLW/VLZzqtm0CdpflJhPLJOVmtf8FMzazRc4ZG1gZcsJm/oqLLX3WPy4TB3NRJvVvz2X/DKMVlCOGsmd2I9A6aiezydcZtngU/2hSN9LtKHykV9QnjED6qI84o9OonFGeUb+5r0+Zsrl9ndK/y9zK8RMs+znWb9Z4lNnVAEn3ghQi1w450vHlOlr4kg/IBXgveV62DbhRBqlfsmKmsCq76zovYlmu2hh4/KiA1+hdwPgsXaCF7W0nnfGLxUO80cLiV/B83hwhTCkYbO33KK2I4XyWvT3DzPZg8ZmB7Cyb1g9ukQ5e514HD3ZHDHuri7WDuExtvWMX7n674Xa7IedNvCQsYp+65k2PAmaQgT8k8W+bGVmbZlKmFou0WRlzBchtKyMhV1MBBZwEsYcF5EjfcjBUzsVO2NKQomXxlqBj+rIsckoZZTAT8raKW78ycxOzA9ZqMRelRAR+yETQQCeDkR9rYbTLcclJts6B5ShiqJsx+VOmtkxO1FODljGb71+t7qzlYoZu8Nvw9ngDgGLS4Nuln/SM2ph/Z6M2d/T+zNr8bBI7CuOvz8Du2TRmevd9yUznowlw9H2k81ldn2Heu5g1HkGmY1RXKBI7n+s288tbHRO2FQJqlSixBmjmROlTtYJg8/N+ySXPyQV4L3lackoy2X4w9Mgc/VBvDXb8I7hStylJ57a9Gx1b/jQFbIImAJgLpioR4DKZjY9nlxv7OGfSGA1IR+xVFGemSxRvtBwbLUmOjhadXRuBW5+XpduD3GjCEOcFeBA7AxyOGmrklhJutzvW9SH5EMmmNKjJAsSVlngRYSxYynG6vBASxEUZL7KyYBvWmBmZxWSg7DpnFFdfgJ6mDb2uTBQjY1shZgy2QQwo9r1i75urnrrhMy3m6YDKHMDsfws4zTrHJGF0WV38beujThA3MVuAsscG+KU8tnGPCkts16U8i/7WZwHJ1zb+reuK97d3bI8NN51s+FWWvr3EzzJeDemvWZvYtYITIO1ZFnYE1kdpjvqBM31M35dEE+ijSe7su0/nIzKq33ofAEYbDfU+Qw93oTJxI4JZ9taNa5mB92/A9oqy2Tm5VUFv2gCqnhoSAXSdtHbJ83IB3kueF4ZupaWKQ/ImHZi5kmFuxzbegPcfZQkLUCZLrB0NTMiSlzFdrkMnNXNQGXXoM3axH7AixnE08PYyYpIjXc5cG6URgd2ZjiOGdBRuJKM6iXQZAeRRmv2AH4GVowG+v5aSpJlzdj4863XB1bJBjDjrBi4GZeChE6w73YQNBfSUMWmUDAIWAufN6SkgLzNkWRYoqxLEhIysJgIblrSAKBWgCwg7Cz3RTWtPgDYRzH+14Ao74MF5otbDMAx45JyRNzNnEPMDOTENyNvm3I0JQ80KzlmZW6lHaB76jLj66LVJqZlw5LyBtw3ruqmnhtRMOM+AMqJzIPGZSWrU9qPvs/d+1IaP3p0+zWdY2KgMo2ujSXOfdjTB7HX0k9Uo3Eg/e3bW/uo9A7W9btWfj4BXqAdLljHj7Q968AQDZMd1MuohE0nsfNOL7BHRRBn7vC655EguwHvJ08K8vdtAqFfkL5f1V52FG9Nrm9Q2YH2oGzOLR2WFq9olQlktBQhsv/cD0163cwCsjzNayo/ij/I/Ar0+j9GGkhGYPgt8z+r27DJqNKj3jOyZJeGjfHz4EatfPxOQEh66lE9LAnHGmveTBdtBTiSAVrjYrCAY2NYNlMRGMKs9LAPiYCRnmMlgSovasKK69FLGKy1y2MPq7XUhJ6iZR4QK9kpLFx+9ZYDf1LyguEDRDWqVRctcT3uzQyoeOYuFo4JjO1GNIWD1tizquUEAcXb1yqwAX8nlzOKCLNuhFImwbaz+ild8fX3Dt2/fQv+wR+znbKIYPe+j8E0ZArbUhztadfA69kB1tMrRywz0jso0kp7xna0Qjd4Vr+/RBHJUtra/0okgV26i6MZKXqC2J0m0MsON5FXArLG7Rn7Yng+LrO+rvS9i15u/DwtwySUTuQDvJU+LsE5Qg8U7DLjidgPeXuFoX4sA4AHxs2gnsMl1gjkrV4CjYJgK/AWAmQ3vQD+VaLDzcgQUo3sz1mbEDO3B2hhYjwarma4zkDnStQ87K+co/LOTgkjOTk76ejFfufflhhXv4C0DyyLNku30MjFJMA8CTGLGwGTH/4rZA28rOGcsSXxFZ24nJInEZnZdVxARlkWA9i0xbsuCLW9YtwIHsDJjAeHBD9HdTDcAta7Q56kAfNHDMnLOSAZmmUs5ORE4r2CllsUrhW6KSwRkYGXGtq5gVnMG23CmoLcBufp2ZT1xLaVUfBGvm63WGMAQW9/18UDOG5bF6vPYPv4jqyH9BLQHp95bRdQujt75SEaTuLNgNwKdPnzUT8wml1Ed9Ho0XjtOvLuj59NpoFzGGPD3upbvQFmlYyMyqLK8SbkPv2lZDpzIgC0aIuufM224vci1dJPxI0NNJi655Dm5AO8lTwuTOKYHUGfkNisv9o42M8+1U6MEMf7VjlrtF9n6tvLhPJJOmIgZswTEA+ERCxXdH/2OmJsIDM+WREeDyZm8RtIPlH28qJw9qJjpE4FwH+eMrqPJQlQfo2vLsuDzp8/49PkT3t5exSwAwMZZml4SsGtzLNs0syKL4zAiZFKmmHUzmoK/vInXEYMUG+VOF7G/XbdcGOC+TW5EoCygtjCorMcAQ1lfrT7etrJPhzLUFEHu5Wx2w57pMzdjmzLOos9j27CotWQuz4KLOUVm9etb6hFgdTlm4Vk3tokOctDEtq54fX/Hjz9+xZYzvvv5d7jfXxrmcfYenmmv/jl7ZrMPM8qnDzfLo79+pPMRy9qnN3oHj4BxlH+kc1SGUX80ez77OPuy+HC+T/OTAyJtc35lQv/VdLRVZkDeRqoglnVMMT/StkMtGausH2QrI7bj9JJLzssFeC95Xsy7vvWOxjSsDPDqXMkABRhDjxfO78D6LpfK8cJc0hJ2jpTdsuz2A0Zd4oqPMe0BnL/Xh+uvH4HSGdsxY21GYc+wuDP9RhINeLN8IoAc6X8EYs9MPvp0/ecIqPfpLMuCn3/3C/ziFz/H+9sbfvjhh+K2CwCQEhYbF1PSvTKSZ1ZbWkoJW17LtVWZM2KAVy470xbTiwjIGVvOyBAWNummLiT15et0FcZY2GQrhzHMvGUxXdD8MljsbLMcC7xlhnC9Muhbs89UQauxs1qzxadutvbPApY3GAPH2GB1XV9hoiQ2v8rq5rxh2zIyZ2xrxuP9HT/+8AN+85vf4Jf/2S/xR//wj/Civop7xvXMuzB7H3r70ujd69tmBPCi9hPp07erSKLJ2Aw8HuU7St+XyV+P+8BzE/+ZXmcm+e39OYMtbYqk3Tp2l3SSWaLnTTargSshwuxwLEP89Lrxo5zUaf3/JZc8JxfgveRpkbGe6rFNyh7JMmhCcU0GKCa1ZdeHHjyxwjosYsa+8+LKEgcdGxsV5sOjHSBMZiBsBIp7iVgaf89fmzEv/WB/hunx10dliMBrn9cMfHh74hH7eyQjwDBjg3uw26cXMcZeUlrws599h3/6J/8cL7cX/OVf/SW+fv2Kx+NRPCFwEuZTPAq0ANF7ZLB8UlqwUT0SOElGwO0m5g85gxQU22llWdnbvAFvOavDEjG3gOZveTMREjNIN3sxM/LSeruwNJgZmYTlIhZQyizeGtKywMw0UiKXRwW05flSPaRFAInVJ6vVAiko39zzsbLJEc1ff/yKH/7wB/ziH/wC/8W//Jf45S//CPf7Hff7fQcGR4CqB6f+2UfPOgKUEbj17/HI3KFMNvR5R+/eDMz298/I0YQ7ktn90fszmkSM9B5Npvv6jPuEfR6NzjoEMKH44pWmZ7Mr/eMsxMf6CtvALIlpWDvUqNi6b5ClQNHhMmi45CNyAd5LnpdE7+KNIdWOKb/rmrE6DPfLUGaTxVvd2MY62+fcdF8MFN+7cExUdAJalbYTjpihGfN4BKyO2MazbMsRSzwKM2JfjuKPyuzjnmWFZmBlpE9fjjNgfgZE+uspEV5e7vjZz36KbftHyAB+8+tf4+vXHwSssfiK3dSLAeeMR95wX27FZtXA8LZt4JxxSws41SOHAYjpw7oC5t82Jby/v4NZ2dSUZHBnmfxtzEiJsOYNpEcYlzraNmyQE1IlOGMh9aiguuR1wwpWVjnhluSks217CAlGgq4524SFFS+Q2tfWjWkEAdeidiqA/1auLaUe7nc9PQ0ZecvY0goQcEsLEhM+3V/wL/70z/DP/vTP8JOffMGXL3a8cMx0jp7bDHyN2oWl17eL6HcEpvu2O8p3NHnsXfvN8p4B/9k7Gek/A+Be+rSjd3SWf6/vvu73evZxwzIxQCTt0EzYKohl9b/rr5so2E3k7pnJXAIo/TitkEsuCeQCvJc8LRk6fSfSWbguO+UMpIxyJnrx3pABUtcyyLqctSnoZfGTSnXezlzZANZlsAj8teCo7zDjgSOS0YAd3fPXIoYpihcxmWfAbhRnBnajdKKwZ0Fuz4r5uKP0o7RnTNdH9NS7ICLcbjcwv+C7736O2+2Gn//kZ3I6GqufWmP0mLExY10fWHRStq6PYtqQV2NIV/XiQMU/7ZIS3t7eC2u7EOHr6yuAjPv9kwBMdVuW1dxhsVPPdBPQkoSR3bYsRxLrIRgGUlfdNEcpYV033O930RuMl5dPYDDe397lPaHK6C7LoqQY4b7Uo1jlpDco0APA1cOEJ0GXZSkgWu7dAIjbsi1vOtkE1vWB+/2Of/AP/gg//enP8OnTJ3z58pPiLWK0MvAMIzqSM2n0zO5RvDOTwdm1HtiaRO9rXw9nJt/R+39UruidGveXcdw+bP0EfB/r9Yzfd1n1YG18dSWPZXzYzPTNzBZs05qsNiCvOiNkIGkY8b8LyOmclw3vJU/LBXgveVoEhKp3e0A7pUUYXjnn3AVWcweWjgrvX4G3H4Cf/VLiLVRsC0lJ37LUyig7zb34jr3t3BUnB+FGbGlRcwC8osHsLEM1yuMMEB+xxWfyOwozYmgiIBsxrxHo/YhE9djnOSmFzLdS0s1TCff7DT/96c8A1KN6WZuq6Csb08QHrXgekE1uVn4UbwaUuVy/3RasqwDobIdBaJu8qWlCOXbCJnFmfmD+ptOCbW391pppBGDxqeTx8nIv5YDaqYvtr7wNRX+1ESYS4EyMctyxHQFMiQDOyNkAbi4gFxD7ZPMILPqRgmIBKz7s7XbHy8sd9/sL7vdbA3iOJnQW5my76d/Z+YQ3zveITfXx+vSOJm6j92FWD6Oy+LDRQTGztPu+YXQ9AqeRnnsmnLQNKAnBg3rVS4kBJjUp6gMY7s0r8Pa9+rE2hndDgSRk/9S3djmQAtDB4QK8lzwtF+C95GnJ5pAekM8kS6ygRTfXKttiGxHsQIC8Aa+/B7ZHRacszC4SAxuZvwc5dQ1UTps6Yjrq7bEpwayz90xm3+FHA9BsUDsDsKN4XtczYY6WL/29aNDzE4YZ8B6VLQp3Fpj78MZWGvg7Squv32VZ9Ijhl2L6YmVjroN0Ew9wEynJR5b7qbjqsiYqA311bSZsqO1od26cyFJq69d8+rJLv4gsaYBSQqKk9cEAcgOa/YQkIYnZD+LnanWaki4Dg3fPfPacpGyk8VHTB0AKog1Mz56v6eT99Z6dsEVM6QyAjt6T/n7U/qPfPcM5SzOSEdsaAdde/HsZ1VmUzuw976+P9N1PKLxOtcsnqtfIGFz9tAB2DEpiGw7adw1McujE+lXu6QEuxfDXDjBK5tmHaxoMMB23o0su6eUCvJd8QLb34gxcl1DlsvnddX4WM7ulq60eI2l2XGXHue5cF9ygk3jesbZeaudcQQ0wZlCPBqh+cBoxrH5A7PMagTP/uwdsPm70e6RDJDMW6ixwnwHNI4nC9OXqw40mKNHvUd0BVDwGjCYbo0kC6eTKDqQYlSGpi6S97gZ6BQzE7U7Y26i8viwSFwAsDivghrs3ZxWj389IpH/PrNZyxe3GtzWzHfbpHek4Ar3RvTNlGAHVIxA+mhzM3pUz6fcHz4zegVF/EtkUz96zo4loNKGoDP/seXWTe2rrTPpywuJN3OyGeexhbglbZsjGZtSxA7oZmmS1Qmx/L7nkObkA7yVPCyNlLJAjrVjZ3HQH8KrfdTetuY8puFRtsbLa7+oSF7OaBGtQJmMRKkjoweVeerAw79xHAMruj1iUZ8DgbJAdlSMa6Hudo/wikOyv+zxHuo4A6QycznTpw4/S7ut3BIpnutV2Mp6sRADDXzPWdgQe+zJZGx3VwV72dqaRCGg2truU1OV5XvpnET3L/l0Y648m/CydPuwMcEU6Ru3UA7qRPtGRuaO8Z2A3mphG+c36GK9zn+dsMjaSkQ5RmKOyzZ+v4kpmbYtoJnQ1L9ND+3KhXtVut0qBskpiSL9v44CesmaZFKlHhAtMUZbXjsNOy+uwAJdcMpBzPfAllzRCwuwS1NVYrrZYQEDJ5jorz6t0dHkDsEE2IOSyvGx9YrZ0mqRihgHwQNexCDjHdI0YmF2pO9blCMRaWB9+NNgd6WNpz1ih6FoPJI4G+KP8j3Ts8zgq70inKJ0ZEydh2vQ9YInS8+lGz+ZYrzHrORL/DEdts31WbXuO9DgCp7PnejSZOZKojffpjSYMkQ4jvWIGcqzPR661cqxjP0GepR+B8FkcD+79ZLT/6+XMvV7/fRlttcx0KSFcvFH97dtrAouNOOl927TGG7C965igrirN2yWAarezVXCcV2BZwJTeg8wvuWQqF8N7ydPSgFHyV7kiVt7cNQPCANYftZPbSlhxQKOdqf9HyhvowN8zasboyncGF4fk8VKo/e7BzTMAtAeOETvZszgjsNXHj2TEbPa/ve3qzHH/s2LxIuYsArMjBnjElo3Y3aie+2XcqM6j+ojY8ajeR/UUTX5Gk5eaZ7myi9enG7WXURmj+1EZvT5RmYla29qRjtHvGfsaxRmFHekdXRu5JYyAY8So9jKaLNb6PF7NGIH8WXlnkw8fP6rLo/ZxJKO+xK9YVB3ripmpYlHsWsv8MmxpLtkhKdpf53LohCWg5MfjG7CpX3Z2ZAnr8cIs8cEbxBCYCmj+WG92yd93uRjeS56WTXbv6A4e34T8MlRyk32C2CuwOBp//KA+GaGTetd9+Y7YPkvnP2I3pXel2suekgiwWNr9oDlatj0a2P1g1bN7M9Z1lN8or2gpc8Qmzsrch+9BxlE6kX6+DLOBOYoT1b3Pe1QPPr+/CxM2aiOz9EY6RHn2eUXhjkDWTM9ZXvZpPofHbdF/jyctfZl7cHWmHc8miFEeUXoRqzxq75GM3suj92+ma69H33aP6u5MvtF7G5Vz/s4CQPVYUnWutuOShpEKvs+gpqEIKVL+1e8MAcbru3jrMVvdwiV2av0AACAASURBVOqqIgwZL0q67jPn4lXkkkuekQvwXvK8EK1ynI7O2hNBbKwSinNws+G1MJlRlqbeX+vpbNCO1feL/Te2Dlau94Pzvg+fMzojENDfGw3As/RGA0rE0vjB8Yhl6++NgOfRQD0bTKP8z7BjURkiv6g+7iiNmT5ngVOfrr/Xs7WjuhvVYdQWIhDJNtEbhIvATi+jMh/VwXkdY3C21yPWzT79IR1Wpgjg2fcRq+vTHU3c/O/ZezNr23b/mffuaDLRX58B8f7Z923yzOQlys8/09HzHusVvZMW39dVNXfY68Ntk3ffk4FYUUaY3e2rrvT544QJzRgCALTIvhAbS5jA9QziSy45LZdJwyVPS942mWAvN/W9m9SdjPVozmcicz1dLS06em7N/UQQNzOGaxmuU/U5jwYj28vAuzBkS2ANQzHeyOPDxHkd7+p+5l4/qPe7t0c69Gl4kHEEBiOWbhT3jIzKFYGgWX4zcO6vndWhv34WDM30maVr32fsvL82Ys5HgGem+6hue/BzVOemSxTmTNuPJokzkHv0/Ec6jNL08c4+54gNPirrGdbfhz3z3Prrz+Qxk6hN7vsQTywQ3FazEsfc1YlU8EtmaQDAmFliAbnkUqwBACE//BiRdXzITbD6hQT4LjcJs22XDe8lT8vF8F7ytFQXiORA70MupQXlMHWzxTIgmhngFVi/6Uk69dZiLIK5Ytp1eJ45Q3OtPwygve87864cTwAqn1/EOEVpP5OuT9v/7r9HLE2U94gdG+Xb53dG7wjUHunlPz0A61lCY4hnDNxRnXhWy1i0Pmz/PUprVj8+fBRvdC8Ce5G+endaRm+S0KfXHJHMrcnFCJDP6nhWppH05enbzBmW9VnGM8rvaAI2ynPGJn/kHe2B9Wi1I6qnSJez793RO+KuooWpxkRXQqGG17gN4gVQ+mpqAa8SGcLwPrRzRu2oq9JAuklM1g3Oy01Ar+R6eWm45Gm5AO8lT0smAkC57KIFUM4+N1urcksdh1unzFD73c2ZNeifdoakn32naj9t+c13/PuBo+/cY5dMfbwR6GnK34GzEXDwcvQ7krOM64wJi0BOBL5Gg3lftqh+jkBvBHCjQTh6DrNy+XB9eSMdRvkelWlULxEIjNrG2Torr8gufptWznnoRWSk76yss3Cjuhi1qVm8GUAc6T9L/0weJr6Nj3Ts29Yoj5H0E7pRWfo0Z3Xvf4/qoN/8ePQeRGns9a7gVurO2mfcz7b6yXUDuomcX3bm6poSgLgkU7dkZdDwv9XEAUqiiEbF5fsllzwjl0nDJU8LM+uOs6zLUiR2vImATHWmTiUCYC5nlheZuWfdmZsZyIxUdzlUchi2cKb/yduQFW00C++HtWY+AjgmEbvSDxhnGJQ+/Vm6vV7+Xs/u9EuszNzYx85Acb+cfUa8Dn1aR/Gi/KN7s7Qt/wjQ9WmdARZ9uiNdomd2BKwsvn9mI9DUx+ufNReCSzwEnAFdowlB1La2bWvK+0y6EZs4A86R9GmMnk8ftn9u0dJ8VPY+zVm76T16RBK9myMZTQb6/Gc6RfXRv88jgH3U1mdlJdd9W3t0KfcldZ+yOif7zFy5jMBg1hU+rh56ljuK9QRzxbfm251YbHfLxmglSpiRMeggLrlkIhfgveRpycBa0GyZlGuHhqAfIsXHtIg5w4+/BtY3wLG7hL5zllvSV9aNEhXMVvsxk/Y3N+GA5watkcwAQjQwjb7XcsaD+Qg0z/SJBkN/7wxAjAbDCPiPdBvFPQK9/fU+vb7uZoxtX64+zNEzPJrozJ7nLPwRqK6ijX9wv+Zr70BcB6NyHk1e+rx8vDMTx1k7H6URPdtIl6N2c3RtJKN269M5A4j7fKN2O9Nx1vb6uprp3Osz63f8b0vO96X+uk3GJG3/rhQKBAsAPVOoOok08MwsbMa374Gvf6uJwjp6DZdrAplrwo152656LrnkUC7Ae8nTskkXluVENZt910G69pRASxCw+OB9/V4Ab+nchAnwSXhuF64Tth/V565kJB0vNXFrnDlTNWJjRwzpESiagd2eze11GaXZ630kR6zSWcZ2BjJGOp0B66MBeFTvM+B1VIYR4DgCoDGrWNvZmcnGbJLQpxHdm4OsCkBMPFsZyQh4zoDZjI2dsagjAHbUPmYAcVSmM3n0ZbC4UXs7KuMzk6JR+c5MJkbl8e/LrE58WlG59/flUzaotdflaO0+H/1sOm+C+OSFXLPXhhXw5iyuKd9/rCDXkvbxYJ+snoBISJPE4JBZueSSuVw2vJd8TIi0y9EmxLppzfvUtaUo39khyxnqb187G14fRvo9t3CvWRYqAER1+a2ygHsVKzNxnlGcDfD2eyYzkDhiyHp9RnH9X3999NtfOwNgfRlmrOgsrtfhTH4z8NgP9P2zeAb8jvLr6zWuQwDYs81R3D6f0YQjenYznfd/KOlFYG0EuHsQN6rDo3YVPY/ejtnrdwRE+3xG9RfJ0eQiCntGp9kEYhb/qG8Z1XsERj9atlnakZ61X91POlpd+vfbhQdAxHqyvPbvVFCv+OB9/wMAPWK+rA5CwjliQwCznrBGNwXHBFD6Oq2ESy4J5AK8lzwtclY6Z9lcAN2E5ifcJLZXnprdXMe2PXTTApelqsQsp/GQReOSFOAH56LFAaDqr803adgg3Q9SR4PH7JrXL2JWzoqBiNG96PcMcM9AV1TOiIEaSRTuDJjy8f33/m+W74yl7PN8BoDWtiHXznh86HUYbTSL4h6zcHvGsXdnFwHGGRs4ynNU7/27cvScovblwx7lEelsYY4mgqPJ10ffxdH12USzz++o75jpN5ugjFjjGYB1Kbv+lZrr1jEzA8yR2ZoxsFT68KRppWapj2WseDz0qHllfM2+l0mALSUUW14AZXMb0JIql1zyhFwmDZc8LRtDjschPVktJYDvaI8XhszMy+4z7eg2iFnD+irAF18AFhtegnZ4vtNl6Wxrx613yE4D0nDOZte+M1eGV76Plw17VnIEXqKBs4Kh2JVQD1D6QWx0/yMAc8TiRXr0ukSgqq+XXkb6HpXxTPn9fa+vB3devxEwH7GNszC+DLO0I5mBqGeZzxFgjb6fSafX0eozCnOUpsXrwXbUBiPwPALxfZl8mrPnELWhCPT1abb5KmYbtJEo3V76cP29kd4AdsdnH8nRhKj/PQLl1n/J7748wtjWNCv7yuxOZVPDBm+FILSHS5ABPMwl2Vr695qkjhnsFKFF/rBIosSXPcMlH5KL4b3kafkv/5v/To4WJoL5RawmVSTfWQGut+uycHmrvnghQZqTeACkYsZgV6QXJV0ak5ONZwODhZszcP56PyCPvvdCxm6E1/d5jMCKjxOxPbM07fesTs4Aof7eRwZfH3cETKOJxZnn0w/mfvl8BJSPgNasDP5aXx8RqOgnRTOwPQPdfR319RbFH+nf59H/eWY2euY9qOqZ3eheX4Y+7z7tkd5nWdioXc0mBVFekt/4Gc/ahr8etZcjgB5d79Md6dHnGek8eperfoYv2f0BtV8zdtffEzDLtnLh+mqyT2N6fdrbVyC/yjhgK30F8DJkLLG/Cq5hNrwAKGKZL7nkQC7Ae8nHhSGg1Xwqlq25jlrt/fJah8YZWNXxeGbxWIaOpcEMHGnq1IJiuy7xqqqz5cEaPnYN5u9bnqOBPPqz/EcDWw84+rKOJGJ3IzASl2EMAnv9+vSjwTdKdxS2H5CPrs/K3OtwVH8jABoBorMTHmszfTr+QIi+nuzT+1Dty92nFz2PI0AZ1cmonfX3I5A0quMe6NufP0DkzMShj9/X65mJYNT+Ru2sl9F7MZoM9HUzmzQclcHSGPUh0XOcyUjfOF7LcvfhfT9bgW+TGdj89napkpmuZZKxYnt0ZIgF1JjlWGF2qbHs/eCM5iTPSy55Qi6Thks+JpR0HbS/7rq7dAPohmrqoDP5bQPWr9rxaSI5gxax4+UaQ5LcdaXuDvvf9p1A1HaKo4FqNPjMBpUzoHQ0wM3YpQjcnA3vr0WgcMbumI4j9nmk+wjEzfIc5dGDkRmoHbFZkW6RPmefW1Se2bPswdUMGJ7V0U/AfPwZ8I9k9rz8vVl9npnAAGhslaPneWayNZKzwPMozqiufNSovH06vXlNFC/KczYhi+r6qGy9frM0IvHVId8FcEpavl5qHyzpKysul9TbDivHSwAyUrHPZen731/lpDWvG5MAXTtdre/TGQCncjmDfjhVsEsucXIxvJd8UJIZWoldlfV4iSCn4rAsP6VFWVw1cwDJTP3b77XTq8thpDt0M/xAicacy6R20FzDscVz7LLz8DAjRM4MDDPGZDSAjgDc2TyjAW2mXwRCZmCj13MMBGJwfX5AjevhiEkcAfCITTsCfDPdZ0B0BMr78vnrkaeCPrz/HIHXESvah+v1HdVnXyZfz30ZPMva53f2uY/0PsNWRjrPTrKb6eAlAtwzMDwrw+w9s08f38owSv+oHznS69mJa5x27Xvlk+CjVEDcfgezEhVkuyiKaQOIIf7YN+DxI/D6B5+Bdt5Jjw+28UTN5bhkJONFuX/JJc/JBXgv+ZjwJmeZM4Ds/PEKWpXOy+x7vb0Vk2xaePtBZvvbVjqvpH1Z0//K0T3NstoYkJQr7q9eYwPl8OGConWDfz9gnQGvESDb63ue8fFhjkDCKL0j9voIxPh68QP60dJqr1efjy17R8yjjx8xkqbD6Ll4gDQDd5ZOn2+v/1GdPcO89vocpRGxxn29jPI8A1Q9GOvb/qxdzXSYtZNoAjPT80w7OwKMR+9AXx6vU183vZ7R9SifM+0hAqz98z876WjzVmJBUkHcB9brtc81fNr3tbCtajBmlghYuJIVZPfMI8Oq/b8dKmGMBmeUDWqNWQNg298sq3wh3ks+IJdJwyUfE6J36YCSemnQ66xdHN0gfhbN9Yz1fpvY7q7qmoztbynua5j1iEpjaF2/14JW+6Tmni21WedbxQ9Okk/9HYPKkURANAoTyTMAcRZ/NCh6/Y7C9OGiwbXXqw8/K0/Ewvp0vY3naHJwxDqP7vUAqgeNZ5Z8o/rrwVAPWs9OJKJ697oe6TIDWLM8R2lHrOcMQEb3R+2wjzcqV1SHo+fUP8s+v6Nn98yzj/IYvQNngejRu+PznQH0Opmf6y/XgBZI2nOM9WL2ALlP155VDZ80vawomXzHzQZ43/XPDuxk557sIb/NA5BkIHl5V5fXwROXfEAuhveSj4qYNLDr0EoXxAJizYyBXTg7N319E3YXKJ0eMSOxNMqs3hjcMKIdLTdZjhk2LmHsk6zjdNd9PLnuGZRx4Y8GuJ6tiZibszJjHEf6j8BXH9cDtggg9OlH8Uf59PF7kBGBpR6QnWE+/ecM5IzyjWTEVJ5lBnt9Z3U7yv+M3mfAY1+Go7QiUHg0qZnldTTxG4HwniHu9ZhNNH39Hb170TM6atdn3smz8nfvI+aM8TjO2MyrgmDfD/o6ld+ImFYWY4YE9b6DLESHjRfbQ1xT2m9mTUpNHnhD46GhGWNySf+SS56VC/Be8jEhs7XSjgzsGFu35Yw312FpXGZxS/b6W72nnaLaehGAhlQYMhUlwfLXBq0dunz63cZzZkq+7wegaMCVgbmrnu6CDd4zYDYSz6YdsYgRS9czrCMgdga0jnQ+AhNHYUbsqf8bgdkz9df/nrGjR+U4w+x7hpSoeiuw+DO9j56xZ+BmQDZiP0d59eFmgC4Ckz6No3R6ZnzURqJ2MWofs7LNGO0jcD7T7czEKUrLtw1fFq/32bY4uzaaSMi9th+cvULxM3LEQ5M/6cFE5Y5Fku/v34Cvv0P1tWupqueeBtzqKmDmeh+sTG96H2t8ySWxXID3kg/KlkvnZL4UE6ubMqN6deZuHaDN5jPLOeqvv6udHGc1aQCcpQEo7Mgl7X0nT93yWz+g7kGxdd5xHnO7Q3Ide3an//QDWhR/xhBGg+6ZQXkUdwZQegDRpz/SaQRqzrKXfd59mv53e+2YbXwm/xHw9zqN6uMIXI7SjH5H5ah5te101iajdEZhxmBoP7E6AlSjNjKbXBxNVkZg198/SqMHxSOb7lkbH/3210Yg9Kh99WW179HE1T//Clj378Rezdr/VX36NmXhnnuX2ziMDLNzBpjUpMGns34Dvv1GTdq49P0CRcw0jnScyDqWuJVCAEBG5nwB3kuelsuG95KPCW9fAYZsTEv1uEfrRBkomxAgl7DprrQFwOOrzt4hf4lw44yFWQ5lI02GpPMbsVudUqUjJ7X9bdk0WcYbgdb2N5U4IxZMfkPTHS9n+/C7auwA5xG4ja73ZRiBan99Brz7/M+AGp/+CLD2TLVPbwQs92Wo5ezrIcprpkdUbp/vqL6issz0iepmJHEbqiAFmDOLs/bTP0ufz0iPs4zxjG2N8jqamPTve9QGR/pEzyjKezaJO2JZR4xsX/9nntWZNlz7o7bf8QBW8qrhtescpCPfu1JZ7l29tTqhrJyxmBYwlGhIjkEjJGYspjJzOUYe6zdge5Xstoxix0aE4uGnsTNmDZckTM4NwXDJJWflYngv+ZgwVkGXZtIAYFOkmnXWTkn+bObONluHnKO+PtDa+gKEDPaby3RmPwJGQAzEmCJmRXpfY0jq/XYwaMiE3QY5S2vC/hwM5v5AgqgMETjq2SnLcw/ox4DAvvcgu8+/lx6YjoD0WXAegcXRoO/lCCRFE4Y+3768I0A3Yud6PSLQ5ct2BNZmoKqvoxErPEsrmow8N4mK37lRHt7l1tlJ3qy+7fpostWXLcqnb792bTSRHeUXXcs5nzqauddl9o7G9VQ/VWMXr38faz9moNeDWYtv/aH1GVGf1JfbA2zm6p9Bfrt9FhDnZEtheFkPnVirD147Rt7+SGlrA8jFVI7V9aWezKZjxSWXPCsXw3vJx4RIjhbmDGAFsGmHxZBNCiRgl7l2UuZqhgjgFXj7Hnj7Bnz+qYZjpOS2IzCKPRghZtpk4LJO3vWZrPxDYXlbECtnwNfOG1BnE0zlfmUZPKviB6KoWlSv7voI4B0xhWeAZv89YtoiABPl63X1YaN8Z0xilO9ocO8ZuahuovR68cBjBA5H6czqy//eM2/18IEZaI/A2hlmONK7r6sZIB3V+VFZI72P2Nn++UU6+/xnzOjRMxxNViJdZnXdP9cz+c3qzt8fAfJoUnb0/KU82YFYmeDW75aOL6f1UdWMy/pCRZhB/HGfUb+X0JKGXYdNul1YZ92GvAGv3wPrq0XQxLj0/3XcMJtdTS87+15KF797yYfkAryXfEyMvWX1o5uB5kQ13tSed21n5Bl6uDqAxzf5s9k8MZiUHchUmF6LauyBdf7SCSe9VgeBtiM3sFuX4yS8Zzos/SY31M57xiBZejFTecQ6+s9+4OnZrx7w9+F63UaDdK/bTIde+nT76/21/vsRmOp1GQH5EUAYgfcof59mFGckR3qPWMQ+/Ah4+bj+JK8+TpTnSN+o7o4mPv39UXqR3rOJUv+7byf+mZ19DqZvNKHsw5+ZhPXXRm2oL+foPbN7s/Ic6WlJ1yz6TbreJSNQXS/2exs8EN6/D32/EYNdwIBt6QUZoFT7y4SMwiJnFjdkbz8Ky0tQgKuI2ABuXlE2PjOjrArCyBUAKWHdtsuG95Kn5TJpuORjwikXthZA3WVrZgubBZQ/3qqpw5bl+/aus/0ad2FGYhYbXhvMm4yp+xzP9fcgjl34CmYNSNcB2OLXgWEfH7vBJso/GuQjIOqByAjUnGUB+3jPhDE9ZqCwB6R+gJ6xZEcM2jNlGDFkR3UUDe5ReaN4Z9Ke1eczz+9oQnE2rR4Ejp5BlPbRM4nqbPaM+/R92CPAafGiMvRljN6pSPczk7uZPn2YEZPs8+pPWYskSifua/q+xeL3YVszrbYc43bUTxZb0N2SEYD44LUemyC+1AnmZowBXqW/N88LGwMbHLg1cwV2cToXZbpq+PYwmviSS87LBXgv+Zhw/qF4YyidE6HYX7Fne6mGs523zPppS1USJzHL/oXBYNsyQHYRTc87Bo9+oK4DgQe7XW5ucN7f9WC4jx6BqTMM4EjGy4vnwMsMfEfsXJTejAmM9I0YshmwGNk2R8xdn3dKKQTiI2B0JM8A8Ai0zZi+UT7RROgMUzq7dxT2IxOeEVAcgb0RyBvdG9VTf90/80j2oHG8CnGWqT3DqEf5npFoIuDuBnqZLhbf9219mf1f9kk2ZfIgt+hAaPZVeH0b6EyuG2ZGAtd+3IBsViIkc/XowwBgB03o2FFAsDLGea36b4ztxMThkkt6uUwaLvmgZLHhzbmekiO7zlSW6rnB2FqCC7+KOcP65uyzGEvOoCUDvOyO0onADjM3nfFs0JLftgzHrneWTpXIgCu76/Lp4+7v94NVC4B7pqQHZrMl1ggsj+phX9b6fQas+oGujx8N8lGckXjQegYg9WWL0gsH5i7erH6jvI6uA9iZGMzinqmXHuSMgFc0YZiB4iP9oudg6aeUhs9/Nvnp044AvKU9awdnwORRmx+9U7N3p29PRyx7X7YzE9ho0jtLu4ZR4FevWshB3+P7qEmb7Popn39Yb13xZHMalesZwAJPWugfZzlwYrU+fxOGV7072BHyZQyhJGCX1ANQYrcXBHkz4HzJJU/IBXgv+ZiwdmLZsbsGaAEU1pe68OrGBo+H+OF9/yonrvENyIw7sm5cE/dkuWEnfPb732X7RPmgCmwLC5JdvxoNThK4H7fageRoyVbzwZytGjGgMwZ3BFwjBnQEMEeD8ghszyQKM2MH+3B23wPJWZl9vP7+aHJwBKajco9A5GiiMCpblG+Unknk5WDEqM+A7gg8Rb8tfN+eRuA4uh7FnQHIGTgclXtU1tmz8tf7ycqsLJEes7Ye1bE9y6jcs4ldXBYgYnR9f1QwKQG2+Xasv61u1f0OBbhyJQQY7aSs3KvJwF8hgo4FjIWyeu7RVb3HO/Dt99rna59OgJi0OShipm+l3ze3l5oOLXhsF8N7yfNymTRc8jFZliwAV22siLXHZQduITN0QPsuB0h5dWeqP9Qfr3SyC2cQ23IZl36vZ8Gagdgxt3Jv38EDmgbatOoAMgYm4tXBlN/dLWn730U3p6//q2kfA0uf/ghAzBivSEZAsHd/NgMFRzIDmz14tOs+/EdYtFGePr2e1fy7gP0eVPdg17e1IxkB+Z5ti553H8//Hk18eiZvpEuUdpS9Ab3Z5CKqi7PtKZJR25+ZUvTxZpPB0aRpVJa+Tmcge/Qs2frSolNb7/vq6vOxL3UFjMjr4/q+YPLPbK7FCImp9q9dufRoieJKV1UBIReXkqVvX19l38bj3TJVMEyo59Lrd4tbbHhRD6qghAxa+xq45JIjuRjeSz4mpNtrKalzBrW7Kj2oUaLWMxtwzQCrd4f1AdCi9ll22g4XH+Ti0IGwWXpN9i3A9ctqhRgonb78mzIVgdRBRTrZ/WBniffLjf537+JsDGrsXsSo9Z8jdm2Ufp+Hv+aPvR2FnYHIszqMgNUZ8cChNK1J/pHuBhxmwO4sMxvJTIdZeqMwEXD6CDD3aY3Y10iXSAdfTgsa6X80gYnyn/0e3XuWdY2u93KU7qg+7Pvo/Ry9471+9Z65WvRtAuXQhbYc/USE+8vgXT817hOMWAUDmerq2a7uSMCymDLoJe0bU6OHmSAk4PFaPTQwQwCuHmBkeQMowDery0vr4wnI23ZtWrvkabkY3ks+Jhk/gDfUjQZA3bSmGxEUWJb7fua+qRPx9+/Fpqt0jhuSAuUEgInh+9gd28LaCVPRq+3wS0T52AFGl3Zl4jqgXngMA1uW/x6o7tmaCtLC/DsZAZ6IQfQA0NgbYL/5a8R+RYBnxEyNdO0H9ijNUbyIDfVl7/MYMWMxO7b/fiSzNI/i9d8jhvMMgxpJ3Zw1BkmjtGYTlSNWc3btzPfR/f6Zzuo6amOz7/274WX0fvTv7j6tOJ1RGY+Z8aOJtn9m0v9YlJy5ee+bDqzkX/XwxEALigeTT69alnhNOoPnRkA9El7BLpXE1PTt7Xux4TUQ25zOCRSTNyLUzcx9GRngjPz+2JX7kkuO5AK8l3xMin/FB1BtDuwmyiETvb2XLVERgNffA7/7f+TknWL7y7Ichv1hEcAcJDAzzCHkzvaMSvJtOrzvxGu+FeSaPHukpaVzNMD3A7DJDMi0wHs8iI0G/541PAv0RqxblJcHILOyn83Pns+oXFFZ2vpMu/t/F+mBzojZ3AGEAGyeef47fHJi8jQCjREwnE2U7NqMzezTnAHQSJfRc4vieDkbdlTmUfjaH+yB8AyM9+XpyzSbqM3AOrCfBLf39yB+pF+fHxE1JmGtAtiZNXQKltxJf1JxUckCbl+/B377F+KHF0BxVWlUsh9HzBSu8MYCdIXtRc7/P7y7l/z9kwvwXvIxIZJjf9jbyTGqLRZj50MxQToyhnRq6yvw498ADz1qUkGvsAPmrmbf0YfCMO+P6vzcqdF07HWwyHkwuHfZeDDpw8rAtx8MWz33OpsJwdFg3KZVGZr9gD0GKj1zdQSOjgCY1FvdjBMxZb3uo4F8FPZI117mACGuj16PZwHwaKk+eqaRHu29PbNo99uyVaZvBJb69I/q/KjcZ+tk9tytzcyA6kyPfmJ2tEpyRjd/7+i9mAH/0T2vuxf/7pxhgvfPST8dKCXUe9bfHZUnut3obYdiwoH2YG9CjafPBlDvDLnuwch6oMTr74Bvv0GxAkOSI4PNQ0MhIQw2M8RRr10D7KCj7QK8l3xALsB7ycfEfOiasZcdI1w2phGQlvo7kYaz+wp8378K4C2b1vTwCQBmWlC7UsADVvvJOWCa1N5LBgft6HVTXAlDNXTTf3oQWwYQyayaDjA8gG50CuSZwXkE0Mrl3RJjz7KJrpFf22gADkH/CT2jOCMwEoHeiA0dAYioDBGw6vPr7/vjhyP9j+ogYrSP2Nwo/TZsnPbRvYkKnAAAIABJREFUZCUCryOdo4lUzvnUQQijNKOyjZ7NKM5ohaA3uTl6tiM583xH9Th6tr3eUf1HaUXlfUZPE1LAaIAyWx+lv8d9SPzMGl01WJO/9rGU93GjMtkWNyJzQQkxYSunrKm9bkG+zgcvCEg31H5VP9MCf0DR5Yf3ko/IBXgv+ZgQVul5E5CSW8fSjozRzdhl1i+bFVD7s/fvxbbL/PjmLC7JGjaBYW6++nGgsA7adxqwbdgI1x/3y862TJcMqHWRbBCh+kNZXdNr3/FTGTDGoCoCiv5zf88tke5sEO3PBufW9GI0gI8GrCNdj4D9EdiLrnkTC1/uEVg7Wpr21zwIb5ZvJ2DE1+2ofGdMNWZ1ceRF4KzM2k6U1hHz23/OyjYCtFGbi/SJwFmUx5G+I/0iXXudI6Z2Bth7vdo21eoxSr+XNgzv2p1dl/yhL7zvZ7SP6voKNKZmtvmsay9sILVv7Cg2vACQy16Mtp4EKLd9bmIgmUsysHjj+fpb8cVLLoOcUY8Xrn2mKHiT8aSQJEvp7B55+zquzUsuieXy0nDJB2WRXbJZN5/Z4F0sEJL1wyib2JAAM1Ug3df7+Cp/vMGaY7H9AiGBsBZw6TaQkLAOTZ4lawHczFxsgatxmXWpBmgdpFUky5C+t1tNlnCOKZEwtsmtSjTo1Xtu8G4ANrAHY+3S42jZvOozB6I+/978wH9GzGuUfg8gvZ4zoGL3Z0Dbhx+BjiOgHrHJ0f0oLT95mNXVGRkBumelB05n67K/H00Y+ud4VHfR9TN69vqMgGbUnmbpWbj+HTqq7+GzmTDYfduO2oZNUqPro+dRv09VBgx4lvL6PsmBYhe8fnW9n7obY2rBKhglXUJqSAUuoLmpGL0qm3tz0g6Xc3E1ie0BvP8A5Lc6JmQGFiVNWMMXGpkgez2sw1Z2V05m++jCxCV/z+UCvJd8VLJsOLAjH2mPEI3xZaVEc64uzHDTPm0T34z5AfALxPZLjhh22Laa8zKaDtg652Zw68e4IYOkgAYAiMv3FmDtAawNShbfMt0Dg0gZN/ABoAKweTdQClPD6Af4Ji3NaGQWMGIvjwBQX0873Z8EfhGwOAKCXq/qiqnem+U9Yu1GDPpIlxlw8uDFg64R2Lf7I/0iXWNwqGDkQO9I/wjkR+0r1rMeUtCmZXHie3a9MIUBWonaYFSunqmdteu+vPZ7BLab+mAGp6QLV117t4nx4B2o7/B+Bcjiz9r+vr8BrB8RFfvVCWrC+LqQqq79VQ1DgE3UuWsPDZPLheUdTTJKIqoLsRwrXPLJm3ji2R7aaUIPnoCMDXaSGhZldf1Y4hahWckVxmXScMmH5AK8l3xMiFFMFAo76jonIuD2CVhudZbuEWLexK53fQd+9xfA6w/A558CmUGcccvSSWfPJnDlIZhb37t2qlpz2tqoIy8qu7Cafum0Kwlb8tvLHoT5QSfyCNBvWCvDwo75iVm17uJwQI9AWw8O+kFrzNhFA5y/vwcQs8FxxOpFgKXGNZ1b0KKharPS07Siss5Yw6P8RzICxGdZ0WhC1etX9Tqup+h31EZ82pHuMcCXF6evew/CWuC613c2cehBfvTpyzMrV/8ejIB/VJ/NPQDcg6sAgPfssjxXAjg4ijrQV35LPQLcuB9r+xlLrwfNnm/o61g7PKD0j5m57hVDNwmgGs6D3cr8+qJUUwrVCgkZt7JKp54V/vAr2aAMa/CMcuhE1tU+WoDlk9rrOtEVO5EMEPLjAryXfEAuG95LPiZMWex1bWbOkB21xuqynqBDumENDj06f7x5A77+Gnj7vW5wkD85j53LeezKhzaMSYG/Bmw7cAxI9gy3IcOuWTpsG3i4iWbXyqASsi4OK+t/orJlwxQbDrqWT89atRnGbBARgdyBET6dEUibXZ8BIJMZYJ2B2Fk4F2MKvCNQ4zQbgqAIbEcgpc/XQMtM5uXpNOwAUdUvfi5xuiQgqkm3pn32+fRAcjQR6vX3k7BW/z5cnZxEZZqB9f65Re0o+h2lMwKyR+9JSSPn5v21NCKwvG9nms8kv72+KHGJfG/m4rHvQ3zZtM9idh4eaz+Zc9A/OCKgKaOSBztdHYnQ9qeExNU4bGFgMTIkQ5jdr38jG5Qzo3FNCaeLJ0aKfv5AIw1PhC3bQRaXXHJeLsB7yceE0iuMxUlQ8GqdMNXOqhI9ei+XIADEXc37j8Djm15gIGek4gEi21UI8K3sAxhyWA9qx25SAS3Q9d2iCcENAP1Az7s4bP/0S91EVzdtwD5sbOiS2eXhUvfXe/A5WoaOJGLr+vv94DtarvTfjbGL7kX5RfnEwL7RbppuxFT7dKMl8RFrPdbBp3kcx9rO7LnMyuwB0/65eNYO8I25Bz0+7gj8z3SKAGKfRt9man675MPy+WtzsCnlnKUbsbmzidLRhOwQ/A7uH0202vjy5/ubNlz3vpRn3b87hgkNIRdtdpcqMFWzBjDqwY/jOvF9bEnT68u+v2VkXaowCE3V3lY8NLz+IG4oC5hNDjADYGvsXK9Bvfz4OPIlb8zvuOSSJ+UCvJd8TAhrYWrVrkp8Ktp9O5fSNrNZZ2Ydps7ctwx8/VtheY0R4Axib8fL8EMZg2XDGrU7hxO3y3IlWzjgU4CwgoUePBXXZZVh6Qch1vtupdDqRD9tE4hH236AmwGgFmyNgNcofhTmaLA+w3YZux4BzwjM9ODLvo+Wy+sgPtZ7BHbPSAVF4/vR914fv8xcxmFlqnrmr9c5Kn9UHzUdixfpstfreAKywzhNuNnkoC9Xq/88TP/cjidt+/Yw0vmMnj0IHcWbTfj87xF41l/lHd+D6g6owr5XIOzj230j17nXDbUb8zhRW02QV1EY2pMB7Hu6mkDP8JZ+s6k68lFEV2YsyFisf8+Qo4R/+JWeqKlAODtCgwEQV1eXlCCrhkAtPMs9GSDw3/73/8Nl03DJ03IB3ks+JqxULTOArcV2ZbwuVAKazs3+LNz6Bry/ij2v9oOJM8w1mSzjVmALBV7NSh8zMrWgRK1lZSOwgmbr5CsDIp1stf3VgcCfX6/lbIcaP/jtl4TFj6gf4CLw4ge6mq4Hxwam7LsHlCOWKmZS6wMaAc9+MG9BbXtwwBFo6EbGRmaM8kg8aJiFGbGZ9c/r0ZdxZF4STQ6orsK659eX6wyIjPSt6XhA2bqumgGzPq2q3zzvXt9+g1kLXNt8os9eF5/OUd1E7XEUbhR+Ntnb51/fjwpa9/r06bamSvZ9XCaLo7G1f7MVFNFDTBAsTgWVuax8VZ2Zpc/yxTFTMA9HszGuTPV8oBKhqYJq1uC6WdIfo35DHFKyEBVZO7+8yXHCj6+ymuf0Lh9+duNZ3iaT7ONfYPeSD8kFeC/5mPSDhQIz6Z21WTFX/+KZ1aYXtQe3Tm59A97+4Dq0DTdSpgCAeVDIeUPmjCS7KsBNZ6+dsWMuNGrtjJkLaUConaxB4SJ6iwFQLinWgUzzaQH9XvZsbrVBtj6+HVDrZ8sKVeAfbhpxS7otULaB3R5QZLO6Bx0GBC39GSDd28G6SmzqYVc7u3uRjbNPl9xgGAHTGXsbAaFa3/PlfF+Wnp2s9d4+q1HZ/UEfxwxlPynZs8UzfXuwOmInZ6Aysu/twV1vn9yntZ/cjNtT2x7ae7P68ieYfURq+yqaFF0jk4kI7Pvv+/JW2Cj1531pt5PePk4DZN1G2IIZ7bP0VdZjocvb+sfsJv7cpcUV1GrUxFz6UWZGYnEXCWZs61b6YMHHsmmtkCBgYXjffqzHCLPUQyMMXSFUhF3GkM3prwCeL9hyycfk8tJwyQeFXU+sB08UOyx1Fp68ixln2sDsDqBgYM1iw7u+Ai9flIFYcccN38qpPCguvIzJle41t521A2s986qaIkM68ETiBcLMFAqTQgSz0d1AwlYQw3xNmt4Mq4LxsjSzgRMPfoHaiXe1OgUf7OJWxpjLo2B3zw8oHpRXk4zef3CbVwVwrQkDuzJF4ELC7MFi1bkd4H3ZTS9/rQV89VoPjDJYB8KIPY7sf3t2dyRW534SEetX70f5+/tAC0jjNL3ZxFi/SA9LzgNSD+xr2e2ZtnruTTfYtb9zZRzVac5Snj3A3MdrwV7Psh/Xw1ifCibrZXtP4kll1aEHw/Fkx9qMtEt2aTEan+Ku/ACQUmX1rZ8zHLh/jy1c16+UCNJPJeu77AoDxU2DSzdpYn6qtJV6ks1juXaBUh6uPnjvnHHnDcXcbX0A79/UnIFRT0vjetS8VT3p/o6k4wfZCWxuXLGyXXLJB+QCvJd8TLbH76UDs5k4DC3KbwO69juR+FpcufaxZaKegdffi6eGzz8HtgVIGxbasICxEGMFYVmW4r4xsdrvqvjBl4rxAteTjhnNdwubiJptcXLdF1S5EjbQUB2jV/AgA6F4eujcpSmbrPA4YNgMeFIz+NqgiCCe5FcBi2dkfX1E9qI2WNe82smBMZ91gO+BYe+yzQ/AtsxPuzxyjsapFlzUOLXcfnnZ10Okvwd5vg6qrvt66UHwyEa4rw+vm9VZSrX++vQ8ULTfdaISA7UIrLd6w9Wff7btZMjrMgKU/pn3+rSA0NcBOh18mvt3kwiuHezNBezZ1zbQ1Eb3Xvo20oaMVjp8W6n3Uumi+rZcJ25ev2oXa8+utivfvq2tWtVY3BxM5mqd9vbWlpavj5pfO7Fs3zcrCpf+kPsJE1XMa2ywkQG1JmoewuL689jk+sttAZPEFWpiw8IPOUJ4A7C9Aa+/UcDrHh2Aar9rwFaXA0slkaaqBU+Lejq7Tlm75GNyrQ1c8jFZ13dkPTDCNhuUDV+AbDpIAG5K7vZNzXz4QuL//i/k6Mm8yUa2NePGK27YlE2QJcBUYwNg8VeOAm9L6kRcOnmGssIaogfKpIP9ApIjMbnlSOv3CjIrm1wH0DJQesZHBxRmalwDNXqWwdKP3NR8+mXz1hShT3NsG+lBQNZNI3VwVbBObdgWeHAB2hXU2J/99kyYAeDU6VzDSnpWFy2Yb1nNWh9SF1S+V7a5NXOIlvw94KtgwfNZfRp9fdR0vXlCSp79bGq9ucbMpe7tOXh9PFit9Sdlrb5Z27qw57EH663ukcjlmU11+8zrM/KmMj6fmu5+AgLYSkfPJEt6yaVZ4/h2Vevbyt2CWF+/BkzrO9rXRWvaYlLrMTUA108y6vvYAmtNwX2rE9I2n9Z0wfchlT2WFNq2Z/WhenJ9hv371U5auvzLa8vKAHCxOAPkqHVL0fq6BTp5Z4Dd85A/8axz5xW3bZVVO95kX8Zv/6MQGtZ4GJD+H/W71jfSHSDJqWlMDN0c/QDyenlouORDcjG8l3xcKENOWgMM6JVRsfjizeqH16Ma9aFoO3kBMWd4+0EPpFiAdcOdNtxeHmIvhiTmBcjtQA5In42qRlI2Qjpq1k7aDZrGFiXHdmknnoxNYwJT4RcAiLN2lAHarrZpG3NiY3ZZPrRMomqknsFtAazl54FhYZDgB0q7HruC8mklX3YXVwZ7f7yn3cuAG7yjsti9Oii37FNNq0rkV9bK5ZlE09PHaRlMD8R9mZvUXfixtwivS/30y8y7WFOwG5e7Bd29vhUcUlff8cazMWD1E4EeGHes4C5ue72fmMh31/YbkFrz34NBZ5IUPN8ap2+/aK73wHU/wUmTtmpts6Y3MploVxhMv/ZZtc/Y0pM+sJSK2nraS9SOfFn9O8w+Jxe3nfhRCS8mB74PdNmCASysZABBmV8qqcPusbDFSUGweckhMBZs+LSuwMN5YXj/Brx9FRIDjGKTy5AxgqgCXOh4gYRiFmeMrwHetKEOGpdc8pxcgPeSjwktGXwDIOYH2KyHXsR2N7lOizxstI7W3JatwLKIrdfrbwX43m6Q3nTDbV1xXxIybnjodojauddB3ANX+RBDAtqyssIC2ACxy4WyhH7AMKjHQMMkN9w0V5thh2pdxmbb64EMBHgbweHAjmfC6kAZALl6twO4Fq+aFLQMsmObOnBTl357HdqB2bOKe/ZvD9hawAqnax2YK3iKgKdPp2X7mBkptWUC4I4ergN8r2sFE/EpVZWR7AGWL2sLun15pLz99bZ+WtAjrKbYH49BkOlh6XuQ2QOz3lbXg6tqg0ton12bdwscWzMe+/RtuQfg3jzB2qYHvhIP6MG7B5N1gmbtuvV+4MFunahVwGwThv6ZWPmqaU7fxuu75Sd33pzB102bRg9MmzWnEs6n05tKtCYvgyOYXQ6eR4C1W6pn/Ujr8nrLKllWXRtdrM+kJOZfLv8EM/3KzvSXQMy4gfECxqftXdjd7Gx43/4AvH0vv7etHilM7g9AcUVmAHfRk9f8LCslubYzd7nkknNymTRc8jExljYZ6DVwa8iB9IhIh7ISaSeq3bAdLckEfPse+E9/Dnz7bU0/v+Mlr/i0rrjlFSmv4tAcap7g2Bs/DGUwKGekvIl7M5ZOmnSkTZyRcsZt27BwBpkf4ZoyWAddBmMD6+BTlzZtYEzQIjOrK6CwsgQIl/FYgHYFrj3gqYNh+RuwQnUJuGXO6sDdAkGN5dJv9WyBRL3eAukWZFUQVXXutEQF6i0Ia/WsYKOCn6i87bP3ZbJ7eyCWSvw9e2ff/YSggievqwdrdr+fyPjrre77Z9CDTQM91Qykhq8TBT/psWV8D2wRSo0/dpfW2iV78NbquC9HW6ZaRx2ocnVc266Vqc2nfzZt3i143Jdnb67TTvYMyPrn0tZla1rgdeZdms272j1SA69Nne7aoO09CISdd5l+cmz9q5YzNfVi5lut2dMGLm7LrM9KqgcxwLneN3o3I5c6Y97AnEE5475tuOcHPq1veNlW0PYO8LvEzSvw2/8L+N3/Ld9LZeX62dRV1nGkY3hh127yuTvr+ZJLzsnF8F7yMclZNg7QosB2kU0KdrywrYuVpT+ubmkIQLbNbnae+gr8zZ8Df/Pvge/+CbAkID9wXwn3JeOF72C6YaUFGxKKsxpmZK7ez6wTlw47qzsy+dxIvDJYSOIkwFiZjbqrDaibRASg5QLc3Y5pbu3esl6zDyJyeEDsjTNR8TZho1fDyMJMm3u2rroj6pfNK0OkaXT3rRx1wPQDuuW6j1Pv7UFs1cPKkNEP9G3+NZ6/532Q1vv7erFyGWDqmUHPHnoAug9rzzAy/djXR1vOfhLg690DwzadltHfA1wrm4Tt2chaFq9z3QTVhm/BZFt3dr81Z2l1MTthH97K0qbtJxyzclfG0sLUSQe5+m03mFWgWidvVY8oTmuHXfPsTTEMxLbHcrfl8vXnn7uf5PSmJj1A78F613fUmqm/qEbgGrHmrd1prpGbiU9JjdvyA7UbtlCsfWKydFU/iSJKLm7SlvX6omCdOOPOjBtnvPADX/iBz7zJZjXo4RE//hb4y/8N+MOv9bAJA+ZpX63lz9fOIhfTImTJcpO43Dj0veSS03IB3ks+JuYuzGbjdi1lBbOkfneTgFdQXc5qsAEDq/Zfv/sV8B/+J+Af/+fAL/6JYOf8hp9gA9GGhAXv6YYH3UDFBZrZnRFSFmh6gyynERiLAUYGkroW4ySAWdgCwqL2wYAxJqLOxowFhEwELqOmqc02BmksxxJZIR1oJqi5REFs9tEiC6bOWwPMbVpFen4cZBskGtxYB0w/MEdLuy2I69KFMWH23d/zYATl+36JOg7fLrn3LGENWyYODUMXm2+0GI5cGWv+bbwW6Hjg45lDbxu7M1UpaZjrqQBsOKDe12OEO/0yd2tG0X56MNlOeKzsPs3SfFw69XfdZOjbysg2eWQvHEkFevV5Vp18XrVuzayhbRe+Thtt3Pvin9tOEwbqJKWtQ9OtZ+nLpEKbpITJyLnWvdbUTiGbvJrrRElGJ7wsqzbezWFmdtpkhEv3DN2MW9tFmSSzAFjzmpBRN/lKFqwwknXVS3olAhuPCugVM4WwvQxmInFjIGWJc8OGz3nF5/zAnbI7cXMRAuOv/g3wV/8aeH0F3ASjBbsMsO7zWMyWFxI+JYBuNXMyReiHfcVccsmxXID3ko9JusmM+0HAbQHe1U6XNgG+dNMwL7Wzo4RiChFJZuDX/w741f8O/OwfAQsB6wZsr/iS3rHghvsioHfjBTkJgMk6GiUFockB3qT3sg7STIScCYkScjJ7toSFlaDWpTRm8dbAJJ4bGFDQS90Iq4DUA6HynyootkGzZ0qt51fg4UHVjjHqgKODQqJHAXEDZtFGZxXvcSJmH7G/71m7AmY8KPPgqCtrw0h6HS1uxKbtQW274aiGaa/bJrtWB+9LtmHWA7vYXlcPlEWP1g6WtfAlVnmm8cSiBewemFfmuwec4tbL2HQHuqjWTc+g9vW0B5eWb2t2YisClSn3+fmwUbl8W+gnWy3IrJvzWoDvXzNBjPLRgm1q/NZWkB61GS4gsoJL3wYkw/qaCihNLlhz2pgCVf/ulwwZ2Ni8cVRQW9IHy6E2NlGq3Ultf6YDybsh4blUoYFYEKmnGQlvh+WIJ0hZWSrzdf0NPckyaXsQzzRZ78l3UNIug9QPpBwEtLAcHXzHhk/bQwArMcTLgtre/v7/Bf7ifwW+/gbtHo5OfNUtLzpe3AXs2l+ZzSu5ki7YcsnH5Go5l3xM0pKw3FB2QCRdftp0lFxuwO0TcPsMLPe6LJXjwR+AdIyvvwf+j38FfP4F8Cf/FYAb8PgRAOOFCC9E2HDHmhI2UsCru6GTG4RIvTPo0FIGxLwsYAAbJ+S0yJlAi25rY8JGcn2jJPGo2haSMrVC2LBjbTS+dvploFbEkIic2ZkOyLbb2YCGMj8yZpmHCHHyjsxoydlqFpFh4CPrIGggWxgcY4eZWU03nDh02gAjcvaENuhmLoNxUoBv7FRlozy4sudcne5blgamGtYzVbBRyuh3ouuj7cG0X+JvmhJVt1GtKzIPDpsojW4V/Pn7NY0K4rxpA3XhazojcFsBrWc/qdOlplUBfFvfsuIByAa4+kyLb2j1WGDpV71twuHTtnvmNq4HtRW0+vSacnuQ1YDmPWBtQS/DP9sCyEtampceXcsKytp2YMDSdOSiExerVv+c2KWt5VdsnJR5Le8Ol61btvYi/YIlmOrEVlq/6anvrLa9wnfyJiZZJKwq59qvgHOJYyebgXOZiMPaYZZ8kvEKm8RbeJNPko1lzIxF8068CmGqG8zs3bppvVKZqJkQUs5YmJGS1j8ygAfAZnLwAtxfgD/8J+Df/ivgr/+N9Ome3fVCJPeMPFledLwwW11tW0k3MScooL5dNryXfEguwHvJx4TSKt4Y7gAYSC8ANvHLa3a9y11n7C8SLj0UIBvL2wFfQ5N/82+B/+Ur8Lu/Bv74XwL3T7UTTOIvd7HOMmeYy3MZKbQjtrQa+4AEbAKUMydkWmTgeJDYBVPCuix4TZ+QCitNAqwhgwwDSEzFmwMxCeMG8wlMJZwEkHQ2A8BWTDCQ1XKODKQ6YQG7rAMr5Xoys5E8dmIcKMkBGpwVpKseyvYAOtcAlCVy95EKWJC0JXE/1rHmY07qjdiT+UUFJ6wDJcgmCgBR9ffr2TsDYgkQ0FJ8p6I8y7KJxgCbZFTCkU5wOlzaNK3C1JU2UO/1O/+Jc9G7grpc0jG/rxXItmCuS76pVw92xU62KmrP04PsCtgVFzA6qGZlUsZSSTjAHR5QAGMFHElXKMzmtZ+AFK20ntmeu2MImahZfvfMty2B96Y0pHFzrQYQPAis4NfStDayGLgjbX+l1Pqcsm7qMj3JgChbDUveMPDLJaoqUja0lrz1nTOcBah9s4FXV19+8msdg8Ft2xtQWHQFp7Uv0H5Di1hsajPD/CKQ6alvPTFAWd8Sm4QqaF0UKIOBe97wKb/jhVcsebNpNVIWEzFYWDNFICpxy2Zi//CtwF5hMJDfJd72AH71G+D//B+B//g/A9s3gO6IRUorLO5dxg8bL5Y7ZIVQGeN0F93SDUifgOo38ZJLnpIL8F7yMaHlVTqmFwiwzGKDlbWDI1KXYy/A8gW4fQOWFXIOum5sYMbexCFJWr/9D8C//jXw3Z8A3/2xnMD25Tvg00+Bl0/A5++EQWZIR3i7o3iLAEs+ydKzDlrMFZYEpLQI6E1JbdZuYCYsdMOdgQULsoIsIrVysw5eR9+1XNNNLBDzCDvIghOB8waQMETevW3L8i4Cmhq3UVKHyYCPggnRQAYugjGtwuoJGN2KqYJpK8wR9LfZExvysEG1giQ1BigMscEMDalAvwKc6ipOwbKxqkBTHtkoo+yi5r4BSLw51/PkToWqlpEGWOy0KgOgYAEJuehEClg0hQbEZbDNhRxDauy3ld9Lyw7r83Fsd87Ucdj+oIEK9CsLWcM5zYo+BhAbMw4Xure/tZyZGf2bJOWCsOcaJ4ORpCK1vbXsrOXWuLNiaQ/MgoMoSyXaRiayySVs8ydK3Vo7YZd6tXYWACwn1tbJBREVTwnl9C+mAugJrn4h5baNpwwzQRJmdtH3xLcHqxf5bQZR0pYycVnW3wwgau0nzSHZc7V4VtZU8yCdyKCmLuGK+zwth/UNLGwyWS2yrKQQgGReI2wTbmYs5W0EEmdkGHsr9rmJs2woy2/i4cYf9MObVoRViAFe1I4iK6pWO1/kDXi8ywPZMrD+CLx+Bd7fgNcfgNfvga9/C3z/V8APv5J00wDsmt/d5SaA9qbMbvqk48VnITmSmsWZWQPdxWUl3y/Ae8mH5AK8l3xMSGfoRNoh3WAMhLhDICB/Ahb7+wIsG5DfZGTIq7KziEFvSsD7V+Bv/xz4zb/XTlE7xttnAbz3L9Jpfv4Z8Onnev+LgN/7T2qHunyWawzYMZZ0u2GhhIUITAu2RFgSYc033OiGjIRtEa8QjyRDD2UqoHMjYZoNEIPER/ANuslNS5IhwLeO51yAtIFHRYnqGojK2EO6rMdAYWoBGyhloE1uOZWIHRukYRT7e8qWdYAlZZCT6Wzu2wC0S8IKMARpuCV8CKvsWUwjhBx0toHvAAAgAElEQVSjaYDKmLPkrot/Ty5lMNDS2tdC9VOwn129wWyvfd76TLLBeoFYmY0RryDFEOhW7Iu9vaqd2qUgOhtYr3aiBTeUIjmTAgVMOasv6MIKeghr+JDd9VzZY8AdAsAK/KlELyTvvrrV9ITLioQ8xzrVKfbFyuJJnSnb60CqZJLqwQMw9lMyr4/KJkH6zdGgtqrgJxoGfBPEpraC91I1AohJQbDVuZoHWBmgT8VMe/QJgRjYqLRi0UuZXD+dMBt9lLq2VmMNCpXZ1XuLlZetHUshy7vj26+b6JjelAWgstHI2nYEzGrbIWAxEwOpDTAy7hlYWIAtCLrCJLa1t7zhZduAvCLBgK7zkMA6w8ib2+mWZQnq8SordMzA45v4RN/egccbsH4Dvn6v1x5ySNDbj8D2Kn+Ph/Tp2BTNR3a7RjrchBxJ5rP9M0CfZZy4fdY+/AWAEhlm0mBjDtP3QeKXXHIoF+C95ONiHRYBdUMaG0IBNmN33+VvedfO1zw7rHWdPtrMVpZiWTrc9RvAv9d7QNkksdx0OUyXxu6fgPtPpbO8fRZW+NNPlTn4Um3N0g2gO2h5wS0RcEt4WZQpXsSuLNOCx7Igs4JaumFdxKvDRgu2lEBMeNCCpXjBRGVjiYoLtmTLtyAFadKJZxIGw9gxBpCSmF2AUE6OywoQmagBBYZ+kl40LFJ2WBtp07CYBnptCG8PtzDEJZhFgQQbk0atA++cC8O6lZSMnVMNlXa18leIwSUv0VHrgOvSdUIqg74HulY+Dzw90C7stIGMSmNVRlc3ApnZgNhLdoDIUmJne+mmNPV8BSqsndlYC6AjLXe7yQ36nOpvA4OsJiqs7HWtT+g9lM2a1ZQBWt/+2cjqs7kKRGENrR4TnC/UUhASX6xOV+as+Wr7IaBiNdUb0k42iBkCZdImbulJHur1qkxu7NnW6Ultp7aywanWJdnDKKXSbww1S6nXywSHXXqlbVQIDgW0iSvUL2ayOuExdtbKnNzkgXQylfS7TLbYPQsq4NOewWIgn0stq/cEfQakxlqcAWQseUOCgNrEjHvOyuauNR3e5G97aJ+agceGevLZG5BWOfJ3fQiAfbzJiWivfxCSYXuX6+/fgO1NQHB+lw3E+aFtpCwZucpOaM+m9KIgmLRvLeztoiD3J8BN++jlJuCXlhqObiVezrQOrIIvuWQqF+C95GNCCcBdOiFjrbJuXrBufnmp7G76Kt9zBujhRyqUdU0HM/ZiNrXd5aydO31rwxJQ7L6s47zdxQzCdgPfXoQJvn+RjvfliwLie2GTE2749GLLa3rdgPhyx3ZL2NINGy14X8SWWADpUoEsqcs0StiS/C1kp8ZR8Q1Myp5mQN0Zi/2wL3g2cwW9nFiAbDZ2ksTtECtAZwceksY1sMOUBLRAgLkwzBUwm3sjY8wWY9ssjUrgKQw2UNbAEM3NbIYV8FL7IAuGKdRm3UWfqS51g525glxsbFaN4abkTTcUthAKEN1Ki6K60qCgCVZ+rqe6GfPtbYH9NQNGFhaoy+wFHHa1YrCrb9KK4VHXAay0Njm09NnH0LwtTYvFoJzKkdkFX2ldWOzsUzFQqysSIAPy/n6tJ6tnY68Tqhs+qXQDqapR9pATLfg0WlsVrZu77MMmW3K/6GxNilGX7smwrng48BMrtTsok0SrXgIAdbtlLqKTe84J4ntbbGGrja2B5gUAdLMY6TtjqxNmzy7XGbcshzfctq08dDtYZ5G3GrKBdC2sLTaWE8t40weyCXjlLO4dDaCub3I9r8LEFmb2qzCy63sFtutDvm/K0Noei/6kt2bz2aA/HomB3ZsDummpY8Tti5g0WB9rG53xomFTAb+MC+5e8jG5AO8lH5Oc38XvjW0YSwCtdZDMxv6qDdZNmdfsmNyyHksAL/p74rZsJNEuYANP+a1eK1/rhjTx/QgFxffKFBtbfHsRm+Hb5wqSb1/+v/buXlmWHDvP8Adk1T49nAlZCgWlkCGDLmXpMnQBcnWvugQZMhkK+XJITvepTEAG1rewss7unp4dosN4n+Cw99m7Kn+QP1hYQCLXOp8/6Xh+03Gsm/IfPr5FJuLb2q0eTyhnluKpqaYrxg2fj0c+EDd6l+bKFo/WMpCdvcUcwTFjQ/m3YmzxmnItMmcx3G1E+NlmzwBxZZNbDnUYfqI81uOu8x6VvCIj3WLaNj+Ao8hUjhkZMT+AM52FUwYXa4TxWPvWZgbVfpDK9eVo5cGjGCObIduM4SPN4zhnNCpijKreAiEpxurGA39t72fXKqM5IjCM4Dr7EtreqD6nRhnz621fRbnHhXofPDxDXm5kBt3FXYMzPxDU5s42r/XH3pQspvfwB2WBuXwHbm33GDR3M5eAt5XueQeW3lZJuzzqamvGM/7oLPAR40glZe+GZx6QlLOJ+MUJbnT9mG2NwDy3r6kcknV+zfJgnjxOV2s4hh88jA83B6hz97C4bB147l30OTikPlYjZbaViZ0zzl9nUv39oT4cqK7r4TFGnkdH9HmsxtipQ1pveBxjHZdrrOB1nBHEnrvxP17RoP8eQwauGF4Qgez1ip6vCHBf5ecRAe041++mX/k7tcfsjls7Snnko5/g12ZX2MX1OwLe1fBemV3fD5259RC1Ol7Xn+ml/niUh5a7xpzjNyY6A34VAS++Zl7nHq/V1o3pktZd0G9fK1PNPH+Wrp9WFiEqkDV4LrIuR4ubfnurZT9btyJl9nta+r/xmTnjpRfu1q1Z4owM1s338HLixt1jbFnORNFWhuLpG3iLLriPldV4/kF6/EHtmno8P6THN320Ftlkl5dTSh9RhooKIGqV2JZ8FOc4NGfXUI+HqpvOw5+Rhg7NucYjr3eBrEB7trZmRmhNI4Zcz+OI4Lk7Lbayhd1DLvZDay22ZRw9HmxzQD7Vx9wPGsU6jrHH+XoJPV9R5/GlIwK0ntPL9dtwixLSxqT5azt2hu32gorpoQQe4+zaecZY7PK72/m2xxXvDOPObh9aZXNlxnwFPj0aAkeJUT0O00HcaJ4vdeo9WKhjmD3bh8NCB+VraHzLISpdPabCm7nf+TY2B46xrJxmuClm6ljX7boEo6s/5rNtc+YUe4qAdMaEJ93ricU5WL+0yqPNdRwzUV+OnRsB642DygcRR9Mt6O9j5Ck/WisNljg+c0Z21dnsdUX4u+ve4oZDZFXn1DEuHQ54x9ARAavL7hiKBtJLrV0ruD5jqi519XnpaEOaQ+0a6opMq9cp7fGyGtKM8bB+KcN1rvvNONdnvv95fb9d6+fztTK0l4d+XdL3n9fvHLBmsLtevb7umVIOZVgXyFsgWk+0mpntvxKw/n/KoHrMbQ5jqEFsJBUe3+Le6Gc9PtbnFXO5HzHbj5/r0NSYflMR8Nch4MXXuP+wRwvegeoc0nxIx5Q+4rPjihv5a92o/f0RwdUY0hVdXjOyHiUP9OO6pV8fK/abG/0ryzz+cqbiigB7nhG0//y2PfFDDGNYmxc3/N72kIimuNk7SH5G5uNjP8hxxNhjZ0Yez5hvSFI71GKYRjsOtf5Ub8cq/37o2zPmQ1aLYDmGdEg7s9L2stQfEdQ+1pCL46FrvYspAuOmOVeW6mwestJ2IDJWhrm1rtlXRnRlkbU6Zvt60cfsMWtD81P962E5vyJ6PZnvkDoeLJxN89B+QCnmklWJf1pkkS9FhNWie91BdVuZ5Xr0Z1Nk9mYEnxGwugu3zdUF3tf0d9NBqvOR5e1bbUzNY21Dyzlac9SvPGn/HCvQa2/BiPdjegjG8IsCdk5z9sjeXrEHMYbX5TkddI81w8UcK2DdGdXIy7ZVhiuBFz0J8eDSVFOLXvKhqaeGPBevYmaM5pcfxEb7VdlSW6dna5rDc8eWhwxbkx/q9IOeOaA7Q1apxQsN2hjrAUzFkJre1S4fL8VMCnNlSefUoVPPK0aPtxa9TGtIwHOeOsa5lu1Ac5Qs6nXeA8XpjGsMM7gkvc59nY/vEXhG9//5y7om3Hi+Xuuz1/c1q8F4xf3NwWl8Zs71XUXAPM4dvOq6P2Tm8ooG4R74XQLW5ozsZzeyv5BA+Krfume2FveKeIlEK4kCJwkeP0kff7OSBN/+Rvrpj2tY2ePbavTn0If4fqxwjPnP/zI7hH/tCHjxNWOszMRU3JD6DoIl5fyJGpL+GEFv3NydNb2i1T6uyHA+189HVEjZL9n2z7fHcvyZkrX44d7+e2awqY9X1d+9LaeV39f1tF9Zjyura64uyR5jKiJjtFJ5ZV+y0lIpT49fixW1yPj6jUY5T+WxstDdwW3fAbXfTNRjWh8vP4ZutOPQoTWk5JGVkbMq8WrPueagyAZOk/bkrKVC8mtAj3iApU2t4SqRKXYQHZ/b2edYRXNWNh5kanWc6xFHZgdds3XNI57gby3igalzOgjtajrWOODuB4tWgNiumJEgu8D3QT3meqDLr6HumhrHseZH9byvDt56zDowm66+GgBXn2tmvNbjIaY1HVgfU62tMaJrLujVOBi9r4aH1tjQNpv6bDrmtbKtzg77AcS+yn/GOIsW40uPMTObnDNWyBnUFQw3NY3SLpKkfvUI5IdmiwBXK629x39rBZ5+aK0da0hOZJk9jnw9mNbX8IFravQViPY1JHW1c+caMuD5ndd41Ut9jpiB4Npt3hxLGjMO5LCnmF1Acb8YiiFTY91rru+RZfUQAWdYXxF0RgP2jCB1vGIca5wLc72UYQW3cy17RKbVsxmM2IEZQeqIxrrvXzlMq62/97h/jVr4Kso1L93vqXmDe480PSK97Y+pfO3WyCoPKd7Ue+BvZXg/6Vn7IfBt5R7VtYcluGcsHlT7+GkFuN/+GFNO/iF6A2PIWI97lBMFcS6M8f37b2wg8KsIePE1HneWb8RRBFRaN7sxpX5J86d1j/w4V9A35w7s+ofUX6vyOGKoQ2Y6nNGIymK6YpHuKbK/kL24/b0EpTlp5tBtrNp8+1z+3oFiBKlZqTjz65o7Iomsl34tDTLvdVc+tOdMubf9vG/OZ/ub3c/OUDqaUQmc3392xTojID7W93sJoj1bhSsc77eHWXSP3Y4Mdv1bi+Dc6x19vcyjH7ucPFA3A/rgYF3uni7jrJ2hlJRzLbdoNLVj9UuruZ987UNkNLPRMFa4ut4KGL/rcUyO1W26ou25upC9n8M5R8W2N+nRIuMX59HxUD512B1otbJ/czcKFIesOwCK7VQ0FtTWteAdfsS+5xR1M5Y31lfOCHyORwkQHIT1FRcNR8DuRfE2xvLapRz0mq0Kb1tsp8crxO7n7Cy+dlqUl+d+9RsW54wA1Q3X2J553ctrapXpjMBxOOvqbY2MqPfN02s5kzrHPZPqIG9E5tZZ1Ny/muEt12V+t+3z0cde5dzxtVanh5B7Q4ZyiFdeuv7cZw3tcoz82R9Gi3sZEYRngz962nL8yizr/GEl2jtahzns3clg+9a4/+R+diuH0ij39eBepqMMA3t+rMDWM+g405tv5vQ43rgPjTIO/Tx/TxYD+AEBL75m6ucV0HiIgiIT2FeGsEfFOX9aGZTnc3VZOVP6eKwuvyu6CD2Njsf4OpszI6OTb07ot424B6jlRv/D9tbK+y3I9Ve9H1lx++dPKg7f+Ge5hNpbxZdBmwPA+JsiVZf74krEmStna0pgkPvuwL+VbSifc6VQ98uDWr1f+edXlEOUeavlGP9xdr2WV3OjxfujHOqw/l7Ltu3PStpdk64YtQ/b21jltU2PXa4OpFpdlxd87GXkd9vehyZJj/1dP913q6zn7p7OdYwdvI+3bXag1p77mHl97hJ3QH47IHFMXGYxRjoDrhH7k9uiOP+j+7099775HMngJ46Jj7nX5UaZj8kccbzLNebf39qIvu7OXeYe0Fu3ec79fW/W9FDLej56284SVJc3L9Zl1aB01GWU87nOJJD75+9XJRh0I1VSNvx0Kp9FuJ3v8dk8h+6788P1JpXjqbhW2r5OMpCOz92OU3z/qP8o9wuV5ILn1TjKca3rUaz7FszWHrFPAl5/ro6ZvgXe5b9trg31m1xcjnVoRY7Z9VCtMtPNM+ZG//anNZzBszccH3v+dMXxyB6mda1c8z7nCfB7EfDii8bIm3d2s0dAcUV3ZD627+7zc93oWouxb0/pfK6KcTgrE+PsVLI67i68TZNTg9CSiVnbdvtYvi2offa98mMNcD/z2dRpt4ohbsye/cAVUGY8o2Lx/tVM3yx/9/LG3JWH5v53i2ys5z6eisCwR+CzK4fcjh83tgRTKssb98DBWSOXqyvorP+iwvc6pQh0nO0pwaTLsGbIMlh/71L13LE1MPFmlaDff8vgIYKTed4D4wxivfxPsuHe7ZgxY2UdHSB7f32iRGNvzn3e3xJx1w7Qc+FlW+bY101m411U477t/u9wJjQy3jUI9Lbdplib+xjfDkM92UtWNRtQXv9RylHKN3TdAjj/rW7IpT3Gvqyrve2Pf1eDqqZy/h66lcEtQGx7v34Ibt8aO+nt+vL17J6IWc8/3y9KT1De66Sd7fU+HLqfvw4E37KnDuSbtJ8dcPl/Esfl94597Op2vX8why/4+Lx/rgTO/pxPhfz3W3nm8j65Fm+9R+4d6ns5dfaFOob3WWe+ic9M9xaV+sTTXvaZ97rx2ZztwO9AwIuv8XQ3re1xoX5AqzXp5eyCs3KlO/wRY3u7Irh4Rd0bwe0Vk5u7khnlZ5sxo8MtKzR3pTBLRZuVVdM9o1IDPlf+2pV5Vpg1WCvBnj803/6tsp4MavafVixw7N/VzGIuPALiDAq16zgHwc6A9rdscYvKqUn7AZcapPhXDkQkzceubGomTz6OkdF5Hy94j6S0u3UdbJXA1Mv0EIQauKhpv3wkfm5SZmJVjlUrGfoM1g+tMeUOrNou++wiLmM/8wG1Ur45t6mPTZx7t9Te2IGYl3G9dBtuk8e+BuCxbDd+ahnPqRyzmdk6L6scJxfAJeUDnrdAvnxPbrycymDpFtB+loWPbZuv+/HNt2bF5/JcLZlSR5/Z6CgZ9PcMt8/bGmm1Eizmx33e1cZCWc7uGoiyjusgex+8inH/bgbDpUwk5XG/ZTj9975/duAraTdsymdcBrn93j5/5j0I9TH0cKjS4Hk79PnZclnffyj3qwx6axH2H//mH25BuPZ2lhk7sgx6Pb5xvvl3rgP6IbXnDmA9W8Mjpm48HnuYkZr2UCbtoQ8tssg9hiaNl+brxUNr+BICXnzNNSS9yqsfJTkL6SeM38fe9Zhqa849zlDawVp91bDnpXSln2P5InNyy2TF72tlOE7tbubIDmQ28n36Hn/m3DfvDII+6TL1NmQFX9ZbAx6P36vxUs6J6gqnBDX5wEutUJt2tsjfKxW9A9Lbr2tFF8egVrR7DqwSmMTQhmwk1LJxY6PtwCzLr2xLBkGxTe6KzODUQa6z221vQ5vK12lJMXZPb+tyGXqbHUy7gI9dvu25tz+TjaWsa+Mng60y5CEbUl58lJ/Pybr/2SBp5TvO8kXma55733JKvRKctHINZPB73j936wFo0oggwz0Y2b1cvjMf5Rx9C1ByyEEJZCRJLvu3wLS/Bak5lt3ZTZ9fEaTUlmE77sF8HdKTgVic/xnMX3tbc3u01+Xdqo0X/z2PQS03B4tzr7Oe49I9O+lzPpdbA++5gzjfe7ys9yA0G5FuFN0i2F32/tuM8ei5rXWZ2veKbDxJ97G7dZllO+Wy876XANO/6+X7eW8Y5fOxnR5r3lxmfZ+3TfK84zle3+elhza02F6P1fU0bOOSZrwGfkzFlCWRAR7SeGmcPLSGryHgxRfFzXrU4E/KjJq7bZ3Jc4CaN+l4mtqZgKwIpmIuqvVfP6zQH9oTpyuSITXLMyKTFzfszCA6W3ftwDkzPiWgyaC43z8vlcrbAW0ZW+jPZoX+2fCyUhHFbAi3bG7TqkA8BjrHNbqyL92lDqT+0lyZNSuc2V9330cF3et2OfPqILD8LV9QYTVAuv1B+b7ZDNxd8ToY81dqZT/eyiT232WRFXOP+ZqvUh75//RDgyDr8giMM3CY+2/TZeysWt0fZ3OjzDLoUVmPyj5Gw6L7+HnTzvJ9f7cEcy0CLmdP67F2drqV378HNW5kvB8TX48OtG7H8dzBTY4H9+d8jkV53orF54cDImk/YBoNpintzKe36Sr772NQ9ieX5eWoHKuybU1a42z9/WhcZYCrct7VMilBbCufrcOOvM8trkOXewa/xfsQmTZ2mWQj+SgBoXR/GK38vi5T3r+6/T4ecT9rc98vbhdVlMX7g7Wa+/5UexfcGHPwmQ2Vsm3e997LcTv2ueMxuy327+h73fnKwa4fGsp+H3YNxD0rRga73tSyzVMa8/0VcMDvQ8CLr5njH/PnWilPB261Up6RvIkMzvq+duAxo3U/SoXvm7DWz+8ZGFfmDmDbU/mkvfRWobmiiM/7CW+pBFnO3vn3j3ug60BQkvTYN2dJWbFlIPdZF278KcdV1pqvflbawV4NNkpwrOdert7KOR8ekm4Pe9z+1nYl5e72XMbQanA44KmBZSnP/PfcAVyWfZRJzQDfumEjgM8Hkt7WkUXtbG38spV9qQ8I+svN5VszyKUh44eVapnmSyAisHUDS9IeIx0bNNreN3eh5+r9UJvPleiGvZ0n3sn676v8s2Q3XdZZ4ZeAr2YIx7n/5q5kH48s78cu1DwOkWGd2mXgHglFOWrEd7W/WwKPPLa34SGll6RGynmP8Hn30K03oLV13vmtGnk9SvuBshIYS3tb60OoDla9Pfm7ucthjn3e+nvdQXQJ3mqw3Ocuz1ymCyK2N8fMl4xm7eG5xbflutiFFz/W4N8NsTLW3A2E21CWEhg3xTVc/lazxfm7vsqkSXtMuYfY1PHTZZube0HG/p3PW/feeT99rs6X1j2r7+/Oay1rxgwnnrM97+1lpocZ2xcJCgJefBUBL75uRqXprilF11R9Sjnrg7gxjtUtlTfz+ppLV/7OcOZY2nitZj7961dQNu1pmuImnQFPqRCy69qVYVRuvWRjprSHMlz73/7b4cp97v3OCrkuv47NVQniSna6Zk/zRwc1JXubwbEDkbrQt4B3RmXnrG3GRA74tSu+4a7eEsB4sT0aB+qrzJ0VvGW4xirDVpab43u1K9bbuOSufJgpAyyt33lWhVsA4P2tgey1f5/nRpwXWUYtgk8HjbGvmbkumfOmMrzF5ddKsFODhGgYzKacPutyI0y767WOO/U8r7m9viDa27k3S+MkDoQDkO7zbd57SdzFWxuCeZydqY8yyukDSxnN8tDddPlFwH6dyingsmEx7teEvDuxDT0CrHzpa2lQZWbTx6Csbyh+9hAnB781Q+79fQ/CS1nVc6e3+EyZ9cTbkkMQ5n6ZSw7XKQ/aHd6Ocg76sxmwS3u4UDkn61CDdmgH4CVOy+VGeaiWdSs/l5toXqpxvWVQ7bL1dahdHjXAvS0jGhr54Oyh+3L9Yf/d52OcF36Jhl+SoWsHw+Msx93nYCQ7XE94iFr3lHaxPW54+VxwAqVMxTeuqxQk8PsR8OJrrrOvbrzd8pYzDzm+NiqinGc0Alw/bT5eu7LyzXfUqYxKkNUdMERl6C66Wsmbgxwvp04NlGPHalY2Ks0x15PEOnbmzFmIXPcsQWQJMnKb216ul50BUAlEb9ODRZffFZmnzNLUz5T9yVkOSmZtOFAt3dsuo3HuytEZmHzwbexszi2Aj/3IY9L233Le3tgfXSuActbLmUkfJ2mXoV8nndN9PX4cj+hylu77OLUbPh6y4oaNgyQHirXMeovhMA74o3z9uRHncVbGL2UAcjx2sF0DzjpDQus7SKxzz16/KIP1JmUw4nlkfQ5mQy+OaY7nfb0FXd6PCBg9Rt7BV26/s8qRwcuXLyj2J77X3TiIscKHhxD5cI8YPRNP0Xt92ViMdXkIxPQ5pn3NZbDoQLfvgDOzgtHYbTG0yUGkh/W0cp25cdVnbGtch4rzOsd378Nz6xXyv6fP5fjgFduT946heCWfcvaAPKfqv29p232c0hHBs2Le5/fAU2Uf/Ie3xmXe+upnolxqz06d3u72cKF22bsMp88jNyxnuTdpb+dtvV62b26loeFham446tjXf/bojNUL0mPIxnxpTevo4S5xbrRcsbLhnYmGqXGdvwj4AgJefI2zUj0CRL8daDhoc60ZPx89unz7Dhjc6v9h/NzY9zu/XEBtZ+OknbVy0JPZZd3XXccnZgZI90pUiiAugqjW13Q5eYN3V6hifXVcsJdRA8ZWMm5Zy96D61xmqaAOaU/bVYJv7+8t2+jP7cWv37tCdXmWzGvuTzmOmfmr2cVrr//2IJTKPp17P8coCeiacZqlTLz+cQ9ePAXVLQs/lZVgFq+PYfzseWedEHfFnY2J0hjLWRXmOu/qDB+ZgfJQhjO+N3ZvxSzb6IzdFcFoBhURoDko93k3VbJbDiKiUTK1PpcZstLw8LoPB+/ax/OMfWttBWp9RDAV55EbjRmExDY84hz3A2FDygPnhs2IwN0PjLnhUgPp2zy22vvixqWkHAPrc6aV86o+/JfDCOq54uMcgVIdTpABusq54P2c67qdp3Kmie4g8NJ+KLFcA27wHbGNOQzl2NdUDntxoOnrqi6j6xbYKcrWAXqb0XHS7+ee73cZxMaNz+Xp4LqOI87gtdxb8trxeqU9jvyxv5/7ULLeeW6VU80XXw4r831klgC0S80NpzL0JTPaPjblms8hRp4VJgLz7nPAu1Wvz6dyzvDWdUrlve7A70fAi6/p/cwK9nArPmQc2cr/tLNi+etowffIol7x2k4Nrcn891f3Az1e1ndJ8b71+mBFrSxvwbezUFM5Gfqc2tkvB+/eh5J1LDHtLWCcrsSdQSrj5lyR3ir2sQOm7ApVqfBKBiyD0xq0jbL88ruaCa7Tdc0znog+JMUcx5qrbOtDV7ltkf8WkjIAABQWSURBVLXL2RpcqdbxfDVoi++0epxdufl/paJ10ONstB9cqduRAVA0CK547esR45bHFd2gTerPHZjeutpjOTnjgcs7ticDUXfda332KhnV42Ot6/weRfHIr+8x4DVYdoMmymw4c+5j+xFvQtPqSvewg+vc5/CYe6jDjGOZvSUlqNFcvQHOHDq7esX58fhQPvWeU5fFuX35LYaxTGfbPR3bjGvwOHSb1SIbd34RwKV8uOx4RJAZ5d3LU/bTmW8f4/h/dWy1tHuAfGzmuYMyB88ZDEXwWh/mnF6Hy7sEg3k/yh92oDmvyDpGL0strxpk+rutjt/22xe9HjcS4pzLoRTxoRqotmPf9957N5LPaV+bpcGQ47LzhvDj1z1MJO+PEajnOe/5svsus3x4TeX4OMh/xnXyS9yPH3sf6/3B56TfdHfECyWyl8SffctYq+17vIPeHMf7lPq6PsdgDC++hoAXX/XzGgLgoLV2O5b/9RZ1UFeOuz2OVUEdUfHlw0muTEqWsI6LrHOd9m97nZm5KEGhs0ZZ95WAoT92xZOvNi2Bih828VPndSxwj4rGwVKOLYzt9Y7n9FXegOjmcwU0yn55HUM7aHBAUN8OlftSKzpngOYOGrLLNbJJXl977kqnZo2cocwZIOIBwOy2L5V3ndYoK7CyPklqfnlIqQQ9VV0deuLjdr3W+eAMaGZWvYxyjG7B5Yz9e0SPgZRDHEaU9+gRjNXguwyHaW4ARVlnsOkgPc6pK/5+xUtSjnjb2etVzvm5z6ke2+SuWJ8LIwJc91hccY6eQ/nQZY9g8yoBcGatYxzl9X3v75ByDHFmiV2O8W8PK7p8LZZDqS6dngLtubPdeQxim7KxI+0u6zyYsU/OqHqXfV1FVq+3+3a5YeJ7RV3WrQtfumcsXXV53Hac+8PBahzjGlC3MvzD2WoHbbfekXJ+ZsM3ro86xEQlWHXW2w2EOjVcDjXwcrzMWFl9aUXOQFEavzksyEG91/ssQbCvE6//2OXq49gUx9FDYMr+1QBT2tdzZoTLZ498wqwsP/anZre7yn7EtHz9qewZrOdmZrijnqjPYNwyDm1MxvDiiwh48TUZy/gmFRV0/UDeLKOS9ptzXuXBIb1i/GNkhupYTEVwKuk+D69vis+dAfQraOv77PONZ1JmZG7zUTobVSuneDAqAxUH8W3/29P55D46+5W1/163ujRe9/2Y2gFs7ZrsisC0lS52D02oBe+Mbgmwa3dyHR7iijZfn1q7PyM4y6DEZd6UT8Y7sPHsDeltf0epdB1w3bpnwxWBVWslmHdAMPb+O3D0quaM2MaNAUUZHVkkuS/XWNnUoxxHV/hHZK9Ov1xhSo+5AjU/7OYAM7vOa5Ae6xmvyGxGGVwRcDlD5Tp5eP/PlZE9Iks2Y1qwo69zePgEiP3ysX5F2TtT7az3WRstIwLN+O4Vx3H06H2ZZXsclPc1xCE/r3XuuwH3uqTHscs6yz2uAY/hbbGvLvscmqJ9/FpsSx2a4JfJZBZXeUnu09rnRpRv9xCb0gDK749ynErAWOfrVttZ//dhCfWhUN8v8hT3ua0d0OWMGG44xfJv49P7Xp4b/W7YmscNR7Hly2byUirXfu6fs671M7Hu+hBcvro6rjPvsxvomXX1WGivpwSfarunal7rfqmxzv9ZruUcJ92i12JGcBvl6iFoHjbiDPHzm3KMuF8pfAt2c6OyrE8yvPgiAl58jQOufDhCpUKMn/3CCX8hJxb3q4TjDWs5qfh37WzjsZdT53T1U9Z+kKo+gJLjCx+7MnBtMVwZTO1p0+ausGqNW6cnyy5WSX53vKT98M1n996xd1vSrUtXEaBkpshBnRsB2sHDLbDVroDze95JBxkOlksl7+OS3aIOMiKD3ebb8hTHxhVvlPl47WVI2tMYtRJEOZNZMlYZjHv8pEoQ5dUeuzFTAxM/QDWjAr9ajFWNj11TK5t87IDw8v70/RDgNSOWPGKzrh2Q54wGzjg58J67AdevHaA72Duj0v/4g/Khq7pPztbPEjCkyPI5WFGTHhEIXecOIBx4uRyP51rnqzSgHNjX7H6eaq0EU2Ot08Gixw67seFzbbz2dtWegOta16uXO+L8vbQf7PN5cWkFy3kuR7Bag2BJ2TXvIRKlvbSH18T54mApH1iUcr7jqwS4M8rMD2ferjefj135GmafS9lQq4GzlWus/ir/7XS5lxeNYZdfZm+9L638vkT4TbpNs+eyzhVGr0X7UDay23ug3srPbqS0/e9sPI99HmR2NdbnB0lVGl6ZUHjt9bRHnKexnt5270U+tBif9Qw6Ho7i4+77Rb7gpATpOdRCKg2pcc3LTzYDfxUCXnzNHLtyVt/dt1IJfKPi8bhAvXYGLZ8ijyBn9giA5z2Iur2a14Gg9r+zK9UBbfwtp6Wa2jMIOGvqf8f43VrBZzYnfnYl6QzubZ5U72vJsORn/QEvxwGi9u+8Ta6EZylDl7GknPotA1hXWq7Ea3lImdnysI4MmEdZvivjEgRLOzjM8oi6xY0Sa2V7W4zhXCt5q9QdtMRQhLqcUbJovSu7aF3p14e8XLlnN2mLjGF5KCu7Y50h8r6WxsT03x0E+ViUbHCP7axvSJtzj5E9HjkV8hoK0JQP7lxjn2eH/x3rOse64/pBzxFDP6aUQ0CesWAHsn5o7dI6Fl63g6UrMm8tlplj2q/SIxJBhI9Lfyin/2t9NxpdZPVFAdkOKg2i7jlVvV4HeiXgUVnOLdiX7nO5RnbaWT932ctlovs25rnadRuC0HyeaDfAPSa6DmfKjHhcFx63n0MQvKvePi/cwWIpB2nvv7Ob3m/V70vZsMzsqUpAH69/vvWQ+OdovPl7ee94Pz7entgmB/7Zs1Tvj3EPHNHLcRvGEHrTDg/q8Wv7XK3j5mv55fSQ2ueYj2GLayXL6O33x3tmOm/o2Qi+XhevFsaXEPDia+Y4s4IZDijm24fq72rLXcqxh9drfaZ/xP3cwXB0r+aN/Vq/c+B4fCgfOuuHfsxmuHKI7EtrsY6+t6l/SO21K57MxJTgN7fZWaOP6AJ2RXTrnyyVT6zDwzVqV2LNHtcMjyuHfHCmLKtmgzMQr8uL/9WH4TLQbfv7/r2z2LMckzljTHasL1+VO8u2jrf1t1VhZ5lHAyezxSUZkw/NtR1U5DjJrv0QjQMC/9zLNkv7KfG5/5YPiakE3LVLu+862pljH7Ms5jIecpTGl7fpUGR+XzGGt5T9NSJA7W/DB0rmOmcTcaDYdRsOc5RAxQGdt7+X4+4ZFg7tMfQr5a1sWORYdO9X3+txxi2PSd+BUnNm3QHm3AHILMe/udE39nHLBl1pSOT//KCZlHO3Oji9vbzEh8UBoM8pL8/XtD/XdGu09tLzkAGXj7HPd18HcQ+qD6vmMCBfo+/niM8t/6JkQf3fEedCBtjxez+kVoc/ZTnH+OIcWlCWV+9DdVyxyn2oNs5v2eH4fg7Dmspp8/z2yrpvkm7PDHj8/rx28Dzinp1l1ncZX9fe1uxhcK+BtyHObTfonCW+/a/t7W9a+zouacwxxqg3XeB3I+DF17T28xrr988r6/TwNF4lg/tZttJjb/PVv3FTbHPd8LtWBTp7GWM24+em29jWJq0HrHwjjgrAD0Rk92lU+M4+5StgXSm6korAIbv9XekcJbAdOxvlQL9mWHafrLKSW+W1vnsb66i9Pn8mg7hxDzB2uSuzNbUyzwAygoHsqneFF3/Lbnxn3x0oOyDTLjdXRFeM88yM69wBkh/0ypcLuIszuvOltd7epfbaXf3SPTBxEOtzodZp2c3q8p67O9r7erjSn6Wca8AegVDNorcWsZMziPE3b2OO94ygYsTx0pBeP0vPn1bXvR8+87H3VG2e/9jllgGtH/hq+29qK1vc4+E9P9yla5/PTdL3mNv31mOh0gg799hij4e8pD0LR2Sge2yHpMzO116aq1wDLo9sNJVj2x1wXxHs9Fhs29exg6tZjo+zlsdzH/t6rmagWBovamv/FOe/g8um0tjRDtKz4RoNDpd3zq0d21kur3xI0C/DyHP97XrzsIi90nLPaPuzo/xN5bwfKgHpW4Dn/Wtv2+bvSuU+YXN/v967HARnQ0S77NTWfjoAzntA7OvUfgFHXo5uSMX6cvaS2I/j0H2KPR+n0oDoz3U/zwcG+962eu+sDd/sKRwak4AXX0PAiy/53p7/56PNv9eMinp6Gqmz6/ouvb6vKZ3OX9b/vv/53+j1y39alWAECNfsGaCNa9183ZU8ImDL7OSlfABoDq3xe3EzzWFsEbiMEgnNqazYm+cYbbplIW/9uSUj51WozIF7ewuS/z7/XnOuu3cGU56qyRV8VAgOOPKNT64EI4gbw5VIzxcPmCtKVwwZgMRyne3xdGx1TLXKZ9y4cMbcy7v8+aicx/Uf1fTvotLtq9JyhVgCNT+Yl2kcRbdmVJbZhfxQTkU2ZgTRxw5GpR1A6+27PcpUc3eH1qF8rtBvQYMzf+Uwr3L7UGv/+faQnse0DknPGB7QSqB/RYDkuZGdmM/s7HOV6/Vay3m4EXbtwGvGg269r2WcJfM1o8yOuJ68rvbY65ldeni6vnYfPuEy93yw49yZ2gw4YltnaRipBDgZgMd3XG7+7rzWfnYPPYntHm5A9hJgNeX0ZNPrdJD/bR+zEdtweHtiPT42OQSpNKJqMJXHNgJbz4TgoTn58Kh22fhcuA25iWX5Adb2UD5A2cu6Wm3ARqBv89J6xXmUf8584nuL7yG+z/Xy+/ics663YVFlP2pvTPnzbVaKOkShvX0299HH/FjXZPPn41j5LXR+qUw+LBjnTr7m2/+J72bPRVO+YKhHb4hnZ/BsPQ6QPRY4h7WURkAerLg/tqazfyPgxZcQ8OJLPv7rf/8u6X/+lV/7H/8S2wJg+V//7e/+VvP1pwzy2hk9whEQ+mUitZtcU32ONVvFrUs//uv2hyLzeTjb689eGSw5plrrrsHeXqXaK2KkXj8d35Hcqus61FqT2kvqjz9pvP5DBmY6NHRp5cNLQOkM51iB6oxZD45PH0ar27njw5qlnTHLQJtTszW149FbPgAq5QN3kjyevfWudstMx85nxnyotabWWo/A7+/U1nQTsx/Rnp5RBrOrH5qtq82h8d6Cay1fJiwptjfWmVNFjt5alGUG9u+p4xFFG5M75zMDV+z7Kpc+pnL/IzZe++isQ4v/a+pz/Hvp+rfTY64joz8fp+bjJT1PtWP9PI8PtcdT8/khHc+h/rEaje1Q1+z9/PPof/4nned5/sP//cf//V8+P5IAAAAAAAAAAAAAAAAAAAAAAAAAAAAAAAAAAAAAAAAAAAAAAAAAAAAAAAAAAAAAAAAAAAAAAAAAAAAAAAAAAAAAAAAAAAAAAAAAAAAAAAAAAAAAAAAAAAAAAAAAAAAAAAAAAAAAAAAAAAAAAAAAAAAAAAAAAAAAAAAAAAAAAAAAAAAAAAAAAAAAAAAAAAAAAAAAAAAAAAAAAAAAAAAAAAAAAAAAAAAAAAAAAAAAAAAAAAAAAAAAAAAAAAAAAAAAAAAAAAAAAAAAAAAAAAAAAAAAAAAAAAAAAAAAAAAAAAAAAAAAAAAAAAAAAAAAAAAAAAAAAAAAAAAAAAAAAAAAAAAAAAAAAAAAAAAAAAAAAAAAAAAAAAAAAAAAAAAAAAAAAAAAAAAAAAAAAAAAAAAAAAAAAAAAAAAAAAAAAAAAAAAAAAAAAAAAAAAAAAAAAAAAAAAAAAAAAAAAAAAAAAAAAAAAAAAAAAAAAAAAAAAAAAAAAAAAAAAAAAAAAAAAAAAAAAAAAAAAAAAAAAAAAAAAAAAAAAAAAAAAAAAAAAAAAAAAAAAAAAAAAAAAAAAAAAAAAAAAAAAAAAAAAAAAAAAAAAAAAAAAAAAAAAAAAAAAAAAAAAAAAAAAAAAAAAAAAAAAAAAAAAAAAAAAAAAAAAAAAAAAAAAAAAAAAAAAAAAAAAAAAAAAAAAAAAAAAAAAAAAAAAAAAAAAAAAAAAAAAAAAAAAAAAAAAAAAAAAAAAAAAAAAAAAAAAAAAAAAAAAAAAAAAAAAAAAAAAAAAAAAAAAAAAAAAAAAAAAAAAAAAAAAAAAAAAAAAAAAAAAAAAAAAAAAAAAAAAAAAAAAAAAAAAAAAAAAAAAAAAAAAAAAAAAAAAAAAAAAAAAAAAAAAAAAAAAAAAAAAAAAAAAAAAAAAAAAAAAAAAAAAAAAAAAAAAAAAAAAAAAAAAAAAAAAAAAAAAAAAAAAAAAAAAAAAAAAAAAAAAAAAAAAAAAAAAAAAAAAAAAAAAAAAAAAAAAAAAAAAAAAAAAAAAAAAAAAAAAAAAAAAAAAAAAAAAAAAAAAAAAAAAAAAAAAAAAAAAAAAAAAAAAAAAAAAAAAAAAAAAAAAAAAAAAAAAAAAAAAAAAAAAAAAAAAAAAAAAAAAAAAAAAAAAAAAAAAAAAAAAAAAAAAAAAAAAAAAAAAAAAAAAAAAAAAAAAAAAAAAAAAAAAAAAAAAAAAAAAAAAAAAAAAAAAAAAAAAAAAAAAAAAAAAAAAAAAAAAAAAAAAAAAAAAAAAAAAAAAAAAAAAAAAAAAAAAAAAAAAAAAAAAAAAAAAAAAAAAAAAAAAAAAAAAAAAAAAAAAAAAAAAAAAAAAAAAAAAAAAAAAAAAAAAAAAAAAAAAAAAAAAAAAAAAAAAAAAAAAAAAAAAAAAAAAAAAAAAAAAAAAAAAAAAAAAAAAAAAAAAAAAAAAAAAAAAAAAAAAAAAAAAAAAAAAAAAAAAAAAAAAAAAAAAAAAAAAAAAAAAAAAAAAAAAAAAAAAAAAAAAAAAAAAAAAAAAAAAAAAAAAAAAAAAAAAAAAAAAAAAAAAAAD/6vw/VFOGPCjvdmMAAAAASUVORK5CYII=;fontFamily=Comic Sans MS;fontSize=17;fontColor=#000000;" parent="b2f48072-0d34-11eb-a445-79dba1f6157b" vertex="1" >
          <mxGeometry x="115" y="80" width="70" height="80" as="geometry" />
        </mxCell>
      </object>
      
      
      
    </root>
  </mxGraphModel>
